<svg id="Groupe_131" data-name="Groupe 131" xmlns="http://www.w3.org/2000/svg" xmlns:xlink="http://www.w3.org/1999/xlink" width="142.953" height="142.882" viewBox="0 0 142.953 142.882">
  <defs>
    <clipPath id="clip-path">
      <rect id="Rectangle_206" data-name="Rectangle 206" width="142.882" height="142.882" fill="none"/>
    </clipPath>
  </defs>
  <path id="Tracé_1217" data-name="Tracé 1217" d="M126.813,12H0L18.445,39.67H124.507L142.952,12Z" transform="translate(0 15.668)" fill="#1e1613"/>
  <g id="Groupe_130" data-name="Groupe 130" transform="translate(0)">
    <g id="Groupe_129" data-name="Groupe 129" clip-path="url(#clip-path)">
      <path id="Tracé_1218" data-name="Tracé 1218" d="M124.507,24H18.445L0,42.445H55.336V35.528a4.625,4.625,0,0,1,4.611-4.611H83a4.625,4.625,0,0,1,4.611,4.611v6.917h55.336Z" transform="translate(0 31.336)" fill="#1e1613"/>
      <path id="Tracé_1219" data-name="Tracé 1219" d="M94.922,54.2H81.088V47.28a4.625,4.625,0,0,0-4.611-4.611H53.419a4.625,4.625,0,0,0-4.611,4.611V54.2H21.14a4.8,4.8,0,0,1-1.153-.161,4.8,4.8,0,0,1-1.153.161H9.611a4.611,4.611,0,1,1,0-9.223h4.611a4.611,4.611,0,1,1,0-9.223H25.751a4.611,4.611,0,0,1,0-9.223h4.611a4.611,4.611,0,0,1,0-9.223h9.223a4.611,4.611,0,0,1,0,9.223H44.2a4.734,4.734,0,0,1,2.582.784,4.59,4.59,0,0,1,4.335-3.09h4.611a4.611,4.611,0,0,1,0-9.223h9.223a4.611,4.611,0,1,1,0,9.223H83.393A4.625,4.625,0,0,1,88,28.834h.646a4.537,4.537,0,0,1,3.966-2.306h18.445a4.611,4.611,0,1,1,0,9.223H124.9a4.611,4.611,0,0,1,0,9.223,4.611,4.611,0,0,1,0,9.223H94.922Z" transform="translate(6.528 19.585)" fill="#ffc052"/>
      <path id="Tracé_1220" data-name="Tracé 1220" d="M126.236,66.585,127.2,55.08l.945-11.551L129.118,32h13.834l-5.672,56.72a13.851,13.851,0,0,1-13.765,12.451H19.437A13.851,13.851,0,0,1,5.672,88.72L0,32H13.834L14.8,43.528l.761,9.269,1.522,18.238L17.915,81a6.926,6.926,0,0,0,6.894,6.341h93.334A6.926,6.926,0,0,0,125.037,81l.231-2.813Z" transform="translate(0 41.782)" fill="#5b5a61"/>
      <path id="Tracé_1221" data-name="Tracé 1221" d="M60.952,20.751c-1.5-8.531-5.764-11.736-8.508-12.981a4.073,4.073,0,0,1-2.4-3.159A4.476,4.476,0,0,1,50,4.058,4.064,4.064,0,0,1,54.058,0h.553A21.24,21.24,0,0,1,70.89,7.793c4.2,4.888,6.779,11.805,6.779,19.875H61.528a38.221,38.221,0,0,0-.576-6.917" transform="translate(65.284)" fill="#a8a5b3"/>
      <path id="Tracé_1222" data-name="Tracé 1222" d="M79.5,32l-.968,11.528H38V32H79.5Z" transform="translate(49.616 41.782)" fill="#c0baba"/>
      <path id="Tracé_1223" data-name="Tracé 1223" d="M82.419,19.834H34V6c9.223,0,23.057,0,32,.023a10.592,10.592,0,0,1,2.582.161c.807.208,1.5.715,1.43,1.268-.046.392-.461.738-.9,1.015-1.545,1.015-3.643,1.591-5.326,2.513-.346.184-.715.461-.553.761a1.158,1.158,0,0,0,.6.323,17.109,17.109,0,0,0,4.242.53c6.364.277,7.378.323,13.765.323a38.221,38.221,0,0,1,.576,6.917" transform="translate(44.393 7.834)" fill="#d69250"/>
      <path id="Tracé_1224" data-name="Tracé 1224" d="M73.335,5.159c2.744,1.245,7.009,4.45,8.508,12.981-6.387,0-7.4-.046-13.765-.323a17.109,17.109,0,0,1-4.242-.53,1.159,1.159,0,0,1-.6-.323c-.161-.3.208-.576.553-.761,1.683-.922,3.781-1.5,5.326-2.513.438-.277.853-.623.9-1.015.069-.553-.623-1.061-1.43-1.268A10.592,10.592,0,0,0,66,11.246c-8.946-.023-22.78-.023-32-.023V2H70.937a4.073,4.073,0,0,0,2.4,3.159" transform="translate(44.393 2.611)" fill="#9b6244"/>
      <path id="Tracé_1225" data-name="Tracé 1225" d="M56.28,50.057v4.611a4.625,4.625,0,0,1-4.611,4.611H28.611A4.625,4.625,0,0,1,24,54.668V31.611A4.625,4.625,0,0,1,28.611,27H51.668a4.625,4.625,0,0,1,4.611,4.611V50.057Zm-6.917-16.14H30.917V52.363H49.363Z" transform="translate(31.336 35.254)" fill="#545359"/>
      <rect id="Rectangle_204" data-name="Rectangle 204" width="18.185" height="18.185" transform="translate(62.349 68.843)" fill="#443a38"/>
      <path id="Tracé_1226" data-name="Tracé 1226" d="M28,8.917V2H41.834V25.057H28Z" transform="translate(36.559 2.611)" fill="#c0baba"/>
      <path id="Tracé_1227" data-name="Tracé 1227" d="M55.419,5V21.14H7a38.221,38.221,0,0,1,.576-6.917c6.64,0,12.013-.069,18.376-.415a13.76,13.76,0,0,0,4.242-.715,1.209,1.209,0,0,0,.6-.461c.161-.369-.208-.738-.553-.991C28.558,10.4,26.46,9.634,24.915,8.3a2.206,2.206,0,0,1-.9-1.36,1.881,1.881,0,0,1,1.43-1.706,8,8,0,0,1,2.582-.208C36.236,5,46.635,5,55.419,5" transform="translate(9.14 6.528)" fill="#9b6244"/>
      <path id="Tracé_1228" data-name="Tracé 1228" d="M55.093,2V8.917c-8.785,0-19.183,0-27.392.023a8,8,0,0,0-2.582.208,1.881,1.881,0,0,0-1.43,1.706,2.206,2.206,0,0,0,.9,1.36c1.545,1.337,3.643,2.1,5.326,3.343.346.254.715.623.553.991a1.209,1.209,0,0,1-.6.461,13.76,13.76,0,0,1-4.242.715c-6.364.346-11.736.415-18.376.415C8.749,9.609,13.014,6.4,15.758,5.159A4.073,4.073,0,0,0,18.156,2H55.093Z" transform="translate(9.466 2.611)" fill="#d69250"/>
      <path id="Tracé_1229" data-name="Tracé 1229" d="M47.5,32V43.528H6.968L6,32H47.5Z" transform="translate(7.834 41.782)" fill="#c0baba"/>
      <path id="Tracé_1230" data-name="Tracé 1230" d="M119.768,37l-.945,11.551-.392-.023a164,164,0,0,0-30.389,2.836,2.323,2.323,0,0,0-1.66.83,3.1,3.1,0,0,0-.184,1.66c.092,2.79-1.937,5.211-4.173,6.894-4.888,3.6-11.09,4.957-17.108,5.741-6.041.761-12.2,1.061-17.984,2.951S35.31,75.136,33.12,80.808H16.427a6.926,6.926,0,0,1-6.894-6.341L8.7,64.507c9.5-1.522,19.529-3.8,28.383-7.355A16.211,16.211,0,0,0,41.928,54.5a.979.979,0,0,0,.392-.53c.115-.484-.415-.853-.853-1.061-10.422-4.842-22.9-2.813-33.709-6.687l-.576.046L6.42,37H46.954v4.611a4.625,4.625,0,0,0,4.611,4.611H74.622a4.625,4.625,0,0,0,4.611-4.611V37Z" transform="translate(8.383 48.31)" fill="#d69250"/>
      <path id="Tracé_1231" data-name="Tracé 1231" d="M103.7,42.023l-.968,11.505c-9.315.046-17.431,1.337-25.478,5.649-.023.023-.069.046-.092.069a2.738,2.738,0,0,0,1.084,5.188h.046c8.139.623,14.48.623,22.619.623l.853.069-.231,2.813a6.926,6.926,0,0,1-6.894,6.341H18c2.19-5.672,8.024-9.476,13.811-11.367s11.943-2.19,17.984-2.951c6.018-.784,12.22-2.144,17.108-5.741,2.237-1.683,4.266-4.1,4.173-6.894a3.1,3.1,0,0,1,.184-1.66,2.323,2.323,0,0,1,1.66-.83A164,164,0,0,1,103.31,42Z" transform="translate(23.502 54.839)" fill="#9b6244"/>
      <path id="Tracé_1232" data-name="Tracé 1232" d="M70.093,47l-.968,11.6-.853-.069c-8.139,0-14.48,0-22.619-.623h-.046a2.738,2.738,0,0,1-1.084-5.188c.023-.023.069-.046.092-.069,8.047-4.312,16.163-5.6,25.478-5.649" transform="translate(56.144 61.367)" fill="#d69250"/>
      <path id="Tracé_1233" data-name="Tracé 1233" d="M41.036,47.686c.438.208.968.576.853,1.061a.979.979,0,0,1-.392.53,16.21,16.21,0,0,1-4.842,2.652C27.8,55.48,17.771,57.762,8.272,59.284L6.75,41.046,7.326,41c10.814,3.874,23.287,1.845,33.709,6.686" transform="translate(8.813 53.533)" fill="#9b6244"/>
      <path id="Tracé_1234" data-name="Tracé 1234" d="M16.716,20.751a38.221,38.221,0,0,0-.576,6.917H0C0,19.6,2.582,12.681,6.779,7.793A21.24,21.24,0,0,1,23.057,0h.553a4.064,4.064,0,0,1,4.058,4.058,4.477,4.477,0,0,1-.046.553,4.073,4.073,0,0,1-2.4,3.159c-2.744,1.245-7.009,4.45-8.508,12.981" fill="#a8a5b3"/>
      <path id="Tracé_1235" data-name="Tracé 1235" d="M124.9,44.974a4.611,4.611,0,0,0,0-9.223H111.062a4.611,4.611,0,1,0,0-9.223H92.616a4.537,4.537,0,0,0-3.966,2.306H88a4.625,4.625,0,0,0-4.611-4.611H64.948a4.611,4.611,0,1,0,0-9.223H55.725a4.611,4.611,0,0,0,0,9.223H51.114a4.59,4.59,0,0,0-4.335,3.09,4.734,4.734,0,0,0-2.582-.784H39.585a4.611,4.611,0,0,0,0-9.223H30.363a4.611,4.611,0,0,0,0,9.223H25.751a4.611,4.611,0,0,0,0,9.223H14.223a4.611,4.611,0,1,0,0,9.223H9.611a4.611,4.611,0,1,0,0,9.223h.643a4.553,4.553,0,0,1-.643-2.306,4.625,4.625,0,0,1,4.611-4.611H25.751a4.611,4.611,0,0,1,0-9.223h4.611a4.611,4.611,0,1,1,0-9.223h9.223a4.611,4.611,0,1,1,0,9.223H44.2a4.734,4.734,0,0,1,2.582.784,4.59,4.59,0,0,1,4.335-3.09h4.611a4.611,4.611,0,0,1,0-9.223h9.223a4.611,4.611,0,1,1,0,9.223H83.393A4.625,4.625,0,0,1,88,40.363h.646a4.537,4.537,0,0,1,3.966-2.306h18.445a4.611,4.611,0,1,1,0,9.223H124.9a4.619,4.619,0,0,1,4.448,3.459,4.534,4.534,0,0,0,.164-1.153,4.625,4.625,0,0,0-4.611-4.611" transform="translate(6.528 19.585)" fill="#ffdf75"/>
      <path id="Tracé_1236" data-name="Tracé 1236" d="M26,52.057H49.057V29H26Zm2.306-20.751H46.751V49.751H28.306Z" transform="translate(33.948 37.865)" fill="#323236"/>
      <path id="Tracé_1237" data-name="Tracé 1237" d="M42.611,34.306V32H38V43.528H78.534l.387-4.611h-31.7a4.61,4.61,0,0,1-4.611-4.611" transform="translate(49.616 41.782)" fill="#7d7b85"/>
      <path id="Tracé_1238" data-name="Tracé 1238" d="M37.951,38.917H6.252l.387,4.611H47.173V32H42.562v2.306a4.61,4.61,0,0,1-4.611,4.611" transform="translate(8.163 41.782)" fill="#7d7b85"/>
      <path id="Tracé_1239" data-name="Tracé 1239" d="M9.751,42.954l3.2,38.422A11.527,11.527,0,0,0,24.44,91.948h94.07A11.528,11.528,0,0,0,130,81.376l3.2-38.422a6.915,6.915,0,0,1,6.892-6.343h2.4L142.952,32H129.118l-.968,11.528L127.2,55.08l-.968,11.505-.968,11.6L125.037,81a6.926,6.926,0,0,1-6.894,6.341H24.809A6.926,6.926,0,0,1,17.915,81l-.83-9.961L15.563,52.8,14.8,43.528,13.834,32H0l.461,4.611h2.4a6.917,6.917,0,0,1,6.894,6.343" transform="translate(0 41.782)" fill="#3c3b40"/>
      <path id="Tracé_1240" data-name="Tracé 1240" d="M12.768,47.608l-.4-6H46.954V37H6.42l.761,9.269.576-.046a38.376,38.376,0,0,0,5.01,1.386" transform="translate(8.383 48.31)" fill="#bd722a"/>
      <path id="Tracé_1241" data-name="Tracé 1241" d="M17.7,61.141a4.611,4.611,0,0,1-4.6-4.3l-.553-8.305c-1.715.32-3.438.648-5.13.92l.83,9.961a6.926,6.926,0,0,0,6.894,6.341H31.827a15.13,15.13,0,0,1,2.914-4.611Z" transform="translate(9.675 63.366)" fill="#bd722a"/>
      <path id="Tracé_1242" data-name="Tracé 1242" d="M28.611,48.223H51.668a4.61,4.61,0,0,0,4.611-4.611V39a4.625,4.625,0,0,1-4.611,4.611H28.611A4.625,4.625,0,0,1,24,39v4.611a4.61,4.61,0,0,0,4.611,4.611" transform="translate(31.336 50.922)" fill="#bd722a"/>
      <path id="Tracé_1243" data-name="Tracé 1243" d="M38,37v4.611H72.585l-.468,7.035c1.692-.053,3.385-.118,5.079-.118l.392.023L78.534,37Z" transform="translate(49.616 48.31)" fill="#bd722a"/>
      <path id="Tracé_1244" data-name="Tracé 1244" d="M96.7,52l-.021.311a4.611,4.611,0,0,1-4.6,4.3H20.914A15.086,15.086,0,0,0,18,61.225H94.641a6.924,6.924,0,0,0,6.892-6.341l.233-2.813L100.912,52c-1.46,0-2.848,0-4.212,0" transform="translate(23.502 67.893)" fill="#734832"/>
      <path id="Tracé_1245" data-name="Tracé 1245" d="M53.236,42.118l-.775,11.609c1.725-.115,3.472-.189,5.278-.2l.968-11.505L58.315,42c-1.695,0-3.387.065-5.079.118" transform="translate(68.498 54.839)" fill="#734832"/>
      <path id="Tracé_1246" data-name="Tracé 1246" d="M52.133,58.524c1.365,0,2.753,0,4.212,0l.853.069L58.167,47c-1.808.009-3.555.083-5.28.2Z" transform="translate(68.069 61.367)" fill="#bd722a"/>
      <path id="Tracé_1247" data-name="Tracé 1247" d="M12.337,42.386A38.376,38.376,0,0,1,7.326,41l-.576.046L8.272,59.284c1.692-.272,3.412-.6,5.13-.92Z" transform="translate(8.813 53.533)" fill="#734832"/>
      <path id="Tracé_1248" data-name="Tracé 1248" d="M52.707,8.991a33.084,33.084,0,0,1,.676,6.938h4.611a38.221,38.221,0,0,0-.576-6.917c-1.992,0-3.438-.007-4.711-.021" transform="translate(68.819 11.739)" fill="#bd722a"/>
      <path id="Tracé_1249" data-name="Tracé 1249" d="M50.942,7.275c2.67,1.054,6.4,3.8,7.909,10.844,1.273.014,2.718.021,4.713.021C62.065,9.609,57.8,6.4,55.055,5.159A4.073,4.073,0,0,1,52.657,2H48v.985a4.607,4.607,0,0,0,2.942,4.291" transform="translate(62.673 2.611)" fill="#734832"/>
      <path id="Tracé_1250" data-name="Tracé 1250" d="M7.576,9.009A38.221,38.221,0,0,0,7,15.926h4.611a33.053,33.053,0,0,1,.676-6.933c-1.517.012-3.073.016-4.711.016" transform="translate(9.14 11.742)" fill="#734832"/>
      <path id="Tracé_1251" data-name="Tracé 1251" d="M19.871,7.275a4.607,4.607,0,0,0,2.942-4.291V2H18.156a4.073,4.073,0,0,1-2.4,3.159C13.014,6.4,8.749,9.609,7.25,18.14c1.637,0,3.193,0,4.711-.016,1.506-7.048,5.239-9.795,7.911-10.848" transform="translate(9.466 2.611)" fill="#bd722a"/>
      <path id="Tracé_1252" data-name="Tracé 1252" d="M70.751,21.339a4.61,4.61,0,0,1-4.611-4.611A13.833,13.833,0,0,0,52.306,2.893a2.282,2.282,0,0,1-2.158-1.577A3.965,3.965,0,0,0,50,2.34a4.476,4.476,0,0,0,.046.553,4.073,4.073,0,0,0,2.4,3.159c2.744,1.245,7.009,4.45,8.508,12.981a38.221,38.221,0,0,1,.576,6.917h16.14a35.685,35.685,0,0,0-.32-4.611Z" transform="translate(65.284 1.718)" fill="#7d7b85"/>
      <path id="Tracé_1253" data-name="Tracé 1253" d="M25.363,2.893A13.833,13.833,0,0,0,11.528,16.727a4.61,4.61,0,0,1-4.611,4.611H.32A35.685,35.685,0,0,0,0,25.95H16.14a38.221,38.221,0,0,1,.576-6.917C18.215,10.5,22.48,7.3,25.224,6.052a4.073,4.073,0,0,0,2.4-3.159,4.477,4.477,0,0,0,.046-.553,3.964,3.964,0,0,0-.148-1.024,2.282,2.282,0,0,1-2.158,1.577" transform="translate(0 1.718)" fill="#7d7b85"/>
      <path id="Tracé_1254" data-name="Tracé 1254" d="M32.306,41.223h0A2.307,2.307,0,0,1,30,38.917V34.306a2.306,2.306,0,1,1,4.611,0v4.611a2.307,2.307,0,0,1-2.306,2.306" transform="translate(39.171 41.782)" fill="#ffaf3f"/>
      <path id="Tracé_1255" data-name="Tracé 1255" d="M68.336,67.223H17.611a4.611,4.611,0,0,1,0-9.223H68.336a4.611,4.611,0,0,1,0,9.223" transform="translate(16.974 75.73)" fill="#67666e"/>
      <path id="Tracé_1256" data-name="Tracé 1256" d="M51.223,67.223H46.611a4.611,4.611,0,1,1,0-9.223h4.611a4.611,4.611,0,0,1,0,9.223" transform="translate(54.839 75.73)" fill="#67666e"/>
      <path id="Tracé_1257" data-name="Tracé 1257" d="M62.611,36.306A2.306,2.306,0,1,1,60.306,34a2.307,2.307,0,0,1,2.306,2.306" transform="translate(75.73 44.393)" fill="#ffaf3f"/>
      <path id="Tracé_1258" data-name="Tracé 1258" d="M58.611,59.306A2.306,2.306,0,1,1,56.306,57a2.307,2.307,0,0,1,2.306,2.306" transform="translate(70.507 74.424)" fill="#ffaf3f"/>
      <path id="Tracé_1259" data-name="Tracé 1259" d="M10.611,59.306A2.306,2.306,0,1,1,8.306,57a2.307,2.307,0,0,1,2.306,2.306" transform="translate(7.834 74.424)" fill="#ffaf3f"/>
      <path id="Tracé_1260" data-name="Tracé 1260" d="M6.611,36.306A2.306,2.306,0,1,1,4.306,34a2.307,2.307,0,0,1,2.306,2.306" transform="translate(2.611 44.393)" fill="#ffaf3f"/>
      <path id="Tracé_1261" data-name="Tracé 1261" d="M61.987,38.917H50.459a3.459,3.459,0,0,1,0-6.917H61.987a3.459,3.459,0,0,1,0,6.917" transform="translate(61.367 41.782)" fill="#d4cbcc"/>
      <path id="Tracé_1262" data-name="Tracé 1262" d="M21.987,38.917H10.459a3.459,3.459,0,0,1,0-6.917H21.987a3.459,3.459,0,0,1,0,6.917" transform="translate(9.14 41.782)" fill="#d4cbcc"/>
      <path id="Tracé_1263" data-name="Tracé 1263" d="M49.07,38.917H44.459a3.459,3.459,0,0,1,0-6.917H49.07a3.459,3.459,0,0,1,0,6.917" transform="translate(53.533 41.782)" fill="#d4cbcc"/>
      <path id="Tracé_1264" data-name="Tracé 1264" d="M24.07,38.917H19.459a3.459,3.459,0,1,1,0-6.917H24.07a3.459,3.459,0,0,1,0,6.917" transform="translate(20.891 41.782)" fill="#d4cbcc"/>
      <rect id="Rectangle_205" data-name="Rectangle 205" width="12.989" height="6.495" transform="translate(64.946 5.196)" fill="#e0d7d8"/>
    </g>
  </g>
</svg>
