<svg xmlns="http://www.w3.org/2000/svg" xmlns:xlink="http://www.w3.org/1999/xlink" width="978.228" height="1145" viewBox="0 0 978.228 1145">
  <defs>
    <clipPath id="clip-path">
      <rect id="Rectangle_406" data-name="Rectangle 406" width="855" height="535.156" fill="none"/>
    </clipPath>
    <clipPath id="clip-path-2">
      <path id="Tracé_2207" data-name="Tracé 2207" d="M593.615,205.862c0,2.728,3.017,4.939,6.738,4.939s6.737-2.211,6.737-4.939-3.016-4.94-6.737-4.94-6.738,2.212-6.738,4.94" fill="none"/>
    </clipPath>
    <clipPath id="clip-path-3">
      <path id="Tracé_2210" data-name="Tracé 2210" d="M567.929,205.482c0,2.728,3.017,4.939,6.738,4.939s6.737-2.211,6.737-4.939-3.016-4.939-6.737-4.939-6.738,2.211-6.738,4.939" fill="none"/>
    </clipPath>
    <clipPath id="clip-path-5">
      <rect id="Rectangle_408" data-name="Rectangle 408" width="978.228" height="1145" fill="none"/>
    </clipPath>
  </defs>
  <g id="Groupe_602" data-name="Groupe 602" transform="translate(-245 -227.5)">
    <g id="Groupe_601" data-name="Groupe 601" transform="translate(62)">
      <g id="Groupe_592" data-name="Groupe 592" transform="translate(202 227.5)">
        <g id="Groupe_591" data-name="Groupe 591" clip-path="url(#clip-path)">
          <path id="Tracé_2121" data-name="Tracé 2121" d="M50.978,433.608c0,208.4,168.94,377.338,377.338,377.338s377.339-168.94,377.339-377.338S636.714,56.27,428.316,56.27,50.978,225.21,50.978,433.608" fill="#8a46ea"/>
          <path id="Tracé_2122" data-name="Tracé 2122" d="M354.909,329.3c-5.616,3.676-11.076,4.039-20.659,4.554a116.678,116.678,0,0,1-27.477-1.813c-6.33-.82-11.743-1.627-15.993-2.3-9.181-1.451-13.688-2.393-14.2-4.838a2.967,2.967,0,0,1,.51-2.17c2.03-2.742,8.172-.257,17.956.716a77.369,77.369,0,0,0,9.868.35c.107-.186.214-.373.322-.559-8.873-2.053-31.125-7.711-31.487-14.482a3.311,3.311,0,0,1,.75-2.509c2.211-2.184,8.366,1.263,15.289,4.155a109.661,109.661,0,0,0,18.866,5.9c.062-.209.125-.418.186-.627-14.731-6.524-33.413-15.964-32.327-21.673a3.177,3.177,0,0,1,1.138-1.983c2.469-1.787,6.763,2.391,16.422,7.225a142.883,142.883,0,0,0,17.262,7.045c1.993.694,3.648,1.228,4.755,1.577.159-.226.318-.452.475-.678-8.376-5.283-25.712-16.842-24.1-22.223a2.856,2.856,0,0,1,1.189-1.694c2.027-1.173,5.35,1.542,12.522,7.017,9.2,7.02,11.663,8.61,15.391,9.673a32.2,32.2,0,0,0,6.987,1.043,64.994,64.994,0,0,0,18.223-1.191c8.914-1.2,16.988,2.165,19.506,7.873,3.54,8.019-5.24,17.594-11.367,21.606" fill="#ffb1a9"/>
          <path id="Tracé_2123" data-name="Tracé 2123" d="M365.935,307.312s-7.739-10.456-17.842-17.545-14.474-15.183-16.838-11.815-1.86,6.232,2.009,11.461,1.507,8.6,5.879,16.689,26.792,1.21,26.792,1.21" fill="#ffb1a9"/>
          <path id="Tracé_2124" data-name="Tracé 2124" d="M343.8,320c-10.57-9.376-7.681-18.937-7.651-19.032l.837.266-.418-.133.418.133c-.028.09-2.726,9.131,7.4,18.109Z" fill="#ff7e7a"/>
          <path id="Tracé_2125" data-name="Tracé 2125" d="M566.429,278.005,461,343,360.237,307.807,347.423,331.2S395,392,467.492,401.057C496.495,404.68,577,338,577,338Z" fill="#ddc6fd"/>
          <path id="Tracé_2126" data-name="Tracé 2126" d="M453.276,361.227a.992.992,0,0,1-.907-.584c-.146-.321-3.45-8.013,7.958-18.383a1,1,0,1,1,1.345,1.48c-10.244,9.312-7.6,15.814-7.478,16.086a1,1,0,0,1-.918,1.4" fill="#fff"/>
          <path id="Tracé_2127" data-name="Tracé 2127" d="M274.112,164.957s19.115-19.115,45.4,4.779c14.472,13.156,20.975,21.966,23.5,30.816,2.143,7.516-.513,8.932.4,24.141a161.983,161.983,0,0,0,3.584,25.088c11.139,54.371,19.229,93.856,2.254,109.937-4.683,4.436-17.977,5.715-44.6,7.87-17.557,1.421-34.848,2.727-57.715,0-19.05-2.273-30.833-3.678-44.6-10.494-21.133-10.465-33.316-26.941-39.35-36.727,14.639-25.3,27.437-39.161,36.727-47.22A169.713,169.713,0,0,0,220.7,252.159a208.71,208.71,0,0,0,12.71-17.2,113.436,113.436,0,0,0,9.369-15.655,65.435,65.435,0,0,0,5.051-16.116c4.779-23.894,0-52.567,26.284-38.231" fill="#03025f"/>
          <path id="Tracé_2128" data-name="Tracé 2128" d="M222.744,307.047a.5.5,0,0,1-.346-.861,163.1,163.1,0,0,0,33.558-45.827.5.5,0,0,1,.9.442,164.131,164.131,0,0,1-33.764,46.107.5.5,0,0,1-.346.139" fill="#fff"/>
          <path id="Tracé_2129" data-name="Tracé 2129" d="M311.332,286.581a.5.5,0,0,1-.476-.652A89.81,89.81,0,0,0,314.747,251a.5.5,0,1,1,1-.087,90.789,90.789,0,0,1-3.935,35.318.5.5,0,0,1-.476.348" fill="#fff"/>
          <path id="Tracé_2130" data-name="Tracé 2130" d="M430.5,1010.686a177.434,177.434,0,0,1-27.169,11.2c-.5.165-.994.316-1.491.467a174.735,174.735,0,0,1-17.977,4.551c-5.967,1.19-11.724,1.989-17.254,2.531l-1.492.136c-1.492.12-2.968.241-4.415.331-1.371.091-2.727.151-4.068.211a176.225,176.225,0,0,1-21.051-.407c-.512-.03-1.025-.06-1.522-.12a178.019,178.019,0,0,1-19.152-2.682q-.61-8.793-1.191-17.284c-.135-2.08-.271-4.159-.406-6.208q-.68-10.037-1.251-19.575c-.106-1.491-.2-2.953-.256-4.384-.784-12.658-1.462-24.653-2.065-35.879-.12-2.094-.226-4.174-.331-6.208-.708-13.336-1.281-25.526-1.763-36.481-.091-1.914-.166-3.752-.272-5.576-.2-5.108-.406-9.915-.587-14.42-.061-1.356-.106-2.682-.151-4.008-.09-2.035-.166-4.039-.241-6.013-.136-3.661-.271-7.188-.392-10.623-.09-2.23-.15-4.43-.211-6.57-.557-15.867-.934-29.7-1.281-42.871-.045-2.034-.09-4.038-.15-6.027-.045-1.627-.076-3.224-.121-4.837l-.18-6.69c-.166-7.007-.347-14.029-.573-21.262-.045-1.733-.106-3.5-.151-5.259-.211-7.037-.452-14.315-.723-22.045-.06-1.974-.136-3.978-.211-6.013-.437-12.07-.98-25.27-1.688-40.308-.181-3.647-.633-10.7-1.251-19.755-.12-1.914-.271-3.918-.422-6-1.175-17.238-2.817-39.72-4.339-60.048-.151-2.019-.3-4.023-.452-6-.543-7.248-1.07-14.089-1.537-20.192-1.251-16.154-2.125-27.033-2.14-25.918q-.135,12.929-.317,25.933-.135,10.149-.286,20.312l-.09,6.013q-.476,29.994-1.145,60.274c-.031,2-.076,4.024-.136,6.028q-.656,29.994-1.552,60.289c-.045,2-.106,4.008-.166,6.012q-.452,15.166-.934,30.394c-.045,1.6-.106,3.224-.166,4.852-.015.844-.045,1.718-.075,2.592-.061,2.049-.136,4.1-.211,6.163q-.271,8.137-.573,16.3c-.06,2-.135,4.008-.211,6.028q-.113,3.186-.226,6.374c-.346,9.583-.587,19.905-.8,30.966-.015,1.521-.061,3.058-.076,4.626-.015,1.175-.045,2.365-.06,3.571-.015,1.356-.06,2.712-.075,4.083-.061,3.481-.136,7.038-.2,10.654-.03,1.989-.076,3.993-.106,6.027-.346,16.8-.768,34.929-1.567,54.293-.075,2-.166,4.008-.256,6.042-.09,2.05-.2,4.129-.3,6.208-.166,3.466-.347,6.962-.543,10.518-.874,15.792-2,32.338-3.556,49.621-.181,2.065-.377,4.129-.573,6.223l-.045.453c-.181,2.169-.407,4.369-.633,6.569q-.633,6.488-1.356,13.08-5.289.543-11.422.844c-.5.03-1.01.045-1.507.075a220.47,220.47,0,0,1-31.885-1.024c-.5-.046-.995-.091-1.492-.166q-6.079-.656-12.507-1.748a212.629,212.629,0,0,1-22.422-5.033c-.512-.136-1.01-.271-1.507-.407a220.967,220.967,0,0,1-24.743-8.755q.386-5.605.739-11.12c.151-2.1.286-4.174.422-6.239,1.416-21.066,2.7-40.986,3.873-59.641.135-2.1.256-4.174.376-6.239q.814-12.793,1.537-24.773c.091-1.431.166-2.833.256-4.2q.972-16.139,1.824-30.634c.12-2.034.226-4.054.346-6.043.5-8.589.965-16.726,1.387-24.365.09-1.357.15-2.713.226-4.039q.633-11.527,1.175-21.458.271-5.108.542-10.1c.106-2.034.211-4.038.317-6.042,1.13-21.247,2.155-41.077,3.24-59.973.1-2.02.226-4.039.346-6.028q.2-3.525.407-7.007c.076-1.567.181-3.1.256-4.656,1.025-16.636,2.11-32.608,3.376-48.219.15-2,.316-4.009.482-6,1.687-20.146,3.692-39.781,6.268-59.626q.092-.724.181-1.447c.181-1.371.362-2.772.573-4.174.015-.12.03-.226.045-.347,1.462-10.834,3.074-21.743,4.912-32.849,2.035-12.341,4.325-24.923,6.917-37.913q.406-2.057.859-4.159c.211-1.085.437-2.17.663-3.254.723-3.511,1.462-7.067,2.26-10.654q.384-1.876.814-3.8c.03-.211.09-.437.135-.663,2.969-13.5,5.636-24.622,7.49-32.142.873-1.763,1.717-3.556,2.576-5.319.6-1.235,1.206-2.456,1.793-3.692,2.758-5.65,5.516-11.331,8.288-17l109.5-6.073c2.682,11.106,5.907,24.818,9.553,40.716.467,2.125.98,4.294,1.462,6.509h.015c1.959,8.665,4.023,17.917,6.148,27.681q1.538,6.985,3.1,14.316c2.848,13.275,5.274,24.953,7.4,35.456.1.527.211,1.055.316,1.567.377,1.824.724,3.6,1.07,5.365,1.371,6.841,2.592,13.185,3.737,19.152.181,1,.362,1.989.542,2.953q.114.588.227,1.176c.3,1.612.587,3.194.874,4.746,3.857,21.112,6.57,38.124,9.839,58.18.317,1.944.648,3.918.965,5.937,1.16,7.007,2.411,14.451,3.8,22.588.211,1.417.482,2.833.724,4.295.12.708.24,1.416.361,2.14.588,3.345,1.145,6.569,1.7,9.7.241,1.461.512,2.908.753,4.324q1.4,7.888,2.667,14.813c.362,2.049.724,4.023,1.07,5.922,3.134,17.163,5.455,29.112,6.54,34.914,1.236,6.6,2.546,14.059,3.888,22.558.316,1.928.617,3.917.934,5.967,1.16,7.549,2.381,15.852,3.6,25.013.362,2.848.754,5.787,1.131,8.785q1.424,11.211,2.908,24.05c.226,1.989.452,3.993.693,6.042,2.034,18.143,4.1,38.727,6.208,62.128.181,2.065.362,4.159.543,6.269.437,4.912.874,9.96,1.311,15.114q.225,2.757.452,5.56,1.514,18.06,2.983,38.124c.166,2.079.317,4.189.467,6.3q.633,8.544,1.251,17.465" fill="#ed3b5e"/>
          <path id="Tracé_2131" data-name="Tracé 2131" d="M420.731,150.522l-.223-13.916a184.919,184.919,0,0,1-1.77-23.635c-.223-13.916.834-34.813,3.617-34.857s2.828,2.739,2.962,11.088,1.637,15.285,4.375,12.458,18.814-42.06,21.553-44.888,4.219,2.716,2.894,6.913-7.993,22.4-7.993,22.4l2.784-.045s17.622-29.514,20.406-29.558,2.827,2.739,1.5,6.936-12.146,23.858-12.146,23.858l.62.483c4.556-6.076,7.98-11.085,10.29-14.578,2.936-4.44,5.808-9.054,8.216-8.483a2.4,2.4,0,0,1,1.377,1.063c1.859,2.934-3.121,8.433-8.045,17.139a93.62,93.62,0,0,0-5.389,11.222l1.415,1.37s12.485-15.245,14.755-13.714a1.159,1.159,0,0,1,.351.944c.223,4.508-4.053,9.147-8.126,14.05-.04.048-2.751,3.787-8.172,11.266a95.18,95.18,0,0,0-13.741,26.789,79.234,79.234,0,0,0-3.525,24.991s-12.368,9.941-27.988-9.3" fill="#ffb1a9"/>
          <path id="Tracé_2132" data-name="Tracé 2132" d="M215.764,490.818s63.823,21.351,136.529,1.266l-4.232-18.453L219,477Z" fill="#03025f"/>
          <path id="Tracé_2133" data-name="Tracé 2133" d="M449.712,138.123a400.8,400.8,0,0,1-4.521,60.275c-3.541,23.491-5.454,35.486-12.054,48.219-8.484,16.349-20.675,26.37-44.182,44.739-.828.648-1.672,1.3-2.531,1.974-4.792,3.737-10.277,7.881-16.485,12.341-10.2,7.323-22.3,15.46-36.255,23.823-1.01-3.013-2-6.027-3.014-9.041q1.515-19.6,3.014-39.178l36.707-27.35c1.446-1.07,2.878-2.155,4.324-3.224,11.935-8.891,21.069-20.114,33-29.02,3.511-29.128,9.852-55.937,13.364-85.065q14.307.746,28.63,1.507" fill="#ffb1a9"/>
          <path id="Tracé_2134" data-name="Tracé 2134" d="M350,482c-14.571,8.559-36,12-63,11-25.063-.928-53.429-7.456-68-16-12-6-6.649-44.783-2.1-73.865,1.778-11.332,3.044-20.072,3.9-26.581a136.4,136.4,0,0,0,1.311-13.668,125.257,125.257,0,0,1,.512-13.863c.738-8.016,3.466-29.911,7.052-53.719,36.752-20.84,83.239-18.881,115.637-18.776q4.746,29.5,9.463,58.994C363.324,406.344,363,472,350,482" fill="#fff"/>
          <path id="Tracé_2135" data-name="Tracé 2135" d="M308.174,225.661q-.626,12.173-1.25,24.305c-.326,6.181-.653,12.38-.959,18.562-.011.322-.045.663-.056.985q-.372,6.854-.7,13.67a13.545,13.545,0,0,1-3.39,8.217,21.632,21.632,0,0,1-12.957,7.286,23.1,23.1,0,0,1-19.273-6.275A13.669,13.669,0,0,1,265.245,282l2.078-58.01c.286-7.986,7.709-14.2,16.562-13.88l8.79.315c8.937.32,15.914,7.179,15.5,15.237" fill="#ffb1a9"/>
          <path id="Tracé_2136" data-name="Tracé 2136" d="M306.764,254.2q-.515,10.292-1.027,20.584c-18.3-5.908-19.893-27.093-19.893-27.093Z" fill="#ed3b5e"/>
          <path id="Tracé_2137" data-name="Tracé 2137" d="M274.573,224.517c-.164,4.548-3.542,8.119-7.547,7.975s-7.12-3.946-6.957-8.494,3.542-8.119,7.547-7.976,7.12,3.947,6.957,8.495" fill="#ffb1a9"/>
          <path id="Tracé_2138" data-name="Tracé 2138" d="M274.105,237.586s15.968,27.2,40.312,23.226,7.605-77.175,7.605-77.175c-.3,4.114-27.328-7.343-31.022-4.637-10.744,7.871-6.475,5.114-14.63,12.346-2.209,1.96-2.033,4.62-2.028,18.253,0,12.071-.128,21.794-.237,27.987" fill="#ffb1a9"/>
          <path id="Tracé_2139" data-name="Tracé 2139" d="M358.908,528.607c-15.082,0-25.216-11.428-28.6-32.339a1,1,0,0,1,1.975-.32c3.3,20.367,13.186,31.254,27.827,30.634a.983.983,0,0,1,1.041.957,1,1,0,0,1-.957,1.041q-.646.027-1.282.027" fill="#03025f"/>
          <path id="Tracé_2140" data-name="Tracé 2140" d="M291,451c-10.548,7.534-8.452,10.466-19,18-41-10-102.265-61.926-108-82a13.747,13.747,0,0,1,2.422-12.3c5.907-6.856,11.151-13.275,15.868-19.257q3.525-4.5,6.675-8.65c25.089-33.045,32.985-50.1,48.28-48.943,7.911.6,15.324,5.892,18.429,12.01,8.634,17.013-13.909,44.422-24.457,57.306a158.376,158.376,0,0,1-10.653,11.769c-4.024,4.038-7.761,7.353-10.91,9.975q-.521.451-1.04.859C232.227,406.344,267.387,434.425,291,451" fill="#ffb1a9"/>
          <path id="Tracé_2141" data-name="Tracé 2141" d="M185,352c-4-16,6.826-31.246,22.107-43.6a98.031,98.031,0,0,1,30.138-16.575c4.575.3,14.146,1.629,19.739,8.787,7.282,9.32,2.975,22.608-.6,34.912C249.562,359.05,239,389,219,382c-6.73-3.432-9.153-5.43-17.92-13.327C190.914,359.515,189.231,359.047,185,352" fill="#fff"/>
          <path id="Tracé_2142" data-name="Tracé 2142" d="M379,279c.6,3.613,3.151,13.887,4,17,6,22-23.865,38.573-26.894,39.582q-11.211,3.729-22.422,7.474l-8.635-66.528S360,240,374.987,250.505C375.392,250.789,376,261,379,279" fill="#fff"/>
          <path id="Tracé_2143" data-name="Tracé 2143" d="M327.177,480.139l-52.484,1.638,27.66,44.633Z" fill="#fdb04b"/>
          <path id="Tracé_2144" data-name="Tracé 2144" d="M308.073,455.018s9.841-6.011,16.773-6.164c6.513-.144,11.107,3.3,13.019,4.557a11.88,11.88,0,0,1,3.293,2.873c3.108,4.264,1.6,9.938,1.11,11.564l-34.2-12.83" fill="#ffb1a9"/>
          <path id="Tracé_2145" data-name="Tracé 2145" d="M379.424,369.284s60.668,40.52,67.287,106.443c0,0-49.9-32.723-51.216-34.81s-16.287-62.733-16.287-62.733Z" fill="#fdb04b"/>
          <path id="Tracé_2146" data-name="Tracé 2146" d="M451.869,460.781c2.583-4.948-1.7-11.3-5.829-13.842-4.653-2.859-10.114-1.486-10.22-2.3-.154-1.195,11.931-.829,15.93-7.149,4.667-7.378-2.2-23.05-9.02-23.509-4.766-.322-9.214,6.813-11.2,10a32.471,32.471,0,0,0-4.39,11.538l12.977,29.772c5.108.916,9.925-1,11.755-4.51" fill="#fff"/>
          <path id="Tracé_2147" data-name="Tracé 2147" d="M433.4,431.562a14.644,14.644,0,0,0,8.348-5.277,15.674,15.674,0,0,0,1.752-15.713c-3.209-7.284-11.668-10.78-17.584-9.333-5.021,1.229-7.529,5.854-8.348,5.278-1.617-1.139,11.949-16.495,7.461-25.165-2.365-4.569-9.5-6.811-14.945-5.158-6.382,1.937-8.714,8.7-9.884,12.09a25.284,25.284,0,0,0-.984,12.307l15.281,19.552c4.292,8.218,12.1,12.732,18.9,11.419" fill="#ed3b5e"/>
          <path id="Tracé_2148" data-name="Tracé 2148" d="M420.908,416.424c3.9-8.279-3.309-23.139-10.268-25.485-7.244-2.442-13.593,8.887-16.215,6.7-2.885-2.411,5.6-15.469.808-21.828-3.116-4.131-11.137-4.505-15.25-1.019-5.26,4.46-5.25,16.192,2.4,26.9l7.541,16.55A35.665,35.665,0,0,0,401,421.9c4.209.62,16.2,2.386,19.906-5.478" fill="#fff"/>
          <path id="Tracé_2149" data-name="Tracé 2149" d="M441.584,458.374c-.107-5.609-18.024-9.376-17.449-13.74.324-2.453,6.01-1.462,8.348-5.277,3.52-5.743-1.484-20.727-11.9-23.442-6.121-1.6-12.645,1.846-16.008,7.023-4.711,7.251-1.672,15.521-1.356,16.339l7.013,20.336a18.864,18.864,0,0,0,6.283,5.318c10.622,5.413,25.164-1.471,25.066-6.557" fill="#00cbbc"/>
          <path id="Tracé_2150" data-name="Tracé 2150" d="M379.424,369.284s14.815,57.821,67.287,106.443L317.72,484.239Z" fill="#fdb04b"/>
          <path id="Tracé_2151" data-name="Tracé 2151" d="M317.72,484.739a.5.5,0,0,1-.412-.783l33.223-48.239a.5.5,0,1,1,.823.566l-30.517,44.311,27.907-26.462a.5.5,0,0,1,.689.727L318.064,484.6a.5.5,0,0,1-.344.137" fill="#fff"/>
          <path id="Tracé_2152" data-name="Tracé 2152" d="M317.72,484.739a.5.5,0,0,1-.2-.96L390,452.9a.5.5,0,1,1,.391.92l-68.316,29.106,60.054-11.066a.5.5,0,0,1,.182.984l-64.5,11.885a.559.559,0,0,1-.091.008" fill="#fff"/>
          <path id="Tracé_2153" data-name="Tracé 2153" d="M346.287,466.7c-1.182-2.922-7.35-8.112-22.054-11.181-11.471-2.394-14.93-.737-22.555-1.878C293.893,452.475,282.161,448.6,270,436l-10.559,27.784A79.807,79.807,0,0,1,285.9,479.065c6.169,5.456,6.262,7.419,12.9,12.254,0,0,9.863,7.18,26.407,9.833a9.309,9.309,0,0,0,5.58-.527c1.667.476,2.706.754,2.706.754s5.5-.25,3.817-7.143c0,0,5.336-1.2,3.72-7.359,0,0,6.9-2.487,3.447-10.277,0,0,9.032-4.723,1.806-9.9" fill="#ffb1a9"/>
          <path id="Tracé_2154" data-name="Tracé 2154" d="M256.641,283.12c.507,3.158,1.232,7.2,2.242,11.829a187.959,187.959,0,0,0,5.434,19.556c.224.669.475,1.317.7,1.985,5.457,15.249,13.887,30.943,26.657,39.17a17.161,17.161,0,0,0,6.8,2.825,8.481,8.481,0,0,0,5.952-1.214c6.82-4.4,8.579-19.578,8.5-34.578-.072-11.767-2.986-39.617-3.761-45.9-.83-.363-1.8.2-2.682-.149,1.041,8.035,3.958,35.408,3.961,46.969.036,14.431-1.66,27.956-7.321,31.611-2.56,1.646-5.959,1.091-10.136-1.583-11.848-7.655-19.879-22.362-25.207-36.956a180.6,180.6,0,0,1-6.593-22.953c-.907-4.145-1.566-7.79-2.06-10.7a1.677,1.677,0,0,0-.49,0q-.993.008-2,.085" fill="#fdb04b"/>
          <path id="Tracé_2155" data-name="Tracé 2155" d="M258.637,283.036a83.51,83.51,0,0,0,.246,11.914,132.178,132.178,0,0,0,2.784,17.686c6.067,27.361,20.041,56.651,33.365,69.439,4.308,4.162,8.43,6.534,12.3,7.082a11.271,11.271,0,0,0,3.782-.077,9.74,9.74,0,0,0,6.367-4.486c7.553-11.127,5.881-41.318,2.863-65.994-1.053-8.648-5.606-35.916-6.635-42.135-.868-.442-1.88.063-2.8-.362,1.112,6.673,5.944,34.116,7.118,43.981,2.884,24.069,4.459,52.875-2.533,63.151a7.48,7.48,0,0,1-4.828,3.48c-4.074.745-8.788-1.418-13.962-6.388-12.377-11.869-25.315-38.269-31.684-63.836-.159-.61-.294-1.217-.452-1.827a133.06,133.06,0,0,1-3.377-20.931,78.858,78.858,0,0,1-.118-10.744c-.662,0-1.3.011-1.941.043a1.684,1.684,0,0,0-.491,0" fill="#fdb04b"/>
          <path id="Tracé_2156" data-name="Tracé 2156" d="M288.9,185.329s13.239,15.852,38.1,18.419c0,0,3.874-18.419-4-23.666s-44.6-7.87-44.6-7.87-15.741,20.987-15.741,28.857,6.661,15.528,6.661,15.528,27.443-10.281,19.573-31.268" fill="#03025f"/>
          <path id="Tracé_2157" data-name="Tracé 2157" d="M267.089,230.7a.559.559,0,0,1-.374-.38l-3.051-10.457a.562.562,0,1,1,1.08-.315l3.051,10.457a.564.564,0,0,1-.383.7.555.555,0,0,1-.323,0" fill="#03025f"/>
          <path id="Tracé_2158" data-name="Tracé 2158" d="M309.977,216.438s9.772,12.719,5.111,16.682c0-7.556-5.111-16.682-5.111-16.682" fill="#03025f"/>
          <path id="Tracé_2159" data-name="Tracé 2159" d="M307.051,229.563c0,2.217-2.9,4.015-6.474,4.015s-6.473-1.8-6.473-4.015,2.9-4.015,6.473-4.015,6.474,1.8,6.474,4.015" fill="#ed3b5e"/>
          <path id="Tracé_2160" data-name="Tracé 2160" d="M326.128,228.794a4.523,4.523,0,1,1-4.494-4.015,4.275,4.275,0,0,1,4.494,4.015" fill="#ed3b5e"/>
          <path id="Tracé_2161" data-name="Tracé 2161" d="M319,243.182c0,2.108-2.463,3.818-5.5,3.818s-5.5-1.71-5.5-3.818,2.462-3.818,5.5-3.818,5.5,1.709,5.5,3.818" fill="#ed3b5e"/>
          <path id="Tracé_2162" data-name="Tracé 2162" d="M329.65,210.322a.561.561,0,0,1-.334-.146,11.3,11.3,0,0,0-14.477-1.193.563.563,0,0,1-.671-.9c.081-.06,8.114-5.876,15.908,1.268a.562.562,0,0,1-.426.975" fill="#03025f"/>
          <path id="Tracé_2163" data-name="Tracé 2163" d="M288.866,211.991a.562.562,0,0,1-.484-.959c8.393-8.1,16.415-3.157,16.494-3.108a.562.562,0,0,1-.6.95c-.3-.187-7.373-4.506-15.111,2.967a.559.559,0,0,1-.3.15" fill="#03025f"/>
          <path id="Tracé_2164" data-name="Tracé 2164" d="M314.092,242.491a10.785,10.785,0,0,1-5.351-1.637.563.563,0,0,1,.631-.932c.23.155,5.671,3.74,9.391-.911a.563.563,0,1,1,.878.7,6.859,6.859,0,0,1-5.549,2.776" fill="#000003"/>
          <path id="Tracé_2165" data-name="Tracé 2165" d="M308.417,244.4c4.711,2.246,8.718,1.664,11.936-1.744a2.5,2.5,0,1,0-3.635-3.433c-1.451,1.536-3.42,2.558-7.956-.353a2.5,2.5,0,0,0-2.7,4.209,21.627,21.627,0,0,0,2.354,1.321" fill="#fff"/>
          <path id="Tracé_2166" data-name="Tracé 2166" d="M305.557,218.856c-.32-1.565-1.751-2.728-4.029-3.274a12.239,12.239,0,0,0-7.636.711c-1.112.521-3.2-.513-3.911-.955a.5.5,0,1,0-.529.849,10.014,10.014,0,0,0,2.315,1.031,15.012,15.012,0,0,1-3.446-.341.5.5,0,0,0-.222.975,16.482,16.482,0,0,0,3.239.377c.061,0,.119-.007.179-.008a.5.5,0,0,0,.875.422A5.331,5.331,0,0,1,294.3,217.2l.016,0,.008-.006a11.34,11.34,0,0,1,6.97-.639c1.851.444,3.048,1.357,3.283,2.5a.5.5,0,0,0,.489.4.484.484,0,0,0,.1-.01.5.5,0,0,0,.39-.59" fill="#03025f"/>
          <path id="Tracé_2167" data-name="Tracé 2167" d="M329.06,214.9a.5.5,0,0,0-.706-.019,3.883,3.883,0,0,1-1.94.9,6.279,6.279,0,0,0,1.55-.916.5.5,0,0,0-.662-.75,5.819,5.819,0,0,1-2.576,1.128,7.457,7.457,0,0,0-2.771-.791,8.553,8.553,0,0,0-7.34,3.177.5.5,0,0,0,.769.641,7.549,7.549,0,0,1,6.485-2.821,5.315,5.315,0,0,1,4.2,2.295.5.5,0,0,0,.867-.5,4.3,4.3,0,0,0-.326-.475,4.846,4.846,0,0,0,2.437-1.165.5.5,0,0,0,.016-.705" fill="#03025f"/>
          <path id="Tracé_2168" data-name="Tracé 2168" d="M224.755,384.031a18.368,18.368,0,0,1-6.085-1.087,1,1,0,0,1,.661-1.889,14.486,14.486,0,0,0,11.985-.651c11.406-5.878,18.589-26.128,24.112-45.161a1,1,0,1,1,1.921.557c-5.641,19.442-13.037,40.156-25.117,46.381a16.135,16.135,0,0,1-7.477,1.85" fill="#03025f"/>
          <path id="Tracé_2169" data-name="Tracé 2169" d="M354.778,336.522a1,1,0,0,1-.986-.842l-3.837-23.952a1,1,0,1,1,1.975-.316l3.837,23.952a1,1,0,0,1-.829,1.145.967.967,0,0,1-.16.013" fill="#03025f"/>
          <path id="Tracé_2170" data-name="Tracé 2170" d="M205.01,364.83a6.063,6.063,0,0,1-4.77-2.179,14.178,14.178,0,0,1-3.468-11.675c.678-4.355,3.724-10.93,14.388-17.52a1,1,0,0,1,1.052,1.7c-7.929,4.9-12.584,10.475-13.464,16.126a12.229,12.229,0,0,0,3.011,10.065,4.452,4.452,0,0,0,4.684,1.312c6.471-1.452,16.2-12.28,19.821-25.5a1,1,0,1,1,1.929.528C224.331,351.8,214.055,363,206.881,364.612a8.529,8.529,0,0,1-1.871.218" fill="#03025f"/>
          <path id="Tracé_2171" data-name="Tracé 2171" d="M370,287a1,1,0,0,1-.275-1.961c.245-.073,6.064-1.866,4.528-8.717a4.308,4.308,0,0,0-3.631-3.431c-4.936-1.042-13.882,2.853-20.729,12.121a1,1,0,0,1-1.609-1.188c7.422-10.048,17.068-14.092,22.75-12.89a6.318,6.318,0,0,1,5.17,4.951c1.955,8.717-5.85,11.054-5.929,11.077A1.007,1.007,0,0,1,370,287" fill="#03025f"/>
          <path id="Tracé_2172" data-name="Tracé 2172" d="M211.52,530.285a28.94,28.94,0,0,1-4.25-.309,1,1,0,1,1,.293-1.978c14.732,2.186,34.242-7.875,42.265-35.112a1,1,0,0,1,1.919.564c-7.619,25.863-25.364,36.835-40.227,36.835" fill="#03025f"/>
          <path id="Tracé_2173" data-name="Tracé 2173" d="M261.727,220.378a.5.5,0,0,1-.2-.959c7.33-3.154,12.716-6.525,16.952-10.609,5.2-5.009,8.452-11.142,9.168-17.272.8-6.869-1.831-13.823-6.712-17.716a.5.5,0,0,1,.624-.782c5.144,4.1,7.924,11.41,7.081,18.614-.743,6.359-4.105,12.707-9.466,17.875-4.326,4.171-9.808,7.6-17.251,10.809a.515.515,0,0,1-.2.04" fill="#fff"/>
          <path id="Tracé_2174" data-name="Tracé 2174" d="M327.5,197.235a.5.5,0,0,1-.381-.824,8.23,8.23,0,0,0,1.3-8.33,13.3,13.3,0,0,0-3.471-4.479,33.1,33.1,0,0,0-13.057-7.3.5.5,0,1,1,.277-.961,34.139,34.139,0,0,1,13.454,7.521,14.229,14.229,0,0,1,3.719,4.833,9.251,9.251,0,0,1-1.456,9.364.5.5,0,0,1-.381.176" fill="#fff"/>
          <path id="Tracé_2175" data-name="Tracé 2175" d="M231.3,247.18a.5.5,0,0,1-.43-.755c5.211-8.793,12.112-16.606,18.785-24.162,7.524-8.521,15.305-17.331,20.606-27.515a.5.5,0,1,1,.886.462c-5.357,10.292-13.178,19.149-20.743,27.715-6.642,7.521-13.511,15.3-18.673,24.01a.5.5,0,0,1-.431.245" fill="#fff"/>
          <path id="Tracé_2176" data-name="Tracé 2176" d="M194.126,300.828a.5.5,0,0,1-.328-.877,487.905,487.905,0,0,0,39.021-38.01c2.828-3.083,4.937-5.471,6.837-7.746a.5.5,0,0,1,.768.641c-1.911,2.287-4.029,4.687-6.868,7.781a488.553,488.553,0,0,1-39.1,38.088.5.5,0,0,1-.328.123" fill="#fff"/>
          <path id="Tracé_2177" data-name="Tracé 2177" d="M246.061,247.182a.5.5,0,0,1-.41-.785,70.09,70.09,0,0,0,5.775-9.837.5.5,0,0,1,.9.43,70.95,70.95,0,0,1-5.856,9.977.5.5,0,0,1-.411.215" fill="#fff"/>
          <path id="Tracé_2178" data-name="Tracé 2178" d="M333.108,255.128a.629.629,0,0,1-.075-.005.5.5,0,0,1-.42-.57,161.427,161.427,0,0,0,1.19-38,.5.5,0,1,1,1-.086,162.412,162.412,0,0,1-1.2,38.24.5.5,0,0,1-.494.425" fill="#fff"/>
          <path id="Tracé_2179" data-name="Tracé 2179" d="M333.5,209.692a.5.5,0,0,1-.495-.434c-.235-1.768-.5-3.554-.8-5.308a.5.5,0,0,1,.987-.165c.295,1.765.565,3.562.8,5.341a.5.5,0,0,1-.43.562c-.022,0-.044,0-.066,0" fill="#fff"/>
          <path id="Tracé_2180" data-name="Tracé 2180" d="M306.643,165.553a.5.5,0,0,1-.226-.054,26.16,26.16,0,0,0-17-2.287.5.5,0,1,1-.2-.98,27.165,27.165,0,0,1,17.649,2.375.5.5,0,0,1-.227.946" fill="#fff"/>
          <path id="Tracé_2181" data-name="Tracé 2181" d="M634.576,196.2s-.733,26.174,1.337,33.925c2.632,9.859,19.575,6.329,27.879.844a24.4,24.4,0,0,0,10.426-24.8c-1.585-8.26-7.876-17.314-18.185-18.985a22.679,22.679,0,0,0-21.457,9.015" fill="#ed3b5e"/>
          <path id="Tracé_2182" data-name="Tracé 2182" d="M650.665,225.995a13.253,13.253,0,0,1-6.729-1.7,9.375,9.375,0,0,1-4.721-7.116c-.2-2.554.848-5.025,2.011-7.315,1.276-2.515,2.8-5.034,5.257-6.422,2.538-1.431,6.32-1.188,7.91,1.455a.5.5,0,0,1-.858.515c-1.269-2.113-4.477-2.274-6.559-1.1-2.23,1.258-3.654,3.629-4.859,6-1.022,2.011-2.1,4.361-1.906,6.784a8.366,8.366,0,0,0,4.231,6.332,13.039,13.039,0,0,0,7.812,1.48,17.022,17.022,0,0,0,13.036-8.341,15.741,15.741,0,0,0,1.877-9.474.5.5,0,0,1,.44-.554.51.51,0,0,1,.554.439,16.755,16.755,0,0,1-2,10.08,18.036,18.036,0,0,1-13.809,8.845c-.512.05-1.08.084-1.687.084" fill="#fff"/>
          <path id="Tracé_2183" data-name="Tracé 2183" d="M664.56,199.943a.5.5,0,0,1-.39-.187,14.3,14.3,0,0,0-12.46-5.287.5.5,0,0,1-.115-.993,15.312,15.312,0,0,1,13.355,5.654.5.5,0,0,1-.39.813" fill="#fff"/>
          <path id="Tracé_2184" data-name="Tracé 2184" d="M547.9,493.689q.678,110.528,3.62,224.794.738,27.86,1.594,55.957.885,28.835,1.928,57.433,2.3,64.605,5.313,127.97c.275,5.568.531,11.136.806,16.685.118,2.3.217,4.624.335,6.926q2.035,41.526,4.348,82.539c.118,2.263.236,4.526.374,6.788q.354,6.316.728,12.593.354,6.108.708,12.2,20.66-3.926,41.319-7.87c.02-.59.059-1.181.1-1.751,1.889-37.639,3.778-72.583,5.608-104.5.2-3.581.413-7.123.61-10.625q.384-6.582.747-12.986c2.48-42.4,4.8-78.742,6.73-108.117.669-10.172,1.4-19.833,2.144-29.081v-.019c4.034-49.9,8.874-87.006,11.51-119.333.138-1.771.276-3.541.414-5.293,2.6-34.53,2.381-63.946-4.447-98.5-3.856-19.459-5.214-67.034-5.686-92.79-.177-10.389-.217-17.236-.217-17.236Z" fill="#ffb1a9"/>
          <path id="Tracé_2185" data-name="Tracé 2185" d="M593.236,515.175,608.977,641.1s10.27,25.126,25.283,57.531c.708,1.535,1.436,3.089,2.164,4.663,13.97,29.888,31.6,65.067,48.776,92.3,12.789,20.3,25.322,36.222,35.928,42.263,14.343,8.185,41.712-5.411,71.324-26.661,6.3-4.525,12.71-9.385,19.1-14.461,1.22-.964,2.44-1.948,3.66-2.932,34.669-27.9,68.688-61.23,85.648-78.348,7.024-7.084,11.117-11.392,11.117-11.392l-17.708-37.384-6.985,4.624-.02.02-94.147,62.352-5.706,3.777-13.636,9.031-31.008,20.542-2.086-6.907-24.476-81.161-42.3-140.169c-1.535-3.247-10.92-22.194-33.449-29.514a53.8,53.8,0,0,0-13.753-2.558,59.488,59.488,0,0,0-33.468,8.461" fill="#ffb1a9"/>
          <path id="Tracé_2186" data-name="Tracé 2186" d="M538.335,471.144c.815.747,1.789,1.608,2.876,2.514,8.606,7.292,25.455,19.069,49.144,21.9,43.8,5.254,75.392-24.278,84-33.4.816-.838,1.4-1.5,1.812-1.948a3.213,3.213,0,0,1,.317-.384c-.566-4.394-1.132-9.445-1.585-15.016a310.953,310.953,0,0,1-.679-39.338c.045-1,.09-1.947.158-2.876,1.608-29.147,6.1-57.287,4.624-80.591-.589-9.2-2-2.8-5.1-29.723-.09-.679-.136-1.382-.226-2.038,0-.113-.023-.227-.023-.317A115.267,115.267,0,0,0,645.025,276.9c-37.141-11.052-69.866-.2-83.3,5.209-3.057,12.251-6.047,24.753-8.968,37.413-.068.271-.43,1.88-.544,2.355-5.956,26.044-3.94,71.95-4.823,94.914a212.715,212.715,0,0,1-4.349,35.352c-1.2,5.956-2.74,12.3-4.71,19" fill="#ddc6fd"/>
          <path id="Tracé_2187" data-name="Tracé 2187" d="M591.918,213.714q.2,14.539.408,29.033c.113,7.383.226,14.789.317,22.172,0,.385.022.793.022,1.178q.137,8.187.227,16.328a17.237,17.237,0,0,0,3.329,9.942,23.123,23.123,0,0,0,13.656,9.241c7.428,1.562,15.264-1.02,20.972-6.659a17.109,17.109,0,0,0,5.072-12.229V213.465a17.272,17.272,0,0,0-17.279-17.257h-9.467a17.264,17.264,0,0,0-17.257,17.506" fill="#ffb1a9"/>
          <path id="Tracé_2188" data-name="Tracé 2188" d="M548.19,361.231h-.038a1,1,0,0,1-.962-1.037c.342-9.238.882-17.026,1.653-23.807a.986.986,0,0,1,1.107-.881,1,1,0,0,1,.88,1.107c-.765,6.73-1.3,14.468-1.642,23.655a1,1,0,0,1-1,.963" fill="#fff"/>
          <path id="Tracé_2189" data-name="Tracé 2189" d="M592.336,242.747l.312,22.179c19.915-5.649,22.44-28.374,22.44-28.374Z" fill="#ed3b5e"/>
          <path id="Tracé_2190" data-name="Tracé 2190" d="M628.1,213.123a7.809,7.809,0,1,0,7.81-7.81,7.81,7.81,0,0,0-7.81,7.81" fill="#ffb1a9"/>
          <path id="Tracé_2191" data-name="Tracé 2191" d="M628.1,226.139s-18.222,28.634-44.254,23.428-5.206-83.3-5.206-83.3,44.254-18.222,54.666,0-5.206,59.873-5.206,59.873" fill="#ffb1a9"/>
          <path id="Tracé_2192" data-name="Tracé 2192" d="M560.982,174.467c-.945-9.205,1.892-23.155,13.588-29.441,11.411-6.132,27-2.686,36.236,9.059.7-2.286,2.506-6.942,6.794-9.059,7.661-3.784,17.779,3.235,22.647,9.059,4.709,5.633,5.752,11.636,6.794,18.117a73.989,73.989,0,0,1-2.017,31.81,58.7,58.7,0,0,1-40.1-22.56c-8.784,13.174-23.165,18-32.619,13.4-9.717-4.734-11.069-17.9-11.324-20.382" fill="#ed3b5e"/>
          <path id="Tracé_2193" data-name="Tracé 2193" d="M475.288,114.371s-7.3-25.5-12.451-25.184-2.238,7.009-1.656,10.5a33.048,33.048,0,0,0,2.269,7.154s-18.53-36.9-23.765-36.03-1.8,4.247-1.133,7.184,11.985,24.544,11.985,24.544l-2.762-.436S433.811,72.149,431.6,71.8s-4.973-.784-4.012,3.9,11.753,29.6,11.753,29.6l-1.192.378s-11.724-26.2-14.487-26.637-4.769,1.513-3.926,3.345,13.12,28.121,13.12,28.121l-.261,1.658c-3.362-6.144-9.014-15.394-12.449-14.424a3.862,3.862,0,0,0-2.381,2.651c-.468,2.03,1.468,3.9,1.8,4.62,2.531,5.5,12.683,20.123,12.974,21.868S450.2,147.79,451.765,148.6s9.657,10.585,9.657,10.585l23.381-8.205Z" fill="#ffb1a9"/>
          <path id="Tracé_2194" data-name="Tracé 2194" d="M487.515,148.293l-29.357,10.99,3.858,11.25,28.335-10.156q-1.418-6.042-2.836-12.084" fill="#fff"/>
          <path id="Tracé_2195" data-name="Tracé 2195" d="M592.666,266.486q.135,8.955.225,17.861a20.049,20.049,0,0,0,3.33,10.875c2.672,3.938,7.089,8.6,13.657,10.107,7.427,1.709,15.263-1.115,20.971-7.283a19.637,19.637,0,0,0,5.073-13.377V261.953c-5.526,3.394-17.62,7.283-43.256,4.533" fill="#00cbbc"/>
          <path id="Tracé_2196" data-name="Tracé 2196" d="M488.512,831.233c6.953,4.8,16.8,7.858,28.422,9.58q1.494.2,3.057.407c15.423,1.948,33.631,1.744,52.2.363,1.54-.113,3.08-.249,4.62-.385,16.192-1.336,32.521-3.533,47.31-5.934,1.517-.249,3.012-.475,4.484-.725,6.545-1.109,12.728-2.219,18.435-3.306,6.544-1.246,13.905-4.031,21.741-7.927,1.381-.679,2.785-1.4,4.19-2.174,13.18-7.02,27.493-16.849,41.308-27.4,1.2-.928,2.4-1.834,3.6-2.763,14.879-11.572,29.056-23.824,40.538-34.2.566-.5,1.132-1.019,1.7-1.494,15.082-13.7,25.07-23.689,25.07-23.689s-13.588,0-31.706-45.294c-17.008-42.509-70.274-204.594-76.729-224.343-.294-.86-.5-1.449-.588-1.744-.046-.158-.068-.226-.068-.226-6.3.5-12.57,1.019-18.865,1.517v.023c-1.518.113-3.058.227-4.575.362q-20.756,1.665-41.489,3.352l-2.378.2q-11.246.918-22.489,1.812c-1.517.136-3.012.249-4.53.385-4.619.362-9.217.747-13.837,1.109-1.517.136-3.012.25-4.529.363-3.1.249-6.183.521-9.285.747-1.518.136-3.013.249-4.53.385-3.759.295-7.5.612-11.255.906-.136.928-.25,1.88-.385,2.808q-24.7,178.651-49.439,357.281" fill="#03025f"/>
          <path id="Tracé_2197" data-name="Tracé 2197" d="M758.81,757.059l2.661-3.667c-44.23-32.106-104.117-291.307-104.717-293.921l-4.414,1.013c2.464,10.742,60.877,263.476,106.47,296.575" fill="#fff"/>
          <path id="Tracé_2198" data-name="Tracé 2198" d="M626.477,466.932c2.333,11.346,53.991,262.434,87.8,326.8,1.2-.928,2.4-1.834,3.6-2.763-33.36-64.408-86.4-322.177-86.965-324.94Z" fill="#fff"/>
          <path id="Tracé_2199" data-name="Tracé 2199" d="M606.661,465.822c19.091,104.562,51.748,287.392,62.121,357.485,1.382-.68,2.785-1.4,4.19-2.174-13.249-89.479-59.041-340.658-61.8-355.9-.023-.09-.023-.158-.046-.226l-2.332.43Z" fill="#fff"/>
          <path id="Tracé_2200" data-name="Tracé 2200" d="M581.387,464.644c.022.181.159,1.2.385,2.989,4.121,30.846,38.409,289.5,42.35,367.631,1.517-.249,3.012-.476,4.484-.725-4.031-79.219-37.821-333.841-42.3-367.29-.2-1.563-.362-2.627-.43-3.194Z" fill="#fff"/>
          <path id="Tracé_2201" data-name="Tracé 2201" d="M563.405,469.106c1.857,28.332,19.59,304.015,8.787,372.477,1.54-.113,3.08-.249,4.62-.385,10.667-71.882-6.885-342.379-8.877-372.454-.069-1.088-.136-1.835-.159-2.288l-4.53.318c0,.158.068.951.159,2.332" fill="#fff"/>
          <path id="Tracé_2202" data-name="Tracé 2202" d="M518.23,842.667c4.617-3.225,18.665-13.044,29.117-196.273,5.138-90.069,6.824-178.851,6.841-179.738l-4.53-.084c-1.821,98.234-11.484,356.63-34.022,372.384Z" fill="#fff"/>
          <path id="Tracé_2203" data-name="Tracé 2203" d="M537.95,473.952l3.261-.295,133.142-11.5,2.4-.2c-.3-.86-.5-1.449-.589-1.744a3.234,3.234,0,0,1,.317-.385c-.566-4.393-1.132-9.444-1.585-15.015l-131.852,7.338c-1.2,5.956-2.74,12.3-4.71,19-.136.928-.249,1.879-.385,2.808" fill="#03025f"/>
          <path id="Tracé_2204" data-name="Tracé 2204" d="M655,280c-29.849-.71-99,5-107-15-4-9-13.307-23.215-27-48-4.955-8.969-23.931-50.223-31-57-10,4-22,7-28,11-1,15,7,46,15,79,4.948,20.41,20.588,56.381,39,72,6.886,5.841,38,25,86,28,72.2,4.512,81.307-14.3,82-33,1-27-13-35-29-37" fill="#ddc6fd"/>
        </g>
      </g>
      <g id="Groupe_594" data-name="Groupe 594" transform="translate(202 227.5)">
        <g id="Groupe_593" data-name="Groupe 593" clip-path="url(#clip-path-2)">
          <path id="Tracé_2205" data-name="Tracé 2205" d="M593.615,205.861c0,2.728,3.016,4.94,6.738,4.94s6.737-2.212,6.737-4.94-3.016-4.939-6.737-4.939-6.738,2.211-6.738,4.939" fill="#fff"/>
          <path id="Tracé_2206" data-name="Tracé 2206" d="M593.065,205.742a5.081,5.081,0,1,0,5.08-5.08,5.08,5.08,0,0,0-5.08,5.08" fill="#03025f"/>
        </g>
      </g>
      <g id="Groupe_596" data-name="Groupe 596" transform="translate(202 227.5)">
        <g id="Groupe_595" data-name="Groupe 595" clip-path="url(#clip-path-3)">
          <path id="Tracé_2208" data-name="Tracé 2208" d="M567.929,205.482c0,2.728,3.017,4.939,6.738,4.939s6.737-2.211,6.737-4.939-3.016-4.94-6.737-4.94-6.738,2.212-6.738,4.94" fill="#fff"/>
          <path id="Tracé_2209" data-name="Tracé 2209" d="M567.379,205.362a5.08,5.08,0,1,0,5.08-5.08,5.08,5.08,0,0,0-5.08,5.08" fill="#03025f"/>
        </g>
      </g>
      <g id="Groupe_598" data-name="Groupe 598" transform="translate(202 227.5)">
        <g id="Groupe_597" data-name="Groupe 597" clip-path="url(#clip-path)">
          <path id="Tracé_2211" data-name="Tracé 2211" d="M635.36,219.085a.558.558,0,0,1-.313-.1.566.566,0,0,1-.159-.786l6.074-9.154a.567.567,0,0,1,.946.627l-6.075,9.154a.565.565,0,0,1-.473.254" fill="#03025f"/>
          <path id="Tracé_2212" data-name="Tracé 2212" d="M586.009,203.348s-10.564,16.278-5.864,20.274c0-7.62,5.864-20.274,5.864-20.274" fill="#03025f"/>
          <path id="Tracé_2213" data-name="Tracé 2213" d="M587.377,232.448c.4,1.319,2.288,1.913,4.214,1.326s3.16-2.131,2.758-3.45-2.288-1.913-4.213-1.326-3.161,2.131-2.759,3.45" fill="#ed3b5e"/>
          <path id="Tracé_2214" data-name="Tracé 2214" d="M568.582,196.8a.568.568,0,0,1-.4-.971c6.24-6.176,13.463-.328,13.534-.268a.567.567,0,1,1-.723.874c-.263-.215-6.506-5.247-12.013.2a.567.567,0,0,1-.4.164" fill="#03025f"/>
          <path id="Tracé_2215" data-name="Tracé 2215" d="M607.752,197.546a.56.56,0,0,1-.32-.1c-8.975-6.154-15.46-.48-15.525-.422a.567.567,0,0,1-.759-.843c.072-.065,7.223-6.324,16.925.33a.567.567,0,0,1-.321,1.035" fill="#03025f"/>
          <path id="Tracé_2216" data-name="Tracé 2216" d="M592.207,216.689c0,2.019,2.64,3.657,5.9,3.657s5.9-1.638,5.9-3.657-2.64-3.657-5.9-3.657-5.9,1.637-5.9,3.657" fill="#ed3b5e"/>
          <path id="Tracé_2217" data-name="Tracé 2217" d="M570.831,215.988a4.119,4.119,0,1,0,4.093-3.657,3.894,3.894,0,0,0-4.093,3.657" fill="#ed3b5e"/>
          <path id="Tracé_2218" data-name="Tracé 2218" d="M595,209c5-2,10.03.414,10.03.414l-.663,2.22-9.431.7Z" fill="#ffb1a9"/>
          <path id="Tracé_2219" data-name="Tracé 2219" d="M570.757,209.5a8.37,8.37,0,0,1,8.261,0l-2.719,2.134-5.189-1.212Z" fill="#ffb1a9"/>
          <path id="Tracé_2220" data-name="Tracé 2220" d="M451.765,149.1a.5.5,0,0,1-.23-.056c-1.351-.7-19.142-20.006-19.489-22.084-.124-.738-2.841-5.025-5.237-8.806-2.985-4.71-6.369-10.048-7.7-12.935a5.483,5.483,0,0,0-.4-.61c-.686-.958-1.836-2.562-1.428-4.331a4.341,4.341,0,0,1,2.732-3.02c2.753-.783,6.9,3.726,12.318,13.39l.011-.07c-.966-2.067-12.254-26.241-13.056-27.985a2.526,2.526,0,0,1,.31-2.65,4.289,4.289,0,0,1,4.148-1.4c2.8.442,12.338,21.3,14.681,26.52l.24-.076c-1.581-3.665-10.669-24.831-11.565-29.195-.389-1.9-.225-3.191.5-3.95.984-1.032,2.7-.759,4.082-.542,2.27.359,13.007,22.992,16.438,30.343l1.518.24c-2.159-4.142-10.964-21.127-11.569-23.785a12.359,12.359,0,0,0-.826-2.179c-.628-1.4-1.278-2.842-.657-4,.436-.814,1.423-1.339,3.021-1.6,4.235-.735,15.677,19.8,21.276,30.441-.072-.329-.136-.66-.191-.99-.109-.647-.3-1.423-.508-2.245-.675-2.694-1.439-5.748-.14-7.523a3.5,3.5,0,0,1,2.766-1.312c.939-.057,3.778-.231,9.2,14.223a.5.5,0,1,1-.935.351c-4.663-12.424-7.316-13.619-8.2-13.576a2.528,2.528,0,0,0-2.022.9c-1.022,1.4-.287,4.332.3,6.691.211.842.41,1.636.524,2.323a32.755,32.755,0,0,0,2.231,7.027.5.5,0,0,1-.9.433C455.9,92.923,443.32,70.718,439.767,71.3c-1.253.209-2.027.576-2.3,1.091-.389.728.133,1.89.687,3.121a13.027,13.027,0,0,1,.889,2.368c.517,2.273,8.037,16.969,11.941,24.423a.5.5,0,0,1-.037.523.487.487,0,0,1-.485.2L447.7,102.6a.5.5,0,0,1-.375-.282c-6.566-14.083-14.345-29.393-15.831-30.027-1.178-.182-2.549-.4-3.171.253-.476.5-.557,1.526-.242,3.058.939,4.579,11.615,29.257,11.722,29.506a.5.5,0,0,1-.307.675l-1.193.379a.5.5,0,0,1-.607-.273c-5.7-12.738-12.535-26.075-14.109-26.347a3.353,3.353,0,0,0-3.194,1.013,1.537,1.537,0,0,0-.2,1.629c.834,1.81,13,27.855,13.119,28.118a.5.5,0,0,1,.041.29l-.262,1.658a.5.5,0,0,1-.932.162c-5.284-9.656-9.609-14.812-11.875-14.183a3.359,3.359,0,0,0-2.03,2.282c-.306,1.329.641,2.651,1.267,3.525a5.36,5.36,0,0,1,.5.774c1.3,2.826,4.666,8.134,7.635,12.818,3.335,5.261,5.229,8.282,5.379,9.176.375,1.482,17.211,20.454,18.962,21.361a.5.5,0,0,1-.23.944" fill="#ed3b5e"/>
          <path id="Tracé_2221" data-name="Tracé 2221" d="M588.687,232.571a10.47,10.47,0,0,1-5.682-1.764.567.567,0,1,1,.608-.957c7.457,4.734,13.3-2.475,13.549-2.785a.568.568,0,0,1,.889.706c-.05.063-3.893,4.8-9.364,4.8" fill="#03025f"/>
          <path id="Tracé_2222" data-name="Tracé 2222" d="M615.791,281.24c-15.747,0-32.241-.527-45.147-2.967a1,1,0,0,1,.372-1.965c17.941,3.393,43.061,3.045,63.248,2.765,7.731-.107,15.036-.209,20.759-.072a1,1,0,0,1,.977,1.023,1.023,1.023,0,0,1-1.023.976c-5.688-.135-12.972-.034-20.686.073-5.85.081-12.114.167-18.5.167" fill="#fff"/>
          <path id="Tracé_2223" data-name="Tracé 2223" d="M622.323,351.686q-9.405,0-20.386-.688c-47.2-2.95-78.505-21.382-86.584-28.235a67.928,67.928,0,0,1-8-8.17,1,1,0,1,1,1.533-1.284,66.061,66.061,0,0,0,7.758,7.928c7.939,6.734,38.759,24.849,85.416,27.765,25.057,1.566,43.652.454,56.842-3.4a1,1,0,0,1,.561,1.92c-9.528,2.784-21.782,4.164-37.142,4.164" fill="#fff"/>
          <path id="Tracé_2224" data-name="Tracé 2224" d="M608.743,268.419a152.3,152.3,0,0,1-16.185-.938,1,1,0,0,1,.213-1.989c24.965,2.679,36.96-.91,42.626-4.391a1,1,0,1,1,1.047,1.7c-4.511,2.771-12.779,5.614-27.7,5.614" fill="#fff"/>
          <path id="Tracé_2225" data-name="Tracé 2225" d="M582.476,191.266c-7.982,0-14.981-6.626-16.967-13.821-2.132-7.729.164-16.9,6.142-24.525,1.584-2.021,7.256-8.454,13.76-6.376,3.31,1.059,5.913,4.372,6.629,8.441.654,3.708-.186,7.548-1.093,10.815a.5.5,0,1,1-.963-.268c.921-3.318,1.688-6.871,1.072-10.373-.653-3.707-2.988-6.715-5.95-7.662-4.679-1.5-9.611,2.14-12.668,6.04-5.783,7.379-8.013,16.218-5.964,23.642,2.324,8.42,11.089,14.4,18.751,12.8,3.051-.637,6.15-2.367,9.476-5.29a43.959,43.959,0,0,0,5.768-6.158.5.5,0,1,1,.791.61,44.872,44.872,0,0,1-5.9,6.3c-3.458,3.04-6.707,4.845-9.931,5.518a14.467,14.467,0,0,1-2.954.306" fill="#fff"/>
          <path id="Tracé_2226" data-name="Tracé 2226" d="M605.963,171.038a.5.5,0,0,1-.451-.715,44.49,44.49,0,0,0,4.2-15.186.5.5,0,1,1,1,.09,45.489,45.489,0,0,1-4.293,15.526.5.5,0,0,1-.451.285" fill="#fff"/>
          <path id="Tracé_2227" data-name="Tracé 2227" d="M638.091,169.808a.5.5,0,0,1-.484-.376c-.986-3.869-2.253-8.291-4.838-11.805-2.749-3.74-6.822-5.891-10.6-5.63-.639.045-1.461.218-1.738.785a.5.5,0,0,1-.9-.441A2.856,2.856,0,0,1,622.1,151c4.115-.3,8.526,2.021,11.477,6.034,2.691,3.66,3.992,8.191,5,12.151a.5.5,0,0,1-.361.607.478.478,0,0,1-.123.016" fill="#fff"/>
          <path id="Tracé_2228" data-name="Tracé 2228" d="M639.975,191.433c-.021,0-.041,0-.062,0-2.514-.307-4.976-1.61-7.746-4.1a36.387,36.387,0,0,1-11.419-20.508.5.5,0,0,1,.985-.177,35.378,35.378,0,0,0,11.1,19.941c2.611,2.348,4.9,3.572,7.2,3.852a.5.5,0,0,1-.06,1" fill="#fff"/>
          <path id="Tracé_2229" data-name="Tracé 2229" d="M543.045,453.143a1,1,0,0,1-.055-2l131.852-7.337a1,1,0,1,1,.111,2L543.1,453.141l-.057,0" fill="#fff"/>
          <path id="Tracé_2230" data-name="Tracé 2230" d="M537.949,474.952a1,1,0,0,1-.089-2l3.261-.295,135.548-11.708a.986.986,0,0,1,1.081.911,1,1,0,0,1-.911,1.081l-2.4.2L541.3,474.653l-3.257.295c-.03,0-.061,0-.091,0" fill="#fff"/>
          <path id="Tracé_2231" data-name="Tracé 2231" d="M150.374,608.315a1,1,0,0,1-.846-.465C121.7,563.889,106.793,508.3,106.409,447.106c-.3-48.289,8.027-100.947,26.218-165.717a1,1,0,0,1,1.926.541C116.414,346.515,108.106,399,108.409,447.094c.382,60.824,15.185,116.042,42.809,159.686a1,1,0,0,1-.844,1.535" fill="#fff"/>
          <path id="Tracé_2232" data-name="Tracé 2232" d="M116.727,536.949a36.02,36.02,0,0,1-35.465-29.382,1,1,0,0,1,1.966-.369,34.024,34.024,0,0,0,34.618,27.733.983.983,0,0,1,1.034.964,1,1,0,0,1-.965,1.034q-.594.02-1.188.02" fill="#fff"/>
          <path id="Tracé_2233" data-name="Tracé 2233" d="M114.055,507.1a1,1,0,0,1-.09-2c4.869-.447,9.932-2.974,15.047-7.508a54.937,54.937,0,0,0,17.87-34.068,1.012,1.012,0,0,1,1.113-.873,1,1,0,0,1,.872,1.113,56.949,56.949,0,0,1-18.528,35.324c-5.441,4.823-10.889,7.517-16.192,8-.031,0-.062,0-.092,0" fill="#fff"/>
          <path id="Tracé_2234" data-name="Tracé 2234" d="M106.783,480.416a1.014,1.014,0,0,1-.3-.045c-16.773-5.215-29.924-21.04-31.982-38.484a1,1,0,1,1,1.986-.235c1.969,16.685,14.547,31.822,30.589,36.809a1,1,0,0,1-.3,1.955" fill="#fff"/>
          <path id="Tracé_2235" data-name="Tracé 2235" d="M108.157,455.1a1,1,0,0,1-.1-1.995c8.584-.842,15.533-7.1,21.2-13.115A171.164,171.164,0,0,0,148.3,415.711a1,1,0,1,1,1.679,1.088,173.126,173.126,0,0,1-19.265,24.563c-5.573,5.917-13.162,12.823-22.457,13.736-.033,0-.066,0-.1,0" fill="#fff"/>
          <path id="Tracé_2236" data-name="Tracé 2236" d="M105.79,429.421a1,1,0,0,1-.517-.145c-17.165-10.394-27.825-30.834-26.527-50.859a1,1,0,1,1,2,.129,54.523,54.523,0,0,0,25.567,49.019,1,1,0,0,1-.519,1.856" fill="#fff"/>
          <path id="Tracé_2237" data-name="Tracé 2237" d="M109.6,404.088a1,1,0,0,1-.173-1.984c16.246-2.874,30.19-16.741,33.156-32.971a1,1,0,0,1,1.968.359c-3.111,17.024-17.737,31.567-34.776,34.58a.948.948,0,0,1-.175.016" fill="#fff"/>
          <path id="Tracé_2238" data-name="Tracé 2238" d="M111.929,375.254a1,1,0,0,1-.465-.115A34.775,34.775,0,0,1,94.018,335.61a1,1,0,1,1,1.935.5A32.777,32.777,0,0,0,112.4,373.369a1,1,0,0,1-.467,1.885" fill="#fff"/>
          <path id="Tracé_2239" data-name="Tracé 2239" d="M118.293,345.416a1,1,0,0,1-.162-1.987,38.824,38.824,0,0,0,29.888-25.679,1,1,0,1,1,1.9.619A40.873,40.873,0,0,1,118.457,345.4a1.019,1.019,0,0,1-.164.013" fill="#fff"/>
          <path id="Tracé_2240" data-name="Tracé 2240" d="M123.728,314.6a1,1,0,0,1-.715-.3,54.447,54.447,0,0,1-15.177-39.324,1.014,1.014,0,0,1,1.037-.963,1,1,0,0,1,.962,1.036A52.408,52.408,0,0,0,124.443,312.9a1,1,0,0,1-.715,1.7" fill="#fff"/>
          <path id="Tracé_2241" data-name="Tracé 2241" d="M79.281,516.042a1.05,1.05,0,0,1-.208-.021c-4.16-.884-6.272-5.186-6.817-8.6a17.993,17.993,0,0,1,.759-8.688c1.4-4.065,4.173-7.408,7.126-10.756a1,1,0,0,1,1.379-.117,40.91,40.91,0,0,1,7.627,8.215c3.171,4.783,4.353,9.71,3.327,13.874-.578,2.345-1.9,3.927-3.631,4.339a1,1,0,1,1-.464-1.945c1.425-.34,2.008-2.284,2.152-2.872,1.2-4.876-1.4-9.793-3.051-12.29A38.47,38.47,0,0,0,81,490.029c-2.569,2.951-4.907,5.92-6.1,9.358a16,16,0,0,0-.675,7.718c.481,3.01,2.293,6.33,5.257,6.958a1,1,0,0,1-.206,1.979" fill="#fff"/>
          <path id="Tracé_2242" data-name="Tracé 2242" d="M150.6,476.542a4.5,4.5,0,0,1-.592-.039,1,1,0,1,1,.264-1.982,3.577,3.577,0,0,0,2.964-1.3,9.813,9.813,0,0,0,1.794-3.458,32.874,32.874,0,0,0-.585-22.316c-.013-.034-.026-.07-.038-.109a33.488,33.488,0,0,0-12.835,10.581c-1.946,2.668-2.921,4.938-3.07,7.144-.178,2.646,1.089,5.147,3.081,6.082a1,1,0,0,1-.849,1.811c-2.721-1.277-4.46-4.579-4.227-8.027.175-2.6,1.271-5.2,3.45-8.189a35.494,35.494,0,0,1,14.618-11.671.965.965,0,0,1,.574-.181c.871.01,1,.822,1.082,1.359.029.189.058.4.088.506a34.862,34.862,0,0,1,.606,23.65,11.588,11.588,0,0,1-2.206,4.159,5.657,5.657,0,0,1-4.119,1.977" fill="#fff"/>
          <path id="Tracé_2243" data-name="Tracé 2243" d="M71.854,456.1a1,1,0,0,1-.308-.049,12.3,12.3,0,0,1-7.825-9.158,18.328,18.328,0,0,1,1.827-11.871,39.055,39.055,0,0,1,7.091-9.465,1,1,0,0,1,.7-.308.993.993,0,0,1,.713.28c3.252,3.127,7.851,7.844,10.239,12.7,2.066,4.2,3.116,10.431-.132,15.334a1,1,0,1,1-1.667-1.1c2.78-4.2,1.825-9.647,0-13.347-2.081-4.227-6.038-8.437-9.108-11.437a35.209,35.209,0,0,0-6.049,8.241,16.331,16.331,0,0,0-1.665,10.558,10.281,10.281,0,0,0,6.487,7.68,1,1,0,0,1-.308,1.951" fill="#fff"/>
          <path id="Tracé_2244" data-name="Tracé 2244" d="M151.5,427.643a7.616,7.616,0,0,1-3.646-.888,1,1,0,0,1,.955-1.758,6.954,6.954,0,0,0,7.633-1.252c2.426-2.1,3.5-5.325,3.969-7.659.991-4.9-.339-10.672-2-14.682a23.362,23.362,0,0,0-14.55,6.349,12.378,12.378,0,0,0-3.537,5.271,6.273,6.273,0,0,0,.842,5.672,1,1,0,0,1-1.56,1.252,8.289,8.289,0,0,1-1.2-7.5,14.291,14.291,0,0,1,4.07-6.14,25.369,25.369,0,0,1,16.547-6.936,1.013,1.013,0,0,1,.945.6c1.906,4.3,3.538,10.9,2.4,16.516a15.431,15.431,0,0,1-4.619,8.774,9.668,9.668,0,0,1-6.252,2.386" fill="#fff"/>
          <path id="Tracé_2245" data-name="Tracé 2245" d="M83.879,391.193a1,1,0,0,1-.313-1.949,7.209,7.209,0,0,0,4.393-5.385,17.83,17.83,0,0,0-.345-7.768,57.3,57.3,0,0,0-4.974-13.244,36.038,36.038,0,0,0-7.473,7.455,18.682,18.682,0,0,0-3.713,10.645,8.493,8.493,0,0,0,1.05,4.409,4.4,4.4,0,0,0,3.332,2.221,1,1,0,1,1-.122,2,6.414,6.414,0,0,1-4.921-3.182,10.438,10.438,0,0,1-1.339-5.438,20.667,20.667,0,0,1,4.083-11.81,39.707,39.707,0,0,1,8.838-8.609,1,1,0,0,1,1.481.327,60.429,60.429,0,0,1,5.712,14.8,19.935,19.935,0,0,1,.339,8.648,9.2,9.2,0,0,1-5.714,6.83.983.983,0,0,1-.314.051" fill="#fff"/>
          <path id="Tracé_2246" data-name="Tracé 2246" d="M142.417,382.92a1,1,0,0,1-.063-2c4.224-.269,7.387-4.348,8.647-8.272a22.85,22.85,0,0,0-3.255-19.208,30.2,30.2,0,0,0-13.269,9.111c-1.549,1.95-3.366,4.975-3.225,8.307.13,3.068,2.168,5.772,4.742,6.291a1,1,0,0,1-.4,1.96c-3.449-.7-6.176-4.206-6.344-8.167s1.9-7.418,3.657-9.635a32.545,32.545,0,0,1,14.851-10,1,1,0,0,1,1.114.32,24.54,24.54,0,0,1,4.03,21.633c-1.361,4.236-4.908,9.307-10.425,9.657l-.064,0" fill="#fff"/>
          <path id="Tracé_2247" data-name="Tracé 2247" d="M98.2,348.722a3.878,3.878,0,0,1-1.008-.13,1,1,0,0,1,.515-1.933,2.915,2.915,0,0,0,2.714-1.023,8.444,8.444,0,0,0,1.6-3.295c2.272-7.718.687-17.625-4.028-25.515a39.025,39.025,0,0,0-9.08,8.318c-2.982,3.753-4.421,7.29-4.277,10.512a10.212,10.212,0,0,0,5.541,8.477,1,1,0,0,1-.884,1.794,12.1,12.1,0,0,1-6.655-10.183c-.166-3.716,1.419-7.7,4.709-11.844a41.044,41.044,0,0,1,10.432-9.313,1,1,0,0,1,1.372.31c5.42,8.485,7.3,19.479,4.789,28.009a10.225,10.225,0,0,1-2.034,4.074,5.112,5.112,0,0,1-3.7,1.742" fill="#fff"/>
          <path id="Tracé_2248" data-name="Tracé 2248" d="M149.619,333.4a5.265,5.265,0,0,1-2.941-.85,1,1,0,0,1,1.1-1.671c1.722,1.133,4.241.242,5.854-1.063,2.735-2.213,4.588-5.944,5.219-10.508a55.446,55.446,0,0,0,.184-9.678c-.038-.972-.076-1.943-.1-2.914a6.812,6.812,0,0,1,.073-.972,23.13,23.13,0,0,0-15.294,4.653,13.44,13.44,0,0,0-4.687,5.828,7.246,7.246,0,0,0,.728,6.794,1,1,0,1,1-1.586,1.218,9.152,9.152,0,0,1-1.017-8.708,15.382,15.382,0,0,1,5.349-6.722,25.126,25.126,0,0,1,18.019-4.936,1.1,1.1,0,0,1,.14.021,1,1,0,0,1,.4,1.769,5.349,5.349,0,0,0-.128,1.007c.024.961.061,1.922.1,2.884a57.1,57.1,0,0,1-.2,10.03c-.7,5.068-2.812,9.256-5.943,11.789a8.741,8.741,0,0,1-5.27,2.029" fill="#fff"/>
          <path id="Tracé_2249" data-name="Tracé 2249" d="M104.475,286.06h-.012a6.948,6.948,0,0,1-6.059-4.537,11.461,11.461,0,0,1-.037-7.37c2.049-7.058,8.051-12.146,12.874-16.234a1,1,0,0,1,1.512.262c.369.638.751,1.278,1.136,1.921,2.182,3.655,4.438,7.435,4.9,11.721.621,5.714-1.423,11.022-5.334,13.853a1,1,0,1,1-1.173-1.62c3.281-2.374,5.054-7.091,4.519-12.016-.42-3.853-2.562-7.442-4.635-10.913l-.544-.913c-4.437,3.781-9.58,8.435-11.339,14.5a9.7,9.7,0,0,0-.022,6.081,4.913,4.913,0,0,0,4.221,3.268,1,1,0,0,1-.012,2" fill="#fff"/>
          <path id="Tracé_2250" data-name="Tracé 2250" d="M727.567,552.69a1,1,0,0,1-.95-1.312c26.19-79.7,29.771-168.5,10.085-250.046a1,1,0,1,1,1.943-.47A462.077,462.077,0,0,1,728.517,552a1,1,0,0,1-.95.687" fill="#fff"/>
          <path id="Tracé_2251" data-name="Tracé 2251" d="M733.417,524.414a14.471,14.471,0,0,1-7.366-2.372,35.505,35.505,0,0,1-12.441-13.765,80.75,80.75,0,0,1-6.364-17.3,1,1,0,0,1,1.932-.517,79.037,79.037,0,0,0,6.194,16.868,33.5,33.5,0,0,0,11.716,13c2.158,1.309,5.347,2.687,8.269,1.809a1,1,0,0,1,.575,1.916,8.744,8.744,0,0,1-2.515.358" fill="#fff"/>
          <path id="Tracé_2252" data-name="Tracé 2252" d="M741.717,500.168a1,1,0,0,1-.005-2c7.922-.035,14.592-3.612,18.793-6.607,4.814-3.433,9.337-8.1,14.234-14.691a1,1,0,1,1,1.606,1.194c-5.026,6.762-9.691,11.568-14.68,15.125-4.435,3.163-11.5,6.941-19.943,6.979Z" fill="#fff"/>
          <path id="Tracé_2253" data-name="Tracé 2253" d="M740.12,474.3a18.1,18.1,0,0,1-7.4-1.87,38.665,38.665,0,0,1-19.026-19.1,1,1,0,0,1,1.824-.82,36.649,36.649,0,0,0,18.028,18.1c3.64,1.652,6.606,2.086,9.062,1.329a1,1,0,0,1,.59,1.91,10.341,10.341,0,0,1-3.08.451" fill="#fff"/>
          <path id="Tracé_2254" data-name="Tracé 2254" d="M748.656,450.832a1,1,0,0,1-.224-1.975,44.278,44.278,0,0,0,29.288-23.379,1,1,0,0,1,1.8.869,45.7,45.7,0,0,1-30.639,24.46,1.044,1.044,0,0,1-.226.025" fill="#fff"/>
          <path id="Tracé_2255" data-name="Tracé 2255" d="M746.163,423.761a13.429,13.429,0,0,1-2.805-.347,35.165,35.165,0,0,1-23.051-17.091,1,1,0,1,1,1.75-.971,33.123,33.123,0,0,0,21.721,16.107c1.406.3,3.186.556,4.5-.168a1,1,0,1,1,.965,1.752,6.315,6.315,0,0,1-3.081.718" fill="#fff"/>
          <path id="Tracé_2256" data-name="Tracé 2256" d="M750.406,401.423a1,1,0,0,1-.384-1.923,44.843,44.843,0,0,0,24.543-25.717,1,1,0,0,1,1.881.682,46.876,46.876,0,0,1-25.656,26.881.983.983,0,0,1-.384.077" fill="#fff"/>
          <path id="Tracé_2257" data-name="Tracé 2257" d="M747.315,375.207a1.086,1.086,0,0,1-.151-.011,47.642,47.642,0,0,1-33.349-22.3,1,1,0,1,1,1.714-1.032,45.623,45.623,0,0,0,31.933,21.351,1,1,0,0,1-.147,1.989" fill="#fff"/>
          <path id="Tracé_2258" data-name="Tracé 2258" d="M747.365,357.224a1,1,0,0,1-.415-1.911,40.2,40.2,0,0,0,22.112-27.083,1,1,0,1,1,1.949.448,42.244,42.244,0,0,1-23.233,28.456,1,1,0,0,1-.413.09" fill="#fff"/>
          <path id="Tracé_2259" data-name="Tracé 2259" d="M741.2,322.9a1,1,0,0,1-.235-.028,49.639,49.639,0,0,1-28.854-19.8,1,1,0,0,1,1.647-1.137,47.6,47.6,0,0,0,27.675,18.99,1,1,0,0,1-.233,1.972" fill="#fff"/>
          <path id="Tracé_2260" data-name="Tracé 2260" d="M706.327,500.063a8.245,8.245,0,0,1-6.935-4.256,12.085,12.085,0,0,1-1.068-8.424,27.335,27.335,0,0,1,3.122-7.617c.935-1.677,1.942-3.344,2.993-4.951a1,1,0,0,1,1.359-.307,9.178,9.178,0,0,1,1.891,1.684,7.643,7.643,0,0,0,1.471,1.339,19.028,19.028,0,0,1,4.916,3.823c2.683,3.229,3,7.614,2.952,11.477a9.843,9.843,0,0,1-.42,3.2,4.252,4.252,0,0,1-2.5,2.708,1,1,0,0,1-.664-1.887,2.317,2.317,0,0,0,1.279-1.478,8.259,8.259,0,0,0,.308-2.565c.041-3.5-.222-7.447-2.491-10.177a17.209,17.209,0,0,0-4.42-3.393,9.209,9.209,0,0,1-1.892-1.684c-.237-.256-.468-.505-.7-.727-.813,1.281-1.594,2.593-2.329,3.912a25.136,25.136,0,0,0-2.91,7.046,10.1,10.1,0,0,0,.846,7.029,6.183,6.183,0,0,0,5.593,3.232,1,1,0,1,1,.171,1.992c-.188.016-.378.024-.566.024" fill="#fff"/>
          <path id="Tracé_2261" data-name="Tracé 2261" d="M775.729,489.691a8.856,8.856,0,0,1-2.424-.328,1,1,0,0,1,.545-1.924,8.709,8.709,0,0,0,8.054-2.287,15.174,15.174,0,0,0,4.114-8.025,48.259,48.259,0,0,0,.517-9.286V467.7a28.176,28.176,0,0,0-10.883,2.166,14.207,14.207,0,0,0-5.89,4.117,7,7,0,0,0-1.4,6.364,1,1,0,0,1-1.9.635,9.015,9.015,0,0,1,1.721-8.23,16.112,16.112,0,0,1,6.691-4.73,29.825,29.825,0,0,1,12.692-2.3,1,1,0,0,1,.961.995l.006,1.11a49.517,49.517,0,0,1-.558,9.7,16.89,16.89,0,0,1-4.708,9.085,11.244,11.244,0,0,1-7.54,3.078" fill="#fff"/>
          <path id="Tracé_2262" data-name="Tracé 2262" d="M715.623,463.921a.96.96,0,0,1-.183-.017,23.671,23.671,0,0,1-6.28-1.88,10.658,10.658,0,0,1-4.948-4.712c-1.172-2.421-1.22-5.489-.145-9.118a55.666,55.666,0,0,1,3.3-8,1,1,0,0,1,1.24-.511,14.035,14.035,0,0,0,2.64.467,14.937,14.937,0,0,1,3.077.571,20.025,20.025,0,0,1,4.915,2.287,12.728,12.728,0,0,1,4.947,8.133,20.652,20.652,0,0,1-.656,9.339,1,1,0,1,1-1.926-.54,18.71,18.71,0,0,0,.616-8.434,10.717,10.717,0,0,0-4.13-6.861,18.51,18.51,0,0,0-4.44-2.041,13.843,13.843,0,0,0-2.639-.468c-.747-.089-1.513-.179-2.2-.326a48.958,48.958,0,0,0-2.834,6.951c-.929,3.135-.921,5.718.028,7.677a8.663,8.663,0,0,0,4.036,3.792,21.893,21.893,0,0,0,5.755,1.706,1,1,0,0,1-.181,1.983" fill="#fff"/>
          <path id="Tracé_2263" data-name="Tracé 2263" d="M777.3,438.469c-.2,0-.393-.009-.592-.028a1,1,0,0,1-.9-1.09.986.986,0,0,1,1.09-.9c2.311.211,4.391-1.61,5.429-2.72,4.834-5.163,5.635-13.67,2.007-20.472a30.308,30.308,0,0,0-7.573,2.569c-3.277,1.623-5.524,3.6-6.677,5.861-1.169,2.3-1.253,5.792.894,7.747a1,1,0,0,1-1.348,1.478c-2.909-2.65-2.87-7.1-1.329-10.133,1.353-2.657,3.9-4.927,7.573-6.746a32.271,32.271,0,0,1,8.814-2.875,1,1,0,0,1,1.034.483c4.448,7.641,3.635,17.506-1.934,23.455-1.471,1.571-3.754,3.372-6.488,3.372" fill="#fff"/>
          <path id="Tracé_2264" data-name="Tracé 2264" d="M719.194,418.852a9.922,9.922,0,0,1-8.29-4.985,15.054,15.054,0,0,1-1.358-10.779,40.553,40.553,0,0,1,3.9-9.862.989.989,0,0,1,1.03-.539,21.472,21.472,0,0,1,12.6,6.2,14.825,14.825,0,0,1,3.737,13.2,1,1,0,1,1-1.945-.465,12.8,12.8,0,0,0-3.267-11.384,19.216,19.216,0,0,0-10.7-5.462A36.581,36.581,0,0,0,711.5,403.5a13.087,13.087,0,0,0,1.122,9.349c1.65,2.788,4.878,4.432,7.655,3.9a4.975,4.975,0,0,0,2.806-1.509,1,1,0,0,1,1.494,1.33,6.981,6.981,0,0,1-3.928,2.144,7.764,7.764,0,0,1-1.458.136" fill="#fff"/>
          <path id="Tracé_2265" data-name="Tracé 2265" d="M776.536,383.624a5.976,5.976,0,0,1-1.174-.115,1,1,0,1,1,.393-1.961,5.2,5.2,0,0,0,4.325-1.36,10.63,10.63,0,0,0,2.741-4.28c1.739-4.509,1.659-10.491,1.215-15.05a34.468,34.468,0,0,0-8.055,2.009,13.367,13.367,0,0,0-6.735,5.61,7.887,7.887,0,0,0,.1,8.079,1,1,0,0,1-1.643,1.14,9.919,9.919,0,0,1-.216-10.176,15.359,15.359,0,0,1,7.722-6.5,39.418,39.418,0,0,1,9.563-2.3,1.012,1.012,0,0,1,.755.2,1,1,0,0,1,.384.68c.556,4.877.793,11.791-1.228,17.027a12.517,12.517,0,0,1-3.287,5.063,7.489,7.489,0,0,1-4.863,1.933" fill="#fff"/>
          <path id="Tracé_2266" data-name="Tracé 2266" d="M716.1,364.247a12.059,12.059,0,0,1-11.264-8.155c-1.2-3.861-.292-7.8.587-11.614.355-1.536.721-3.125.932-4.658a1,1,0,0,1,1.251-.829,51.1,51.1,0,0,1,9.55,3.593,17.516,17.516,0,0,1,7.57,6.834,11.073,11.073,0,0,1,.487,10.3,1,1,0,0,1-1.779-.913,9.062,9.062,0,0,0-.454-8.413,15.535,15.535,0,0,0-6.727-6.024,48.2,48.2,0,0,0-8.1-3.145c-.219,1.247-.506,2.491-.785,3.7-.857,3.716-1.666,7.226-.627,10.57a9.925,9.925,0,0,0,10.671,6.648,1,1,0,1,1,.309,1.976,10.583,10.583,0,0,1-1.626.125" fill="#fff"/>
          <path id="Tracé_2267" data-name="Tracé 2267" d="M770.312,339.09a1,1,0,0,1-.046-2c1.75-.082,3.286-.217,4.364-1.045a6.547,6.547,0,0,0,1.656-2.28,20.1,20.1,0,0,0,2.259-9.451c-.076-2.859-1.928-5.143-3.94-7.533l-3.983,1.486a16.233,16.233,0,0,0-5.483,2.874,10.993,10.993,0,0,0-2.66,4.252,7.3,7.3,0,0,0-.6,2.9c.086,1.63,1.141,3.161,2.071,4.512.231.337.335.421.377.441a.979.979,0,0,1,.906,1.062,1.007,1.007,0,0,1-1.09.924,2.555,2.555,0,0,1-1.842-1.293c-1.026-1.491-2.3-3.346-2.421-5.538a9.2,9.2,0,0,1,.729-3.727,12.877,12.877,0,0,1,3.171-5.005,17.946,17.946,0,0,1,6.141-3.281l4.644-1.733a1,1,0,0,1,1.116.293l.261.311c2.216,2.629,4.505,5.347,4.6,9a22.1,22.1,0,0,1-2.472,10.4,8.321,8.321,0,0,1-2.224,2.97c-1.666,1.278-3.875,1.381-5.49,1.457h-.047" fill="#fff"/>
          <path id="Tracé_2268" data-name="Tracé 2268" d="M713.572,314.641a10.059,10.059,0,0,1-8.187-4.425,13.143,13.143,0,0,1-.988-11.933c.2-.514.425-1.022.653-1.53a10.231,10.231,0,0,0,1.149-3.744,1,1,0,0,1,1-.971h.016l.452.006a16.472,16.472,0,0,1,4.705.512,21.716,21.716,0,0,1,6.309,2.81c3.681,2.685,5.694,7.711,5.252,13.117a1,1,0,0,1-1.994-.163c.3-3.7-.705-8.617-4.436-11.338a19.91,19.91,0,0,0-5.741-2.521,13.374,13.374,0,0,0-3.662-.411,14.728,14.728,0,0,1-1.225,3.519c-.213.476-.426.953-.613,1.435a11.125,11.125,0,0,0,.78,10.092c1.976,2.923,5.864,4.29,8.849,3.117a1,1,0,0,1,.733,1.862,8.334,8.334,0,0,1-3.052.566" fill="#fff"/>
        </g>
      </g>
    </g>
    <g id="Groupe_600" data-name="Groupe 600" transform="translate(245 227.5)">
      <g id="Groupe_599" data-name="Groupe 599" clip-path="url(#clip-path-5)">
        <path id="Tracé_2269" data-name="Tracé 2269" d="M11.762,535.38H846.024c1.525,0,2.762-.732,2.762-1.634s-1.237-1.633-2.762-1.633H11.762c-1.525,0-2.762.731-2.762,1.633s1.237,1.634,2.762,1.634" fill="#03025f"/>
        <path id="Tracé_2270" data-name="Tracé 2270" d="M798.529,307.565a30,30,0,0,0,3.913,8.73,31.449,31.449,0,0,0,4.677,5.665,31.048,31.048,0,0,0,7.019-2.127,29.816,29.816,0,0,0,8.1-5.1c3.906-3.517,5.759-7.546,4.424-10.635-1.533-3.519-6.775-4.844-13.014-3.76-4.594-4.354-9.685-6.155-12.91-4.075-2.823,1.839-3.5,6.214-2.209,11.3" fill="#9eefe6"/>
        <path id="Tracé_2271" data-name="Tracé 2271" d="M800.151,325.339a1.31,1.31,0,0,1-.643-.332,32.655,32.655,0,0,1-4.874-5.9,31.478,31.478,0,0,1-4.085-9.118v0c-1.492-5.864-.46-10.619,2.762-12.718,3.584-2.312,8.925-.859,14.043,3.779,6.835-1.031,12.089.718,13.791,4.629,1.53,3.541-.245,8.074-4.747,12.128a31.225,31.225,0,0,1-8.455,5.327,32.165,32.165,0,0,1-7.315,2.215,1.317,1.317,0,0,1-.477-.005m-7.07-16a28.839,28.839,0,0,0,3.743,8.343,30.529,30.529,0,0,0,4.005,4.967,29.8,29.8,0,0,0,6.073-1.917,28.579,28.579,0,0,0,7.746-4.871c3.577-3.22,5.147-6.725,4.1-9.148-1.212-2.782-5.87-3.984-11.591-2.991a1.308,1.308,0,0,1-1.122-.339c-4.212-3.992-8.755-5.57-11.3-3.926-2.2,1.434-2.836,5.222-1.65,9.882" fill="#009e8f"/>
        <path id="Tracé_2272" data-name="Tracé 2272" d="M226.376,156.832a29.977,29.977,0,0,1-5.877,7.548,31.427,31.427,0,0,1-5.89,4.391,31,31,0,0,1-6.311-3.736,29.811,29.811,0,0,1-6.656-6.879c-2.957-4.346-3.8-8.7-1.767-11.383,2.326-3.053,7.732-3.094,13.535-.556,5.5-3.137,10.871-3.675,13.508-.888,2.305,2.457,1.926,6.869-.542,11.5" fill="#fff"/>
        <path id="Tracé_2273" data-name="Tracé 2273" d="M220.108,173.6a32.076,32.076,0,0,1-6.577-3.891,31.181,31.181,0,0,1-6.946-7.185c-3.409-5.009-4.055-9.833-1.727-12.909,2.585-3.394,8.1-3.844,14.5-1.216,6.074-3.288,11.608-3.429,14.539-.331,2.63,2.8,2.5,7.669-.342,13.011v0a31.486,31.486,0,0,1-6.136,7.885,32.615,32.615,0,0,1-6.138,4.572,1.3,1.3,0,0,1-1.168.061m11.884-23.74c-2.084-2.2-6.872-1.751-11.913,1.125a1.308,1.308,0,0,1-1.17.062c-5.321-2.325-10.131-2.265-11.97.148-1.593,2.1-.9,5.882,1.806,9.861a28.6,28.6,0,0,0,6.366,6.573,29.829,29.829,0,0,0,5.442,3.307,30.53,30.53,0,0,0,5.072-3.872,28.852,28.852,0,0,0,5.621-7.213c2.259-4.244,2.543-8.074.746-9.991" fill="#009e8f"/>
        <path id="Tracé_2274" data-name="Tracé 2274" d="M124.952,171.221l-.547-8.572a4.606,4.606,0,0,0-7.324-3.419l-6.922,5.086-8.573.547a4.606,4.606,0,0,0-3.418,7.324l5.085,6.922.548,8.572a4.606,4.606,0,0,0,7.323,3.419l6.923-5.086,8.572-.547a4.606,4.606,0,0,0,3.418-7.324Z" fill="#9eefe6"/>
        <path id="Tracé_2275" data-name="Tracé 2275" d="M722.928,243.081l-2.547-8.2a4.607,4.607,0,0,0-7.923-1.6l-5.532,6.571-8.2,2.547a4.606,4.606,0,0,0-1.6,7.922l6.57,5.533,2.548,8.2a4.606,4.606,0,0,0,7.922,1.6l5.533-6.571,8.2-2.547a4.606,4.606,0,0,0,1.6-7.922Z" fill="#fff"/>
        <path id="Tracé_2276" data-name="Tracé 2276" d="M701.277,262.4a5.833,5.833,0,0,1-4.474-4.042l-2.434-7.837-6.278-5.287a5.912,5.912,0,0,1,2.055-10.169l7.838-2.433,5.286-6.279a5.913,5.913,0,0,1,10.169,2.056l2.434,7.837,6.277,5.287A5.912,5.912,0,0,1,720.1,251.7l-7.839,2.434-5.286,6.278a5.821,5.821,0,0,1-4.485,2.109,6.1,6.1,0,0,1-1.209-.122m3.991-34.364-5.532,6.571a1.315,1.315,0,0,1-.612.406l-8.2,2.547a3.3,3.3,0,0,0-1.147,5.676l6.571,5.533a1.3,1.3,0,0,1,.406.612l2.548,8.2a3.3,3.3,0,0,0,5.675,1.147l5.533-6.571a1.305,1.305,0,0,1,.612-.406l8.2-2.548a3.3,3.3,0,0,0,1.147-5.675L713.9,238a1.3,1.3,0,0,1-.407-.612l-2.547-8.2a3.256,3.256,0,0,0-2.5-2.256,3.455,3.455,0,0,0-.674-.068,3.251,3.251,0,0,0-2.5,1.177M714.726,237h0Z" fill="#009e8f"/>
        <path id="Tracé_2277" data-name="Tracé 2277" d="M464.165,483.081l2.547-8.2a4.607,4.607,0,0,1,7.923-1.6l5.532,6.571,8.2,2.547a4.606,4.606,0,0,1,1.6,7.922l-6.57,5.533-2.548,8.2a4.606,4.606,0,0,1-7.922,1.6l-5.533-6.571-8.2-2.547a4.606,4.606,0,0,1-1.6-7.922Z" fill="#fff"/>
        <path id="Tracé_2278" data-name="Tracé 2278" d="M484.607,502.523a5.824,5.824,0,0,1-4.486-2.109l-5.286-6.278L467,491.7a5.912,5.912,0,0,1-2.055-10.168l6.278-5.287,2.434-7.837a5.913,5.913,0,0,1,10.169-2.056l5.286,6.279,7.838,2.433A5.913,5.913,0,0,1,499,485.235l-6.278,5.287-2.434,7.837a5.834,5.834,0,0,1-4.474,4.042,6.1,6.1,0,0,1-1.209.122m-5.286-35.663a3.447,3.447,0,0,0-.674.068,3.256,3.256,0,0,0-2.5,2.256l-2.548,8.2a1.305,1.305,0,0,1-.406.612l-6.57,5.533a3.3,3.3,0,0,0,1.146,5.675l8.2,2.548a1.31,1.31,0,0,1,.612.406l5.532,6.571a3.3,3.3,0,0,0,5.676-1.147l2.548-8.2a1.305,1.305,0,0,1,.406-.612l6.57-5.533a3.3,3.3,0,0,0-1.146-5.676l-8.2-2.547a1.31,1.31,0,0,1-.612-.406l-5.532-6.571a3.253,3.253,0,0,0-2.5-1.177M472.354,477h0Z" fill="#009e8f"/>
        <path id="Tracé_2279" data-name="Tracé 2279" d="M657.561,316.618c1.377-2.694,6.8-12.5,18.5-16.713a32.478,32.478,0,0,1,14.168-1.715q3.464,7.965,6.926,15.93a29.586,29.586,0,0,0-17.4-.074c-12.834,4-17.938,15.693-18.688,17.492l-3.51-14.92" fill="#fff"/>
        <path id="Tracé_2280" data-name="Tracé 2280" d="M325.358,115.967a23.853,23.853,0,0,1,12.815-11.591,22.476,22.476,0,0,1,9.83-1.171l4.83,11.083a20.507,20.507,0,0,0-12.073-.075c-8.9,2.762-12.426,10.881-12.945,12.13q-1.229-5.188-2.457-10.376" fill="#fff"/>
        <path id="Tracé_2281" data-name="Tracé 2281" d="M164.167,260.348c3.635-.54,17.151-2.1,29.574,6.495a39.451,39.451,0,0,1,11.691,12.8l-10.86,18.086a35.936,35.936,0,0,0-12.2-17.249c-13.011-9.862-28.168-6.66-30.476-6.132q6.135-7,12.272-14" fill="#fdb04b"/>
        <path id="Tracé_2282" data-name="Tracé 2282" d="M540.619,174.7c-2.705-.189-12.693-1.214-20.278-9.385a29.105,29.105,0,0,1-6.388-11.08q5.351-5.652,10.7-11.3A26.523,26.523,0,0,0,530.7,157.3c7.807,9.177,19.238,9.28,20.985,9.267L540.619,174.7" fill="#fdb04b"/>
        <path id="Tracé_2283" data-name="Tracé 2283" d="M196.607,423.392a25.878,25.878,0,0,1-17.5,6.526,24.336,24.336,0,0,1-10.339-2.72q-.21-6.5-.421-13.005a22.166,22.166,0,0,0,12.092,4.857c10.041.759,16.825-5.97,17.844-7.016q-.839,5.679-1.678,11.358" fill="#fff"/>
        <path id="Tracé_2284" data-name="Tracé 2284" d="M466.093,304.427a25.881,25.881,0,0,1-18.479-2.7,24.344,24.344,0,0,1-7.754-7.36l5.889-11.6a22.169,22.169,0,0,0,8.263,10.077c8.436,5.5,17.621,2.863,19.018,2.438l-6.937,9.148" fill="#fff"/>
        <path id="Tracé_2285" data-name="Tracé 2285" d="M790.221,82.957a1.5,1.5,0,0,0,0-3,1.5,1.5,0,0,0,0,3" fill="#fff"/>
      </g>
    </g>
  </g>
</svg>
