<svg id="Groupe_610" data-name="Groupe 610" xmlns="http://www.w3.org/2000/svg" xmlns:xlink="http://www.w3.org/1999/xlink" width="736" height="619.96" viewBox="0 0 736 619.96">
  <defs>
    <clipPath id="clip-path">
      <rect id="Rectangle_415" data-name="Rectangle 415" width="736" height="619.961" fill="none"/>
    </clipPath>
  </defs>
  <g id="Groupe_609" data-name="Groupe 609" clip-path="url(#clip-path)">
    <path id="Tracé_2287" data-name="Tracé 2287" d="M660.866,124.08c-9.194,0-17.569,5.933-23.868,15.663-7.635-7.3-16.451-11.458-25.841-11.458-24.506,0-45.107,28.349-51.012,66.756-13.292,8.663-22.726,30.509-22.726,56.09,0,33.177,15.868,60.071,35.442,60.071,7.242,0,13.976-3.681,19.587-10A34.3,34.3,0,0,0,611.157,307c23.654,0,43.668-26.41,50.343-62.784,19.281-.572,34.809-27.244,34.809-60.062,0-33.176-15.868-60.071-35.442-60.071" transform="translate(-376.002 -86.812)" fill="#7a37d9" fill-rule="evenodd"/>
    <path id="Tracé_2288" data-name="Tracé 2288" d="M950.239,261.123q-20.723-40.959,0-79.782c20.723-38.824,162.185-225.275,236.447-169.964q67.028-30.268,92.941,19.994T1239.96,159.343q57.643,12.044,39.667,62.521,39.615,21.121,24.462,67.159c-15.153,46.038-178.12,173.81-246.918,77.383q-57,64.064-111.632,27.728t4.7-133.011" transform="translate(-643.215 0)" fill="#7a37d9" fill-rule="evenodd"/>
    <path id="Tracé_2289" data-name="Tracé 2289" d="M1141.034,915.52c5.08,0,9.2,1.684,9.2,3.761s-4.118,3.761-9.2,3.761-9.2-1.684-9.2-3.761,4.118-3.761,9.2-3.761" transform="translate(-791.881 -640.537)" fill="#1f1e1a" fill-rule="evenodd"/>
    <path id="Tracé_2290" data-name="Tracé 2290" d="M1399.945,791.231c5.08,0,9.2,1.684,9.2,3.761s-4.118,3.761-9.2,3.761-9.2-1.684-9.2-3.761,4.118-3.761,9.2-3.761" transform="translate(-973.027 -553.579)" fill="#1f1e1a" fill-rule="evenodd"/>
    <path id="Tracé_2291" data-name="Tracé 2291" d="M1596.642,1196.561q-1.9,13.189,4.594,20.929c.428.51,34.382,31.654,32.544,32.221l-56.179-6.151q-7.706-3.264-3.441-12.821l6.669-11.6q.21-13.6-3.231-22.579Z" transform="translate(-1100.287 -837.166)" fill="#d64800" fill-rule="evenodd"/>
    <path id="Tracé_2292" data-name="Tracé 2292" d="M1595.986,1235.99a20.887,20.887,0,0,0,4.391,9.086c1.191,1.42,11.406,13.91,33.672,31.071.028,3.2,2.222,2.036-2.5,3.492l-55.69-8.161c-5.137-2.176-5.525-5.6-2.682-11.969l6.794-12.783q-.087-7.107-.431-10.281Z" transform="translate(-1099.427 -864.752)" fill="#ffeacf" fill-rule="evenodd"/>
    <path id="Tracé_2293" data-name="Tracé 2293" d="M1645.006,1245.04a1.2,1.2,0,0,1-1.1-.719,46.178,46.178,0,0,1-2.576-8.648,1.2,1.2,0,1,1,2.35-.5,43.9,43.9,0,0,0,2.425,8.183,1.2,1.2,0,0,1-1.1,1.685" transform="translate(-1148.326 -863.515)" fill="#ff3d00"/>
    <path id="Tracé_2294" data-name="Tracé 2294" d="M1627.665,1247a1.2,1.2,0,0,1-1.165-.912,77.124,77.124,0,0,1-1.088-9.525,1.2,1.2,0,1,1,2.4-.186,77.744,77.744,0,0,0,1.024,9.132,1.2,1.2,0,0,1-1.167,1.491" transform="translate(-1137.206 -864.249)" fill="#ff3d00"/>
    <path id="Tracé_2295" data-name="Tracé 2295" d="M1609.434,1249.222a1.2,1.2,0,0,1-1.2-1.2v-9.112a1.2,1.2,0,0,1,2.4,0v9.112a1.2,1.2,0,0,1-1.2,1.2" transform="translate(-1125.189 -865.953)" fill="#ff3d00"/>
    <path id="Tracé_2296" data-name="Tracé 2296" d="M1596.8,1263.255q3.786,3.963,11.505,11.04t23.1,20.685q-.793,4.734-8.15,5.654l-54.059-9.811q-7.022-4.552-1.161-13.224l7.618-16.206a18.632,18.632,0,0,0,10.129,3.9,21.922,21.922,0,0,0,11.023-2.036" transform="translate(-1095.193 -882.526)" fill="#1f1e1a" fill-rule="evenodd"/>
    <path id="Tracé_2297" data-name="Tracé 2297" d="M1687.809,1358.553a1.209,1.209,0,0,1-.185-.014l-26.174-4.047a1.2,1.2,0,0,1,.367-2.375l26.174,4.047a1.2,1.2,0,0,1-.182,2.389" transform="translate(-1161.71 -945.989)" fill="#fdeed7"/>
    <path id="Tracé_2298" data-name="Tracé 2298" d="M1624.91,1366.738l-.194-.035-55.24-10.063a1.5,1.5,0,1,1,.539-2.955l55.042,10.027c3.623-.337,5.8-1.838,6.644-4.583a1.5,1.5,0,1,1,2.87.885c-.858,2.782-3.2,6.2-9.465,6.708Z" transform="translate(-1097.211 -947.079)" fill="#fdeed7"/>
    <path id="Tracé_2299" data-name="Tracé 2299" d="M1283.554,802.477l77.884-13.351a26.732,26.732,0,0,1,30.864,21.831q.038.222.072.444,3.258,21.14,3.258,34.4c0,20.84,6.68,52.173,8.468,64.849l-37.631,11.1q-8.941-74.425-11.45-96l-74.905,21.573Z" transform="translate(-895.623 -551.835)" fill="#5586de" fill-rule="evenodd"/>
    <path id="Tracé_2300" data-name="Tracé 2300" d="M1526.7,895.172a1.2,1.2,0,0,1-.929-1.963l5.347-6.529a1.2,1.2,0,1,1,1.859,1.523l-5.346,6.529a1.2,1.2,0,0,1-.93.44" transform="translate(-1067.306 -620.052)" fill="#1f1e1a"/>
    <path id="Tracé_2301" data-name="Tracé 2301" d="M1575.875,1181.212a1.2,1.2,0,0,1-.367-2.346l30.658-9.834a1.2,1.2,0,1,1,.734,2.288l-30.658,9.835a1.2,1.2,0,0,1-.367.058" transform="translate(-1101.71 -817.865)" fill="#fdeed7"/>
    <path id="Tracé_2302" data-name="Tracé 2302" d="M869.319,446.331q-6.485-15.337-8.624-15.768c-.862-.174-1.781.758-1.959,2.521a20.812,20.812,0,0,0,.485,4.577q-9.08-6.636-12.818-8.91c-3.738-2.274-9.232,8.36-3.505,15.079a174.562,174.562,0,0,0,14.495,14.794Z" transform="translate(-587.993 -299.754)" fill="#d64800" fill-rule="evenodd"/>
    <path id="Tracé_2303" data-name="Tracé 2303" d="M889.459,471.864a1.2,1.2,0,0,1-1.124-1.627l3.507-9.271a1.2,1.2,0,1,1,2.247.85l-3.507,9.271a1.2,1.2,0,0,1-1.124.777" transform="translate(-621.463 -321.968)" fill="#1f1e1a"/>
    <path id="Tracé_2304" data-name="Tracé 2304" d="M859.427,439.161a1.2,1.2,0,0,1-.767-.277l-6.425-5.336a1.2,1.2,0,0,1,1.535-1.848l6.426,5.336a1.2,1.2,0,0,1-.768,2.126" transform="translate(-595.957 -301.842)" fill="#1f1e1a"/>
    <path id="Tracé_2305" data-name="Tracé 2305" d="M854.1,451.4a1.2,1.2,0,0,1-.706-.23l-7.59-5.517a1.2,1.2,0,0,1,1.413-1.944l7.59,5.517a1.2,1.2,0,0,1-.707,2.173" transform="translate(-591.412 -310.278)" fill="#1f1e1a"/>
    <path id="Tracé_2306" data-name="Tracé 2306" d="M848.957,462.1a1.2,1.2,0,0,1-.721-.241l-4.307-3.234a1.2,1.2,0,0,1,1.443-1.921l4.307,3.234a1.2,1.2,0,0,1-.722,2.162" transform="translate(-590.113 -319.363)" fill="#1f1e1a"/>
    <path id="Tracé_2307" data-name="Tracé 2307" d="M1186.8,398.8q-3.6,20.006-15.376,23.9l-19.2,7.274,5,66.134-5,51.64,80.724-25.589-4.323-93.37q-27.849-2.12-25.543-25.748Z" transform="translate(-806.146 -279.018)" fill="#d64800" fill-rule="evenodd"/>
    <path id="Tracé_2308" data-name="Tracé 2308" d="M1018.258,1458.125q1.9,13.189-4.594,20.928-1.787,2.131-39.588,25.238-.041,4.8,7.044,6.983l56.181-.455q7.706-3.264,3.441-12.821l-6.672-17.295q-.21-13.595,3.231-22.579Z" transform="translate(-681.506 -1020.167)" fill="#ef8f00" fill-rule="evenodd"/>
    <path id="Tracé_2309" data-name="Tracé 2309" d="M1018.054,1497.554a20.887,20.887,0,0,1-4.391,9.086q-1.787,2.131-39.588,25.238-.04,4.8,7.045,6.983l56.181-.455q7.706-3.264,3.441-12.821l-6.672-17.295q.087-7.107.431-10.281Z" transform="translate(-681.505 -1047.753)" fill="#ffeacf" fill-rule="evenodd"/>
    <path id="Tracé_2310" data-name="Tracé 2310" d="M1117.3,1506.6a1.2,1.2,0,0,1-1.1-1.685,43.886,43.886,0,0,0,2.426-8.183,1.2,1.2,0,1,1,2.35.5,46.175,46.175,0,0,1-2.576,8.648,1.2,1.2,0,0,1-1.1.719" transform="translate(-780.87 -1046.516)" fill="#ff3d00"/>
    <path id="Tracé_2311" data-name="Tracé 2311" d="M1138,1508.567a1.2,1.2,0,0,1-1.167-1.491,77.8,77.8,0,0,0,1.025-9.132,1.2,1.2,0,1,1,2.4.186,77.1,77.1,0,0,1-1.088,9.525,1.2,1.2,0,0,1-1.165.912" transform="translate(-795.355 -1047.251)" fill="#ff3d00"/>
    <path id="Tracé_2312" data-name="Tracé 2312" d="M1158.7,1510.785a1.2,1.2,0,0,1-1.2-1.2v-9.112a1.2,1.2,0,1,1,2.4,0v9.112a1.2,1.2,0,0,1-1.2,1.2" transform="translate(-809.833 -1048.955)" fill="#ff3d00"/>
    <path id="Tracé_2313" data-name="Tracé 2313" d="M1013.666,1527.8q-4.417,3.245-13.249,8.875t-26.339,16.363q-.042,4.8,7.044,6.983l56.181-.455q7.706-3.264,3.441-12.821l-6.672-17.295a14.86,14.86,0,0,1-9.905,2.268,21.918,21.918,0,0,1-10.5-3.918" transform="translate(-681.507 -1068.918)" fill="#1f1e1a" fill-rule="evenodd"/>
    <path id="Tracé_2314" data-name="Tracé 2314" d="M1027.62,1610.35h0l-26.408-.064a1.2,1.2,0,0,1,0-2.4h0l26.408.064a1.2,1.2,0,0,1,0,2.4" transform="translate(-699.651 -1124.944)" fill="#fdeed7"/>
    <path id="Tracé_2315" data-name="Tracé 2315" d="M977.434,1616.819l-.19-.05c-6.086-1.586-7.794-5.362-8.156-8.25a1.5,1.5,0,0,1,2.98-.373c.362,2.891,2.19,4.7,5.747,5.667l55.948-.321h.009a1.5,1.5,0,0,1,.009,3Z" transform="translate(-678.007 -1124.209)" fill="#fdeed7"/>
    <path id="Tracé_2316" data-name="Tracé 2316" d="M1104.219,923.836c0,19.7-8.735,40.444-8.735,60.154q0,19.709-6.224,53.275h34.564q26.244-137.143,28.738-160.217,1.08-9.987,4.117-36.191h-42.786q-9.675,63.282-9.675,82.979" transform="translate(-762.093 -588.3)" fill="#5586de" fill-rule="evenodd"/>
    <path id="Tracé_2317" data-name="Tracé 2317" d="M1117.3,1103.625a1.233,1.233,0,0,1-.149-.009,1.2,1.2,0,0,1-1.045-1.34l19.335-156.371a1.2,1.2,0,1,1,2.385.295l-19.335,156.371a1.2,1.2,0,0,1-1.191,1.054" transform="translate(-780.869 -661.059)" fill="#ffc752"/>
    <path id="Tracé_2318" data-name="Tracé 2318" d="M1131.671,1467.871h-25.938a1.2,1.2,0,0,1,0-2.4h25.938a1.2,1.2,0,0,1,0,2.4" transform="translate(-772.778 -1025.305)" fill="#fdeed7"/>
    <path id="Tracé_2319" data-name="Tracé 2319" d="M1284.735,969.614a1.237,1.237,0,0,1-.166-.011,1.2,1.2,0,0,1-1.026-1.355l5.916-42.872a1.2,1.2,0,1,1,2.38.329l-5.915,42.872a1.2,1.2,0,0,1-1.189,1.037" transform="translate(-898.014 -646.707)" fill="#1f1e1a"/>
    <path id="Tracé_2320" data-name="Tracé 2320" d="M1194.665,468.407l-14.572-11.331a17.769,17.769,0,0,1-8.671,6.4l-19.2,7.274,5,66.134-5,51.64q29.689-5.224,44.693-9.79t36.589-14.939l-4.88-94.229q-20.155-5-23.643-12.2Z" transform="translate(-806.146 -319.79)" fill="#698231" fill-rule="evenodd"/>
    <path id="Tracé_2321" data-name="Tracé 2321" d="M1233.72,280.949q-9.063-3.913-11.709-14.771c-2.646-10.858,6.272-15.145,12.733-14.834q.872-15.455,10.169-17.67t9.567,10.486q5.654-4.646,10.476-1.358c4.821,3.289,6.494,16.084-2.644,22.874q-9.139,6.79-28.592,15.272" transform="translate(-854.638 -163.258)" fill="#1f1e1a" fill-rule="evenodd"/>
    <path id="Tracé_2322" data-name="Tracé 2322" d="M1234.067,319.453a7.692,7.692,0,0,1-2.695-.648,1.2,1.2,0,0,1,.89-2.232,8.765,8.765,0,0,0,1.1.369l-.03-.042c-.712-.977-1.6-2.193-1.359-3.473a2.375,2.375,0,0,1,1.111-1.579c1.424-.919,1.517-2.017,1.463-2.279a1.2,1.2,0,0,1,2.266-.8c.4,1.105.1,3.467-2.425,5.1a.565.565,0,0,0-.05.035,5.816,5.816,0,0,0,.936,1.584c.692.949,1.552,2.13.681,3.17a2.341,2.341,0,0,1-1.892.8m.488-9.874,0,.01,0-.01" transform="translate(-860.992 -215.474)" fill="#ffc74b"/>
    <path id="Tracé_2323" data-name="Tracé 2323" d="M1263.919,342.249q-11.18,4.069-18.372-7.17-8.015-3.444-8.2-8.052c-.189-4.608,6.439-5.512,8.667-3.155l-1.075-12.772,24.589-4.08q5.575,31.16-5.606,35.229" transform="translate(-865.696 -214.804)" fill="#d64800" fill-rule="evenodd"/>
    <path id="Tracé_2324" data-name="Tracé 2324" d="M1329.659,325.21a8.46,8.46,0,1,1,2.9-.514,8.419,8.419,0,0,1-2.9.514m0-14.492a6.042,6.042,0,1,0,5.685,3.975,6.025,6.025,0,0,0-5.685-3.975m-2.473-.764h0Z" transform="translate(-924.378 -215.711)" fill="#fff"/>
    <path id="Tracé_2325" data-name="Tracé 2325" d="M1277.97,333.339a8.459,8.459,0,1,1,2.9-.514,8.419,8.419,0,0,1-2.9.514m0-14.492a6.042,6.042,0,1,0,5.685,3.975,6.018,6.018,0,0,0-5.685-3.975m-2.474-.764h0Z" transform="translate(-888.215 -221.398)" fill="#fff"/>
    <path id="Tracé_2326" data-name="Tracé 2326" d="M1257.92,346a1.2,1.2,0,0,1-.166-2.391l3.971-.559a1.2,1.2,0,1,1,.334,2.379l-3.971.558a1.192,1.192,0,0,1-.169.012" transform="translate(-879.256 -240.005)" fill="#fff"/>
    <path id="Tracé_2327" data-name="Tracé 2327" d="M1295.744,343.013a1.393,1.393,0,1,1-.833,1.786,1.393,1.393,0,0,1,.833-1.786" transform="translate(-905.916 -239.928)" fill="#372d2d" fill-rule="evenodd"/>
    <path id="Tracé_2328" data-name="Tracé 2328" d="M1335.486,335.76a1.393,1.393,0,1,1-.833,1.786,1.393,1.393,0,0,1,.833-1.786" transform="translate(-933.722 -234.853)" fill="#372d2d" fill-rule="evenodd"/>
    <path id="Tracé_2329" data-name="Tracé 2329" d="M1302.929,384.956a8.051,8.051,0,0,1-4.326-1.355,1.2,1.2,0,1,1,1.285-2.03,4.992,4.992,0,0,0,5.754.158,1.2,1.2,0,1,1,1.249,2.053,7.56,7.56,0,0,1-3.962,1.174" transform="translate(-908.167 -266.833)" fill="#fff"/>
    <path id="Tracé_2330" data-name="Tracé 2330" d="M1284.363,267.78a1.2,1.2,0,0,1-1.032-1.814c2.927-4.938,6.132-6.856,9.526-5.7a1.2,1.2,0,0,1-.775,2.275c-.808-.275-3.268-1.113-6.684,4.65a1.2,1.2,0,0,1-1.034.589" transform="translate(-897.756 -181.865)" fill="#ffc74b"/>
    <path id="Tracé_2331" data-name="Tracé 2331" d="M968.96,478.382c-13.7,5.309-25.623,4.583-37.455,23.031Q919.673,519.86,915.436,527.8l-28.678-49.419L862.846,498.1l38.02,64.373a14.718,14.718,0,0,0,24.7,1L950.72,527.8q3.413,23.14,0,33.566c-3.413,10.426-.393,20.688-1.9,26.028-1.006,3.56-4.593,13.356-5.4,26.135q13.875-5.916,23.9-7.706a24.69,24.69,0,0,1,19,4.418l3.343-86.513Z" transform="translate(-603.684 -334.697)" fill="#ffeacf" fill-rule="evenodd"/>
    <path id="Tracé_2332" data-name="Tracé 2332" d="M917.839,553.317a1.228,1.228,0,0,1-.174-.013c-5.652-.818-9.606-2.707-11.752-5.615a11.168,11.168,0,0,1-1.734-8.655c1.367-8.724-1.672-9.742-3.488-10.351-.246-.082-.478-.16-.691-.251-.1-.042-.2-.084-.31-.126a3.767,3.767,0,0,1-2.594-2.357c-.5-1.759.481-4.185,3.19-7.864.911-1.238.834-1.678.833-1.682-.44-.592-3.845-.48-5.675-.419-3.673.122-7.144.238-8.185-1.846-1.06-2.123-.01-5.9,15.818-17.8a1.2,1.2,0,0,1,1.444,1.921,104.919,104.919,0,0,0-12.3,10.392c-3.249,3.425-2.819,4.4-2.814,4.41s.21.344,1.659.5a34.443,34.443,0,0,0,4.3.023c3.682-.122,6.863-.229,7.885,1.711.865,1.643-.56,3.579-1.029,4.215-2.9,3.944-2.935,5.356-2.814,5.78.1.334.508.52,1.174.786.126.05.248.1.365.149s.3.113.51.182c3.352,1.124,6.579,3.547,5.1,13a8.755,8.755,0,0,0,1.293,6.857c1.75,2.372,5.17,3.941,10.163,4.664a1.2,1.2,0,0,1-.171,2.391" transform="translate(-620.558 -347.093)" fill="#f4d1a3"/>
    <path id="Tracé_2333" data-name="Tracé 2333" d="M1319.1,363.118a44.2,44.2,0,0,0,25.563,5.674q14.008-.953,35.369-9.912l38.651-44.142,17.61,20-32.861,42a30.034,30.034,0,0,1-13.157,9.633l-50.095,18.688q1.775,26.064,1.775,33.785T1350.677,461q-6.016-3.859-11.3,0c-11.722,8.564-4.577,22.086-32.15,31.7l1.384-85.511Z" transform="translate(-914.593 -220.204)" fill="#ffeacf" fill-rule="evenodd"/>
    <path id="Tracé_2334" data-name="Tracé 2334" d="M1685.039,289.843q6.485-15.337,8.625-15.768c.862-.174,1.781.758,1.96,2.521a20.841,20.841,0,0,1-.486,4.577,86.018,86.018,0,0,0,9.929-4.986c3.739-2.274,9.232,8.361,3.506,15.079a63.98,63.98,0,0,1-11.606,10.87Z" transform="translate(-1178.926 -191.74)" fill="#d64800" fill-rule="evenodd"/>
    <path id="Tracé_2335" data-name="Tracé 2335" d="M1307.8,547.728a1.2,1.2,0,0,1-1.041-1.8l13.894-24.232-5.1-5.01a1.2,1.2,0,0,1,.685-2.048l6.505-.857,7.384-24.812a1.2,1.2,0,0,1,2.3.685l-7.606,25.559a1.2,1.2,0,0,1-.995.849l-4.835.637,4,3.933a1.2,1.2,0,0,1,.2,1.455l-14.355,25.037a1.2,1.2,0,0,1-1.043.6" transform="translate(-914.153 -341.503)" fill="#f4d1a3"/>
    <path id="Tracé_2336" data-name="Tracé 2336" d="M1211.465,545.853a1.2,1.2,0,0,1-1.018-.562L1195.2,521.058a1.2,1.2,0,0,1-.1-1.087l2.552-6.359-5.694-.749a1.2,1.2,0,0,1-.962-.753l-9.82-25.039a1.2,1.2,0,0,1,2.237-.877l9.561,24.38,6.526.858a1.2,1.2,0,0,1,.958,1.639l-2.9,7.227,14.924,23.715a1.2,1.2,0,0,1-1.016,1.841" transform="translate(-826.342 -339.628)" fill="#f4d1a3"/>
    <path id="Tracé_2337" data-name="Tracé 2337" d="M1232.417,457.076l14.571,11.331-8.322,7.169a.9.9,0,0,1-1.271-.094l-.03-.037-10.354-13.4Z" transform="translate(-858.47 -319.79)" fill="#698231" fill-rule="evenodd"/>
    <path id="Tracé_2338" data-name="Tracé 2338" d="M1293.522,469.072l6.18,5.428a1.5,1.5,0,0,0,2.249-.308l7.557-11.584-5.668-4.581Z" transform="translate(-905.004 -320.455)" fill="#698231" fill-rule="evenodd"/>
    <path id="Tracé_2339" data-name="Tracé 2339" d="M1274.33,499.961l6.513,6.816,5.479-6.816-6.113-5.731Z" transform="translate(-891.576 -345.785)" fill="#1f1e1a" fill-rule="evenodd"/>
    <path id="Tracé_2340" data-name="Tracé 2340" d="M1269.159,520.735q-7.96,17.778-4.614,33.968t18.544,37.231l21.156,3.026-.8-17.094q-18.679-22.908-21.731-33.55a191.937,191.937,0,0,1-5.047-23.58l-3.484,4.119Z" transform="translate(-884.038 -364.329)" fill="#1f1e1a" fill-rule="evenodd"/>
    <path id="Tracé_2341" data-name="Tracé 2341" d="M1712.383,353.05c10.082-1.778,17.9-5.245,17.456-7.746l-.484-2.743A123.553,123.553,0,0,0,1710.786,344a115.979,115.979,0,0,0-17.939,5l.484,2.743c.441,2.5,8.971,3.086,19.052,1.308" transform="translate(-1184.389 -239.67)" fill="#1f1e1a" fill-rule="evenodd"/>
    <path id="Tracé_2342" data-name="Tracé 2342" d="M1710.26,335.81c10.081-1.777,18.611-1.192,19.052,1.308s-7.375,5.968-17.456,7.745-18.612,1.192-19.052-1.308,7.375-5.968,17.456-7.746" transform="translate(-1184.347 -234.228)" fill="#ff3900" fill-rule="evenodd"/>
    <path id="Tracé_2343" data-name="Tracé 2343" d="M1724.879,269.614l8.509-1.5,4.039,22.906a4.32,4.32,0,1,1-8.509,1.5Z" transform="translate(-1206.8 -187.584)" fill="#fff291" fill-rule="evenodd"/>
    <path id="Tracé_2344" data-name="Tracé 2344" d="M1708.58,255.95l16.672-2.94.126.718a8.464,8.464,0,1,1-16.671,2.94Z" transform="translate(-1195.396 -177.017)" fill="#1f1e1a" fill-rule="evenodd"/>
    <path id="Tracé_2345" data-name="Tracé 2345" d="M1613.431,186.272a14.3,14.3,0,0,1-2.452-28.377l11.895-2.1,4.965,28.156-11.9,2.1a14.472,14.472,0,0,1-2.513.221m-2.034-26.011a11.892,11.892,0,1,0,4.13,23.423l9.528-1.68-4.13-23.423Z" transform="translate(-1118.845 -109.003)" fill="#ff3900"/>
    <path id="Tracé_2346" data-name="Tracé 2346" d="M1751.955,166.406l-4.965-28.156,11.9-2.1a14.3,14.3,0,0,1,4.964,28.156Zm-2.182-26.207,4.13,23.423,9.529-1.68a11.892,11.892,0,0,0-4.13-23.423Z" transform="translate(-1222.27 -95.103)" fill="#ff3900"/>
    <path id="Tracé_2347" data-name="Tracé 2347" d="M1640.132,132.617l43.645-7.7,3.215,18.234a22.159,22.159,0,1,1-43.645,7.7Z" transform="translate(-1147.507 -87.4)" fill="#fff291" fill-rule="evenodd"/>
    <path id="Tracé_2348" data-name="Tracé 2348" d="M1665.972,197.672a1.2,1.2,0,0,1-1.1-.714l-3.778-8.5-.475,2.582a1.2,1.2,0,0,1-2.3.223l-5.748-14.615a1.2,1.2,0,1,1,2.236-.879l4.209,10.7.417-2.266a1.2,1.2,0,0,1,2.28-.271l5.355,12.054a1.2,1.2,0,0,1-1.1,1.689" transform="translate(-1156.153 -122.439)" fill="#fff"/>
    <path id="Tracé_2349" data-name="Tracé 2349" d="M1661.2,119.822c12.052-2.125,22.18-1.821,22.62.679s-8.972,6.25-21.024,8.375-22.18,1.821-22.621-.679,8.972-6.25,21.024-8.375" transform="translate(-1147.529 -82.843)" fill="#ff3900" fill-rule="evenodd"/>
    <path id="Tracé_2350" data-name="Tracé 2350" d="M1652.163,136.122a1.2,1.2,0,0,1-.645-2.216,46.782,46.782,0,0,1,12.838-5.181,1.2,1.2,0,1,1,.619,2.321,44.464,44.464,0,0,0-12.168,4.887,1.2,1.2,0,0,1-.643.187" transform="translate(-1155.083 -90.033)" fill="#fff"/>
    <path id="Tracé_2351" data-name="Tracé 2351" d="M1704.788,186.455l-4.09,3.163a1.2,1.2,0,0,1-1.936-.945l-.024-5.167a1.2,1.2,0,0,0-.525-.988l-4.271-2.908a1.2,1.2,0,0,1,.3-2.134l4.909-1.62a1.2,1.2,0,0,0,.777-.8l1.449-4.962a1.2,1.2,0,0,1,2.122-.374l3.059,4.167a1.2,1.2,0,0,0,1.005.49l5.167-.156a1.2,1.2,0,0,1,1.011,1.9l-3.019,4.194a1.2,1.2,0,0,0-.156,1.108l1.745,4.863a1.2,1.2,0,0,1-1.5,1.55l-4.925-1.574a1.2,1.2,0,0,0-1.1.194" transform="translate(-1184.787 -118.398)" fill="#ff3900" fill-rule="evenodd"/>
    <path id="Tracé_2352" data-name="Tracé 2352" d="M1199.342,802.487h-17.049a1.2,1.2,0,0,1,0-2.4h17.049a1.2,1.2,0,0,1,0,2.4" transform="translate(-826.342 -559.773)" fill="#1f1e1a"/>
    <path id="Tracé_2353" data-name="Tracé 2353" d="M1346.977,787.535a1.2,1.2,0,0,1-.207-2.385l16.791-2.959a1.2,1.2,0,0,1,.417,2.367l-16.791,2.959a1.215,1.215,0,0,1-.21.018" transform="translate(-941.564 -547.242)" fill="#1f1e1a"/>
    <path id="Tracé_2354" data-name="Tracé 2354" d="M1300.336,485.94a2.429,2.429,0,0,1-1.609-.606l-5.579-4.9a1.2,1.2,0,1,1,1.586-1.805l5.579,4.9a.039.039,0,0,0,.054,0l6.783-10.4a1.2,1.2,0,0,1,2.013,1.313l-6.781,10.394a2.472,2.472,0,0,1-.211.277,2.436,2.436,0,0,1-1.835.829" transform="translate(-904.457 -330.639)" fill="#566d21"/>
    <path id="Tracé_2355" data-name="Tracé 2355" d="M1235.42,489.852a2.435,2.435,0,0,1-1.835-.828,2.546,2.546,0,0,1-.172-.219l-10.008-12.411a1.2,1.2,0,0,1,1.871-1.508l10.039,12.45c.025.031.05.065.072.1a.039.039,0,0,0,.044.014l7.529-7.726a1.2,1.2,0,1,1,1.721,1.677l-7.585,7.784c-.022.022-.044.044-.068.064a2.431,2.431,0,0,1-1.609.606" transform="translate(-855.761 -331.937)" fill="#566d21"/>
    <path id="Tracé_2356" data-name="Tracé 2356" d="M1152.141,637.9a1.2,1.2,0,0,1-1.184-1.007c-.734-4.483-.706-10.867-.685-15.529,0-.713.006-1.384.006-2a42.31,42.31,0,0,0-1.979-11.246,1.2,1.2,0,0,1,2.308-.67,44.592,44.592,0,0,1,2.074,11.915c0,.619,0,1.294-.006,2.011-.021,4.577-.048,10.846.653,15.13a1.2,1.2,0,0,1-1.187,1.4" transform="translate(-803.366 -424.39)" fill="#1f1e1a"/>
    <path id="Tracé_2357" data-name="Tracé 2357" d="M1413.491,600.616a1.2,1.2,0,0,1-1.2-1.1c-.09-1.029-.074-2.5-.055-4.2.028-2.475.063-5.554-.208-8.649l-.67-7.644a1.2,1.2,0,1,1,2.393-.209l.669,7.644c.281,3.213.246,6.358.218,8.885-.019,1.635-.034,3.048.045,3.959a1.2,1.2,0,0,1-1.092,1.3q-.054,0-.106,0" transform="translate(-987.447 -404.202)" fill="#1f1e1a"/>
    <path id="Tracé_2358" data-name="Tracé 2358" d="M1027.524,650.75a1.2,1.2,0,0,1-1.168-1.486l1.959-8.052a1.2,1.2,0,0,1,2.335.568l-1.96,8.052a1.2,1.2,0,0,1-1.166.918" transform="translate(-718.059 -447.978)" fill="#1f1e1a"/>
    <path id="Tracé_2359" data-name="Tracé 2359" d="M1550.266,462.032a1.2,1.2,0,0,1-.583-.152l-3.458-1.925a1.2,1.2,0,1,1,1.168-2.1l3.458,1.925a1.2,1.2,0,0,1-.585,2.251" transform="translate(-1081.374 -320.23)" fill="#1f1e1a"/>
    <path id="Tracé_2360" data-name="Tracé 2360" d="M1590.724,409.685a26.15,26.15,0,0,1-2.712-.147,1.2,1.2,0,1,1,.249-2.39c4.616.482,8.132-.332,10.448-2.419,3.7-3.333,3.7-9.355,3.7-12.249v-.041c0-3.777,2.353-4.389,3.91-4.793,1.016-.264,1.605-.443,1.9-1.049.36-.748-.28-2.649-.845-4.327-1.021-3.029-2.177-6.463-.4-9.19a3.939,3.939,0,0,1,2.771-1.808c2.576-.39,6.088,1.352,11.059,5.482a1.2,1.2,0,1,1-1.536,1.848c-5.617-4.668-8.151-5.107-9.163-4.954a1.52,1.52,0,0,0-1.116.742c-1.139,1.752-.179,4.6.667,7.112.815,2.418,1.519,4.507.734,6.137a4.661,4.661,0,0,1-3.457,2.332c-1.45.377-2.112.549-2.112,2.468v.041c0,3.241,0,9.985-4.493,14.034-2.341,2.109-5.56,3.171-9.594,3.171" transform="translate(-1110.288 -259.72)" fill="#f4d1a3"/>
    <path id="Tracé_2361" data-name="Tracé 2361" d="M1784.013,50.907c2.285-1.092,7.1-5.706,8.008-14.74l.164-.992a1.308,1.308,0,0,1,1.291-1.1,1.256,1.256,0,0,1,1.244,1.082q.894,6.389,3.926,10.039a15.943,15.943,0,0,0,5.753,4.585,2.266,2.266,0,0,1,1.355,2.075,2.592,2.592,0,0,1-1.326,2.262,14.409,14.409,0,0,0-7.489,9.568,63.619,63.619,0,0,0-1.6,10.308,1.693,1.693,0,0,1-1.689,1.59,1.738,1.738,0,0,1-1.732-1.6q-.832-10.274-5.129-14.317a18.351,18.351,0,0,0-7.189-4.6,1.608,1.608,0,0,1-1.174-1.548,1.439,1.439,0,0,1,1.256-1.427,14.165,14.165,0,0,0,4.333-1.2" transform="translate(-1244.262 -23.844)" fill="#fff" fill-rule="evenodd"/>
    <path id="Tracé_2362" data-name="Tracé 2362" d="M1839.685,51.621a1.192,1.192,0,0,1-.428-.079c-5.486-2.093-8.966-7.071-10.343-14.8a1.2,1.2,0,1,1,2.365-.422c1.236,6.933,4.126,11.177,8.834,12.973a1.2,1.2,0,0,1-.429,2.324" transform="translate(-1279.574 -24.72)" fill="#ff3d00"/>
    <path id="Tracé_2363" data-name="Tracé 2363" d="M1542.353,186.36c1.654-.791,5.14-4.136,5.8-10.684l.118-.72a.947.947,0,0,1,.935-.793.91.91,0,0,1,.9.784,14.279,14.279,0,0,0,2.843,7.278,11.549,11.549,0,0,0,4.165,3.323,1.643,1.643,0,0,1,.982,1.5,1.881,1.881,0,0,1-.961,1.64,10.44,10.44,0,0,0-5.422,6.935,46.178,46.178,0,0,0-1.161,7.473,1.225,1.225,0,0,1-1.223,1.152,1.258,1.258,0,0,1-1.254-1.156q-.6-7.448-3.713-10.378a13.29,13.29,0,0,0-5.2-3.332,1.166,1.166,0,0,1-.851-1.123,1.043,1.043,0,0,1,.911-1.034,10.252,10.252,0,0,0,3.136-.867" transform="translate(-1076.265 -121.852)" fill="#fff" fill-rule="evenodd"/>
    <path id="Tracé_2364" data-name="Tracé 2364" d="M1582.379,186.3a1.2,1.2,0,0,1-.426-.078c-4.1-1.556-6.7-5.237-7.725-10.94a1.2,1.2,0,0,1,2.365-.424c.875,4.882,2.907,7.865,6.211,9.118a1.2,1.2,0,0,1-.426,2.325" transform="translate(-1101.385 -121.648)" fill="#ff3d00"/>
    <path id="Tracé_2365" data-name="Tracé 2365" d="M685.887,556.58a1.2,1.2,0,0,1-.335-2.355c2.49-.724,4-1.884,4.61-3.545,1.026-2.785-.37-7.115-4.152-12.869a1.2,1.2,0,0,1,2.008-1.319c4.283,6.516,5.721,11.429,4.4,15.019-.882,2.393-2.965,4.082-6.193,5.021a1.212,1.212,0,0,1-.336.048" transform="translate(-479.036 -374.974)" fill="#803ba3"/>
    <path id="Tracé_2366" data-name="Tracé 2366" d="M962.054,669.17q.841-16.637,2.7-17.773c.75-.458,1.931.1,2.7,1.7a20.856,20.856,0,0,1,1.11,4.469q6.256-9.342,8.988-12.759c2.732-3.416,11.531,4.7,8.452,12.979a174.721,174.721,0,0,1-8.549,18.864Z" transform="translate(-673.094 -450.576)" fill="#ff81d6" fill-rule="evenodd"/>
    <path id="Tracé_2367" data-name="Tracé 2367" d="M988.282,700.128a1.2,1.2,0,0,1-.912-.418l-6.466-7.518a1.2,1.2,0,0,1,1.822-1.567l6.466,7.518a1.2,1.2,0,0,1-.91,1.985" transform="translate(-686.08 -482.899)" fill="#ff3900"/>
    <path id="Tracé_2368" data-name="Tracé 2368" d="M1003.161,656.323a1.2,1.2,0,0,1-1.036-1.807l4.208-7.213a1.2,1.2,0,0,1,2.075,1.211l-4.208,7.213a1.2,1.2,0,0,1-1.039.6" transform="translate(-701.015 -452.464)" fill="#ff3900"/>
    <path id="Tracé_2369" data-name="Tracé 2369" d="M1009.954,666.009a1.2,1.2,0,0,1-1-1.872l5.239-7.782a1.2,1.2,0,1,1,1.993,1.342l-5.24,7.782a1.2,1.2,0,0,1-1,.531" transform="translate(-705.767 -458.843)" fill="#ff3900"/>
    <path id="Tracé_2370" data-name="Tracé 2370" d="M1023.8,674.315a1.2,1.2,0,0,1-1.006-1.857l2.938-4.513a1.2,1.2,0,1,1,2.014,1.311l-2.938,4.513a1.2,1.2,0,0,1-1.008.546" transform="translate(-715.456 -466.941)" fill="#ff3900"/>
    <path id="Tracé_2371" data-name="Tracé 2371" d="M235.494,689.687q-6.48-15.345-8.619-15.776c-.861-.174-1.779.758-1.958,2.522a20.852,20.852,0,0,0,.485,4.58q-9.074-6.639-12.81-8.915c-3.736-2.276-9.226,8.365-3.5,15.088a174.578,174.578,0,0,0,14.486,14.8Z" transform="translate(-144.555 -470.009)" fill="#ff81d6" fill-rule="evenodd"/>
    <path id="Tracé_2372" data-name="Tracé 2372" d="M255.62,715.234a1.2,1.2,0,0,1-1.124-1.626l3.5-9.276a1.2,1.2,0,0,1,2.248.849l-3.5,9.276a1.2,1.2,0,0,1-1.124.777" transform="translate(-178.002 -492.237)" fill="#ff3900"/>
    <path id="Tracé_2373" data-name="Tracé 2373" d="M225.606,682.513a1.2,1.2,0,0,1-.767-.278l-6.421-5.339a1.2,1.2,0,0,1,1.536-1.848l6.421,5.339a1.2,1.2,0,0,1-.769,2.125" transform="translate(-152.511 -472.099)" fill="#ff3900"/>
    <path id="Tracé_2374" data-name="Tracé 2374" d="M220.278,694.759a1.2,1.2,0,0,1-.706-.23l-7.585-5.521a1.2,1.2,0,1,1,1.414-1.943l7.585,5.52a1.2,1.2,0,0,1-.708,2.173" transform="translate(-147.969 -480.539)" fill="#ff3900"/>
    <path id="Tracé_2375" data-name="Tracé 2375" d="M215.143,705.467a1.194,1.194,0,0,1-.721-.241l-4.3-3.236a1.2,1.2,0,1,1,1.444-1.92l4.3,3.236a1.2,1.2,0,0,1-.723,2.162" transform="translate(-146.672 -489.63)" fill="#ff3900"/>
    <path id="Tracé_2376" data-name="Tracé 2376" d="M487.332,1132.075c5.08,0,9.2-2.353,9.2-5.256s-4.118-5.256-9.2-5.256-9.07,3.353-9.07,6.255,3.99,4.257,9.07,4.257" transform="translate(-334.613 -784.694)" fill="#1f1e1a" fill-rule="evenodd"/>
    <path id="Tracé_2377" data-name="Tracé 2377" d="M723.955,1128.075c5.429,0,9.83-2.353,9.83-5.256s-4.4-5.256-9.83-5.256-9.693,3.353-9.693,6.255,4.264,4.257,9.693,4.257" transform="translate(-499.728 -781.895)" fill="#1f1e1a" fill-rule="evenodd"/>
    <path id="Tracé_2378" data-name="Tracé 2378" d="M721.753,1601.595q-1.59,11.067,3.85,17.561,1.5,1.788,33.18,21.178.035,4.027-5.9,5.86l-47.088-.382q-6.459-2.739-2.884-10.758l5.592-14.512q.177-11.408-2.708-18.946Z" transform="translate(-490.893 -1120.545)" fill="#ff81d6" fill-rule="evenodd"/>
    <path id="Tracé_2379" data-name="Tracé 2379" d="M717.992,1613.746a43.4,43.4,0,0,0-2.516-12.151h15.961a40.674,40.674,0,0,0,.078,9.5Z" transform="translate(-500.578 -1120.545)" fill="#1f1e1a" fill-rule="evenodd"/>
    <path id="Tracé_2380" data-name="Tracé 2380" d="M738.88,1689.1q5.146,3.236,19.9,12.309.035,4.027-5.9,5.86l-47.087-.382q-6.459-2.739-2.884-10.758l2.659-6.9c.612-1.588,17.448,9.615,26.616,9.85,5.482.141,3.616-11.916,6.7-9.978" transform="translate(-490.893 -1181.619)" fill="#a13843" fill-rule="evenodd"/>
    <path id="Tracé_2381" data-name="Tracé 2381" d="M77.5,1085.186q-8.782-6.912-17.123-5.444-2.3.4-34.918,18.165-3.5-1.984-2.119-8.046l23.874-40.615q5.6-4.228,10.753,2.88l9.763,12.1q9.785,5.856,17.751,7.126Z" transform="translate(-16.057 -732.995)" fill="#ff81d6" fill-rule="evenodd"/>
    <path id="Tracé_2382" data-name="Tracé 2382" d="M46.064,1086.815q-5.373,2.842-20.6,11.092-3.5-1.983-2.119-8.046l23.874-40.615q5.6-4.228,10.753,2.88l4.642,5.754c1.068,1.324-17.045,10.313-21.833,18.14-2.862,4.68,8.5,9.092,5.286,10.794" transform="translate(-16.057 -732.995)" fill="#a13843" fill-rule="evenodd"/>
    <path id="Tracé_2383" data-name="Tracé 2383" d="M265.922,1079.695l-82.949-42.38-19.63,42.38q25.4,9.431,35.7,16.816c10.3,7.385,25.35,10.926,30.255,13.491s20.945,12.891,31.859,16.576,38.889,11.779,42.3-7.208q3.412-18.987,4.882-59.126l.642-16.45-38,4.371Z" transform="translate(-114.282 -725.75)" fill="#00624b" fill-rule="evenodd"/>
    <path id="Tracé_2384" data-name="Tracé 2384" d="M215.986,1095.84a2.262,2.262,0,0,1-1.245-.369c-1.635-1.064-1.79-4-1.971-7.41a20.765,20.765,0,0,0-.541-4.569l-.023.015a34.485,34.485,0,0,0-4.018,3.592c-3.265,3.193-6.347,6.208-8.855,5.489-1.122-.323-1.885-1.292-2.268-2.88-1.119-4.652,2.546-15.474,11.206-33.084a1.2,1.2,0,1,1,2.156,1.06c-10.32,20.987-11.692,28.693-11.025,31.462.183.762.428,1.085.6,1.134,1.161.331,4.51-2.941,6.51-4.9a35.624,35.624,0,0,1,4.361-3.87,2.281,2.281,0,0,1,2.4-.317c1.586.793,1.725,3.417,1.9,6.74.092,1.74.263,4.953.852,5.5a.7.7,0,0,0,.122-.036c1.276-.485,4.156-3.7,6.7-6.534,5.774-6.442,9.488-10.3,12.38-9.512,1.18.321,1.95,1.335,2.291,3.015,1.022,5.033,2.118,9.319,5.207,10.791,2.762,1.317,7.241.375,13.312-2.8a1.2,1.2,0,0,1,1.113,2.13c-6.872,3.589-11.929,4.517-15.458,2.835-4.423-2.107-5.591-7.86-6.529-12.482-.162-.8-.406-1.13-.566-1.174s-1.086-.134-3.8,2.322c-1.927,1.746-4.082,4.15-6.165,6.474-3.6,4.02-5.9,6.517-7.632,7.176a2.83,2.83,0,0,1-1.012.2" transform="translate(-137.739 -738.788)" fill="#ffc752"/>
    <path id="Tracé_2385" data-name="Tracé 2385" d="M671.5,1072.305a264.775,264.775,0,0,0,1.79,31.963c1.821,15.21,3.005,25.974,3.005,37.255s3.153,26.906,3.153,34.247q0,7.341,3.552,50.142H639.832l-3.6-171.357H671.5Z" transform="translate(-445.135 -737.813)" fill="#00624b" fill-rule="evenodd"/>
    <path id="Tracé_2386" data-name="Tracé 2386" d="M741.524,1244.763a1.2,1.2,0,0,1-1.2-1.12l-10.429-152.5a1.2,1.2,0,0,1,2.4-.164l10.429,152.5a1.2,1.2,0,0,1-1.117,1.28c-.028,0-.056,0-.083,0" transform="translate(-510.666 -762.512)" fill="#ffc752"/>
    <path id="Tracé_2387" data-name="Tracé 2387" d="M603.223,503.94a17.282,17.282,0,1,1-17.271,17.282,17.276,17.276,0,0,1,17.271-17.282" transform="translate(-409.957 -352.578)" fill="#803ba3" fill-rule="evenodd"/>
    <path id="Tracé_2388" data-name="Tracé 2388" d="M514.106,575.4a23.693,23.693,0,1,1-23.677,23.693A23.685,23.685,0,0,1,514.106,575.4" transform="translate(-343.125 -402.573)" fill="#803ba3" fill-rule="evenodd"/>
    <path id="Tracé_2389" data-name="Tracé 2389" d="M578.822,567.08a2.4,2.4,0,1,1-2.4,2.4,2.4,2.4,0,0,1,2.4-2.4" transform="translate(-403.288 -396.754)" fill="#ff3900" fill-rule="evenodd"/>
    <path id="Tracé_2390" data-name="Tracé 2390" d="M600.374,624.672a27.006,27.006,0,0,1-4.783,20.958l15.164,14.875,8.74-16.334q-3.62-3.293-3.62-19.5Z" transform="translate(-416.701 -437.048)" fill="#ff81d6" fill-rule="evenodd"/>
    <path id="Tracé_2391" data-name="Tracé 2391" d="M610.766,566.466q-9.193,0-18.363-7.177-8.011-3.447-8.2-8.057c-.19-4.61,6.435-5.514,8.662-3.155L591.789,535.3l24.574-4.078q3.6,35.245-5.6,35.245" transform="translate(-408.731 -371.665)" fill="#ff81d6" fill-rule="evenodd"/>
    <path id="Tracé_2392" data-name="Tracé 2392" d="M652.037,604.566a1.952,1.952,0,0,1,2.664-.726,3.941,3.941,0,0,0,2.888.5,1.952,1.952,0,0,1,.8,3.821,7.84,7.84,0,0,1-5.63-.927,1.952,1.952,0,0,1-.726-2.664" transform="translate(-456.013 -422.292)" fill="#fff"/>
    <path id="Tracé_2393" data-name="Tracé 2393" d="M663.293,593.947a3.165,3.165,0,0,1-1.973-.76.751.751,0,0,1,.934-1.176,1.447,1.447,0,0,0,2.066,0,.751.751,0,0,1,.94,1.171,3.135,3.135,0,0,1-1.968.762" transform="translate(-462.49 -414.083)" fill="#ff3900"/>
    <path id="Tracé_2394" data-name="Tracé 2394" d="M346.684,691.028q-12.316,4.468-23.046,8.562T280.108,745.9L259.4,701.719,238.42,716.574l25.261,62.083a10.212,10.212,0,0,0,16.366,3.674l38.882-35.7q.564,23.324-3.412,37.606t-4.095,36.252q24.655.045,50.083-2.431t36.3,2.431q-.125-22.944-2.39-36.252t0-42.079l28.025,29.51a13.816,13.816,0,0,0,22.611-3.829l27.491-60.891-20.631-7.936L427.489,736.8q-29.684-41.551-42.293-44.25a83.45,83.45,0,0,0-15.513-1.52q-.886-.018-8.821,15.9Z" transform="translate(-166.809 -483.473)" fill="#5586de" fill-rule="evenodd"/>
    <path id="Tracé_2395" data-name="Tracé 2395" d="M643.279,768.785a1.2,1.2,0,0,1-1.2-1.2V741.175a1.2,1.2,0,0,1,2.4,0v26.408a1.2,1.2,0,0,1-1.2,1.2" transform="translate(-449.225 -517.718)" fill="#1f1e1a"/>
    <path id="Tracé_2396" data-name="Tracé 2396" d="M340.629,695.225a110.3,110.3,0,0,0-16.991,6.1q-12.216,5.511-43.53,46.315L259.4,703.457,238.42,718.312l22.514,60.262a15.318,15.318,0,0,0,25.626,5.006l32.369-35.209q.563,23.324-3.412,37.606t-5.129,42.955q3.481-5.923,13.249-5.923c13.44,0,24.373-1.673,37.867-3.211q30.948-3.527,39.36,6.4-3.184-26.909-5.45-40.218t0-42.079l28.025,29.51a13.816,13.816,0,0,0,22.611-3.829l27.49-60.891-20.631-7.936-25.422,37.784q-29.683-41.551-42.293-44.25-2.106-.45-4.55-.77-3.848-.5-19.235,75.661a.6.6,0,0,1-1.174.016q-17.239-74.6-19.608-73.968" transform="translate(-166.809 -485.211)" fill="#ffeacf" fill-rule="evenodd"/>
    <path id="Tracé_2397" data-name="Tracé 2397" d="M706.9,816.346H695.448a1.2,1.2,0,0,1,0-2.4H706.9a1.2,1.2,0,0,1,0,2.4" transform="translate(-485.725 -569.47)" fill="#1f1e1a"/>
    <path id="Tracé_2398" data-name="Tracé 2398" d="M242.906,755.581a1.2,1.2,0,0,1-.691-2.185l18.837-13.2a1.2,1.2,0,0,1,1.38,1.968l-18.837,13.2a1.2,1.2,0,0,1-.689.218" transform="translate(-169.106 -517.717)" fill="#f4d1a3"/>
    <path id="Tracé_2399" data-name="Tracé 2399" d="M963.825,736.476a1.2,1.2,0,0,1-.4-.069l-17.895-6.353a1.2,1.2,0,1,1,.8-2.264l17.894,6.353a1.2,1.2,0,0,1-.4,2.334" transform="translate(-660.973 -509.144)" fill="#f4d1a3"/>
    <path id="Tracé_2400" data-name="Tracé 2400" d="M500.9,858.806a1.2,1.2,0,0,1-1.184-1.006c-.567-3.443-.287-8.245-.082-11.75.031-.531.06-1.031.084-1.49a24.058,24.058,0,0,0-1.512-8.317,1.2,1.2,0,1,1,2.282-.751,26.319,26.319,0,0,1,1.629,9.193c-.024.463-.054.968-.085,1.5-.2,3.393-.469,8.04.054,11.22a1.2,1.2,0,0,1-.99,1.381,1.22,1.22,0,0,1-.2.016" transform="translate(-348.521 -583.968)" fill="#1f1e1a"/>
    <path id="Tracé_2401" data-name="Tracé 2401" d="M756.45,852.631a1.2,1.2,0,0,1-1.2-1.138,26.109,26.109,0,0,1,.164-3.218,46.456,46.456,0,0,0,.234-6.4l-.3-5.728a1.2,1.2,0,1,1,2.4-.126l.3,5.728a48.477,48.477,0,0,1-.239,6.729,25.772,25.772,0,0,0-.159,2.886,1.2,1.2,0,0,1-1.137,1.263l-.064,0" transform="translate(-528.399 -584.121)" fill="#1f1e1a"/>
    <path id="Tracé_2402" data-name="Tracé 2402" d="M580.306,693.107l4.254,21.466a1.2,1.2,0,0,0,1.812.787l13.689-8.494-14.149-15.931Z" transform="translate(-406.007 -483.408)" fill="#5586de" fill-rule="evenodd"/>
    <path id="Tracé_2403" data-name="Tracé 2403" d="M582.934,719a2.4,2.4,0,0,1-2.352-1.936L576.328,695.6a1.2,1.2,0,0,1,2.357-.467l4.254,21.466,13.689-8.494a1.2,1.2,0,1,1,1.267,2.042l-13.689,8.494a2.391,2.391,0,0,1-.8.315,2.431,2.431,0,0,1-.473.047" transform="translate(-403.208 -485.668)" fill="#1f1e1a"/>
    <path id="Tracé_2404" data-name="Tracé 2404" d="M646.078,705.926l8.74-16.334,7.824.738-2.208,23.112a.9.9,0,0,1-1.378.676Z" transform="translate(-452.024 -482.468)" fill="#5586de" fill-rule="evenodd"/>
    <path id="Tracé_2405" data-name="Tracé 2405" d="M656.741,714.378c-.068,0-.135,0-.2-.01a2.12,2.12,0,0,1-.923-.315l-12.978-8.191a1.2,1.2,0,0,1,1.283-2.032l12.565,7.931,2.162-22.626a1.2,1.2,0,0,1,2.392.228l-2.208,23.112a2.1,2.1,0,0,1-2.089,1.9" transform="translate(-449.225 -481.388)" fill="#1f1e1a"/>
    <path id="Tracé_2406" data-name="Tracé 2406" d="M643.279,994.84a1.2,1.2,0,0,1-1.2-1.2V945.856a1.2,1.2,0,0,1,2.4,0v47.782a1.2,1.2,0,0,1-1.2,1.2" transform="translate(-449.225 -660.922)" fill="#f4d1a3"/>
    <path id="Tracé_2407" data-name="Tracé 2407" d="M617.805,531.91c4.98-2.523,12.255-9.289,9.332-14.355s-11.179-5.773-18.44-1.577-9.591,13.331-7.855,16.769,11.983,1.687,16.963-.836" transform="translate(-419.992 -359.085)" fill="#803ba3" fill-rule="evenodd"/>
    <path id="Tracé_2408" data-name="Tracé 2408" d="M543.342,1038.488H526.292a1.2,1.2,0,0,1,0-2.4h17.049a1.2,1.2,0,0,1,0,2.4" transform="translate(-367.376 -724.89)" fill="#1f1e1a"/>
    <path id="Tracé_2409" data-name="Tracé 2409" d="M700.342,1038.488H683.292a1.2,1.2,0,1,1,0-2.4h17.049a1.2,1.2,0,0,1,0,2.4" transform="translate(-477.22 -724.89)" fill="#1f1e1a"/>
    <path id="Tracé_2410" data-name="Tracé 2410" d="M679.813,578.08a1.393,1.393,0,1,1-1.394,1.393,1.393,1.393,0,0,1,1.394-1.393" transform="translate(-474.651 -404.45)" fill="#372d2d" fill-rule="evenodd"/>
    <path id="Tracé_2411" data-name="Tracé 2411" d="M651.813,578.08a1.393,1.393,0,1,1-1.394,1.393,1.393,1.393,0,0,1,1.394-1.393" transform="translate(-455.061 -404.45)" fill="#372d2d" fill-rule="evenodd"/>
    <path id="Tracé_2412" data-name="Tracé 2412" d="M633.435,1172.682c-.03,0-.061,0-.092,0a1.2,1.2,0,0,1-1.108-1.288l2.957-39.215a1.2,1.2,0,0,1,2.4.181l-2.957,39.215a1.2,1.2,0,0,1-1.2,1.111" transform="translate(-442.337 -791.341)" fill="#1f1e1a"/>
    <path id="Tracé_2413" data-name="Tracé 2413" d="M370.41,876.825a1.2,1.2,0,0,1-1.135-1.595l1.3-3.74a1.2,1.2,0,1,1,2.27.786l-1.295,3.74a1.2,1.2,0,0,1-1.135.809" transform="translate(-258.314 -609.167)" fill="#1f1e1a"/>
    <path id="Tracé_2414" data-name="Tracé 2414" d="M867.627,846.853a1.2,1.2,0,0,1-1.123-.773l-1.412-3.7a1.2,1.2,0,1,1,2.245-.857l1.412,3.7a1.2,1.2,0,0,1-1.122,1.63" transform="translate(-605.201 -588.226)" fill="#1f1e1a"/>
    <rect id="Rectangle_412" data-name="Rectangle 412" width="172.705" height="128.853" transform="translate(317.903 491.107)" fill="#e5e5e5"/>
    <rect id="Rectangle_413" data-name="Rectangle 413" width="172.705" height="94.312" transform="translate(145.499 525.648)" fill="#e5e5e5"/>
    <rect id="Rectangle_414" data-name="Rectangle 414" width="172.705" height="64.577" transform="translate(490.608 553.882)" fill="#e5e5e5"/>
    <path id="Tracé_2415" data-name="Tracé 2415" d="M1055.62,1848.645a1.2,1.2,0,0,1-1.2-1.2v-87.965a1.2,1.2,0,1,1,2.4,0v87.965a1.2,1.2,0,0,1-1.2,1.2" transform="translate(-737.717 -1230.166)" fill="#1f1e1a"/>
    <path id="Tracé_2416" data-name="Tracé 2416" d="M1630.62,1920.539a1.2,1.2,0,0,1-1.2-1.2v-57.1a1.2,1.2,0,1,1,2.4,0v57.1a1.2,1.2,0,0,1-1.2,1.2" transform="translate(-1140.012 -1302.061)" fill="#1f1e1a"/>
    <path id="Tracé_2417" data-name="Tracé 2417" d="M1991.952,1231.075c-5.08,0-9.2-2.353-9.2-5.256s4.118-5.256,9.2-5.256,9.07,3.353,9.07,6.255-3.99,4.257-9.07,4.257" transform="translate(-1387.22 -853.959)" fill="#1f1e1a" fill-rule="evenodd"/>
    <path id="Tracé_2418" data-name="Tracé 2418" d="M2225.414,1553.7q11.17.35,16.617,6.836,1.5,1.786,15.072,36.36,3.958.732,6.8-4.8l7.818-46.459q-1.573-6.838-10.088-4.706l-15.258,3q-11.26-1.8-18.179-5.951Z" transform="translate(-1556.996 -1076.036)" fill="#93575e" fill-rule="evenodd"/>
    <path id="Tracé_2419" data-name="Tracé 2419" d="M2302.271,1580.709q2.29,5.631,8.653,21.741,3.959.732,6.8-4.8l7.818-46.459q-1.573-6.838-10.088-4.706l-7.255,1.424c-1.669.327,6.428,18.856,5.064,27.93-.815,5.425-12.359,1.5-10.988,4.871" transform="translate(-1610.689 -1081.633)" fill="#201e19" fill-rule="evenodd"/>
    <path id="Tracé_2420" data-name="Tracé 2420" d="M1988.1,1288.126c-6.359-2.812-11.925-8.6-17.345-10.961-8.739-3.8-18.067-9.2-36.813-14.708-6.233-1.832-15.576-5.874-23.384-8.59-7.848-2.73-16.9-3.623-23.247-8.71s-11.549-97.518-11.549-97.518h38.816l5.548,65.173,85.856,35.992Z" transform="translate(-1312.363 -802.938)" fill="#a15f38" fill-rule="evenodd"/>
    <path id="Tracé_2421" data-name="Tracé 2421" d="M1861.8,628.443q7.567,14.406,31.649,19.5c24.082,5.089,27.163,39.069-8.219,50.021q-35.382,10.952-51.095-59.894Z" transform="translate(-1283.244 -439.686)" fill="#201e19" fill-rule="evenodd"/>
    <path id="Tracé_2422" data-name="Tracé 2422" d="M1960.462,650.975a1.2,1.2,0,0,1-1.2-1.2c0-4.1,0-9.714-20.768-15.646-14.862-4.246-23.871-9.2-27.543-15.156a1.2,1.2,0,0,1,2.045-1.262c3.3,5.344,12.1,10.09,26.158,14.107,9.792,2.8,16.164,5.87,19.479,9.394a11.077,11.077,0,0,1,3.031,8.563,1.2,1.2,0,0,1-1.2,1.2" transform="translate(-1336.858 -431.777)" fill="#201e19"/>
    <path id="Tracé_2423" data-name="Tracé 2423" d="M2131.1,1500.9a2.664,2.664,0,0,1-1.091-.232c-2.383-1.058-2.806-5.351-3.255-9.9a34.5,34.5,0,0,0-.77-5.335l-.008-.026a20.738,20.738,0,0,0-3.351,3.153c-2.326,2.492-4.335,4.645-6.273,4.41a2.4,2.4,0,0,1-1.839-1.32c-.9-1.62-1.058-5.008-1.234-10.4-.1-3.12-.207-6.345-.561-8.922-.5-3.623-1.266-4.149-1.415-4.218s-.551.028-1.188.535c-3.689,2.938-8.281,6.6-13.025,5.366-3.785-.981-7.062-4.942-10.019-12.109a1.2,1.2,0,0,1,2.221-.916c2.612,6.332,5.438,9.932,8.4,10.7,3.314.858,6.908-1.72,10.925-4.919,1.341-1.068,2.584-1.35,3.693-.837,2.72,1.257,3.088,6.6,3.369,15.244.124,3.805.265,8.118.93,9.31a.682.682,0,0,0,.071.107c.8-.038,3-2.39,4.187-3.664,2.271-2.432,4.068-4.353,5.789-3.941a2.281,2.281,0,0,1,1.634,1.785,35.6,35.6,0,0,1,.853,5.767c.275,2.785.735,7.445,1.839,7.936.159.07.554-.019,1.185-.485,2.29-1.693,6.193-8.478,11.777-31.188a1.2,1.2,0,0,1,2.334.574c-4.686,19.056-8.834,29.7-12.683,32.547a4.287,4.287,0,0,1-2.5.981" transform="translate(-1460.145 -1021.646)" fill="#fff"/>
    <path id="Tracé_2424" data-name="Tracé 2424" d="M1502.476,768.17q-.842-16.636-2.7-17.773c-.75-.458-1.931.1-2.7,1.7a20.838,20.838,0,0,0-1.111,4.469q-6.255-9.342-8.988-12.758c-2.732-3.416-11.531,4.7-8.452,12.979a174.655,174.655,0,0,0,8.549,18.864Z" transform="translate(-1033.984 -519.841)" fill="#93575e" fill-rule="evenodd"/>
    <path id="Tracé_2425" data-name="Tracé 2425" d="M1512.9,799.129a1.2,1.2,0,0,1-.91-1.985l6.466-7.518a1.2,1.2,0,0,1,1.822,1.567l-6.466,7.518a1.2,1.2,0,0,1-.911.418" transform="translate(-1057.648 -552.164)" fill="#1f1e1a"/>
    <path id="Tracé_2426" data-name="Tracé 2426" d="M1503.277,755.323a1.2,1.2,0,0,1-1.039-.6l-4.208-7.213a1.2,1.2,0,0,1,2.075-1.211l4.208,7.213a1.2,1.2,0,0,1-1.036,1.807" transform="translate(-1047.971 -521.729)" fill="#1f1e1a"/>
    <path id="Tracé_2427" data-name="Tracé 2427" d="M1494.081,765.008a1.2,1.2,0,0,1-1-.531l-5.24-7.782a1.2,1.2,0,0,1,1.993-1.342l5.24,7.782a1.2,1.2,0,0,1-1,1.872" transform="translate(-1040.817 -528.107)" fill="#1f1e1a"/>
    <path id="Tracé_2428" data-name="Tracé 2428" d="M1485.593,773.315a1.2,1.2,0,0,1-1.008-.546l-2.938-4.513a1.2,1.2,0,0,1,2.014-1.311l2.939,4.513a1.2,1.2,0,0,1-1.006,1.857" transform="translate(-1036.488 -536.205)" fill="#1f1e1a"/>
    <path id="Tracé_2429" data-name="Tracé 2429" d="M2219.068,788.687q6.48-15.345,8.619-15.776c.861-.174,1.779.758,1.958,2.522a20.877,20.877,0,0,1-.485,4.58q9.074-6.64,12.81-8.915c3.736-2.276,9.227,8.365,3.5,15.088a174.541,174.541,0,0,1-14.486,14.8Z" transform="translate(-1552.556 -539.274)" fill="#93575e" fill-rule="evenodd"/>
    <path id="Tracé_2430" data-name="Tracé 2430" d="M2252.456,814.234a1.2,1.2,0,0,1-1.124-.777l-3.5-9.276a1.2,1.2,0,0,1,2.248-.849l3.5,9.276a1.2,1.2,0,0,1-1.124,1.626" transform="translate(-1572.623 -561.502)" fill="#1f1e1a"/>
    <path id="Tracé_2431" data-name="Tracé 2431" d="M2275.677,781.513a1.2,1.2,0,0,1-.769-2.125l6.421-5.339a1.2,1.2,0,0,1,1.536,1.848l-6.421,5.339a1.2,1.2,0,0,1-.767.278" transform="translate(-1591.321 -541.364)" fill="#1f1e1a"/>
    <path id="Tracé_2432" data-name="Tracé 2432" d="M2278.295,793.759a1.2,1.2,0,0,1-.708-2.173l7.585-5.521a1.2,1.2,0,1,1,1.414,1.943l-7.584,5.52a1.2,1.2,0,0,1-.707.23" transform="translate(-1593.152 -549.805)" fill="#1f1e1a"/>
    <path id="Tracé_2433" data-name="Tracé 2433" d="M2291.072,804.468a1.2,1.2,0,0,1-.723-2.162l4.3-3.236a1.2,1.2,0,0,1,1.444,1.92l-4.3,3.236a1.194,1.194,0,0,1-.721.241" transform="translate(-1602.092 -558.895)" fill="#1f1e1a"/>
    <path id="Tracé_2434" data-name="Tracé 2434" d="M1752.407,1227.075c-5.429,0-9.83-2.353-9.83-5.256s4.4-5.256,9.83-5.256,9.693,3.353,9.693,6.255-4.265,4.257-9.693,4.257" transform="translate(-1219.182 -851.16)" fill="#1f1e1a" fill-rule="evenodd"/>
    <path id="Tracé_2435" data-name="Tracé 2435" d="M1666.964,1700.595q1.59,11.067-3.851,17.561-1.5,1.788-33.18,21.178-.034,4.027,5.9,5.86l47.088-.382q6.458-2.739,2.884-10.758l-5.591-14.512q-.177-11.408,2.708-18.946Z" transform="translate(-1140.372 -1189.81)" fill="#93575e" fill-rule="evenodd"/>
    <path id="Tracé_2436" data-name="Tracé 2436" d="M1766.485,1712.746a43.388,43.388,0,0,1,2.516-12.152h-15.961a40.661,40.661,0,0,1-.078,9.5Z" transform="translate(-1226.447 -1189.81)" fill="#1f1e1a" fill-rule="evenodd"/>
    <path id="Tracé_2437" data-name="Tracé 2437" d="M1649.836,1788.1q-5.146,3.236-19.9,12.309-.035,4.027,5.9,5.859l47.087-.381q6.459-2.739,2.885-10.759l-2.659-6.9c-.612-1.588-17.448,9.615-26.616,9.85-5.481.141-3.616-11.916-6.7-9.978" transform="translate(-1140.372 -1250.884)" fill="#201e19" fill-rule="evenodd"/>
    <path id="Tracé_2438" data-name="Tracé 2438" d="M1741.384,1171.305a264.747,264.747,0,0,1-1.79,31.963c-1.821,15.21-3.006,25.974-3.006,37.255s-3.153,26.906-3.153,34.247q0,7.341-3.552,50.142h43.173l3.6-171.357h-35.271Z" transform="translate(-1210.301 -807.078)" fill="#a15f38" fill-rule="evenodd"/>
    <path id="Tracé_2439" data-name="Tracé 2439" d="M1750.424,1343.764c-.028,0-.055,0-.083,0a1.2,1.2,0,0,1-1.117-1.28l10.429-152.5a1.2,1.2,0,1,1,2.4.164l-10.429,152.5a1.2,1.2,0,0,1-1.2,1.12" transform="translate(-1223.831 -831.777)" fill="#fff"/>
    <path id="Tracé_2440" data-name="Tracé 2440" d="M1838.156,602.94a17.282,17.282,0,1,0,17.271,17.282,17.276,17.276,0,0,0-17.271-17.282" transform="translate(-1273.97 -421.843)" fill="#201e19" fill-rule="evenodd"/>
    <path id="Tracé_2441" data-name="Tracé 2441" d="M1813.121,686.868a1.2,1.2,0,0,1-.721-2.163c3.45-2.584,5.321-5.267,5.721-8.2.7-5.177-3.253-10.8-8.1-17.081-5.243-6.791-4.493-13.845,2.229-20.966a1.2,1.2,0,0,1,1.747,1.65c-5.868,6.216-6.547,12.054-2.074,17.847,5.187,6.718,9.412,12.775,8.582,18.873-.491,3.605-2.669,6.811-6.661,9.8a1.2,1.2,0,0,1-.72.24" transform="translate(-1263.958 -446.429)" fill="#201e19"/>
    <path id="Tracé_2442" data-name="Tracé 2442" d="M1865.783,723.672a27.006,27.006,0,0,0,4.783,20.958L1855.4,759.505l-8.74-16.334q3.62-3.293,3.62-19.5Z" transform="translate(-1292.004 -506.312)" fill="#93575e" fill-rule="evenodd"/>
    <path id="Tracé_2443" data-name="Tracé 2443" d="M1833.8,665.466q9.193,0,18.363-7.177,8.011-3.447,8.2-8.057c.189-4.61-6.435-5.514-8.662-3.155l1.076-12.778-24.574-4.078q-3.6,35.245,5.6,35.245" transform="translate(-1278.379 -440.93)" fill="#93575e" fill-rule="evenodd"/>
    <path id="Tracé_2444" data-name="Tracé 2444" d="M1850.783,703.566a1.952,1.952,0,0,0-2.664-.726,3.942,3.942,0,0,1-2.888.5,1.952,1.952,0,0,0-.8,3.821,7.84,7.84,0,0,0,5.63-.927,1.952,1.952,0,0,0,.726-2.664" transform="translate(-1289.356 -491.557)" fill="#d8adb2"/>
    <path id="Tracé_2445" data-name="Tracé 2445" d="M1848.05,692.947a3.134,3.134,0,0,1-1.968-.763.751.751,0,0,1,.94-1.171,1.447,1.447,0,0,0,2.066,0,.751.751,0,1,1,.934,1.176,3.164,3.164,0,0,1-1.973.76" transform="translate(-1291.403 -483.347)" fill="#d08088"/>
    <path id="Tracé_2446" data-name="Tracé 2446" d="M1627.468,790.028q12.316,4.468,23.046,8.562t43.53,46.315l20.71-44.186,20.978,14.856-25.261,62.083a10.212,10.212,0,0,1-16.365,3.674l-38.882-35.7q-.564,23.324,3.412,37.606t4.095,36.252q-24.655.046-50.083-2.431t-36.3,2.431q.125-22.944,2.39-36.252t0-42.079l-28.025,29.51a13.817,13.817,0,0,1-22.611-3.829l-27.49-60.891,20.631-7.936,25.422,37.784q29.684-41.551,42.293-44.25a83.451,83.451,0,0,1,15.513-1.519q.886-.018,8.821,15.9Z" transform="translate(-1049.891 -552.738)" fill="#5586de" fill-rule="evenodd"/>
    <path id="Tracé_2447" data-name="Tracé 2447" d="M1872.962,867.785a1.2,1.2,0,0,1-1.2-1.2V840.175a1.2,1.2,0,0,1,2.4,0v26.408a1.2,1.2,0,0,1-1.2,1.2" transform="translate(-1309.565 -586.982)" fill="#1f1e1a"/>
    <path id="Tracé_2448" data-name="Tracé 2448" d="M1633.522,794.225a110.29,110.29,0,0,1,16.991,6.1q12.216,5.51,43.53,46.315l20.71-44.186,20.978,14.855-22.514,60.262a15.318,15.318,0,0,1-25.626,5.006l-32.369-35.209q-.563,23.324,3.412,37.606t5.128,42.955q-3.481-5.923-13.249-5.923c-13.44,0-24.373-1.673-37.867-3.211q-30.948-3.527-39.36,6.4,3.184-26.909,5.45-40.218t0-42.079l-28.025,29.51a13.816,13.816,0,0,1-22.611-3.829l-27.49-60.891,20.631-7.936,25.422,37.784q29.684-41.551,42.292-44.25,2.106-.451,4.55-.77,3.848-.5,19.235,75.661a.6.6,0,0,0,1.174.016q17.239-74.6,19.609-73.968" transform="translate(-1049.891 -554.476)" fill="#ffeacf" fill-rule="evenodd"/>
    <path id="Tracé_2449" data-name="Tracé 2449" d="M1796.9,915.345h-11.449a1.2,1.2,0,0,1,0-2.4H1796.9a1.2,1.2,0,1,1,0,2.4" transform="translate(-1248.336 -638.734)" fill="#1f1e1a"/>
    <path id="Tracé_2450" data-name="Tracé 2450" d="M2229.457,854.581a1.191,1.191,0,0,1-.688-.218l-18.837-13.2a1.2,1.2,0,0,1,1.379-1.967l18.837,13.2a1.2,1.2,0,0,1-.691,2.185" transform="translate(-1545.805 -586.983)" fill="#f4d1a3"/>
    <path id="Tracé_2451" data-name="Tracé 2451" d="M1510.731,835.476a1.2,1.2,0,0,1-.4-2.334l17.894-6.353a1.2,1.2,0,1,1,.8,2.264l-17.894,6.353a1.2,1.2,0,0,1-.4.069" transform="translate(-1056.132 -578.408)" fill="#f4d1a3"/>
    <path id="Tracé_2452" data-name="Tracé 2452" d="M2011.649,957.805a1.216,1.216,0,0,1-.2-.016,1.2,1.2,0,0,1-.99-1.381c.524-3.179.253-7.825.054-11.216-.031-.537-.061-1.043-.085-1.507a26.323,26.323,0,0,1,1.629-9.193,1.2,1.2,0,0,1,2.283.751,24.057,24.057,0,0,0-1.512,8.317c.024.46.053.961.084,1.492.2,3.5.485,8.3-.082,11.747a1.2,1.2,0,0,1-1.184,1.006" transform="translate(-1406.572 -653.232)" fill="#1f1e1a"/>
    <path id="Tracé_2453" data-name="Tracé 2453" d="M1758.752,951.631l-.064,0a1.2,1.2,0,0,1-1.136-1.263,25.739,25.739,0,0,0-.159-2.887,48.44,48.44,0,0,1-.239-6.729l.3-5.728a1.2,1.2,0,0,1,2.4.126l-.3,5.729a46.6,46.6,0,0,0,.234,6.4,26.074,26.074,0,0,1,.164,3.219,1.2,1.2,0,0,1-1.2,1.138" transform="translate(-1229.351 -653.385)" fill="#1f1e1a"/>
    <path id="Tracé_2454" data-name="Tracé 2454" d="M1895.516,792.107l-4.254,21.466a1.2,1.2,0,0,1-1.812.787l-13.689-8.494,14.149-15.931Z" transform="translate(-1312.363 -552.673)" fill="#5586de" fill-rule="evenodd"/>
    <path id="Tracé_2455" data-name="Tracé 2455" d="M1887.285,818a2.406,2.406,0,0,1-1.267-.361l-13.69-8.495a1.2,1.2,0,0,1,1.267-2.042l13.689,8.494,4.254-21.465a1.2,1.2,0,0,1,2.357.467l-4.254,21.466a2.408,2.408,0,0,1-2.357,1.936" transform="translate(-1309.564 -554.933)" fill="#1f1e1a"/>
    <path id="Tracé_2456" data-name="Tracé 2456" d="M1837.177,804.926l-8.74-16.334-7.824.738,2.208,23.112a.9.9,0,0,0,1.378.676Z" transform="translate(-1273.78 -551.733)" fill="#5586de" fill-rule="evenodd"/>
    <path id="Tracé_2457" data-name="Tracé 2457" d="M1820.917,813.377a2.1,2.1,0,0,1-2.09-1.9l-2.208-23.112a1.2,1.2,0,0,1,2.392-.228l2.162,22.626,12.565-7.931a1.2,1.2,0,1,1,1.282,2.032l-12.977,8.191a2.115,2.115,0,0,1-.922.315q-.1.01-.2.01" transform="translate(-1270.981 -550.652)" fill="#1f1e1a"/>
    <path id="Tracé_2458" data-name="Tracé 2458" d="M1872.962,1093.84a1.2,1.2,0,0,1-1.2-1.2v-47.782a1.2,1.2,0,0,1,2.4,0v47.782a1.2,1.2,0,0,1-1.2,1.2" transform="translate(-1309.565 -730.186)" fill="#f4d1a3"/>
    <path id="Tracé_2459" data-name="Tracé 2459" d="M1839.943,630.91c-4.98-2.523-12.254-9.289-9.331-14.355s11.179-5.773,18.44-1.577,9.591,13.331,7.855,16.769-11.983,1.687-16.963-.836" transform="translate(-1280.306 -428.35)" fill="#201e19" fill-rule="evenodd"/>
    <path id="Tracé_2460" data-name="Tracé 2460" d="M1950.234,1137.488h-17.049a1.2,1.2,0,0,1,0-2.4h17.049a1.2,1.2,0,0,1,0,2.4" transform="translate(-1351.699 -794.154)" fill="#1f1e1a"/>
    <path id="Tracé_2461" data-name="Tracé 2461" d="M1793.234,1137.488h-17.049a1.2,1.2,0,0,1,0-2.4h17.049a1.2,1.2,0,0,1,0,2.4" transform="translate(-1241.855 -794.154)" fill="#1f1e1a"/>
    <path id="Tracé_2462" data-name="Tracé 2462" d="M1835.534,677.08a1.393,1.393,0,1,0,1.393,1.393,1.393,1.393,0,0,0-1.393-1.393" transform="translate(-1283.244 -473.714)" fill="#372d2d" fill-rule="evenodd"/>
    <path id="Tracé_2463" data-name="Tracé 2463" d="M1863.534,677.08a1.393,1.393,0,1,0,1.393,1.393,1.393,1.393,0,0,0-1.393-1.393" transform="translate(-1302.833 -473.714)" fill="#372d2d" fill-rule="evenodd"/>
    <path id="Tracé_2464" data-name="Tracé 2464" d="M1877.842,1261.977a1.2,1.2,0,0,1-1.192-1.064l-4.882-42.516a1.2,1.2,0,0,1,2.387-.274l4.882,42.516a1.2,1.2,0,0,1-1.057,1.331,1.234,1.234,0,0,1-.138.008" transform="translate(-1309.564 -851.507)" fill="#1f1e1a"/>
    <path id="Tracé_2465" data-name="Tracé 2465" d="M2142.813,975.826a1.2,1.2,0,0,1-1.135-.809l-1.3-3.74a1.2,1.2,0,1,1,2.271-.786l1.295,3.74a1.2,1.2,0,0,1-1.135,1.595" transform="translate(-1497.458 -678.432)" fill="#1f1e1a"/>
    <path id="Tracé_2466" data-name="Tracé 2466" d="M1645.323,945.853a1.2,1.2,0,0,1-1.122-1.63l1.412-3.7a1.2,1.2,0,0,1,2.245.857l-1.412,3.7a1.2,1.2,0,0,1-1.123.773" transform="translate(-1150.299 -657.492)" fill="#1f1e1a"/>
    <path id="Tracé_2467" data-name="Tracé 2467" d="M2208.1,870.686a1.2,1.2,0,0,1-.919-.427c-11.8-14.008-23.089-18.194-34.5-12.8-8.343,3.946-17.666,4.267-27.713.954a63.823,63.823,0,0,1-22.278-13.332c-7.752-7.1-9.971-17.4-6.6-30.6a1.2,1.2,0,0,1,2.328.595c-3.181,12.45-1.253,21.685,5.893,28.234,8.448,7.741,21.19,14.909,34.006,14.909a30.873,30.873,0,0,0,13.335-2.932c12.36-5.846,24.932-1.332,37.363,13.421a1.2,1.2,0,0,1-.918,1.975" transform="translate(-1479.439 -569.215)" fill="#ff3900"/>
    <path id="Tracé_2468" data-name="Tracé 2468" d="M1263.82,115.142a1.215,1.215,0,0,1-.143-.008,1.2,1.2,0,0,1-1.052-1.334l.617-5.2a5.589,5.589,0,0,1,.164-.831,5.546,5.546,0,0,1,6.827-3.86l.458.127a3.535,3.535,0,0,0,4.333-2.352l.028-.087a5.028,5.028,0,0,1,7.056-2.979l.063.032a2.635,2.635,0,0,0,3.684-1.516l.031-.087a5.567,5.567,0,0,1,7.092-3.4l4.805,1.687a1.2,1.2,0,0,1-.8,2.267l-4.805-1.687a3.164,3.164,0,0,0-4.033,1.938L1287,97.494l1.137.388a5.04,5.04,0,0,1-7.046,2.912l-.062-.031a2.628,2.628,0,0,0-3.686,1.555l-.028.088a5.929,5.929,0,0,1-7.268,3.944l-.458-.127a3.143,3.143,0,0,0-3.869,2.187,3.172,3.172,0,0,0-.093.471l-.616,5.2a1.2,1.2,0,0,1-1.192,1.06" transform="translate(-883.381 -65.298)" fill="#5586de"/>
    <path id="Tracé_2469" data-name="Tracé 2469" d="M905.911,1366.154a1.2,1.2,0,0,1-1.18-.979l-.942-5a3.168,3.168,0,0,0-3.7-2.524l-.044.008a5.038,5.038,0,0,1-5.94-3.936,5.072,5.072,0,0,1-.093-.713l0-.069a2.626,2.626,0,0,0-3.19-2.414l-.091.02a5.927,5.927,0,0,1-7.048-4.322l-.119-.461a3.142,3.142,0,0,0-4.283-2.1l-4.812,2.066a1.2,1.2,0,0,1-.948-2.208l4.812-2.066a5.548,5.548,0,0,1,7.557,3.709l.119.461a3.535,3.535,0,0,0,4.2,2.576l.09-.02a5.049,5.049,0,0,1,.8-.11,5.029,5.029,0,0,1,5.309,4.732l0,.069a2.661,2.661,0,0,0,.048.374,2.636,2.636,0,0,0,3.107,2.058l.07-.014a5.576,5.576,0,0,1,6.508,4.44l.942,5a1.2,1.2,0,0,1-1.182,1.424" transform="translate(-610.646 -938.221)" fill="#5586de"/>
    <path id="Tracé_2470" data-name="Tracé 2470" d="M1984.967,283.848a1.2,1.2,0,0,1-.716-.237l-15.325-11.39a1.2,1.2,0,0,1,1.433-1.929l15.325,11.39a1.2,1.2,0,0,1-.717,2.166" transform="translate(-1377.206 -188.942)" fill="#201e1a"/>
    <path id="Tracé_2471" data-name="Tracé 2471" d="M923.868,1099.481a9.21,9.21,0,0,1-5.53-2.01,5.75,5.75,0,0,1-2.553-4.689c-.126-5.383,6.572-13.406,20.479-24.527a1.2,1.2,0,0,1,1.5,1.877c-16.313,13.045-19.65,19.487-19.577,22.594a3.372,3.372,0,0,0,1.562,2.8c3.742,2.714,6.221,1.513,11.16-.881a55.457,55.457,0,0,1,22.784-6.3c14.68-.936,31.7-9.36,50.58-25.037a1.2,1.2,0,0,1,1.535,1.849c-19.282,16.009-36.765,24.618-51.962,25.587a53.315,53.315,0,0,0-21.888,6.066c-3.006,1.457-5.517,2.675-8.089,2.675" transform="translate(-640.721 -743.74)" fill="#fff"/>
    <path id="Tracé_2472" data-name="Tracé 2472" d="M97.625,832.383q-5.867,0-12.008-.362a1.2,1.2,0,0,1,.141-2.4q6.161.362,11.933.359c87.006,0,109.279-60.155,127.327-108.9,5.03-13.585,9.781-26.416,15.484-36.136,6.444-10.984,13.475-16.959,22.125-18.8,33.177-7.077,49.228-32.92,47.708-76.811a1.2,1.2,0,0,1,2.4-.083c.78,22.523-2.982,40.61-11.183,53.76-8.251,13.231-21.179,21.805-38.426,25.484-7.944,1.694-14.475,7.31-20.553,17.67-5.6,9.538-10.311,22.272-15.3,35.755-9.365,25.29-19.978,53.955-40.72,75.943-21.857,23.172-51.035,34.52-88.927,34.521" transform="translate(-59.111 -411.452)" fill="#ff3900"/>
    <path id="Tracé_2473" data-name="Tracé 2473" d="M1483.655,1354.385a1.2,1.2,0,0,1-.433-.081c-7.181-2.774-8.048-9.531-8.886-16.065-1.047-8.157-2.129-16.591-14.519-20-9.044-2.487-14.666-6.234-16.71-11.136-1.665-3.994-.982-8.735,2.031-14.092a1.2,1.2,0,0,1,2.094,1.178c-2.631,4.679-3.273,8.713-1.907,11.99,1.745,4.184,6.835,7.463,15.129,9.744,13.932,3.832,15.171,13.49,16.265,22.01.817,6.37,1.523,11.871,7.369,14.129a1.2,1.2,0,0,1-.433,2.322" transform="translate(-1009.04 -904.218)" fill="#ff3900"/>
    <path id="Tracé_2474" data-name="Tracé 2474" d="M531.813,301.719a1.2,1.2,0,0,1-.531-.124l-23.528-11.611a1.2,1.2,0,0,1,1.063-2.155l23.529,11.611a1.2,1.2,0,0,1-.533,2.279" transform="translate(-354.777 -201.29)" fill="#5586de"/>
    <path id="Tracé_2475" data-name="Tracé 2475" d="M380.638,477.992a1.2,1.2,0,0,1-1.2-1.2,6.307,6.307,0,1,0-12.615,0,1.2,1.2,0,0,1-2.4,0,8.71,8.71,0,1,1,17.421,0,1.2,1.2,0,0,1-1.2,1.2" transform="translate(-254.963 -327.489)" fill="#ff3900"/>
    <path id="Tracé_2476" data-name="Tracé 2476" d="M1056.017,426.985a1.207,1.207,0,0,1-.266-.03c-16.336-3.686-18.4-16.216-20.221-27.272-1.3-7.862-2.413-14.652-8.2-17.394-10.592-5.016-14.542-12.752-11.741-22.994a1.2,1.2,0,1,1,2.318.634c-2.483,9.078.936,15.682,10.451,20.188,6.929,3.281,8.2,11,9.547,19.176,1.78,10.81,3.621,21.988,18.379,25.318a1.2,1.2,0,0,1-.263,2.374" transform="translate(-709.937 -250.76)" fill="#fff"/>
    <path id="Tracé_2477" data-name="Tracé 2477" d="M350.842,596.474c1.808-.869,5.617-4.541,6.337-11.732l.13-.794a1.034,1.034,0,0,1,1.021-.867.993.993,0,0,1,.984.857,15.723,15.723,0,0,0,3.107,8,12.634,12.634,0,0,0,4.547,3.648,1.807,1.807,0,0,1,1.077,1.653,2.068,2.068,0,0,1-1.053,1.8,11.457,11.457,0,0,0-5.922,7.613,50.882,50.882,0,0,0-1.27,8.212,1.339,1.339,0,0,1-1.336,1.259,1.374,1.374,0,0,1-1.37-1.264q-.657-8.184-4.058-11.4a14.516,14.516,0,0,0-5.684-3.658,1.282,1.282,0,0,1-.934-1.234,1.146,1.146,0,0,1,1-1.137,11.16,11.16,0,0,0,3.423-.951" transform="translate(-242.37 -407.948)" fill="#fff" fill-rule="evenodd"/>
    <path id="Tracé_2478" data-name="Tracé 2478" d="M394.129,596.6a1.2,1.2,0,0,1-.436-.082c-4.384-1.71-7.162-5.756-8.256-12.026a1.2,1.2,0,1,1,2.367-.413c.953,5.461,3.165,8.8,6.762,10.2a1.2,1.2,0,0,1-.437,2.321" transform="translate(-269.656 -407.948)" fill="#ff3d00"/>
    <path id="Tracé_2479" data-name="Tracé 2479" d="M1640.053,658.17c2.712-1.3,8.426-6.812,9.5-17.6l.2-1.192a1.551,1.551,0,0,1,1.531-1.3,1.49,1.49,0,0,1,1.476,1.285q1.061,7.634,4.661,11.993a18.949,18.949,0,0,0,6.822,5.472,2.711,2.711,0,0,1,1.615,2.48,3.1,3.1,0,0,1-1.58,2.7,17.185,17.185,0,0,0-8.883,11.42,76.394,76.394,0,0,0-1.9,12.317,2.007,2.007,0,0,1-2,1.888,2.061,2.061,0,0,1-2.054-1.9q-.986-12.276-6.088-17.1-4.637-4.388-8.526-5.488a1.923,1.923,0,0,1-1.4-1.85,1.718,1.718,0,0,1,1.5-1.7,16.741,16.741,0,0,0,5.134-1.427" transform="translate(-1142.81 -446.428)" fill="#fff" fill-rule="evenodd"/>
    <path id="Tracé_2480" data-name="Tracé 2480" d="M1706.033,659.3a1.2,1.2,0,0,1-.435-.082c-6.447-2.5-10.539-8.47-12.162-17.733a1.2,1.2,0,0,1,2.367-.414c1.488,8.495,4.977,13.7,10.665,15.907a1.2,1.2,0,0,1-.435,2.321" transform="translate(-1184.789 -447.827)" fill="#ff3d00"/>
    <path id="Tracé_2481" data-name="Tracé 2481" d="M734.5,2057.083H1.5a1.5,1.5,0,1,1,0-3h733a1.5,1.5,0,1,1,0,3" transform="translate(0 -1437.123)" fill="#fff"/>
    <path id="Tracé_2482" data-name="Tracé 2482" d="M1336.037,1814.881V1813.3a6.338,6.338,0,0,0,3.463-.926,3.483,3.483,0,0,0,1.731-2.716h1.373v18.148h-2.029v-12.925Z" transform="translate(-934.749 -1266.115)" fill="#5586de"/>
    <path id="Tracé_2483" data-name="Tracé 2483" d="M751.149,1886.319a7.36,7.36,0,0,1,1.94-4.866,16.512,16.512,0,0,1,4.418-3.522,14.908,14.908,0,0,0,2.806-1.97,3.976,3.976,0,0,0,1.284-2.806,2.812,2.812,0,0,0-1.224-2.328,4.584,4.584,0,0,0-2.746-.836,3.929,3.929,0,0,0-2.806,1.1,3.648,3.648,0,0,0-1.194,2.746v1.134H751.6v-1.134a5.6,5.6,0,0,1,1.791-4.179,5.881,5.881,0,0,1,4.239-1.7,6.416,6.416,0,0,1,4.179,1.433,4.717,4.717,0,0,1,1.821,3.761,5.709,5.709,0,0,1-1.433,3.7,12.193,12.193,0,0,1-3.313,2.657l-.627.358q-4,2.268-4.388,4.418h9.76v2.03Z" transform="translate(-525.536 -1306.907)" fill="#5586de"/>
    <path id="Tracé_2484" data-name="Tracé 2484" d="M1900.4,1942.648h2.03a3.42,3.42,0,0,0,1.373,2.776,4.912,4.912,0,0,0,3.164,1.075,4.809,4.809,0,0,0,3.015-.985,3.223,3.223,0,0,0,1.313-2.627,2.722,2.722,0,0,0-1.343-2.358,5.255,5.255,0,0,0-2.985-.836h-1.582v-2.029h1.582a3.727,3.727,0,0,0,2.388-.806,2.685,2.685,0,0,0,1.045-2.149,2.368,2.368,0,0,0-1.075-2,3.9,3.9,0,0,0-2.358-.716,4.493,4.493,0,0,0-2.836.925,3.028,3.028,0,0,0-1.254,2.477h-2.029a5.016,5.016,0,0,1,1.761-3.88,6,6,0,0,1,4.149-1.552,6.189,6.189,0,0,1,3.94,1.313,4.162,4.162,0,0,1,1.731,3.432,4.935,4.935,0,0,1-.508,2.239,3.8,3.8,0,0,1-1.522,1.641,3.6,3.6,0,0,1,2.149,1.612,4.729,4.729,0,0,1,.776,2.686,5.145,5.145,0,0,1-1.91,4.06,6.691,6.691,0,0,1-4.448,1.582,6.813,6.813,0,0,1-4.6-1.672,5.343,5.343,0,0,1-1.97-4.209" transform="translate(-1329.604 -1350.285)" fill="#5586de"/>
  </g>
</svg>
