<svg xmlns="http://www.w3.org/2000/svg" xmlns:xlink="http://www.w3.org/1999/xlink" width="274.757" height="264.215" viewBox="0 0 274.757 264.215">
  <defs>
    <clipPath id="clip-path">
      <rect id="Rectangle_402" data-name="Rectangle 402" width="262.036" height="119.598" fill="none"/>
    </clipPath>
    <clipPath id="clip-path-3">
      <rect id="Rectangle_397" data-name="Rectangle 397" width="25.437" height="18.15" fill="none"/>
    </clipPath>
    <clipPath id="clip-path-4">
      <rect id="Rectangle_398" data-name="Rectangle 398" width="61.625" height="17.451" fill="none"/>
    </clipPath>
    <clipPath id="clip-path-5">
      <rect id="Rectangle_399" data-name="Rectangle 399" width="19.664" height="10.135" fill="none"/>
    </clipPath>
    <clipPath id="clip-path-6">
      <rect id="Rectangle_400" data-name="Rectangle 400" width="20.043" height="9.283" fill="none"/>
    </clipPath>
  </defs>
  <g id="Groupe_585" data-name="Groupe 585" transform="translate(0 175.336) rotate(-42)">
    <g id="Groupe_584" data-name="Groupe 584" clip-path="url(#clip-path)">
      <g id="Groupe_583" data-name="Groupe 583">
        <g id="Groupe_582" data-name="Groupe 582" clip-path="url(#clip-path)">
          <path id="Tracé_2035" data-name="Tracé 2035" d="M185.342,92.2l-4.617,3.989a4.657,4.657,0,0,1-4.167.989l-3.473-.868a.013.013,0,0,0-.009,0v1.8a6.973,6.973,0,0,1-2.053,4.938l-3.4,3.406a7,7,0,0,1-6.639,1.839l-1.986-.5L158.926,109a9.127,9.127,0,0,1-3.326,6.487L153.753,117a9.135,9.135,0,0,1-7.2,1.964l-4.212-.663-3.165,2.76A10.087,10.087,0,0,1,129.291,123l-4.639-1.576a137.766,137.766,0,0,1-22.208-9.786c-.65-.351-1.313-.712-1.981-1.082-.9-.5-1.817-1.02-2.743-1.563-2.72-1.581-5.547-3.326-8.433-5.25q-1.4-.935-2.725-1.861l-.094-.067q-1.356-.949-2.631-1.888c-3.05-2.239-5.775-4.43-8.175-6.491-1.34-1.149-2.582-2.262-3.722-3.322A85.347,85.347,0,0,1,61.625,79l0,0s-.009,0-.022.009a101.316,101.316,0,0,1-14.947,1C33.909,79.3.833,75.217.013,75.119a.035.035,0,0,0-.013,0S1.122,69.99,2.774,62.6C7.07,43.37,14.964,8.766,16.011,9.118c1.456.485,57.751,16.5,57.751,16.5s30.08-18.442,36.879-17.467c3.166.45,8.967,1.745,14.266,3,6.059,1.438,11.451,2.818,11.451,2.818L134.252,32.9l.049.036L166.09,54.1l2.293,1.527,1.038,1.776,15.262,26.117,1.643,2.809a4.654,4.654,0,0,1-.984,5.873" transform="translate(0 -5.077)" fill="#ef784d"/>
          <g id="Groupe_572" data-name="Groupe 572" transform="translate(155.29 74.087)" opacity="0.5" style="mix-blend-mode: multiply;isolation: isolate">
            <g id="Groupe_571" data-name="Groupe 571">
              <g id="Groupe_570" data-name="Groupe 570" clip-path="url(#clip-path-3)">
                <path id="Tracé_2036" data-name="Tracé 2036" d="M440.321,214.958a4.653,4.653,0,0,1-4.17.989l-3.472-.866a.018.018,0,0,0-.01,0s-12.278-11.955-17.784-17.139c.528.241,17.364,7.986,25.437,17.021" transform="translate(-414.884 -197.937)" fill="#ef784d"/>
              </g>
            </g>
          </g>
          <g id="Groupe_575" data-name="Groupe 575" transform="translate(0 57.526)" opacity="0.5" style="mix-blend-mode: multiply;isolation: isolate">
            <g id="Groupe_574" data-name="Groupe 574">
              <g id="Groupe_573" data-name="Groupe 573" clip-path="url(#clip-path-4)">
                <path id="Tracé_2037" data-name="Tracé 2037" d="M61.625,170.085l0,0s-.009,0-.022.009a101.33,101.33,0,0,1-14.947,1c-12.743-.717-45.819-4.8-46.638-4.893a.035.035,0,0,0-.013,0s1.122-5.125,2.774-12.511l32.489,9.114Z" transform="translate(0 -153.692)" fill="#ef784d"/>
              </g>
            </g>
          </g>
          <g id="Groupe_578" data-name="Groupe 578" transform="translate(147.96 93.28)" opacity="0.5" style="mix-blend-mode: multiply;isolation: isolate">
            <g id="Groupe_577" data-name="Groupe 577">
              <g id="Groupe_576" data-name="Groupe 576" clip-path="url(#clip-path-5)">
                <path id="Tracé_2038" data-name="Tracé 2038" d="M414.966,257.3a6.994,6.994,0,0,1-6.639,1.839l-1.982-.5c-.686-.584-10.669-9.107-11.043-9.43.425.246,14.193,8.2,19.664,8.088" transform="translate(-395.302 -249.215)" fill="#ef784d"/>
              </g>
            </g>
          </g>
          <g id="Groupe_581" data-name="Groupe 581" transform="translate(131.349 104.713)" opacity="0.5" style="mix-blend-mode: multiply;isolation: isolate">
            <g id="Groupe_580" data-name="Groupe 580">
              <g id="Groupe_579" data-name="Groupe 579" clip-path="url(#clip-path-6)">
                <path id="Tracé_2039" data-name="Tracé 2039" d="M370.964,288.375a9.157,9.157,0,0,1-4.84.558l-4.21-.661c-1.276-1.168-10.7-8.293-10.992-8.513Z" transform="translate(-350.921 -279.759)" fill="#ef784d"/>
              </g>
            </g>
          </g>
          <path id="Tracé_2040" data-name="Tracé 2040" d="M434.009,18.441,431.6,64.971l-.5,9.758s-27.173.968-38.821,0a211.608,211.608,0,0,1-23.619-3.56l-11.913,7.388s-11.126-14.708-21.453-25.6c-1.624-1.716-3.242-3.329-4.8-4.758-2.51-2.3-4.964-4.477-7.279-6.49-9.63-8.36-16.985-13.891-16.985-13.891l-10.352,1.3c-.907,16.161-7.422,21.826-12.959,23.685a16.261,16.261,0,0,1-8.067.579l1.342-21.7L277.6,14.717,310.432,0c16.5,1.613,50.146,22.645,50.146,22.645l10.736-2.168a51.2,51.2,0,0,1,14.173.549Z" transform="translate(-171.973 -0.001)" fill="#ff9466"/>
          <path id="Tracé_2041" data-name="Tracé 2041" d="M282.915,105.472a16.261,16.261,0,0,1-8.067.579l1.342-21.7c2.443-.323,5.593-.343,7.069,1.316,1.859,2.09.543,13.522-.343,19.8" transform="translate(-171.973 -52.672)" fill="#f2b9ad"/>
          <path id="Tracé_2042" data-name="Tracé 2042" d="M429.24,119.867a33.039,33.039,0,0,1-13.1,2.817c-1.624-1.716-3.242-3.329-4.8-4.759-2.51-2.3-4.964-4.477-7.279-6.49,5.906,4.011,15.8,9.4,25.181,8.431" transform="translate(-252.821 -69.726)" fill="#ef784d"/>
          <path id="Tracé_2043" data-name="Tracé 2043" d="M588.426,173.578l-.5,9.758s-27.173.968-38.821,0a211.706,211.706,0,0,1-23.618-3.56l35.266-1.132Z" transform="translate(-328.798 -108.608)" fill="#ef784d"/>
          <path id="Tracé_2044" data-name="Tracé 2044" d="M158.587,197.486l-2.438,4.014a8.162,8.162,0,0,0,.5,9.206l.529.69a8.162,8.162,0,0,0,8.29,2.989l7.19-1.64-.647-15.1Z" transform="translate(-96.961 -123.568)" fill="#ff9466"/>
          <path id="Tracé_2045" data-name="Tracé 2045" d="M216.626,181.691c-.2.614-.41,1.211-.646,1.79a31.763,31.763,0,0,1-9.488,12.444l-2.159,11.22-1.732.73a7.189,7.189,0,0,1-1.692.481,7.269,7.269,0,0,1-5.539-1.38l-3.085-2.333a7.3,7.3,0,0,1-2.863-6.531l2.19-14.047,7.943-5.3.98-.65,11.78-7.854a8.267,8.267,0,0,1,4.075,3.722,7.584,7.584,0,0,1,.8,2.569,11.47,11.47,0,0,1-.565,5.138" transform="translate(-118.5 -106.533)" fill="#ff9466"/>
          <path id="Tracé_2046" data-name="Tracé 2046" d="M235.24,205.579a31.759,31.759,0,0,1-9.488,12.444l-2.159,11.22-1.732.73a7.167,7.167,0,0,1-1.692.481l2.774-13.548a6.666,6.666,0,0,1,2.52-3.976Z" transform="translate(-137.76 -128.631)" fill="#ef784d"/>
          <path id="Tracé_2047" data-name="Tracé 2047" d="M252.353,209.369a45.643,45.643,0,0,1-5.953,7.021v14.234l-2.832.4a11.26,11.26,0,0,1-2.288.085,10.942,10.942,0,0,1-6.144-2.4l-.966-.779a10.983,10.983,0,0,1-3.869-10.8l2.3-9.595,5.463-5.387,10.712-10.565a9.774,9.774,0,0,1,5.352,4.5,11.244,11.244,0,0,1,1.331,4.768c.178,2.725-1.3,5.811-3.1,8.509" transform="translate(-143.956 -119.879)" fill="#ff9466"/>
          <path id="Tracé_2048" data-name="Tracé 2048" d="M270.958,238.949a45.64,45.64,0,0,1-5.953,7.021V260.2l-2.832.4a11.261,11.261,0,0,1-2.288.085l-.076-3.378a12.7,12.7,0,0,1,.236-2.737l2.349-11.93a4.689,4.689,0,0,1,4.7-3.782Z" transform="translate(-162.562 -149.459)" fill="#ef784d"/>
          <path id="Tracé_2049" data-name="Tracé 2049" d="M292.138,270.549l-1.562.953a15.624,15.624,0,0,1-18.67-1.777l-1.47-1.337a8.461,8.461,0,0,1-2.669-7.509L268,259.3l1.926-12.8a9.228,9.228,0,0,1,6,1.188c6.029,3.785,4.784,14.875,4.784,14.875Z" transform="translate(-167.484 -154.199)" fill="#ff9466"/>
          <path id="Tracé_2050" data-name="Tracé 2050" d="M234.186,176.557l-8.358,5.532a4.789,4.789,0,0,1-5.728-.33l-3.55-2.989.978-.651,11.781-7.852a8.252,8.252,0,0,1,4.077,3.719,7.66,7.66,0,0,1,.8,2.571" transform="translate(-135.496 -106.537)" fill="#f2b9ad"/>
          <path id="Tracé_2051" data-name="Tracé 2051" d="M269.317,196.09l-6.847,8.013a4.064,4.064,0,0,1-5.408.7l-1.868-1.3a1.961,1.961,0,0,1-.259-3.006l9.029-8.908a9.773,9.773,0,0,1,5.353,4.5" transform="translate(-159.149 -119.877)" fill="#f2b9ad"/>
          <path id="Tracé_2052" data-name="Tracé 2052" d="M276.9,247.694l-.376,7.079a3.331,3.331,0,0,1-3.553,3.147l-3.743-.255,1.674-11.159a9.225,9.225,0,0,1,6,1.188" transform="translate(-168.456 -154.199)" fill="#f2b9ad"/>
        </g>
      </g>
    </g>
  </g>
</svg>
