<svg xmlns="http://www.w3.org/2000/svg" xmlns:xlink="http://www.w3.org/1999/xlink" width="255.329" height="149.8" viewBox="0 0 255.329 149.8">
  <defs>
    <clipPath id="clip-path">
      <rect id="Rectangle_404" data-name="Rectangle 404" width="255.329" height="149.8" transform="translate(0 0)" fill="none"/>
    </clipPath>
  </defs>
  <g id="Groupe_587" data-name="Groupe 587" transform="translate(0 -0.003)">
    <g id="Groupe_586" data-name="Groupe 586" transform="translate(0 0.003)" clip-path="url(#clip-path)">
      <path id="Tracé_2053" data-name="Tracé 2053" d="M271.95,150.956c-3.423-12.259-11.4-23.929-23.257-28.547-9.734-3.79-20.8-2.463-30.729-5.707-11.784-3.85-20.609-13.661-27.6-23.9s-12.845-21.4-21.545-30.23S147.561,47.42,135.461,50.117c-13.464,3-22.138,15.747-29.266,27.557s-15.344,24.706-28.63,28.418c-12.776,3.569-27.664-2.332-39.11,4.371-6.4,3.747-10.256,10.852-11.768,18.11s-.978,14.768-.437,22.163c.981,13.4,2.99,26.109,3.972,39.514h244.92c.468-12.719.232-27.036-3.191-39.295" transform="translate(-22.684 -43.685)" fill="#fcede8"/>
      <path id="Tracé_2054" data-name="Tracé 2054" d="M2021.153,214.4a7.492,7.492,0,0,0,3.325.839,3.83,3.83,0,0,0,3.017-1.434,4.86,4.86,0,0,0,.764-2.674,12.17,12.17,0,0,0-1.71-6.684,3.415,3.415,0,0,0-3.455-1.949,7.652,7.652,0,0,0-3.806.955,5.722,5.722,0,0,0-2.929,4.789,5.907,5.907,0,0,0,1.489,3.75,9.779,9.779,0,0,0,3.305,2.407" transform="translate(-1779.87 -178.749)" fill="#fcede8"/>
      <path id="Tracé_2055" data-name="Tracé 2055" d="M1946.935,393.621a2.329,2.329,0,0,0,2.033-.842c.926-1.165.6-4.216-1.012-4.759-2.365-.8-3.883,2.571-2.862,4.379a2.452,2.452,0,0,0,1.841,1.221" transform="translate(-1716.678 -342.406)" fill="#fcede8"/>
      <path id="Tracé_2056" data-name="Tracé 2056" d="M157.626,61.374a8.628,8.628,0,0,0,6.2.89,5.606,5.606,0,0,0,3.567-3.627,6.943,6.943,0,0,0-.453-5.137,8.919,8.919,0,0,0-2.839-3.267,1.992,1.992,0,0,0-1.745-.518,9.738,9.738,0,0,0-2.252.568,8.36,8.36,0,0,0-2.163,1.222,6.951,6.951,0,0,0-2.683,4.908,5.587,5.587,0,0,0,2.372,4.962" transform="translate(-137.036 -43.857)" fill="#fcede8"/>
      <path id="Tracé_2057" data-name="Tracé 2057" d="M319.441,147.383a2.586,2.586,0,0,0,1.366.16c1.4-.345,1.623-2.607.873-3.625-.849-1.151-2.876-.706-3.7.232a1.888,1.888,0,0,0-.229,2.246,3.044,3.044,0,0,0,1.695.987" transform="translate(-280.238 -126.432)" fill="#fcede8"/>
      <path id="Tracé_2058" data-name="Tracé 2058" d="M735.262,382.19c.357-.032,7.74-.734,7.357-4.26-.377-3.473-6.8,3.372-7.3,3.909q.481-2.9.8-5.858c.93-.311,7.232-2.549,6.143-5.737-1.032-3.02-5.1,3.466-6.074,5.095q.308-3.033.446-6.123c.674-.436,6.42-4.273,4.53-7.127-1.67-2.523-3.818,3.911-4.491,6.139q.124-3.449.038-6.952h0s6.037-7.3,2.219-8.025-2.458,7.862-2.458,7.862q.053,2,.036,3.933c-.509-1.747-2.825-9.19-4.6-6.507-2,3.026,4.573,7.155,4.594,7.169q-.046,3.28-.272,6.358c-.644-1.723-3.5-8.94-5.065-6.139-1.655,2.954,4.208,6.313,5.019,6.759q-.235,3.018-.615,5.833c-.64-1.494-3.951-8.908-5.407-5.974-1.5,3.016,4.451,6.061,5.336,6.493-.347,2.5-.769,4.869-1.244,7.114-.495-1.169-3.957-9.109-5.456-6.089-1.515,3.052,4.6,6.134,5.366,6.508-.5,2.305-1.054,4.473-1.641,6.5-.542-1.275-3.957-9.05-5.443-6.057s4.371,6.019,5.318,6.484c-.649,2.2-1.334,4.23-2.026,6.083-.457-1.083-3.957-9.153-5.466-6.113-1.491,3,4.4,6.035,5.325,6.488-.508,1.343-1.018,2.591-1.516,3.74q-.717,1.653-1.434,3.124c-.418-.993-3.955-9.195-5.475-6.134-1.482,2.985,4.329,6,5.307,6.479a57.661,57.661,0,0,1-6.9,11.185.117.117,0,0,0,.178.153,50.808,50.808,0,0,0,5.008-7.566c.99.451,7.006,3.036,8.375,0,1.387-3.079-6.982-.708-8.175-.357,1.063-1.923,2.2-4.185,3.327-6.778l.073-.171c.948.433,7.014,3.056,8.39,0,1.42-3.152-7.384-.593-8.248-.335q1.313-3.077,2.409-6.314c1.127.327,7.345,1.977,8.262-1.2.933-3.23-6.939.255-8.128.8q1.029-3.084,1.855-6.289c.943-.1,7.625-.892,7.26-4.251-.352-3.247-5.988,2.523-7.128,3.728q.492-1.956.908-3.948.374-1.8.682-3.63" transform="translate(-635.719 -311.781)" fill="#fb6147"/>
      <path id="Tracé_2059" data-name="Tracé 2059" d="M979.889,769.7v13.8h-2.036l-41.858-62.033s39.631,7.478,43.894,48.237" transform="translate(-826.216 -636.845)" fill="#b08a37"/>
      <path id="Tracé_2060" data-name="Tracé 2060" d="M975.684,783.5H958.03s-27.591-10.943-24.2-62.033Z" transform="translate(-824.048 -636.845)" fill="#776944"/>
      <path id="Tracé_2061" data-name="Tracé 2061" d="M787.663,1037.736v6.1h.9l18.517-27.442s-17.532,3.308-19.418,21.339" transform="translate(-695.282 -897.189)" fill="#776944"/>
      <path id="Tracé_2062" data-name="Tracé 2062" d="M795.342,1043.839h7.81s12.206-4.841,10.707-27.442Z" transform="translate(-702.06 -897.189)" fill="#b08a37"/>
      <path id="Tracé_2063" data-name="Tracé 2063" d="M1892.794,572.483l3.7,9.8,1.446-.546,13.094-55.273s-26.138,15.935-18.238,46.022" transform="translate(-1669.484 -464.715)" fill="#776944"/>
      <path id="Tracé_2064" data-name="Tracé 2064" d="M1947.852,581.734,1960.388,577s16.659-15.168.557-50.54Z" transform="translate(-1719.397 -464.715)" fill="#b08a37"/>
      <path id="Tracé_2065" data-name="Tracé 2065" d="M255.212,1249.607H.117a.117.117,0,0,1,0-.235H255.212a.117.117,0,0,1,0,.235" transform="translate(0 -1102.839)" fill="#1d2b50"/>
      <path id="Tracé_2066" data-name="Tracé 2066" d="M572.181,0a17.936,17.936,0,0,0-9,33.448V38.88l4.769-3.513A17.935,17.935,0,1,0,572.181,0" transform="translate(-489.242 -0.003)" fill="#f15942"/>
      <path id="Tracé_2067" data-name="Tracé 2067" d="M615.965,115.988v7.88c-3.5-.256-4.864-7.169-4.864-7.169v-.712Z" transform="translate(-539.428 -102.385)" fill="#1d2b50"/>
      <path id="Tracé_2068" data-name="Tracé 2068" d="M657.951,91.18l-5.377-5.156V77.185l5.377-5.156Z" transform="translate(-576.037 -63.581)" fill="#fff"/>
      <path id="Tracé_2069" data-name="Tracé 2069" d="M615.965,129.226v.959H611.1v-8.128s1.365,6.912,4.864,7.169" transform="translate(-539.428 -107.742)" fill="#1d2b50"/>
      <path id="Tracé_2070" data-name="Tracé 2070" d="M698.655,142.117h-.238v-3.542h.238a1.021,1.021,0,0,1,1.021,1.021v1.5a1.021,1.021,0,0,1-1.021,1.021" transform="translate(-616.503 -122.323)" fill="#1d2b50"/>
      <path id="Tracé_2071" data-name="Tracé 2071" d="M721.811,120.168a.359.359,0,0,0-.532.483,5.605,5.605,0,0,1,1.065,2.03,5.044,5.044,0,0,1-1.081,4.676.359.359,0,0,0,.564.445,5.76,5.76,0,0,0,1.2-5.347,6.228,6.228,0,0,0-1.216-2.286" transform="translate(-636.601 -105.971)" fill="#fff"/>
      <path id="Tracé_2072" data-name="Tracé 2072" d="M746.332,96.887a11.471,11.471,0,0,0-2.238-4.216.359.359,0,0,0-.531.483,10.955,10.955,0,0,1,2.087,3.959,9.885,9.885,0,0,1-2.1,9.2.359.359,0,0,0,.564.445,11.826,11.826,0,0,0,2.5-5.369,10.111,10.111,0,0,0-.279-4.5" transform="translate(-656.271 -81.699)" fill="#fff"/>
      <path id="Tracé_2073" data-name="Tracé 2073" d="M770.16,74.954a15.969,15.969,0,0,0-3.115-5.87.359.359,0,0,0-.531.483,15.544,15.544,0,0,1,2.964,5.614c1.3,4.525.294,8.924-2.98,13.073a.359.359,0,1,0,.564.445,16.486,16.486,0,0,0,3.487-7.484,14.072,14.072,0,0,0-.389-6.261" transform="translate(-676.531 -60.878)" fill="#fff"/>
      <path id="Tracé_2074" data-name="Tracé 2074" d="M1024.548,119.94a17.936,17.936,0,0,1,17.507,29.888l1.432,5.237-5.527-2.13a17.935,17.935,0,1,1-13.413-32.995" transform="translate(-892.725 -105.308)" fill="#7a86f2"/>
      <path id="Tracé_2075" data-name="Tracé 2075" d="M1045.97,257.8a1.881,1.881,0,1,1-1.881-1.881,1.881,1.881,0,0,1,1.881,1.881" transform="translate(-919.972 -225.899)" fill="#fff"/>
      <path id="Tracé_2076" data-name="Tracé 2076" d="M1112.03,257.8a1.881,1.881,0,1,1-1.881-1.881,1.881,1.881,0,0,1,1.881,1.881" transform="translate(-978.283 -225.899)" fill="#fff"/>
      <path id="Tracé_2077" data-name="Tracé 2077" d="M1178.089,257.8a1.881,1.881,0,1,1-1.881-1.881,1.881,1.881,0,0,1,1.881,1.881" transform="translate(-1036.596 -225.899)" fill="#fff"/>
      <path id="Tracé_2078" data-name="Tracé 2078" d="M1244.148,257.8a1.881,1.881,0,1,1-1.881-1.881,1.881,1.881,0,0,1,1.881,1.881" transform="translate(-1094.907 -225.899)" fill="#fff"/>
      <path id="Tracé_2079" data-name="Tracé 2079" d="M1253.623,563.993a.6.6,0,0,1,.885.8,9.323,9.323,0,0,0-1.772,3.377,8.394,8.394,0,0,0,1.8,7.781.6.6,0,1,1-.938.74,9.583,9.583,0,0,1-2-8.9,10.364,10.364,0,0,1,2.023-3.8" transform="translate(-1104.479 -497.673)" fill="#1d2b50"/>
      <path id="Tracé_2080" data-name="Tracé 2080" d="M1197.613,525.25a19.087,19.087,0,0,1,3.724-7.015.6.6,0,0,1,.884.8,18.23,18.23,0,0,0-3.473,6.588c-1.512,5.294-.335,10.442,3.5,15.3a.6.6,0,1,1-.938.74,19.678,19.678,0,0,1-4.161-8.935,16.822,16.822,0,0,1,.464-7.485" transform="translate(-1056.543 -457.282)" fill="#1d2b50"/>
      <path id="Tracé_2081" data-name="Tracé 2081" d="M1144.942,488.75a26.573,26.573,0,0,1,5.183-9.769.6.6,0,0,1,.884.8,25.873,25.873,0,0,0-4.932,9.343c-2.157,7.53-.489,14.85,4.959,21.757a.6.6,0,1,1-.938.74,27.435,27.435,0,0,1-5.8-12.455,23.419,23.419,0,0,1,.647-10.42" transform="translate(-1009.811 -422.631)" fill="#1d2b50"/>
      <path id="Tracé_2082" data-name="Tracé 2082" d="M142.4,320.328a15.933,15.933,0,0,1-3.875-11.717c.627-7.065,4.239-11.927,3.875-16.582s-11.651-24.972,4.026-37.639A19.093,19.093,0,0,1,165,250.962s15.162-5.224,26.825,9.7-2.578,21.947,7.051,42.515,11.134,17.056,9.378,24.581-55.433,2.759-55.433,2.759Z" transform="translate(-121.928 -220.614)" fill="#1d2b50"/>
      <path id="Tracé_2083" data-name="Tracé 2083" d="M106.883,827.8s-19.983,1.839-20.15,1.923-12.876-2.09-12.876-2.09-14.214,1.087-16.722,6.1-10.451,43.477-10.451,43.477h92.639s3.428-32.691-6.94-39.464-25.5-9.95-25.5-9.95" transform="translate(-41.209 -730.567)" fill="#7a86f2"/>
      <path id="Tracé_2084" data-name="Tracé 2084" d="M193.838,368.548s-1.839,2.62-2.564,8.305-5.741,42.362,18,38.182V420.3l-8.612,2.09s5.017,16.3,17.474,16.053,15.551-15.886,15.551-15.886l-6.1-2.508V404.333s7.692-11.773.251-15.836c0,0-3.121-2.335-4.181,4.019,0,0-2.452.669-2.4-1.338s2.731-14.548-8.305-16.666-16.387,2.285-19.119-5.964" transform="translate(-168.018 -325.323)" fill="#fead98"/>
      <path id="Tracé_2085" data-name="Tracé 2085" d="M274.689,513.239h-.016l-1.839-.251a.117.117,0,0,1-.09-.166c1.355-2.874,2.486-16.709,2.5-16.849a.117.117,0,0,1,.234.019c-.045.562-1.112,13.6-2.455,16.784l1.685.23a.117.117,0,0,1-.016.234" transform="translate(-240.745 -437.707)" fill="#1d2b50"/>
      <path id="Tracé_2086" data-name="Tracé 2086" d="M311.7,615.644a.117.117,0,0,1-.041-.227c.072-.027,7.234-2.733,8.789-9.323a.117.117,0,0,1,.228.054c-1.585,6.714-8.863,9.462-8.936,9.489a.115.115,0,0,1-.04.007" transform="translate(-275.04 -534.928)" fill="#1d2b50"/>
      <path id="Tracé_2087" data-name="Tracé 2087" d="M344.493,676.382a.117.117,0,0,1-.024-.232,5.039,5.039,0,0,0,3.406-3.061.117.117,0,0,1,.221.08,5.281,5.281,0,0,1-3.578,3.21l-.025,0" transform="translate(-303.986 -594.078)" fill="#fe8f7e"/>
      <path id="Tracé_2088" data-name="Tracé 2088" d="M476.018,568.612a.117.117,0,0,1-.111-.156,6.59,6.59,0,0,1,4.3-3.795.117.117,0,0,1,.062.226,6.348,6.348,0,0,0-4.143,3.647.117.117,0,0,1-.11.078" transform="translate(-420.084 -498.431)" fill="#fe8f7e"/>
      <path id="Tracé_2089" data-name="Tracé 2089" d="M474.446,586.58c-.874,1.068-1.068,2.355-.433,2.875s1.858.074,2.732-.994,1.068-2.355.433-2.875-1.858-.074-2.732.994" transform="translate(-418.089 -516.714)" fill="#fe8f7e"/>
      <path id="Tracé_2090" data-name="Tracé 2090" d="M476.242,597.583a1.5,1.5,0,1,1-1.505-1.505,1.505,1.505,0,0,1,1.505,1.505" transform="translate(-417.729 -526.167)" fill="#fff"/>
      <path id="Tracé_2091" data-name="Tracé 2091" d="M481.98,515.6s1.453-2.508,5.424-1.212,1.421,10.149,1.421,10.149l-.663-4.254s-2.117-4.165-4.938-3.378Z" transform="translate(-425.451 -453.726)" fill="#fbeee6"/>
      <path id="Tracé_2092" data-name="Tracé 2092" d="M468.29,538.6l-.134.12a.619.619,0,0,1-1-.258c-.711-2.039-2.1-7.3.9-11.04,0,0,.784-.235,1.244,1.3,0,0-3,2.595-.819,9.131a.7.7,0,0,1-.2.744" transform="translate(-411.533 -465.552)" fill="#fb6147"/>
      <path id="Tracé_2093" data-name="Tracé 2093" d="M519.881,481.38a.657.657,0,0,0-.982.261c-.223.468-1.766,6.676-2.7,10.492a11.547,11.547,0,0,0,.27,6.45,13.18,13.18,0,0,0,2.351,4.618l20.078,59.125a7.592,7.592,0,0,0,1.766,2.891c1.721,1.749,5.074,3.856,10.3,1.861,8.11-3.094,2.09-12.625,2.09-12.625L532.3,506.484s3.386-2.306,2.773-11.949c0,0,5.978-9.35,4.055-10.145-1.889-.78-5.582,6.981-5.582,6.981s2.7-13.085,1.109-13.336c-2.132-.334-4.431,11.789-4.431,11.789s2.717-15.8.585-16.178-4.6,15.3-4.6,15.3.272-12.959-1.735-13.4-2.414,8.56-2.414,8.56-.721-2.111-2.184-2.728" transform="translate(-455.356 -418.089)" fill="#fead98"/>
      <path id="Tracé_2094" data-name="Tracé 2094" d="M645.562,743.25a.117.117,0,0,1-.027-.231,3.538,3.538,0,0,0,2.178-1.858.117.117,0,0,1,.213.1,3.711,3.711,0,0,1-2.337,1.988.119.119,0,0,1-.027,0" transform="translate(-569.744 -654.173)" fill="#1d2b50"/>
      <path id="Tracé_2095" data-name="Tracé 2095" d="M561.4,554.122c-3.215-4.2-9.076-4.772-9.91-4.833a22.652,22.652,0,0,0,.411-4.471c-.055-3.214-1.011-5.347-2.764-6.171a.117.117,0,0,0-.1.212c4.048,1.9,2.212,10.443,2.193,10.529a.117.117,0,0,0,.05.123,7.037,7.037,0,0,1,3.3,7.4.117.117,0,0,0,.083.144.122.122,0,0,0,.03,0,.117.117,0,0,0,.113-.087,7.238,7.238,0,0,0-3.06-7.422c1.4.141,6.555.909,9.471,4.718a.117.117,0,0,0,.093.046.116.116,0,0,0,.071-.024.117.117,0,0,0,.022-.164" transform="translate(-484.584 -475.463)" fill="#1d2b50"/>
      <path id="Tracé_2096" data-name="Tracé 2096" d="M408.822,596.028a2.926,2.926,0,1,0,2.926-2.926,2.926,2.926,0,0,0-2.926,2.926" transform="translate(-360.873 -523.54)" fill="#fe8f7e"/>
      <path id="Tracé_2097" data-name="Tracé 2097" d="M202.564,586.885a2.926,2.926,0,1,0,2.926-2.926,2.926,2.926,0,0,0-2.926,2.926" transform="translate(-178.806 -515.469)" fill="#fe8f7e"/>
      <path id="Tracé_2098" data-name="Tracé 2098" d="M237.448,524.666h-1.493c-.613,0-.836,1-.836,2.244s.223,2.243.836,2.243.836-1,.836-2.243a5.629,5.629,0,0,0-.17-1.522h.826a.361.361,0,0,0,0-.721" transform="translate(-207.543 -463.131)" fill="#1d2b50"/>
      <path id="Tracé_2099" data-name="Tracé 2099" d="M376.374,527.874h-1.493c-.613,0-.836,1-.836,2.244s.223,2.243.836,2.243.836-1,.836-2.243a5.628,5.628,0,0,0-.17-1.522h.826a.361.361,0,0,0,0-.721" transform="translate(-330.175 -465.962)" fill="#1d2b50"/>
      <path id="Tracé_2100" data-name="Tracé 2100" d="M205.227,472.633a6.4,6.4,0,0,0-3.55,2.152,1.15,1.15,0,0,0-.347.819.828.828,0,0,0,.63.649,2.023,2.023,0,0,0,.95-.03,15.855,15.855,0,0,0,2.512-.838l3.648-1.448c.212-.084.645-.262.607-.562-.031-.246-.419-.321-.607-.383a7.967,7.967,0,0,0-2.4-.5,6.3,6.3,0,0,0-1.444.138" transform="translate(-177.713 -417.078)" fill="#1d2b50"/>
      <path id="Tracé_2101" data-name="Tracé 2101" d="M356.99,475.722a6.4,6.4,0,0,1,3.55,2.152,1.15,1.15,0,0,1,.347.819.828.828,0,0,1-.63.649,2.023,2.023,0,0,1-.95-.03,15.857,15.857,0,0,1-2.512-.838l-3.648-1.448c-.212-.084-.645-.262-.608-.562.031-.246.419-.321.607-.383a7.965,7.965,0,0,1,2.4-.5,6.3,6.3,0,0,1,1.444.138" transform="translate(-311.19 -419.804)" fill="#1d2b50"/>
      <path id="Tracé_2102" data-name="Tracé 2102" d="M351.792,698.622a31.7,31.7,0,0,0,14.243-8.807,21.229,21.229,0,0,1-14.243,12.625Z" transform="translate(-310.532 -608.91)" fill="#fe8f7e"/>
      <path id="Tracé_2103" data-name="Tracé 2103" d="M169.049,1086.57l-.022,0a.117.117,0,0,1-.093-.137l.442-2.32c-.1-.578-2.009-12.162,1.465-18.838a.117.117,0,0,1,.208.108c-3.508,6.741-1.459,18.591-1.438,18.71a.115.115,0,0,1,0,.042l-.446,2.341a.117.117,0,0,1-.115.1" transform="translate(-148.97 -940.277)" fill="#1d2b50"/>
      <path id="Tracé_2104" data-name="Tracé 2104" d="M1486.283,779.227h0s-4.1,23.529-26.645,23.525c-22.032-.661-17.928-21.149-17.891-21.332a27.576,27.576,0,0,1,3.394-.57l15.165,8.026L1481.97,778.8q2.241.132,4.313.425" transform="translate(-1272.363 -687.46)" fill="#1d2b50"/>
      <path id="Tracé_2105" data-name="Tracé 2105" d="M1332.133,837.306H1228.625s1.839-27.174,7.191-39.547c3.8-8.8,13.06-12.017,18.092-13.142-.038.183-4.141,20.67,17.891,21.332,22.543,0,26.645-23.525,26.645-23.525h0c40.174,5.653,33.688,54.884,33.688,54.884" transform="translate(-1084.525 -690.656)" fill="#f15942"/>
      <path id="Tracé_2106" data-name="Tracé 2106" d="M1359.085,111.422s-12.291-2.717-7.834-14.912a10.123,10.123,0,0,1,5.739-5.912c10.822-4.346,42.246-14.858,44.527,8.574,0,0,16.806,3.724,7.776,22.681,0,0,3.971,6.68,3.971,11.585s-1.505,14.269-18.729,17.112-35.451-39.129-35.451-39.129" transform="translate(-1191.91 -74.551)" fill="#1d2b50"/>
      <path id="Tracé_2107" data-name="Tracé 2107" d="M1436.89,338.184c-1,4.683-8.361,3.6-8.361,3.6l-.334,22.993,7.566.292s-5.393,22.2-23.2,20.066-13.629-18.017-13.629-18.017l6.731-1.547V358.34c-27.717,1.3-12.333-47.746-12.333-47.746,5.575.5.446,3.01,7.525,5.518s14.129-6.02,14.129-6.02c13.294.168,8.195,14.214,7.609,17.987s4.514,5.216,4.514,5.216-.752-3.47,4.682-4.056,6.1,4.263,5.1,8.945" transform="translate(-1226.153 -273.723)" fill="#fead98"/>
      <path id="Tracé_2108" data-name="Tracé 2108" d="M1412.791,428.869c0,1.239-.223,2.244-.836,2.244s-.836-1-.836-2.244.223-2.244.836-2.244.836,1,.836,2.244" transform="translate(-1245.615 -376.588)" fill="#1d2b50"/>
      <path id="Tracé_2109" data-name="Tracé 2109" d="M1550.613,450.255c0,1.239-.223,2.244-.836,2.244s-.836-1-.836-2.244.223-2.244.836-2.244.836,1,.836,2.244" transform="translate(-1367.273 -395.466)" fill="#1d2b50"/>
      <path id="Tracé_2110" data-name="Tracé 2110" d="M1548.458,636.132c-.074.213-4.663,13.27-17.933,15.047V646.14s12.916-1.538,17.933-10.008" transform="translate(-1351.017 -561.523)" fill="#fe8f7e"/>
      <path id="Tracé_2111" data-name="Tracé 2111" d="M1612.861,492.665a4.431,4.431,0,1,0,4.431-4.431,4.431,4.431,0,0,0-4.431,4.431" transform="translate(-1423.696 -430.972)" fill="#fe8f7e"/>
      <path id="Tracé_2112" data-name="Tracé 2112" d="M1730.047,502.172c-3.116-.59-5.1,2.251-5.79,3.468a1.831,1.831,0,0,0-.271.516l0,.01a.3.3,0,0,0-.022.079,1.858,1.858,0,1,0,1.487-1.323c.905-1.177,2.443-2.562,4.491-2.174a.293.293,0,0,0,.109-.576" transform="translate(-1521.704 -443.205)" fill="#fe8f7e"/>
      <path id="Tracé_2113" data-name="Tracé 2113" d="M1434.41,402.715a8.678,8.678,0,0,1-2.348-.3.117.117,0,0,1-.048-.194c3.174-3.229,6.955-17.8,6.993-17.951a.117.117,0,0,1,.227.059c-.153.594-3.732,14.388-6.917,17.913a9.068,9.068,0,0,0,4.348-.051.117.117,0,1,1,.061.226,8.917,8.917,0,0,1-2.316.3" transform="translate(-1264.03 -339.123)" fill="#1d2b50"/>
      <path id="Tracé_2114" data-name="Tracé 2114" d="M1389.791,358.557a2.732,2.732,0,0,0-1.139.983,1.828,1.828,0,0,0-.113,1.3,4.14,4.14,0,0,0,.568,1.2,1.775,1.775,0,0,0,.861.811,1.625,1.625,0,0,0,1-.079,10.561,10.561,0,0,0,1.643-.767l2.937-1.582a2.717,2.717,0,0,0,1.018-.78,2.083,2.083,0,0,0,.053-1.9,2.59,2.59,0,0,0-.7-1.047,1.7,1.7,0,0,0-1.073-.389,2.762,2.762,0,0,0-1.111.336q-1.291.529-2.535,1.161-.715.364-1.413.76" transform="translate(-1225.624 -314.51)" fill="#1d2b50"/>
      <path id="Tracé_2115" data-name="Tracé 2115" d="M1570.23,377.448a2.732,2.732,0,0,1,1.139.983,1.827,1.827,0,0,1,.113,1.3,4.14,4.14,0,0,1-.568,1.2,1.775,1.775,0,0,1-.861.811,1.624,1.624,0,0,1-1-.079,10.545,10.545,0,0,1-1.643-.767l-2.937-1.582a2.716,2.716,0,0,1-1.018-.78,2.083,2.083,0,0,1-.053-1.9,2.59,2.59,0,0,1,.7-1.047,1.7,1.7,0,0,1,1.073-.389,2.761,2.761,0,0,1,1.111.336q1.291.529,2.535,1.161.715.364,1.413.76" transform="translate(-1379.857 -331.185)" fill="#1d2b50"/>
      <path id="Tracé_2116" data-name="Tracé 2116" d="M1483.885,585.2c-6.018.1-8.274,3.828-8.983,5.492-3.57-.76-5.482-4.82-6.288-7.1.043.062,1.032,1.412,4.627.708,3.444-.674,9.385-3.611,10.487-5.869a12.009,12.009,0,0,1,.157,6.769" transform="translate(-1296.368 -510.591)" fill="#1d2b50"/>
      <path id="Tracé_2117" data-name="Tracé 2117" d="M1531.208,636.142a7.979,7.979,0,0,1-4.79,4.944,6.851,6.851,0,0,1-4.193.549c.708-1.664,2.965-5.394,8.983-5.492" transform="translate(-1343.69 -561.532)" fill="#f15942"/>
      <path id="Tracé_2118" data-name="Tracé 2118" d="M1480.171,559.851c-1.1,2.258-7.043,5.195-10.486,5.869-3.595.7-4.583-.646-4.627-.708,0,0,0,0,0,0a16.015,16.015,0,0,1-.472-1.558l14.674-6.071a15.684,15.684,0,0,1,.912,2.469" transform="translate(-1292.811 -492.01)" fill="#fff"/>
      <path id="Tracé_2119" data-name="Tracé 2119" d="M1337.523,1073.287a.117.117,0,0,1-.117-.117V1050.6a.117.117,0,0,1,.234,0v22.575a.117.117,0,0,1-.117.117" transform="translate(-1180.548 -927.273)" fill="#1d2b50"/>
      <path id="Tracé_2120" data-name="Tracé 2120" d="M1891.424,1073.287a.117.117,0,0,1-.117-.117V1050.6a.117.117,0,0,1,.235,0v22.575a.117.117,0,0,1-.117.117" transform="translate(-1669.484 -927.273)" fill="#1d2b50"/>
    </g>
  </g>
</svg>
