<svg xmlns="http://www.w3.org/2000/svg" xmlns:xlink="http://www.w3.org/1999/xlink" width="165.6" height="213.462" viewBox="0 0 165.6 213.462">
  <defs>
    <clipPath id="clip-path">
      <rect id="Rectangle_231" data-name="Rectangle 231" width="165.6" height="193.962" fill="none"/>
    </clipPath>
    <clipPath id="clip-path-3">
      <rect id="Rectangle_216" data-name="Rectangle 216" width="165.1" height="193.46" transform="translate(0.249 0.247)" fill="none"/>
    </clipPath>
    <clipPath id="clip-path-5">
      <rect id="Rectangle_217" data-name="Rectangle 217" width="13.546" height="18.726" transform="translate(64.209 172.017)" fill="none"/>
    </clipPath>
    <clipPath id="clip-path-6">
      <rect id="Rectangle_218" data-name="Rectangle 218" width="6.383" height="16.465" transform="translate(96.082 172.684)" fill="none"/>
    </clipPath>
    <clipPath id="clip-path-7">
      <rect id="Rectangle_219" data-name="Rectangle 219" width="7.569" height="15.538" transform="translate(45.086 170.025)" fill="none"/>
    </clipPath>
    <clipPath id="clip-path-8">
      <rect id="Rectangle_220" data-name="Rectangle 220" width="6.934" height="20.717" transform="translate(27.556 163.252)" fill="none"/>
    </clipPath>
    <clipPath id="clip-path-9">
      <rect id="Rectangle_221" data-name="Rectangle 221" width="28.42" height="61.387" transform="translate(84.793 91.14)" fill="none"/>
    </clipPath>
    <clipPath id="clip-path-10">
      <rect id="Rectangle_222" data-name="Rectangle 222" width="14.342" height="11.059" transform="translate(98.871 126.599)" fill="none"/>
    </clipPath>
    <clipPath id="clip-path-11">
      <rect id="Rectangle_223" data-name="Rectangle 223" width="6.53" height="10.358" transform="translate(105.488 110.662)" fill="none"/>
    </clipPath>
    <clipPath id="clip-path-12">
      <rect id="Rectangle_224" data-name="Rectangle 224" width="31.218" height="31.683" transform="translate(87.971 117.435)" fill="none"/>
    </clipPath>
    <clipPath id="clip-path-13">
      <rect id="Rectangle_225" data-name="Rectangle 225" width="24.413" height="41.833" transform="translate(61.311 94.327)" fill="none"/>
    </clipPath>
    <clipPath id="clip-path-14">
      <rect id="Rectangle_226" data-name="Rectangle 226" width="20.717" height="26.694" transform="translate(31.938 22.614)" fill="none"/>
    </clipPath>
    <clipPath id="clip-path-15">
      <rect id="Rectangle_227" data-name="Rectangle 227" width="11.64" height="23.506" transform="translate(127.868 13.451)" fill="none"/>
    </clipPath>
    <clipPath id="clip-path-16">
      <rect id="Rectangle_228" data-name="Rectangle 228" width="76.399" height="143.139" transform="translate(2.855 29.276)" fill="none"/>
    </clipPath>
    <clipPath id="clip-path-17">
      <rect id="Rectangle_229" data-name="Rectangle 229" width="36.095" height="22.311" transform="translate(89.07 13.052)" fill="none"/>
    </clipPath>
  </defs>
  <g id="Animal_circle" data-name="Animal+ circle" transform="translate(-621 -327.538)">
    <g id="Ellipse_48" data-name="Ellipse 48" transform="translate(623 492)" fill="#e7e7e7" stroke="#707070" stroke-width="1">
      <ellipse cx="65" cy="24.5" rx="65" ry="24.5" stroke="none"/>
      <ellipse cx="65" cy="24.5" rx="64.5" ry="24" fill="none"/>
    </g>
    <g id="Animals_1" data-name="Animals 1" transform="translate(-22 -17.462)">
      <g id="Groupe_181" data-name="Groupe 181" transform="translate(643 345)">
        <g id="Groupe_180" data-name="Groupe 180" clip-path="url(#clip-path)">
          <g id="Groupe_179" data-name="Groupe 179">
            <g id="Groupe_178" data-name="Groupe 178" clip-path="url(#clip-path)">
              <g id="Groupe_138" data-name="Groupe 138">
                <g id="Groupe_137" data-name="Groupe 137" clip-path="url(#clip-path-3)">
                  <g id="Groupe_136" data-name="Groupe 136">
                    <g id="Groupe_135" data-name="Groupe 135" clip-path="url(#clip-path-3)">
                      <path id="Tracé_1346" data-name="Tracé 1346" d="M124.619,126.3a11.808,11.808,0,0,1,1.82,2.69,10.059,10.059,0,0,1-4.29,2.22,15.4,15.4,0,0,0,2.47-4.91" fill="#ddc6fd"/>
                      <path id="Tracé_1347" data-name="Tracé 1347" d="M71.979,31.387h.03c-.01,0-.01.01-.02.01Z" fill="#0f0e0b"/>
                      <path id="Tracé_1348" data-name="Tracé 1348" d="M42.719,173.837a21.747,21.747,0,0,1-3.71-1.39c-.03.47-.03.55-.06.95a6.878,6.878,0,0,1,2.49,1.67,9.229,9.229,0,0,1,1.73,2.63c-.22-1.86-.35-2.97-.45-3.86m42.91,17.84-22.41,2.03-.74-1.61a12.339,12.339,0,0,1-1.07-4.33c-.27.01-16.76.5-16.91.5,0,.02-.01.15-.01.15l-19.95-1.67s1.14-11.97,1.56-16.39a11.49,11.49,0,0,1-9.28-4.19c-10.67-1.74-12.67-15.14-13-18.64a13.827,13.827,0,0,1-3.57-9.31c0-6.5,3.93-13.04,7.38-17.04a19.158,19.158,0,0,1-.75-4.91,13.881,13.881,0,0,1,1.8-6.98c2.46-4.31,6.78-6.43,9.35-7.37v-.11c0-7.39,5.76-11.47,10.6-13.24a15.825,15.825,0,0,1-1.17-5.92c0-5.57,2.77-10.35,4.31-12.59a5.968,5.968,0,0,1-.29-1.86c0-4.45,4.4-9.06,6.62-11.12a10.047,10.047,0,0,1-.1-1.33,10.34,10.34,0,0,1,.69-3.64l2.53.03,1.86,2.75c.01-.01.01-.02.02-.03a4.6,4.6,0,0,0-.09.91,4.364,4.364,0,0,0,.22,1.41l.54,1.63-1.31,1.09c-2.79,2.31-5.98,6.16-5.98,8.19a1.3,1.3,0,0,0,.22.77l1.14,1.58-1.24,1.5c-.22.27-4.12,5.05-4.12,10.66a11.083,11.083,0,0,0,1.82,6.15l2.03,3.11-3.65.71c-.42.08-9.64,1.95-9.64,9.35a10.086,10.086,0,0,0,.1,1.42l.34,2.3-2.27.51c-.06.01-5.76,1.33-8.2,5.65a8.933,8.933,0,0,0-1.12,4.49,15.123,15.123,0,0,0,.85,4.76l.47,1.42-1.02,1.08c-.09.1-6.93,7.49-6.93,14.57a9.116,9.116,0,0,0,2.76,6.68l.68.68.05.96c0,.14.85,14.29,9.63,14.94l1.21.1.68.99c.31.45,3.17,4.36,7.64,2.41l2.4-1.06h.01c.45.19.9.36,1.37.51-.35,3.64-1.41,14.8-1.7,17.86,2.67.22,6.5.54,9.45.79-.23-1.71-.7-3.52-1.61-4.45a1.9,1.9,0,0,0-1.5-.62h-2.65l.77-13.09a8.146,8.146,0,0,0,1.21-.01l2.39,1.46c1.92,1.18,5.46,2.93,6.93,2.93h.24c-1,.2-1.63.28-1.69.28l-.39,1.96a24.5,24.5,0,0,0,4.39.4c.39,3.39,1.06,9.12,1.32,11.3,2.39-.07,5.84-.17,8.75-.26a7,7,0,0,0-1.82-3.42,1.657,1.657,0,0,0-1.38-.34l-2.85.41v-8.07a13.1,13.1,0,0,0,2.91-.91l-2.74-3.41,3.32,1.44c.09.04,8.94,3.82,16.36,2.71l.84-.13a14.91,14.91,0,0,0,2.03,1.63v4.68l-.01,1.67-1.54.64c-.05.02-4.63,1.95-6,5.43a5.185,5.185,0,0,0-.37,1.94,6.089,6.089,0,0,0,.15,1.25c2.64-.24,10.39-.95,13.65-1.25-.32-3.18-.98-9.85-.98-9.85l-.28-2.73a10.8,10.8,0,0,0,3.16-.01l.36.11c2.05.65,8.53,2.02,11.37-.05l3.64-2.64.14,1.93c.03,0,.07-.01.11-.01.07,2.41.2,6.49.29,9.73.06,1.75.1,3.25.13,4.11h10.4a5.833,5.833,0,0,0-1.19-3.55c-.27-.29-1.09-1.16-3.58-.94l-3.29.3,1.84-9.84.07-.35c3.12-.47,6.79-1.31,8.32-2.7l.88.74a28.963,28.963,0,0,1-4.53,4.2c-.14.7-.28,1.44-.53,2.82a8.09,8.09,0,0,1,4.48,2.36c2.16,2.31,2.57,5.52,2.57,7.65a15.689,15.689,0,0,1-.15,2.2l-.34,2.11h-19.8s-.26-8.52-.38-12.41a21.93,21.93,0,0,1-8.37-.04c.36,3.6,1.14,11.39,1.14,11.39m-22.99-9.42a15.964,15.964,0,0,1,5.68-5.78,40.136,40.136,0,0,1-11.01-1.81,6.543,6.543,0,0,1,1.59.88c2.14,1.7,3.2,4.55,3.74,6.71" fill="#0f0e0b"/>
                      <path id="Tracé_1349" data-name="Tracé 1349" d="M126.809,31.437c1.66-3.25-.03-8.32-.58-9.76l2.02,2.47.44-.82c.68,2.05,1.35,5.31.26,8.21l-1.5-.82-.44.83Z" fill="#0f0e0b"/>
                      <path id="Tracé_1350" data-name="Tracé 1350" d="M107.069,109.717l-.28.03c.12-.01.22-.02.28-.03" fill="#0f0e0b"/>
                      <path id="Tracé_1351" data-name="Tracé 1351" d="M34.489,164.087l1.17.72a8.146,8.146,0,0,1-1.21.01Z" fill="#0f0e0b"/>
                      <path id="Tracé_1352" data-name="Tracé 1352" d="M107.519,118.987c3.19,2.58,6.16,3.11,8.61,1.48,2.63-1.76,3.82-5.44,3.31-6.97-.62-1.86-6.68-2.2-11.14-1.87.04.42.13.81.13,1.25a25.305,25.305,0,0,1-.91,6.11m-1.87-.72a20.308,20.308,0,0,0,.73-6.45c.55-.08.87-.11.89-.11l-.14-1.99c2.19-.23,12.8-1.08,14.21,3.15a3.9,3.9,0,0,1,.17.8c-.24-.12-.42-.2-.52-.25l.2,1.9a2.257,2.257,0,0,1,.26.14,10.594,10.594,0,0,1-2.87,5.57c-.3-.07-.6-.13-.91-.18l-.43,1.28c-1.94,1.3-6.03,2.77-11.52-2.01l-.49-.42.04-.13c.14-.06.21-.09.22-.09l.37-1.27a1.7,1.7,0,0,1-.21.06" fill="#0f0e0b"/>
                      <path id="Tracé_1353" data-name="Tracé 1353" d="M97.529,171.9l-.11.08-.01-.07c.04,0,.08-.01.12-.01" fill="#0f0e0b"/>
                      <path id="Tracé_1354" data-name="Tracé 1354" d="M31.689,164.327c-.47-.15-.92-.32-1.37-.51l1.48-.65s-.04.43-.11,1.16" fill="#0f0e0b"/>
                      <path id="Tracé_1355" data-name="Tracé 1355" d="M125.569,115.7c.79-2.87,2.25-10.48-2.2-16.16l.15-.12c1.59.68,2.91,2.93,3.24,3.67l.43.94.97.37a4.68,4.68,0,0,1,.45.19,23.458,23.458,0,0,1-.52,12.53c-.85-.51-1.71-.99-2.52-1.42" fill="#0f0e0b"/>
                      <path id="Tracé_1356" data-name="Tracé 1356" d="M110.019,148.887l1.69-.14a25.122,25.122,0,0,0,10.93-2.23c.42-.15.84-.32,1.27-.49l-.2,1.43a27.367,27.367,0,0,1-12.95,3.02Z" fill="#0f0e0b"/>
                      <path id="Tracé_1357" data-name="Tracé 1357" d="M135.989,35.5s1.19.62,2.93,1.51l.02.01,2.26,1.24-2.33.82-2.29-1.22Z" fill="#0f0e0b"/>
                      <path id="Tracé_1358" data-name="Tracé 1358" d="M76.119,118.917c.08-1.92.66-11.54,4.91-12.48l1.01-.04c-1.23.27-2.84,3.52-3.96,6.96-.18-.26-.36-.53-.53-.81l-.05,1.56c.08.13.16.26.24.38a22.553,22.553,0,0,0-.97,5.08Z" fill="#0f0e0b"/>
                      <path id="Tracé_1359" data-name="Tracé 1359" d="M89.679,139.147c-.16-.06-.32-.12-.47-.18l.14-.37,1.92-.55c-.02-.06-.03-.11-.05-.17,1.01,1.3,8.71,10.54,20.49,10.87l-1.69.14.74,1.59c-12.13-.33-19.86-9.74-21.08-11.33" fill="#0f0e0b"/>
                      <path id="Tracé_1360" data-name="Tracé 1360" d="M124.619,126.3c.18-.57.33-1.17.46-1.79l.17-.2a11.906,11.906,0,0,1,3.35,4.65l-.19.08-1.03-1.16a6.34,6.34,0,0,1-.94,1.11,11.808,11.808,0,0,0-1.82-2.69" fill="#0f0e0b"/>
                      <path id="Tracé_1361" data-name="Tracé 1361" d="M62.6,37.007c.66-7.23,5.83-9.49,6.78-9.83a.4.4,0,0,0-.07.05l2.67,4.16c-.71.02-7.46-.22-7.46,6.8v1.33l-1.27-.36a8.235,8.235,0,0,0-6.23.91c-2.03,1.38-3.25,3.97-3.63,7.7l-.21,2.05-1.58-1.07a5.422,5.422,0,0,0-2.92-.23c-1.92.29-3.76,2.97-5.58,6.34a8.6,8.6,0,0,1,2.34-4.11l2.14-2-2.29-1.8v-.01a6.817,6.817,0,0,1,3.18-1.45,5.393,5.393,0,0,1,3.2.54c.62-3.52,2.02-6.12,4.25-7.63a9.63,9.63,0,0,1,6.68-1.39" fill="#0f0e0b"/>
                      <path id="Tracé_1362" data-name="Tracé 1362" d="M45.279,46.937s-7.85-6.14-10.94-8.55c3.37-3.34,27.7-27.38,31.02-30.65,2.33,2.95,8.73,11.04,10.78,13.64-2.1,1.81-6.18,5.29-6.76,5.8-.95.34-6.12,2.6-6.78,9.83a9.63,9.63,0,0,0-6.68,1.39c-2.23,1.51-3.63,4.11-4.25,7.63a5.393,5.393,0,0,0-3.2-.54,6.817,6.817,0,0,0-3.18,1.45Z" fill="#ddc6fd"/>
                      <path id="Tracé_1363" data-name="Tracé 1363" d="M108.489,187.737h-10.4c-.03-.86-.07-2.36-.13-4.11l2.47-.08,3.29-.3c2.49-.22,3.31.65,3.58.94a5.833,5.833,0,0,1,1.19,3.55" fill="#e5b992"/>
                      <path id="Tracé_1364" data-name="Tracé 1364" d="M97.609,171.837v.05c-.03,0-.06.01-.08.01Z" fill="#0f0e0b"/>
                      <path id="Tracé_1365" data-name="Tracé 1365" d="M90.949,137.487l.18.26a1.261,1.261,0,0,1,.09.13c.02.06.03.11.05.17l-1.92.55c-.18-.64-.35-1.27-.5-1.9.59.23,1.19.46,1.81.69Z" fill="#0f0e0b"/>
                      <path id="Tracé_1366" data-name="Tracé 1366" d="M98.449,135.817c-1.83-4.37-2.03-8.27-.58-11.61,1.86-4.29,6.7-5.66,7.78-5.94-.13.49-.23.79-.23.8l-.15.5a11.281,11.281,0,0,0-5.58,5.46c-1.21,2.81-1,6.18.6,10.02q.165.405.36.78c-.18-.02-.3-.04-.35-.05l.13,1.88-.81.47a16.653,16.653,0,0,1-1.17-2.31" fill="#0f0e0b"/>
                      <path id="Tracé_1367" data-name="Tracé 1367" d="M114.059,162.617a27.8,27.8,0,0,1-4.99,3.87c1.69-2.4,2.68-5.24.98-7.85l-1.75-2.89,3.28-.91a.785.785,0,0,0,.44-.32,3.515,3.515,0,0,0-.5-2.38l-.76-1.66a27.367,27.367,0,0,0,12.95-3.02l.2-1.43c3.28-1.39,6.53-3.48,8.32-6.63,2.26-3.97,1.84-9.19-1.26-15.52a7.937,7.937,0,0,1,.76,1.26l2.76-2.47,1.33-.15a27.142,27.142,0,0,1,2.85,11.23,16.093,16.093,0,0,1-2.11,8.14c-4.41,7.73-14.53,10.42-19.6,11.3a7.853,7.853,0,0,1,.13.94,5.83,5.83,0,0,1-.62,2.67,5.254,5.254,0,0,1-1.09,1.46,9.821,9.821,0,0,1,.56,3.21c0,3.64-1.97,7.12-4.4,9.93l-.88-.74a2.439,2.439,0,0,0,.43-.49Z" fill="#0f0e0b"/>
                      <path id="Tracé_1368" data-name="Tracé 1368" d="M119.819,133.437l.49-1.88a13.475,13.475,0,0,0,1.84-.35,13.458,13.458,0,0,1-2.05,2.2c-.16.02-.25.03-.28.03" fill="#0f0e0b"/>
                      <path id="Tracé_1369" data-name="Tracé 1369" d="M122.639,146.517c.43-.18.85-.38,1.28-.59l-.01.1c-.43.17-.85.34-1.27.49" fill="#0f0e0b"/>
                      <path id="Tracé_1370" data-name="Tracé 1370" d="M78.889,174.567l-.1-1.04,3.26,1.03a10.8,10.8,0,0,1-3.16.01" fill="#0f0e0b"/>
                      <path id="Tracé_1371" data-name="Tracé 1371" d="M39.439,182.977c-2.95-.25-6.78-.57-9.45-.79.29-3.06,1.35-14.22,1.7-17.86a10.254,10.254,0,0,0,2.76.49l-.77,13.09h2.65a1.9,1.9,0,0,1,1.5.62c.91.93,1.38,2.74,1.61,4.45" fill="#e5b992"/>
                      <path id="Tracé_1372" data-name="Tracé 1372" d="M131.459,119.377a37.29,37.29,0,0,0-3.37-2.26,23.458,23.458,0,0,0,.52-12.53c4.98,2.36,3.81,10.6,2.85,14.79" fill="#ddc6fd"/>
                      <path id="Tracé_1373" data-name="Tracé 1373" d="M130.969,123.877a38.006,38.006,0,0,0-9.52-8.42,6.078,6.078,0,0,0,.06-1.79c.8.38,2.33,1.1,4.06,2.03-.11.43-.22.76-.28.95l2.62,1.02c.01-.02.08-.21.18-.55a37.29,37.29,0,0,1,3.37,2.26c-.34,1.47-.66,2.44-.67,2.48l-.33.98.46.93a.536.536,0,0,1,.05.11" fill="#0f0e0b"/>
                      <path id="Tracé_1374" data-name="Tracé 1374" d="M118.579,121.027a14.951,14.951,0,0,1,6.67,3.28l-.17.2-1.96-.4c-.04.22-.09.43-.15.64a12.405,12.405,0,0,0-5.73-2.62,8.812,8.812,0,0,0,1.34-1.1" fill="#0f0e0b"/>
                      <path id="Tracé_1375" data-name="Tracé 1375" d="M72.239,171.157a15.826,15.826,0,0,1-2.89-3.82l-.19-1.11a27.223,27.223,0,0,0,5.24,4.42v.01l-.13.2Z" fill="#0f0e0b"/>
                      <path id="Tracé_1376" data-name="Tracé 1376" d="M119.439,113.5c.51,1.53-.68,5.21-3.31,6.97-2.45,1.63-5.42,1.1-8.61-1.48a25.305,25.305,0,0,0,.91-6.11c0-.44-.09-.83-.13-1.25,4.46-.33,10.52.01,11.14,1.87" fill="#004f88"/>
                      <path id="Tracé_1377" data-name="Tracé 1377" d="M66.5,188.4a6.089,6.089,0,0,1-.15-1.25,5.185,5.185,0,0,1,.37-1.94c1.37-3.48,5.95-5.41,6-5.43l1.54-.64.01-1.67v-4.68a11.637,11.637,0,0,0,3.16,1.47,10.54,10.54,0,0,0,1.46.31l.28,2.73s.66,6.67.98,9.85c-3.26.3-11.01,1.01-13.65,1.25" fill="#e5b992"/>
                      <path id="Tracé_1378" data-name="Tracé 1378" d="M100.729,93.377l-1.06,1.7a5.821,5.821,0,0,0-2.61-.44,22.463,22.463,0,0,1,3.06-1.54,2.875,2.875,0,0,1,.61.28" fill="#0f0e0b"/>
                      <path id="Tracé_1379" data-name="Tracé 1379" d="M97.669,173.9c-.04,0-.08.01-.11.01l-.14-1.93.11-.08c.02,0,.05-.01.08-.01.01.19.03.94.06,2.01" fill="#0f0e0b"/>
                      <path id="Tracé_1380" data-name="Tracé 1380" d="M77.549,112.547c.17.28.35.55.53.81-.12.37-.23.75-.34,1.13-.08-.12-.16-.25-.24-.38Z" fill="#0f0e0b"/>
                      <path id="Tracé_1381" data-name="Tracé 1381" d="M97.609,171.887c3.02-.32,7.82-2.98,11.46-5.4a25.735,25.735,0,0,1-5.75,5.61l-.85.59-.13.67c-2.05.32-3.87.47-4.67.54-.03-1.07-.05-1.82-.06-2.01" fill="#0f0e0b"/>
                      <path id="Tracé_1382" data-name="Tracé 1382" d="M138.919,37.007c-1.74-.89-2.93-1.51-2.93-1.51l.59,2.36-8.56-4.57a7.093,7.093,0,0,0,.58-.95,8.077,8.077,0,0,0,.35-.8Z" fill="#0f0e0b"/>
                      <path id="Tracé_1383" data-name="Tracé 1383" d="M5.259,138.117c0-7.08,6.84-14.47,6.93-14.57l1.02-1.08-.47-1.42a15.123,15.123,0,0,1-.85-4.76,8.933,8.933,0,0,1,1.12-4.49c2.44-4.32,8.14-5.64,8.2-5.65l2.27-.51-.34-2.3a10.086,10.086,0,0,1-.1-1.42c0-7.4,9.22-9.27,9.64-9.35l3.65-.71-2.03-3.11a11.083,11.083,0,0,1-1.82-6.15c0-5.61,3.9-10.39,4.12-10.66l1.24-1.5-1.14-1.58a1.3,1.3,0,0,1-.22-.77c0-2.03,3.19-5.88,5.98-8.19l1.31-1.09-.54-1.63a4.364,4.364,0,0,1-.22-1.41,4.6,4.6,0,0,1,.09-.91c1.82-3.37,3.66-6.05,5.58-6.34a5.422,5.422,0,0,1,2.92.23l1.58,1.07.21-2.05c.38-3.73,1.6-6.32,3.63-7.7a8.235,8.235,0,0,1,6.23-.91l1.27.36v-1.33c0-7.02,6.75-6.78,7.46-6.8l.01.01c.01,0,.01-.01.02-.01h.02v-.01c9.5-4.39,13.76.05,13.94.24l4.24,4.58.01.79c-1.06.02-2.16.09-3.31.21-23.89,2.51-28.92,30.25-28.92,35.61,0,2.2.58,20.74,18.37,24.06-4.39,2.93-13.41,10.02-13.41,18.88,0,.32.01.65.03.97.63,8.39,9.46,15.87,26.23,22.25.15.06.31.12.47.18,1.22,1.59,8.95,11,21.08,11.33l.76,1.66a3.515,3.515,0,0,1,.5,2.38.785.785,0,0,1-.44.32l-3.28.91,1.75,2.89c1.7,2.61.71,5.45-.98,7.85-3.64,2.42-8.44,5.08-11.46,5.4v-.05l-.08.06c-.04,0-.08.01-.12.01l.01.07-3.64,2.64c-2.84,2.07-9.32.7-11.37.05l-.36-.11a15.7,15.7,0,0,0,6.02-2.28l.32-1.36a12.851,12.851,0,0,1-13.99-.26v-.01a27.223,27.223,0,0,1-5.24-4.42l.19,1.11a15.826,15.826,0,0,0,2.89,3.82l-.84.13c-7.42,1.11-16.27-2.67-16.36-2.71l-3.32-1.44-.03-.03c-.01,0-.01.01-.02.01l-.12-.05v.1a31.431,31.431,0,0,1-6.33,2.03h-.24c-1.47,0-5.01-1.75-6.93-2.93l-2.39-1.46a8.836,8.836,0,0,0,4.57-1.79l.91-1.08c-5.79,4.34-17.19-3.32-17.47-3.62l1.22,1.7a17.573,17.573,0,0,0,5.42,3.8l-2.4,1.06c-4.47,1.95-7.33-1.96-7.64-2.41l-.68-.99-1.21-.1c-8.78-.65-9.63-14.8-9.63-14.94l-.05-.96-.68-.68a9.116,9.116,0,0,1-2.76-6.68" fill="#4d0da8"/>
                      <path id="Tracé_1384" data-name="Tracé 1384" d="M100.3,135.777c.05.01.17.03.35.05a13.87,13.87,0,0,0,1.15,2.01c-.84-.09-1.34-.18-1.37-.18Z" fill="#0f0e0b"/>
                      <path id="Tracé_1385" data-name="Tracé 1385" d="M108.519,144.517a13.465,13.465,0,0,1-8.9-6.39l.81-.47c.03,0,.53.09,1.37.18a11.357,11.357,0,0,0,7.14,4.73c5.9,1.27,12.71-1.4,16.12-4.57a7.1,7.1,0,0,0,2-7.42,7.769,7.769,0,0,0,1.35-1.54l.19-.08a7.842,7.842,0,0,1,.35.96,9.171,9.171,0,0,1-2.53,9.55c-3.78,3.51-11.34,6.47-17.9,5.05" fill="#0f0e0b"/>
                      <path id="Tracé_1386" data-name="Tracé 1386" d="M47.209,169.2s.13,1.07.32,2.64a24.5,24.5,0,0,1-4.39-.4l.39-1.96c.06,0,.69-.08,1.69-.28Z" fill="#0f0e0b"/>
                      <path id="Tracé_1387" data-name="Tracé 1387" d="M105.859,118.207l-.37,1.27c-.01,0-.08.03-.22.09l.15-.5c0-.01.1-.31.23-.8a1.7,1.7,0,0,0,.21-.06" fill="#0f0e0b"/>
                      <path id="Tracé_1388" data-name="Tracé 1388" d="M123.989,96.887a15.921,15.921,0,0,1,4.62,7.7,4.68,4.68,0,0,0-.45-.19l-.97-.37-.43-.94c-.33-.74-1.65-2.99-3.24-3.67l-.18-2.49a4,4,0,0,0,.65-.04" fill="#0f0e0b"/>
                      <path id="Tracé_1389" data-name="Tracé 1389" d="M105.949,109.837l.32-.03c-.1.01-.21.03-.32.04Z" fill="#0f0e0b"/>
                      <path id="Tracé_1390" data-name="Tracé 1390" d="M123.369,99.537c4.45,5.68,2.99,13.29,2.2,16.16-1.73-.93-3.26-1.65-4.06-2.03a3.9,3.9,0,0,0-.17-.8c-1.41-4.23-12.02-3.38-14.21-3.15h-.06c-.06.01-.16.02-.28.03-.14.01-.31.03-.52.06l-.32.03v.01c-2.91.44-10.44,2.12-14.83,8.38a17.075,17.075,0,0,0-2.63,5.89c-2.65-9.86-.58-18.84,5.83-24.9a21.531,21.531,0,0,1,5.51-3.8,21,21,0,0,1,16.89-.67,15.418,15.418,0,0,1,6.65,4.79" fill="#2a77bd"/>
                      <path id="Tracé_1391" data-name="Tracé 1391" d="M72.029,31.377v.01h-.02c.01,0,.01-.01.02-.01" fill="#0f0e0b"/>
                      <path id="Tracé_1392" data-name="Tracé 1392" d="M51.549,167.167v-.1l.12.05c-.04.02-.08.03-.12.05" fill="#0f0e0b"/>
                      <path id="Tracé_1393" data-name="Tracé 1393" d="M77.739,114.487c4,6.37,8.17,5.06,8.35,5l.01-.09a39.731,39.731,0,0,0,1.85,8.22,30.791,30.791,0,0,0,.9,9.08c-15.29-5.97-23.31-12.74-23.87-20.12-.77-10.13,13.05-18.47,14.56-19.34,5.22-1.21,13.22-2.65,17.52-2.6a23.325,23.325,0,0,0-4.12,3.13c-5.29,5.01-7.52,12.13-7,19.95a10.263,10.263,0,0,1-7.86-4.36c1.12-3.44,2.73-6.69,3.96-6.96l-1.01.04c-4.25.94-4.83,10.56-4.91,12.48l.65.65a22.553,22.553,0,0,1,.97-5.08" fill="#ddc6fd"/>
                      <path id="Tracé_1394" data-name="Tracé 1394" d="M89.189,126.457,88,127.767c-.02-.05-.03-.1-.05-.15a20.471,20.471,0,0,1,.54-3.5c.2.77.43,1.56.7,2.34" fill="#0f0e0b"/>
                      <path id="Tracé_1395" data-name="Tracé 1395" d="M47.529,171.837a19.823,19.823,0,0,0,4.02-.38v8.07l2.85-.41a1.657,1.657,0,0,1,1.38.34,7,7,0,0,1,1.82,3.42c-2.91.09-6.36.19-8.75.26-.26-2.18-.93-7.91-1.32-11.3" fill="#e5b992"/>
                      <path id="Tracé_1396" data-name="Tracé 1396" d="M62.949,115.747c0-8.86,9.02-15.95,13.41-18.88-17.79-3.32-18.37-21.86-18.37-24.06,0-5.36,5.03-33.1,28.92-35.61,1.15-.12,2.25-.19,3.31-.21,16.38-.37,21.6,10.49,23.14,15.49,5.97-8.88,16.16-7.2,19.94-6.19l-1.01.83,1.43,1.36c-2.16-.73-14.2-4.27-19.86,7.06l-1.46,2.92-.42-3.24c-.1-.75-2.66-18.37-24.86-16.03-22.13,2.33-27.13,28.84-27.13,33.62,0,2.11.54,20.73,19.14,22.48a.858.858,0,0,0-.17.03l.45,1.95.13-.03c-1.51.87-15.33,9.21-14.56,19.34.56,7.38,8.58,14.15,23.87,20.12.15.63.32,1.26.5,1.9l-.14.37c-16.77-6.38-25.6-13.86-26.23-22.25-.02-.32-.03-.65-.03-.97" fill="#0f0e0b"/>
                      <path id="Tracé_1397" data-name="Tracé 1397" d="M79.409,97.267l-.45-1.95a.858.858,0,0,1,.17-.03c.05,0,.09.01.14.01l3.24.29-2.84,1.58c-.01,0-.05.03-.13.07l-.13.03" fill="#0f0e0b"/>
                      <path id="Tracé_1398" data-name="Tracé 1398" d="M94.319,99.217c-6.41,6.06-8.48,15.04-5.83,24.9a20.471,20.471,0,0,0-.54,3.5,39.731,39.731,0,0,1-1.85-8.22l.14-1.68a1.266,1.266,0,0,1-.3,0c-.52-7.82,1.71-14.94,7-19.95a23.325,23.325,0,0,1,4.12-3.13,5.821,5.821,0,0,1,2.61.44l.16.34a21.531,21.531,0,0,0-5.51,3.8" fill="#0f0e0b"/>
                      <path id="Tracé_1399" data-name="Tracé 1399" d="M74.269,170.857v1.93a14.91,14.91,0,0,1-2.03-1.63Z" fill="#0f0e0b"/>
                      <path id="Tracé_1400" data-name="Tracé 1400" d="M86.089,119.487c-.18.06-4.35,1.37-8.35-5,.11-.38.22-.76.34-1.13a10.263,10.263,0,0,0,7.86,4.36c.03.55.08,1.11.16,1.68Z" fill="#0f0e0b"/>
                      <path id="Tracé_1401" data-name="Tracé 1401" d="M128.249,24.147l-2.02-2.47c-.1-.25-.16-.39-.16-.4l1.8-.01a17.051,17.051,0,0,1,.82,2.06Z" fill="#0f0e0b"/>
                      <path id="Tracé_1402" data-name="Tracé 1402" d="M110.659,170.657c-1.53,1.39-5.2,2.23-8.32,2.7l.13-.67.85-.59a25.735,25.735,0,0,0,5.75-5.61,27.8,27.8,0,0,0,4.99-3.87l-2.97,7.55a2.439,2.439,0,0,1-.43.49" fill="#0f0e0b"/>
                      <path id="Tracé_1403" data-name="Tracé 1403" d="M87.119,39.187c22.2-2.34,24.76,15.28,24.86,16.03l.42,3.24,1.46-2.92c5.66-11.33,17.7-7.79,19.86-7.06l.61.59c.55.54,13.62,13.23,8.39,30.43-4.48,14.71-15.88,17.09-18.73,17.39a20.96,20.96,0,0,0-6.53-4,22.925,22.925,0,0,0-17.34.21c-4.28-1.53-17.78,1.44-20.99,2.19-18.6-1.75-19.14-20.37-19.14-22.48,0-4.78,5-31.29,27.13-33.62" fill="#fff"/>
                      <path id="Tracé_1404" data-name="Tracé 1404" d="M89.189,126.457c-.27-.78-.5-1.57-.7-2.34a17.075,17.075,0,0,1,2.63-5.89c4.39-6.26,11.92-7.94,14.83-8.38l.28,1.11a5.706,5.706,0,0,1,.15.86c-2.49.36-9.65,1.88-13.64,7.57-3.18,4.54-3.69,10.76-1.52,18.49a1.261,1.261,0,0,0-.09-.13l-.18-.26-.29-.1c-.62-.23-1.22-.46-1.81-.69a30.791,30.791,0,0,1-.9-9.08c.02.05.03.1.05.15Z" fill="#0f0e0b"/>
                      <path id="Tracé_1405" data-name="Tracé 1405" d="M124.619,126.3a12.112,12.112,0,0,0-1.65-1.55c.06-.21.11-.42.15-.64l1.96.4c-.13.62-.28,1.22-.46,1.79" fill="#0f0e0b"/>
                      <path id="Tracé_1406" data-name="Tracé 1406" d="M113.359,52.477c-1.54-5-6.76-15.86-23.14-15.49l-.01-.79.13-6.21c.11-7.68,1.7-12.61,4.47-13.88,3.34-1.53,8.74,2.03,10.37,3.39l1.76,1.48,1.62-1.62c2.48-2.48,5.1-3.67,7.79-3.54,5.26.27,9.47,5.36,9.51,5.41l.37.45c.55,1.44,2.24,6.51.58,9.76a12.685,12.685,0,0,1-7.67,5.36l1.82.32c3.28-.55,5.65-1.84,7.06-3.83l8.56,4.57.75,3c.28,1.12-1.52,3.35-2.87,4.47l-1.16.96c-3.78-1.01-13.97-2.69-19.94,6.19" fill="#4d0da8"/>
                      <path id="Tracé_1407" data-name="Tracé 1407" d="M97.059,94.637c-4.3-.05-12.3,1.39-17.52,2.6.08-.04.12-.07.13-.07l2.84-1.58-3.24-.29c-.05,0-.09-.01-.14-.01,3.21-.75,16.71-3.72,20.99-2.19a22.463,22.463,0,0,0-3.06,1.54" fill="#0f0e0b"/>
                      <path id="Tracé_1408" data-name="Tracé 1408" d="M127.059,130.577a12.633,12.633,0,0,1-6.96,2.83,13.458,13.458,0,0,0,2.05-2.2,10.059,10.059,0,0,0,4.29-2.22,8.791,8.791,0,0,1,.6,1.51.235.235,0,0,1,.02.08" fill="#0f0e0b"/>
                      <path id="Tracé_1409" data-name="Tracé 1409" d="M72.029,31.377c-.01,0-.01.01-.02.01h-.03l-2.67-4.16a.4.4,0,0,1,.07-.05.973.973,0,0,1,.15-.06Z" fill="#0f0e0b"/>
                      <path id="Tracé_1410" data-name="Tracé 1410" d="M45.439,50.747a8.6,8.6,0,0,0-2.34,4.11c-.01.01-.01.02-.02.03l-1.86-2.75a16.033,16.033,0,0,1,4.07-5.19l2.29,1.8Z" fill="#0f0e0b"/>
                      <path id="Tracé_1411" data-name="Tracé 1411" d="M99.689,125.027a11.281,11.281,0,0,1,5.58-5.46l-.04.13.49.42c5.49,4.78,9.58,3.31,11.52,2.01a12.405,12.405,0,0,1,5.73,2.62c-3.24,13.29-19.63,11.48-22.32,11.08q-.2-.375-.36-.78c-1.6-3.84-1.81-7.21-.6-10.02" fill="#2a77bd"/>
                      <path id="Tracé_1412" data-name="Tracé 1412" d="M34.489,164.087l-.04.73a10.254,10.254,0,0,1-2.76-.49c.07-.73.11-1.16.11-1.16l-1.48.65h-.01a17.573,17.573,0,0,1-5.42-3.8l-1.22-1.7c.28.3,11.68,7.96,17.47,3.62l-.91,1.08a8.836,8.836,0,0,1-4.57,1.79Z" fill="#0f0e0b"/>
                      <path id="Tracé_1413" data-name="Tracé 1413" d="M45.219,169.2a31.431,31.431,0,0,0,6.33-2.03v4.29a19.823,19.823,0,0,1-4.02.38c-.19-1.57-.32-2.64-.32-2.64Z" fill="#0f0e0b"/>
                      <path id="Tracé_1414" data-name="Tracé 1414" d="M90.209,36.2l-4.24-4.58c-.18-.19-4.44-4.63-13.94-.24l-2.5-4.26a.973.973,0,0,0-.15.06c.58-.51,4.66-3.99,6.76-5.8-2.05-2.6-8.45-10.69-10.78-13.64-3.32,3.27-27.65,27.31-31.02,30.65,3.09,2.41,10.94,8.55,10.94,8.55h.01v.01a16.033,16.033,0,0,0-4.07,5.19l-2.53-.03a13.442,13.442,0,0,1,1.5-2.81c-2.9-2.26-13.41-10.47-13.41-10.47L65.809.247l17.24,21.8-2.83,2.42a15.08,15.08,0,0,1,5.37,1.09c.72-7.52,3.06-12.14,7.15-14,5.21-2.38,11.07.85,13.95,2.84a14.336,14.336,0,0,1,9.95-3.57c4.5.24,8.21,2.69,10.53,4.68,1.04-1.97,3.26-6.17,3.26-6.17l34.92,16.99-11.7,23.91s-8.44-4.36-11.98-6.18a13.178,13.178,0,0,1-2.15,3.26c3.16,3.67,9.44,12.4,9.44,23.99a32.887,32.887,0,0,1-1.46,9.64c-3.88,12.76-11.74,16.88-17.26,18.16.26.41.49.78.66,1.09,5.03,2.44,6.43,7.59,6.43,12.45a36.727,36.727,0,0,1-1.51,9.87l-1.33.15a9.85,9.85,0,0,0-3.03-3.29c.96-4.19,2.13-12.43-2.85-14.79a15.921,15.921,0,0,0-4.62-7.7c2.85-.3,14.25-2.68,18.73-17.39,5.23-17.2-7.84-29.89-8.39-30.43l-.61-.59c.17.06.28.1.32.12l.72-1.86c-.03-.01-.56-.21-1.46-.45l1.16-.96c1.35-1.12,3.15-3.35,2.87-4.47l-.75-3,2.29,1.22,2.33-.82-2.26-1.24c3.86,1.99,10.35,5.34,12.46,6.43,1.52-3.09,5.77-11.77,7.26-14.82-3.57-1.73-22.62-11-26.07-12.68-1.09,2.07-2.58,4.87-2.58,4.87l-1.32,2.51a17.051,17.051,0,0,0-.82-2.06l-1.8.01c0,.01.06.15.16.4l-.37-.45c-.04-.05-4.25-5.14-9.51-5.41-2.69-.13-5.31,1.06-7.79,3.54l-1.62,1.62-1.76-1.48c-1.63-1.36-7.03-4.92-10.37-3.39-2.77,1.27-4.36,6.2-4.47,13.88Z" fill="#0f0e0b"/>
                      <path id="Tracé_1415" data-name="Tracé 1415" d="M111.709,148.747c-11.78-.33-19.48-9.57-20.49-10.87-2.17-7.73-1.66-13.95,1.52-18.49,3.99-5.69,11.15-7.21,13.64-7.57a20.308,20.308,0,0,1-.73,6.45c-1.08.28-5.92,1.65-7.78,5.94-1.45,3.34-1.25,7.24.58,11.61a16.653,16.653,0,0,0,1.17,2.31,13.465,13.465,0,0,0,8.9,6.39c6.56,1.42,14.12-1.54,17.9-5.05a9.171,9.171,0,0,0,2.53-9.55,7.842,7.842,0,0,0-.35-.96,11.906,11.906,0,0,0-3.35-4.65,14.951,14.951,0,0,0-6.67-3.28,10.594,10.594,0,0,0,2.87-5.57,38.006,38.006,0,0,1,9.52,8.42c3.1,6.33,3.52,11.55,1.26,15.52-1.79,3.15-5.04,5.24-8.32,6.63l.01-.1c-.43.21-.85.41-1.28.59a38.885,38.885,0,0,1-9.04,2.08Z" fill="#21485f"/>
                      <path id="Tracé_1416" data-name="Tracé 1416" d="M100.729,93.377a2.875,2.875,0,0,0-.61-.28,22.925,22.925,0,0,1,17.34-.21,20.96,20.96,0,0,1,6.53,4,4,4,0,0,1-.65.04l.18,2.49-.15.12a15.418,15.418,0,0,0-6.65-4.79,21,21,0,0,0-16.89.67l-.16-.34Z" fill="#0f0e0b"/>
                      <path id="Tracé_1417" data-name="Tracé 1417" d="M113.6,148.6a38.885,38.885,0,0,0,9.04-2.08,25.122,25.122,0,0,1-10.93,2.23Z" fill="#0f0e0b"/>
                      <path id="Tracé_1418" data-name="Tracé 1418" d="M132.289,47.117l1.01-.83c.9.24,1.43.44,1.46.45l-.72,1.86c-.04-.02-.15-.06-.32-.12Z" fill="#0f0e0b"/>
                      <path id="Tracé_1419" data-name="Tracé 1419" d="M128.6,32.337a7.093,7.093,0,0,1-.58.95l-1.51-.81.5-.93.44-.83,1.5.82a8.077,8.077,0,0,1-.35.8" fill="#0f0e0b"/>
                      <path id="Tracé_1420" data-name="Tracé 1420" d="M100.429,183.547l-2.47.08c-.09-3.24-.22-7.32-.29-9.73.8-.07,2.62-.22,4.67-.54l-.07.35Z" fill="#e5b992"/>
                      <path id="Tracé_1421" data-name="Tracé 1421" d="M125.569,115.7c.81.43,1.67.91,2.52,1.42-.1.34-.17.53-.18.55l-2.62-1.02c.06-.19.17-.52.28-.95" fill="#0f0e0b"/>
                      <path id="Tracé_1422" data-name="Tracé 1422" d="M118.579,121.027a8.812,8.812,0,0,1-1.34,1.1l.43-1.28c.31.05.61.11.91.18" fill="#0f0e0b"/>
                      <path id="Tracé_1423" data-name="Tracé 1423" d="M51.719,167.137l-.05-.02c.01,0,.01-.01.02-.01Z" fill="#0f0e0b"/>
                      <path id="Tracé_1424" data-name="Tracé 1424" d="M121.509,113.667a6.078,6.078,0,0,1-.06,1.79,2.257,2.257,0,0,0-.26-.14l-.2-1.9c.1.05.28.13.52.25" fill="#0f0e0b"/>
                      <path id="Tracé_1425" data-name="Tracé 1425" d="M130.459,122.837l.33-.98c.01-.04.33-1.01.67-2.48a9.85,9.85,0,0,1,3.03,3.29l-2.76,2.47a7.937,7.937,0,0,0-.76-1.26.536.536,0,0,0-.05-.11Z" fill="#0f0e0b"/>
                      <path id="Tracé_1426" data-name="Tracé 1426" d="M51.549,171.457v-4.29c.04-.02.08-.03.12-.05l.05.02,2.74,3.41a13.1,13.1,0,0,1-2.91.91" fill="#0f0e0b"/>
                      <path id="Tracé_1427" data-name="Tracé 1427" d="M151.4,43.447c-2.11-1.09-8.6-4.44-12.46-6.43l-.02-.01-9.97-5.47c1.09-2.9.42-6.16-.26-8.21l1.32-2.51s1.49-2.8,2.58-4.87c3.45,1.68,22.5,10.95,26.07,12.68-1.49,3.05-5.74,11.73-7.26,14.82" fill="#ddc6fd"/>
                      <path id="Tracé_1428" data-name="Tracé 1428" d="M78,172.347a14.241,14.241,0,0,0,10.39-1.43l-.32,1.36a15.7,15.7,0,0,1-6.02,2.28l-3.26-1.03.1,1.04a10.54,10.54,0,0,1-1.46-.31,11.637,11.637,0,0,1-3.16-1.47v-1.93l.13-.2a14.217,14.217,0,0,0,3.6,1.69" fill="#0f0e0b"/>
                      <path id="Tracé_1429" data-name="Tracé 1429" d="M119.139,36.8a12.685,12.685,0,0,0,7.67-5.36l.2.11-.5.93,1.51.81c-1.41,1.99-3.78,3.28-7.06,3.83Z" fill="#0f0e0b"/>
                      <path id="Tracé_1430" data-name="Tracé 1430" d="M127.039,130.5a8.791,8.791,0,0,0-.6-1.51,6.34,6.34,0,0,0,.94-1.11l1.03,1.16a7.769,7.769,0,0,1-1.35,1.54.235.235,0,0,0-.02-.08" fill="#0f0e0b"/>
                      <path id="Tracé_1431" data-name="Tracé 1431" d="M106.379,111.817a5.706,5.706,0,0,0-.15-.86l-.28-1.11c.11-.01.22-.03.32-.04.21-.03.38-.05.52-.06l.28-.03h.06l.14,1.99c-.02,0-.34.03-.89.11" fill="#0f0e0b"/>
                      <path id="Tracé_1432" data-name="Tracé 1432" d="M86.239,117.717l-.14,1.68c-.08-.57-.13-1.13-.16-1.68a1.266,1.266,0,0,0,.3,0" fill="#0f0e0b"/>
                      <path id="Tracé_1433" data-name="Tracé 1433" d="M100.649,135.827c2.69.4,19.08,2.21,22.32-11.08a12.112,12.112,0,0,1,1.65,1.55,15.4,15.4,0,0,1-2.47,4.91,13.475,13.475,0,0,1-1.84.35l-.49,1.88c.03,0,.12-.01.28-.03-5.9,5.14-14.9,4.78-18.3,4.43a13.87,13.87,0,0,1-1.15-2.01" fill="#0f0e0b"/>
                    </g>
                  </g>
                </g>
              </g>
              <g id="Groupe_141" data-name="Groupe 141" opacity="0.2">
                <g id="Groupe_140" data-name="Groupe 140">
                  <g id="Groupe_139" data-name="Groupe 139" clip-path="url(#clip-path-5)">
                    <path id="Tracé_1434" data-name="Tracé 1434" d="M77.429,174.257l-.47,8.118s-6.773,1.993-6.375,7.969l-6.375.4s0-11.953,7.571-11.953l.8-6.772,5.178,1.2" fill="#0f0e0b"/>
                  </g>
                </g>
              </g>
              <g id="Groupe_144" data-name="Groupe 144" opacity="0.2">
                <g id="Groupe_143" data-name="Groupe 143">
                  <g id="Groupe_142" data-name="Groupe 142" clip-path="url(#clip-path-6)">
                    <path id="Tracé_1435" data-name="Tracé 1435" d="M102.456,175.2l-1.2,11.554-3.984,2.39L96.082,176.4l.4-3.187,5.985-.528" fill="#0f0e0b"/>
                  </g>
                </g>
              </g>
              <g id="Groupe_147" data-name="Groupe 147" opacity="0.2">
                <g id="Groupe_146" data-name="Groupe 146">
                  <g id="Groupe_145" data-name="Groupe 145" clip-path="url(#clip-path-7)">
                    <path id="Tracé_1436" data-name="Tracé 1436" d="M52.258,170.025l.4,13.944-4.781,1.594L45.086,171.22" fill="#0f0e0b"/>
                  </g>
                </g>
              </g>
              <g id="Groupe_150" data-name="Groupe 150" opacity="0.2">
                <g id="Groupe_149" data-name="Groupe 149">
                  <g id="Groupe_148" data-name="Groupe 148" clip-path="url(#clip-path-8)">
                    <path id="Tracé_1437" data-name="Tracé 1437" d="M34.49,164.083l-.162,19.886H27.555l3.188-20.717" fill="#0f0e0b"/>
                  </g>
                </g>
              </g>
              <g id="Groupe_153" data-name="Groupe 153" opacity="0.2">
                <g id="Groupe_152" data-name="Groupe 152">
                  <g id="Groupe_151" data-name="Groupe 151" clip-path="url(#clip-path-9)">
                    <path id="Tracé_1438" data-name="Tracé 1438" d="M106.44,92.336S94.09,100.7,95.683,114.647c0,0-6.615,7.686-6.495,11.811s-4.263,15.679,24.025,24.444c0,0-10.758,7.57-26.295-9.96,0,0-4.782-5.978,0-21.515,0,0-4.382-21.513,19.92-28.286" fill="#0f0e0b"/>
                  </g>
                </g>
              </g>
              <g id="Groupe_156" data-name="Groupe 156" opacity="0.2">
                <g id="Groupe_155" data-name="Groupe 155">
                  <g id="Groupe_154" data-name="Groupe 154" clip-path="url(#clip-path-10)">
                    <path id="Tracé_1439" data-name="Tracé 1439" d="M100.429,137.657l12.784-2.692c-7.1,3.408-14.342-8.367-14.342-8.367" fill="#0f0e0b"/>
                  </g>
                </g>
              </g>
              <g id="Groupe_159" data-name="Groupe 159" opacity="0.2">
                <g id="Groupe_158" data-name="Groupe 158">
                  <g id="Groupe_157" data-name="Groupe 157" clip-path="url(#clip-path-11)">
                    <path id="Tracé_1440" data-name="Tracé 1440" d="M111.222,110.662l.8,10.358-6.529-1.543.952-7.62" fill="#0f0e0b"/>
                  </g>
                </g>
              </g>
              <g id="Groupe_162" data-name="Groupe 162" opacity="0.2">
                <g id="Groupe_161" data-name="Groupe 161">
                  <g id="Groupe_160" data-name="Groupe 160" clip-path="url(#clip-path-12)">
                    <path id="Tracé_1441" data-name="Tracé 1441" d="M94.09,117.435S91.7,151.3,119.19,148.91c0,0-47.809,4.779-25.1-31.475" fill="#0f0e0b"/>
                  </g>
                </g>
              </g>
              <g id="Groupe_165" data-name="Groupe 165" opacity="0.2">
                <g id="Groupe_164" data-name="Groupe 164">
                  <g id="Groupe_163" data-name="Groupe 163" clip-path="url(#clip-path-13)">
                    <path id="Tracé_1442" data-name="Tracé 1442" d="M85.724,94.327s-27.092,27.49-.8,41.833c0,0-21.515-1.593-23.507-20.717s23.906-19.523,24.3-21.116" fill="#0f0e0b"/>
                  </g>
                </g>
              </g>
              <g id="Groupe_168" data-name="Groupe 168" opacity="0.2">
                <g id="Groupe_167" data-name="Groupe 167">
                  <g id="Groupe_166" data-name="Groupe 166" clip-path="url(#clip-path-14)">
                    <path id="Tracé_1443" data-name="Tracé 1443" d="M45.883,22.614l6.375,20.319.4,3.984-9.164,2.39L31.939,38.949" fill="#0f0e0b"/>
                  </g>
                </g>
              </g>
              <g id="Groupe_171" data-name="Groupe 171" opacity="0.2">
                <g id="Groupe_170" data-name="Groupe 170">
                  <g id="Groupe_169" data-name="Groupe 169" clip-path="url(#clip-path-15)">
                    <path id="Tracé_1444" data-name="Tracé 1444" d="M139.508,18.232l-2.391,18.725-8.518-4.62-.731-11.07,4.868-7.816" fill="#0f0e0b"/>
                  </g>
                </g>
              </g>
              <g id="Groupe_174" data-name="Groupe 174" opacity="0.2">
                <g id="Groupe_173" data-name="Groupe 173">
                  <g id="Groupe_172" data-name="Groupe 172" clip-path="url(#clip-path-16)">
                    <path id="Tracé_1445" data-name="Tracé 1445" d="M64.607,171.22s-15.139-5.977-14.342-15.14c0,0-14.343,6.374-18.327-1.992,0,0-16.335-6.374-11.952-19.123,0,0,1.195-18.725,18.725-14.343,0,0-7.57-17.131,5.578-22.709,0,0-5.578-13.944,0-19.522,0,0,3.187-23.107,11.553-23.107,0,0,8.765-16.733,13.148-16.733,0,0,.609-6.711,5.834-8.655a8.489,8.489,0,0,1,2.532-.509c7.57-.4-9.96.4-9.96.4l-3.984,7.171-5.179,2.39L53.85,42.535l-1.195,4.382-7.372.018L40.7,58.471l-6.774,7.171L31.141,76.4l.4,11.952-9.562,6.375-2.789,10.757-7.172,3.187-1.594,10.757L6.44,128.988l-3.586,9.563,3.984,10.757,4.781,12.749,6.773,2.789,6.774,4.382,15.138,1.2,10.758,1.992" fill="#0f0e0b"/>
                  </g>
                </g>
              </g>
              <g id="Groupe_177" data-name="Groupe 177" opacity="0.2">
                <g id="Groupe_176" data-name="Groupe 176">
                  <g id="Groupe_175" data-name="Groupe 175" clip-path="url(#clip-path-17)">
                    <path id="Tracé_1446" data-name="Tracé 1446" d="M125.165,19.029s-17.928,1.594-17.928,11.155c0,0-13.547-11.553-17.53,5.18,0,0-3.983-19.523,7.969-22.312l9.163,4.782L117.2,13.451Z" fill="#0f0e0b"/>
                  </g>
                </g>
              </g>
              <path id="Tracé_1447" data-name="Tracé 1447" d="M107.146,70.984A19.981,19.981,0,1,1,87.166,51a19.98,19.98,0,0,1,19.98,19.981" fill="#2c7ec3"/>
              <path id="Tracé_1448" data-name="Tracé 1448" d="M101.27,72.3A14.755,14.755,0,1,1,86.513,57.542,14.755,14.755,0,0,1,101.27,72.3" fill="#0f0e0b"/>
              <path id="Tracé_1449" data-name="Tracé 1449" d="M103.256,67.3a8.3,8.3,0,1,1-8.3-8.3,8.3,8.3,0,0,1,8.3,8.3" fill="#fff"/>
              <path id="Tracé_1450" data-name="Tracé 1450" d="M135.628,78.688c0,7.129-5.122,12.907-11.44,12.907s-11.442-5.778-11.442-12.907,5.122-12.907,11.442-12.907,11.44,5.778,11.44,12.907" fill="#2c7ec3"/>
              <path id="Tracé_1451" data-name="Tracé 1451" d="M132.263,79.535c0,5.264-3.784,9.531-8.448,9.531s-8.448-4.267-8.448-9.531S119.148,70,123.815,70s8.448,4.266,8.448,9.531" fill="#0f0e0b"/>
              <path id="Tracé_1452" data-name="Tracé 1452" d="M133.4,76.305c0,2.96-2.128,5.361-4.753,5.361s-4.751-2.4-4.751-5.361,2.128-5.362,4.751-5.362,4.753,2.4,4.753,5.362" fill="#fff"/>
            </g>
          </g>
        </g>
      </g>
    </g>
  </g>
</svg>
