<svg xmlns="http://www.w3.org/2000/svg" xmlns:xlink="http://www.w3.org/1999/xlink" width="168.361" height="211.097" viewBox="0 0 168.361 211.097">
  <defs>
    <clipPath id="clip-path">
      <rect id="Rectangle_323" data-name="Rectangle 323" width="168.361" height="198.745" fill="none"/>
    </clipPath>
    <clipPath id="clip-path-3">
      <rect id="Rectangle_312" data-name="Rectangle 312" width="167.862" height="198.246" transform="translate(0.25 0.247)" fill="none"/>
    </clipPath>
    <clipPath id="clip-path-5">
      <rect id="Rectangle_313" data-name="Rectangle 313" width="13.818" height="20.726" transform="translate(110.079 165.921)" fill="none"/>
    </clipPath>
    <clipPath id="clip-path-6">
      <rect id="Rectangle_314" data-name="Rectangle 314" width="15.737" height="23.396" transform="translate(69.778 165.554)" fill="none"/>
    </clipPath>
    <clipPath id="clip-path-7">
      <rect id="Rectangle_315" data-name="Rectangle 315" width="49.883" height="58.669" transform="translate(48.298 91.9)" fill="none"/>
    </clipPath>
    <clipPath id="clip-path-8">
      <rect id="Rectangle_316" data-name="Rectangle 316" width="64.421" height="38.731" transform="translate(46.426 116.791)" fill="none"/>
    </clipPath>
    <clipPath id="clip-path-9">
      <rect id="Rectangle_317" data-name="Rectangle 317" width="10.804" height="17.027" transform="translate(121.491 66.51)" fill="none"/>
    </clipPath>
    <clipPath id="clip-path-10">
      <rect id="Rectangle_318" data-name="Rectangle 318" width="43.931" height="57.904" transform="translate(92.51 27.797)" fill="none"/>
    </clipPath>
    <clipPath id="clip-path-11">
      <rect id="Rectangle_319" data-name="Rectangle 319" width="28.743" height="29.843" transform="translate(107.698 7.493)" fill="none"/>
    </clipPath>
    <clipPath id="clip-path-12">
      <rect id="Rectangle_320" data-name="Rectangle 320" width="16.505" height="10.591" transform="translate(83.211 82.787)" fill="none"/>
    </clipPath>
    <clipPath id="clip-path-13">
      <rect id="Rectangle_321" data-name="Rectangle 321" width="70.262" height="113.997" transform="translate(1.819 58.45)" fill="none"/>
    </clipPath>
  </defs>
  <g id="Groupe_611" data-name="Groupe 611" transform="translate(-581.52 -372.903)">
    <g id="Ellipse_48" data-name="Ellipse 48" transform="translate(610.7 535)" fill="#e7e7e7" stroke="#707070" stroke-width="1">
      <ellipse cx="65" cy="24.5" rx="65" ry="24.5" stroke="none"/>
      <ellipse cx="65" cy="24.5" rx="64.5" ry="24" fill="none"/>
    </g>
    <g id="Groupe_433" data-name="Groupe 433" transform="translate(581.52 372.903)">
      <g id="Groupe_432" data-name="Groupe 432" clip-path="url(#clip-path)">
        <g id="Groupe_431" data-name="Groupe 431">
          <g id="Groupe_430" data-name="Groupe 430" clip-path="url(#clip-path)">
            <g id="Groupe_402" data-name="Groupe 402">
              <g id="Groupe_401" data-name="Groupe 401" clip-path="url(#clip-path-3)">
                <g id="Groupe_400" data-name="Groupe 400">
                  <g id="Groupe_399" data-name="Groupe 399" clip-path="url(#clip-path-3)">
                    <path id="Tracé_1579" data-name="Tracé 1579" d="M168.113,15.1a5.452,5.452,0,0,1-.033.625c-.228,2.4-1.924,5.924-8.708,9.032-5.819,2.67-8.318,5.892-9.276,7.523l-1.524-.3.138-.682a6.56,6.56,0,0,0-2.761.17c.763-1.679,3.6-6.67,11.735-10.4,3.864-1.769,6.176-3.863,6.354-5.738.163-1.7-1.533-3.181-2.556-3.911-4.139-2.962-10.55.462-10.615.5l-2.183,1.185,1.9-2.4-2.394-.731-.307.666-.017-.438c-.065-2.2-.642-3.612-1.705-4.188-2.394-1.29-7.547.828-10.233,2.475l-.665.406.081-1.477-1.614-.089.065,1.485-.618-.925C131.585,5.5,129.9,4.3,128.161,4.3c-3.294.032-6.7,4.2-7.734,5.81l-.195.3-.023-.6-1.6.284.316,1.745-1.517-1.274c-1.615-1.364-3.888-2.759-5.5-1.68-2.314,1.542-3.124,6.9-2.142,10.038a47.505,47.505,0,0,1,1.947,11.7,30.577,30.577,0,0,0-3.392,1.485l-1.363-.642c.227-.235.462-.478.7-.714a44.037,44.037,0,0,0-1.761-10.622,14.362,14.362,0,0,1-.576-4.2c0-3.912,1.282-8.383,4.341-10.42,1.476-.982,4.439-2.029,8.626.674C120.112,3.915,123.7.3,128.12.247c2.7-.024,5.122,1.339,7.263,3.912,2.816-1.453,8.635-3.9,12.7-1.713a7.038,7.038,0,0,1,3.44,4.8c3.036-1.071,8.148-2.1,12.318.877,2.768,1.98,4.27,4.439,4.27,6.979" fill="#0f0e0b"/>
                    <path id="Tracé_1580" data-name="Tracé 1580" d="M161.482,11.422c1.023.73,2.719,2.215,2.556,3.912-.178,1.874-2.491,3.968-6.354,5.737-8.131,3.725-10.972,8.716-11.735,10.4-3.246.8-7.1,3.254-8.658,4.309-7.434-10.234-19.672-7.361-25.58-5.145a47.45,47.45,0,0,0-1.947-11.7c-.982-3.141-.171-8.5,2.142-10.039,1.615-1.079,3.887.317,5.5,1.68l1.518,1.274,1.16,6.37.552,1.534-.406-9.332.195-.3c1.031-1.606,4.439-5.778,7.734-5.81,1.737-.008,3.425,1.193,5.015,3.587l.617.925.381,8.44.8-3.2.284-5.161.665-.406c2.686-1.647,7.84-3.765,10.233-2.475,1.064.576,1.64,1.988,1.705,4.188l.016.438-2.646,5.608-.827,2.256,4.276-5.4,2.183-1.185c.065-.04,6.476-3.465,10.615-.5" fill="#a50011"/>
                    <path id="Tracé_1581" data-name="Tracé 1581" d="M160.484,63.676c0,9.292-1.948,20.767-7.393,34.6a38.387,38.387,0,0,1,.235,4.545c0,.941-.024,2-.089,3.173l-1.144-.057c.219-3.084-1.144-7.2-2.362-10.185,16.515-43.051-3.229-61.367-3.44-61.554l-.958-.852a6.215,6.215,0,0,1,3.059-.454l.179-.909,1.526.3c2.9,3.157,10.387,13.074,10.387,31.4" fill="#0f0e0b"/>
                    <path id="Tracé_1582" data-name="Tracé 1582" d="M152.093,105.931l1.144.058c-.592,10.46-4.4,29.514-21.846,49.713l-.56-.487c.382-.447.747-.909,1.079-1.38l-1.363-.876c-2.718,3.781-7.166,6.881-10.728,8.967,33.516-31.414,29.239-63.266,29.19-63.6l-.016-.129a33.668,33.668,0,0,1,.99,8.1Z" fill="#0f0e0b"/>
                    <path id="Tracé_1583" data-name="Tracé 1583" d="M148.011,44.783a12.988,12.988,0,0,1,4.358,9.844c-.179,7.328-6.582,13.585-7.864,14.769a14.381,14.381,0,0,0-1.071-1.217c1.185-1.12,7.15-7.036,7.312-13.6V54.31A11.432,11.432,0,0,0,146.924,46c-.471-.292-4.366-2.629-7.645-1.809a5.071,5.071,0,0,0-3.3,2.678l-.69,1.233-.722-1.209c-.032-.057-3.392-5.624-9.438-6.866-4.057-.827-8.423.447-12.992,3.782-7.864,5.762-7.539,14.048-4.869,19.4,2.5,5.015,8.675,9.194,14.315,7.612-.771.714-1.234,1.225-1.307,1.306l-.519.576c-5.364.706-10.915-2.7-13.942-8.772-2.954-5.916-3.319-15.07,5.364-21.424,4.959-3.628,9.763-4.991,14.291-4.058a16.879,16.879,0,0,1,9.8,6.59,6.419,6.419,0,0,1,3.628-2.419c4.155-1.039,8.8,1.948,8.991,2.078l.065.04Z" fill="#0f0e0b"/>
                    <path id="Tracé_1584" data-name="Tracé 1584" d="M149.732,95.747c1.217,2.986,2.581,7.1,2.362,10.185l-2.11.365a33.673,33.673,0,0,0-.99-8.1l-.065-.414.2-.5c.2-.511.406-1.023.6-1.534" fill="#0f0e0b"/>
                    <path id="Tracé_1585" data-name="Tracé 1585" d="M150.746,54.311v.268c-.162,6.565-6.127,12.481-7.312,13.6A11.715,11.715,0,0,0,136.69,64.5c-6.4-.982-12.505,3.879-15.1,6.313-5.64,1.583-11.816-2.6-14.315-7.612-2.67-5.348-3-13.633,4.869-19.4,4.569-3.335,8.935-4.61,12.992-3.782,6.046,1.242,9.406,6.809,9.438,6.866l.723,1.209.689-1.234a5.074,5.074,0,0,1,3.3-2.678c3.279-.819,7.174,1.518,7.645,1.81a11.432,11.432,0,0,1,3.822,8.31" fill="#fff"/>
                    <path id="Tracé_1586" data-name="Tracé 1586" d="M150.584,10.708l-1.9,2.4-.722.39-.081-2.857.308-.665Z" fill="#0f0e0b"/>
                    <path id="Tracé_1587" data-name="Tracé 1587" d="M146.291,34.193c.211.187,19.955,18.5,3.441,61.554-.893-2.167-1.705-3.75-1.786-3.9l-1.1-1.972c.032.049,1.233,4.042,2.15,8.319l.016.129c.049.333,4.326,32.185-29.19,63.6a55.96,55.96,0,0,1-5.575,2.857l-.008-.057L111.55,166.6c-.1.064-9.828,6.686-25.7,5.274l-.065-.008,1.607-6.175a31.373,31.373,0,0,0,9.373-7.263l.324-1.137c-5.534,5.916-12.2,8.676-16.839,8.148-5.258-.6-10.014-5.681-10.046-5.729l.551,1.152a14.034,14.034,0,0,0,5.827,5.21l.406,4.634-.5.04c-.114.009-11.321.82-25.628-4.917-12.457-4.991-29.775-16.085-43.295-40.617.017-.081.041-.154.065-.235,1.063-3.457,4.245-5.73,5.624-6.582,3.465,5.989,8.8,11.775,16.766,12.985l1.98.235c-7.839-1.193-13.536-8.862-17.342-16.49.8-4.561,2.362-7.3,4.683-8.156,3.319-1.217,7.5,1.664,9.324,3.133,2.3,4.861,4.885,8.845,7.466,9.8l1.785.568c-2.1-.779-4.585-4.715-6.963-9.714v-.471c0-5.08,1.064-8.659,3.092-10.339a4.529,4.529,0,0,1,2.021-.982,42.617,42.617,0,0,0,7.393,4.918c1.753.917,9.892,4.959,14.891,3.725-.373.357-.738.722-1.087,1.088a34.8,34.8,0,0,0-9.641,20.953c-.1.893-.178,1.81-.219,2.735-.479,10.8,4.285,15.4,8.359,17.366.016.009.024.017.04.017l-.008.048c.065.017.138.025.2.041,8.391,3.863,22.033.836,34.295-7.077a65.727,65.727,0,0,0,7.758-5.834c12.27-10.745,17.245-23.242,13.642-34.287l-.812-1.566c3.392,10.4-2.142,24.337-13.9,34.635a63.368,63.368,0,0,1-10.469,7.418,12.866,12.866,0,0,1-8.44-2.167A93.439,93.439,0,0,0,91.667,126.26l.65-1.339A105.618,105.618,0,0,1,76.8,140.372c-4.731.528-9.081-.681-11.426-3.238-5.4-5.883-3.173-18.178-2.775-20.125a135.093,135.093,0,0,1,16.879-10.015l-1.72.715A167.268,167.268,0,0,0,62.574,115.9l-.519-.122a4.508,4.508,0,0,1-3.206-2.134,7.228,7.228,0,0,1-.389-3.96v-.009c4.6-4.739,10.89-8.488,18.811-11.231a4.947,4.947,0,0,0,1.574-.528c14.121-4.536,30.091-5.534,30.367-5.534l-1.947-.235a98.144,98.144,0,0,0-23.989,2.824,147.942,147.942,0,0,0,11.792-10.7l.064-.065-.081-.114-.227-2.4c-.032-.3-2.589-29.677,15.581-47.961,5.218-2.483,18.69-7.417,26.034,3.611l.471.7.681-.487a35.991,35.991,0,0,1,7.742-4.2Zm6.078,20.434a12.988,12.988,0,0,0-4.358-9.844l-.057-.048-.065-.041c-.194-.13-4.836-3.116-8.991-2.077a6.417,6.417,0,0,0-3.628,2.418,16.879,16.879,0,0,0-9.8-6.59c-4.528-.933-9.332.43-14.291,4.058-8.683,6.354-8.318,15.508-5.364,21.424,3.027,6.07,8.578,9.479,13.942,8.773l-.049.056.658.536a22.136,22.136,0,0,0,1.956,1.428l-.179-.057c.2.357,5.129,10.08,11.694,10.25,3.579.1,7.1-2.9,10.152-7.685a25.478,25.478,0,0,0,3.441-1.25l.706-.349-.325-.714a25.483,25.483,0,0,0-3.311-5.518c1.283-1.185,7.685-7.442,7.864-14.77" fill="#373432"/>
                    <path id="Tracé_1588" data-name="Tracé 1588" d="M149.732,95.747c-.195.511-.4,1.023-.6,1.534l-.2.5.065.414c-.918-4.277-2.119-8.27-2.151-8.318l1.1,1.972c.081.146.892,1.728,1.785,3.9" fill="#0f0e0b"/>
                    <path id="Tracé_1589" data-name="Tracé 1589" d="M148.709,31.3l-.138.682-.178.909a6.206,6.206,0,0,0-3.06.454l-.041-.041.422-1.266c.017-.04.09-.243.236-.568a6.551,6.551,0,0,1,2.759-.17" fill="#0f0e0b"/>
                    <path id="Tracé_1590" data-name="Tracé 1590" d="M148.685,13.11l-4.277,5.4.828-2.256,2.646-5.608.081,2.857Z" fill="#0f0e0b"/>
                    <path id="Tracé_1591" data-name="Tracé 1591" d="M147.816,74.915l.325.714-.706.349a25.478,25.478,0,0,1-3.441,1.25c.081-.13.17-.26.252-.4l-1.55-.17c-.236.381-.471.738-.715,1.087-4.552,1.023-11.32,1.51-17.821-1.939-.219-.357-.34-.568-.348-.585l-1.486-.5a22.273,22.273,0,0,1-1.955-1.428l-.658-.536.049-.056a10.715,10.715,0,0,0,1.729-.366l.284-1.566a1.612,1.612,0,0,1-.187.049c2.6-2.435,8.7-7.3,15.1-6.314a11.726,11.726,0,0,1,6.744,3.676c-.13.114-.2.179-.211.187l1.071,1.225c.025-.024.1-.089.211-.194a25.483,25.483,0,0,1,3.311,5.518m-1.85-.073c-2.532-5.194-5.729-8.156-9.511-8.74-6.192-.95-12.392,4.553-14.34,6.46,9.641,7.206,20.921,3.457,23.851,2.28" fill="#0f0e0b"/>
                    <path id="Tracé_1592" data-name="Tracé 1592" d="M145.95,31.466c-.146.325-.219.527-.235.568l-.422,1.266.04.041a35.947,35.947,0,0,0-7.742,4.2l-.681.487-.471-.7c-7.344-11.028-20.816-6.094-26.034-3.611q.342-.353.706-.706l.625-.6v-.86c0-.057,0-.381-.024-.925,5.908-2.215,18.146-5.088,25.579,5.145,1.558-1.055,5.413-3.514,8.659-4.309" fill="#0f0e0b"/>
                    <path id="Tracé_1593" data-name="Tracé 1593" d="M144.505,69.4c-.114.1-.187.17-.211.195l-1.071-1.226c.008-.008.081-.073.211-.186a14.381,14.381,0,0,1,1.071,1.217" fill="#0f0e0b"/>
                    <path id="Tracé_1594" data-name="Tracé 1594" d="M144.246,76.83c-.081.138-.17.268-.252.4-.6.178-1.282.357-2.012.519.243-.349.479-.706.714-1.087Z" fill="#0f0e0b"/>
                    <path id="Tracé_1595" data-name="Tracé 1595" d="M136.455,66.1c3.782.584,6.979,3.546,9.511,8.74-2.93,1.177-14.21,4.926-23.851-2.28,1.948-1.907,8.148-7.409,14.34-6.46" fill="#f48200"/>
                    <path id="Tracé_1596" data-name="Tracé 1596" d="M141.982,77.747c.73-.162,1.411-.341,2.012-.519-3.051,4.779-6.573,7.782-10.153,7.685-6.564-.171-11.49-9.893-11.693-10.25l.178.057a20.467,20.467,0,0,0,1.835,1.087c1.152,1.835,5,7.361,9.721,7.483,2.809.073,5.526-1.794,8.1-5.543" fill="#0f0e0b"/>
                    <path id="Tracé_1597" data-name="Tracé 1597" d="M124.161,75.808c6.5,3.449,13.268,2.962,17.821,1.94-2.573,3.749-5.291,5.615-8.1,5.542-4.723-.122-8.57-5.648-9.722-7.482" fill="#f48200"/>
                    <path id="Tracé_1598" data-name="Tracé 1598" d="M135.343,7.421,135.262,8.9l-1,.617-.471-.7-.065-1.485Z" fill="#0f0e0b"/>
                    <path id="Tracé_1599" data-name="Tracé 1599" d="M134.264,9.515l1-.617-.284,5.162-.8,3.2-.382-8.44Z" fill="#0f0e0b"/>
                    <path id="Tracé_1600" data-name="Tracé 1600" d="M135.108,181.728l-.536,3.96s-3.229.13-6.086.235c1.023,1.485,6.435,9.357,6.435,9.357s-28.062-13.771-28.168-13.828c-1.915.738-6.167,2.37-8.488,3.27,2.678.958,5.364,1.915,5.364,1.915L103,190.573s-5.153.163-8.642.268c1.322,2.313,2.832,4.959,2.832,4.959l-2.889,2.694L61.69,176.753H75.1c-.113-.893-.138-1.1-.235-1.9a69.553,69.553,0,0,1-25.3-5.177c-12.043-4.78-28.347-14.908-41.883-36.283l.065-.041.974-.958a9.309,9.309,0,0,1-1.152-7.181c13.519,24.532,30.837,35.625,43.294,40.616,14.307,5.738,25.514,4.926,25.628,4.918l.5-.041.3,3.474,1.566-.138.853,6.768H75.088c4.691,3.124,8.748,5.826,14.315,9.543-.024-.048-1.915-3.359-1.915-3.359s4.431-.138,4.682-.147c-.032-.008-5.575-1.988-5.575-1.988s6.557-2.524,7.361-2.832c-4.788-.609-11.9-1.517-11.9-1.517l1.6-6.923,1.566.414.56-2.134.065.008c15.873,1.412,25.6-5.21,25.7-5.275l2.686-1.875.008.057-.033.016-.024,1.753c.032-.016.138-.056.3-.129l2,13.5s-2.289.576-2.411.6c3.19,1.566,4.829,2.369,8.724,4.285-.4-.577.268-1.778.268-1.778s3.222-.162,4.147-.194c-.244-.082-3.546-1.875-3.546-1.875s1.144-1.388,1.225-1.453c-2.467.081-6.825.236-6.825.236l-1.818-14.137c3.433-1.656,10.323-5.38,14.583-10.4l.56.487a121.1,121.1,0,0,1-10.907,11.078c.187,1.42.836,6.451,1.137,8.78,2.548-.089,14.964-.511,14.964-.511l-6.216,5.177c2.321.731,4.739,1.5,4.739,1.5m-23.177-4.845c-.227-1.582-.463-3.165-.795-5.38A47.592,47.592,0,0,1,87.261,176c-.106.471-.122.528-.244,1.055,3.4.431,15.963,2.037,16.052,2.045,1.1-.275,7.1-1.777,8.862-2.215" fill="#0f0e0b"/>
                    <path id="Tracé_1601" data-name="Tracé 1601" d="M130.547,152.959l1.363.876c-.332.471-.7.934-1.079,1.38-4.26,5.015-11.15,8.74-14.583,10.4l-.057-.414.812-.706c.965-.852,1.907-1.7,2.816-2.565,3.562-2.085,8.009-5.185,10.728-8.967" fill="#0f0e0b"/>
                    <path id="Tracé_1602" data-name="Tracé 1602" d="M123.665,180.965s3.3,1.793,3.546,1.875c-.925.032-4.147.194-4.147.194s-.665,1.2-.267,1.778c-3.9-1.916-5.535-2.719-8.724-4.285.122-.025,2.41-.6,2.41-.6l-2-13.5c.349-.147.957-.422,1.761-.812l1.818,14.137s4.357-.154,6.824-.236c-.081.065-1.225,1.453-1.225,1.453" fill="#f48200"/>
                    <path id="Tracé_1603" data-name="Tracé 1603" d="M123.812,75.223c.008.017.13.228.349.585a20.326,20.326,0,0,1-1.834-1.088Z" fill="#0f0e0b"/>
                    <path id="Tracé_1604" data-name="Tracé 1604" d="M121.775,70.768l-.284,1.566a10.667,10.667,0,0,1-1.729.365l.52-.576c.073-.081.535-.592,1.306-1.306a1.612,1.612,0,0,0,.187-.049" fill="#0f0e0b"/>
                    <path id="Tracé_1605" data-name="Tracé 1605" d="M120.233,10.415l.406,9.332-.552-1.533-1.161-6.371.252.211Z" fill="#0f0e0b"/>
                    <path id="Tracé_1606" data-name="Tracé 1606" d="M120.209,9.815l.024.6-1.055,1.639-.251-.211-.317-1.745Z" fill="#0f0e0b"/>
                    <path id="Tracé_1607" data-name="Tracé 1607" d="M119.819,161.926q-1.363,1.29-2.816,2.564l-.811.706.056.414c-.8.39-1.412.666-1.761.812l-.243-1.639a56.212,56.212,0,0,0,5.575-2.857" fill="#0f0e0b"/>
                    <path id="Tracé_1608" data-name="Tracé 1608" d="M114.244,164.783l.243,1.639c-.162.073-.267.114-.3.13l.025-1.753Z" fill="#0f0e0b"/>
                    <path id="Tracé_1609" data-name="Tracé 1609" d="M111.7,102.661c3.6,11.045-1.371,23.542-13.642,34.287a65.847,65.847,0,0,1-7.758,5.835l-.1-.155-.6-.259a11.89,11.89,0,0,1-3.083.779,63.3,63.3,0,0,0,10.468-7.418c11.759-10.3,17.294-24.232,13.9-34.635Z" fill="#0f0e0b"/>
                    <path id="Tracé_1610" data-name="Tracé 1610" d="M111.736,31.556v.86l-.625.6q-.365.353-.706.706c-1.209.568-1.98,1.006-2.118,1.087l.032-2.694a31.227,31.227,0,0,1,3.393-1.485c.024.544.024.868.024.925" fill="#0f0e0b"/>
                    <path id="Tracé_1611" data-name="Tracé 1611" d="M107.265,92.144l1.948.235c-.276,0-16.247,1-30.367,5.535a26.92,26.92,0,0,0,4.43-2.946,98.2,98.2,0,0,1,23.989-2.824" fill="#0f0e0b"/>
                    <path id="Tracé_1612" data-name="Tracé 1612" d="M108.287,34.81c.138-.081.909-.519,2.118-1.087-18.17,18.283-15.614,47.66-15.581,47.96l.227,2.4-.925-1.3c-.39.39-.779.779-1.177,1.169l-.438-.065C80.85,82.178,66.632,98.733,62.1,104.455a37.627,37.627,0,0,0-3.741,3.156c-5,1.234-13.138-2.807-14.891-3.724a42.617,42.617,0,0,1-7.393-4.918,3.613,3.613,0,0,1,1.3-.057l.309-1.591a4.429,4.429,0,0,0-.771-.056l1.29-1.834a35.312,35.312,0,0,0,7.149,4.861c6.111,3.205,10.915,3.927,12.311,3.278,2.4-3.238,18.138-23.639,32.989-23.842C90.62,79,90.6,78.17,90.6,77.139c0-9.479,1.826-30.53,16.36-45.664l1.363.641Z" fill="#0f0e0b"/>
                    <path id="Tracé_1613" data-name="Tracé 1613" d="M97.088,157.293l-.325,1.136a31.332,31.332,0,0,1-9.373,7.263l.049-.178-1.891-.479-.333,1.5a12.641,12.641,0,0,1-5.169.511,12,12,0,0,1-1.785-.348l-.1-1.145-1.615.138.033.382a14.041,14.041,0,0,1-5.827-5.21l-.552-1.153c.033.049,4.788,5.129,10.047,5.73,4.634.527,11.3-2.232,16.839-8.148" fill="#0f0e0b"/>
                    <path id="Tracé_1614" data-name="Tracé 1614" d="M95.051,84.085l.081.114-.065.065Z" fill="#0f0e0b"/>
                    <path id="Tracé_1615" data-name="Tracé 1615" d="M95.051,84.085l.016.179-2.118-.309c.4-.389.787-.779,1.177-1.168Z" fill="#0f0e0b"/>
                    <path id="Tracé_1616" data-name="Tracé 1616" d="M92.95,83.955l2.117.309a147.536,147.536,0,0,1-11.791,10.7c-1.583.39-3.19.845-4.8,1.357,2.986-1.649,9.041-7.028,14.47-12.369" fill="#0f0e0b"/>
                    <path id="Tracé_1617" data-name="Tracé 1617" d="M92.511,83.891l.438.065C87.52,89.3,81.466,94.676,78.48,96.323a.027.027,0,0,0-.016.009c-.1.024-.195.056-.293.089A54.7,54.7,0,0,0,62.1,104.455c4.537-5.721,18.754-22.276,30.416-20.564" fill="#373432"/>
                    <path id="Tracé_1618" data-name="Tracé 1618" d="M77.368,140.3h-.211l.024.024-.381.049a105.583,105.583,0,0,0,15.516-15.451l-.649,1.339a93.439,93.439,0,0,1-13.593,14.721,10.809,10.809,0,0,1-.893-.658l.187-.024" fill="#0f0e0b"/>
                    <path id="Tracé_1619" data-name="Tracé 1619" d="M90.2,142.628l.1.154c-12.262,7.912-25.9,10.939-34.294,7.077a15.838,15.838,0,0,0,6.175-.082c6.6.625,15.038-1.59,23.169-5.972a16.86,16.86,0,0,0,4.853-1.177" fill="#0f0e0b"/>
                    <path id="Tracé_1620" data-name="Tracé 1620" d="M93.956,182.028,86.6,184.86s5.542,1.98,5.575,1.988c-.252.009-4.683.146-4.683.146s1.891,3.311,1.915,3.36c-5.567-3.717-9.624-6.419-14.315-9.543h4.618l-.852-6.768.048-.008-.641-7.337a11.889,11.889,0,0,0,1.786.349,12.643,12.643,0,0,0,5.169-.511l-1.542,6.971-.016.081-1.6,6.922s7.109.909,11.9,1.518" fill="#f48200"/>
                    <path id="Tracé_1621" data-name="Tracé 1621" d="M89.6,142.369l.6.26a16.864,16.864,0,0,1-4.853,1.176q.583-.316,1.168-.657a11.847,11.847,0,0,0,3.084-.779" fill="#0f0e0b"/>
                    <path id="Tracé_1622" data-name="Tracé 1622" d="M87.439,165.513l-.049.179a15.945,15.945,0,0,1-2.175.844l.333-1.5Z" fill="#0f0e0b"/>
                    <path id="Tracé_1623" data-name="Tracé 1623" d="M87.391,165.692l-1.607,6.176-1.7-.146-.414,1.785,1.542-6.971a15.736,15.736,0,0,0,2.175-.844" fill="#0f0e0b"/>
                    <path id="Tracé_1624" data-name="Tracé 1624" d="M86.514,143.148q-.585.341-1.169.657a14.571,14.571,0,0,1-8.537-1.769c.43-.349.852-.7,1.266-1.055a12.866,12.866,0,0,0,8.44,2.167" fill="#0f0e0b"/>
                    <path id="Tracé_1625" data-name="Tracé 1625" d="M85.784,171.867,85.224,174l-1.566-.414.016-.081.414-1.785Z" fill="#0f0e0b"/>
                    <path id="Tracé_1626" data-name="Tracé 1626" d="M76.808,142.036a14.571,14.571,0,0,0,8.537,1.769c-8.131,4.382-16.571,6.6-23.169,5.973,5.08-1,10.152-4.106,14.632-7.742" fill="#dad8d8"/>
                    <path id="Tracé_1627" data-name="Tracé 1627" d="M77.758,107.709l1.72-.714A135.064,135.064,0,0,0,62.6,117.009c.032-.162.057-.26.057-.268l.178-.787-.26-.057a167.983,167.983,0,0,1,15.184-8.188" fill="#0f0e0b"/>
                    <path id="Tracé_1628" data-name="Tracé 1628" d="M78.48,96.323c1.607-.511,3.214-.966,4.8-1.355a26.945,26.945,0,0,1-4.431,2.946,1.892,1.892,0,0,0-.211.065q-.693.219-1.363.462a1.494,1.494,0,0,1-.463,0l.219-1.607a3,3,0,0,0,1.437-.5.028.028,0,0,1,.016-.008" fill="#0f0e0b"/>
                    <path id="Tracé_1629" data-name="Tracé 1629" d="M78.261,166.7l.641,7.336-.049.008-.43-3.449-1.436.114-.406-4.634a11.7,11.7,0,0,0,1.68.625" fill="#0f0e0b"/>
                    <path id="Tracé_1630" data-name="Tracé 1630" d="M78.423,170.593l.43,3.449-1.566.138-.3-3.473Z" fill="#0f0e0b"/>
                    <path id="Tracé_1631" data-name="Tracé 1631" d="M78.634,97.979a2.128,2.128,0,0,1,.211-.065,4.98,4.98,0,0,1-1.574.528q.669-.245,1.363-.463" fill="#0f0e0b"/>
                    <path id="Tracé_1632" data-name="Tracé 1632" d="M78.172,96.42c.1-.032.195-.065.292-.089a3.01,3.01,0,0,1-1.436.5l-.219,1.607a1.488,1.488,0,0,0,.462,0c-7.92,2.743-14.21,6.492-18.811,11.231.057-.373.114-.609.114-.617l-1.136-.194-.171-.163c.349-.365.714-.73,1.088-1.087a5.278,5.278,0,0,0,1.8-.779l.284-.195.2-.284c.033-.041.552-.755,1.453-1.9A54.687,54.687,0,0,1,78.172,96.42" fill="#0f0e0b"/>
                    <path id="Tracé_1633" data-name="Tracé 1633" d="M78.164,165.554l.1,1.144a11.64,11.64,0,0,1-1.679-.625l-.033-.381Z" fill="#0f0e0b"/>
                    <path id="Tracé_1634" data-name="Tracé 1634" d="M77.368,140.3l-.187.024-.024-.024Z" fill="#0f0e0b"/>
                    <path id="Tracé_1635" data-name="Tracé 1635" d="M77.182,140.324a10.477,10.477,0,0,0,.893.657c-.414.357-.836.706-1.266,1.055a3.5,3.5,0,0,1-.447-.3c-.535.065-1.055.114-1.566.146.682-.487,1.347-1,2.005-1.509.121-.017.251-.033.381-.049" fill="#0f0e0b"/>
                    <path id="Tracé_1636" data-name="Tracé 1636" d="M76.362,141.736a3.55,3.55,0,0,0,.446.3c-4.479,3.636-9.551,6.744-14.631,7.742a16.685,16.685,0,0,1-5.7-1.485c-.008,0-.008-.008-.017-.008,5.811,1.055,12.409-2.1,18.341-6.4.511-.032,1.03-.081,1.566-.146" fill="#0f0e0b"/>
                    <path id="Tracé_1637" data-name="Tracé 1637" d="M65.374,137.134c2.345,2.556,6.695,3.765,11.426,3.238-.657.511-1.323,1.022-2,1.509-4.561.268-8.14-.941-10.623-3.651-3.189-3.482-4.009-8.749-4.009-13.244a42.954,42.954,0,0,1,.544-6.639c.625-.446,1.258-.892,1.891-1.339-.4,1.948-2.622,14.242,2.775,20.126" fill="#0f0e0b"/>
                    <path id="Tracé_1638" data-name="Tracé 1638" d="M64.173,138.23c2.483,2.71,6.062,3.92,10.623,3.652-5.932,4.3-12.53,7.458-18.341,6.4-5.283-2.548-7.782-7.872-7.425-15.825.041-.836.1-1.664.187-2.475l.162.032c.665-3.075,5.535-7.474,11.329-11.669a42.928,42.928,0,0,0-.544,6.638c0,4.5.82,9.763,4.009,13.244" fill="#dad8d8"/>
                    <path id="Tracé_1639" data-name="Tracé 1639" d="M62.834,115.954l-.179.787c0,.008-.024.106-.056.268-.633.446-1.266.893-1.891,1.339q.122-.754.219-1.242a1.083,1.083,0,0,1-.179-.065c.6-.389,1.218-.771,1.826-1.144Z" fill="#0f0e0b"/>
                    <path id="Tracé_1640" data-name="Tracé 1640" d="M62.055,115.775l.519.122c-.608.373-1.225.754-1.826,1.144a5.55,5.55,0,0,1-3.351-2.686,5.634,5.634,0,0,1-.56-2.508,3.221,3.221,0,0,1,.016-.4c.5-.609,1.039-1.193,1.607-1.77a7.232,7.232,0,0,0,.389,3.961,4.508,4.508,0,0,0,3.206,2.134" fill="#0f0e0b"/>
                    <path id="Tracé_1641" data-name="Tracé 1641" d="M60.748,117.041a1.181,1.181,0,0,0,.179.065c-.065.325-.138.738-.22,1.242-5.794,4.195-10.663,8.594-11.328,11.669l-.163-.032a34.821,34.821,0,0,1,.641-4.1c2.411-2.946,6.533-6.054,10.891-8.846" fill="#0f0e0b"/>
                    <path id="Tracé_1642" data-name="Tracé 1642" d="M62.1,104.454c-.9,1.145-1.421,1.859-1.454,1.9l-.2.284-.285.195a5.27,5.27,0,0,1-1.8.779,37.656,37.656,0,0,1,3.742-3.158" fill="#0f0e0b"/>
                    <path id="Tracé_1643" data-name="Tracé 1643" d="M62.177,149.778a15.824,15.824,0,0,1-6.176.081,1.974,1.974,0,0,1-.194-.089l.324-1.542c.106.024.219.041.325.057.008,0,.008.008.016.008a16.691,16.691,0,0,0,5.7,1.485" fill="#0f0e0b"/>
                    <path id="Tracé_1644" data-name="Tracé 1644" d="M57.437,108.861l1.136.195c0,.008-.057.243-.113.617v.008c-.569.576-1.1,1.16-1.607,1.769a7.686,7.686,0,0,1,.584-2.589" fill="#0f0e0b"/>
                    <path id="Tracé_1645" data-name="Tracé 1645" d="M57.4,114.355a5.55,5.55,0,0,0,3.352,2.686c-4.358,2.792-8.481,5.9-10.891,8.846a32.387,32.387,0,0,1,6.995-14.437,3.229,3.229,0,0,0-.016.4,5.634,5.634,0,0,0,.56,2.508" fill="#dad8d8"/>
                    <path id="Tracé_1646" data-name="Tracé 1646" d="M57.267,108.7l.17.162a7.714,7.714,0,0,0-.584,2.589,32.376,32.376,0,0,0-6.995,14.437,9.4,9.4,0,0,0-2.061,3.782l-.171-.017A34.808,34.808,0,0,1,57.267,108.7" fill="#0f0e0b"/>
                    <path id="Tracé_1647" data-name="Tracé 1647" d="M56.455,148.285c-.105-.016-.219-.032-.325-.057l-.324,1.542a.088.088,0,0,1-.041-.016c-4.074-1.964-8.837-6.565-8.358-17.367.04-.925.113-1.842.219-2.735l.17.017,1.42.316c-.089.812-.146,1.639-.186,2.475-.357,7.953,2.142,13.277,7.425,15.825" fill="#0f0e0b"/>
                    <path id="Tracé_1648" data-name="Tracé 1648" d="M55.806,149.77a2.1,2.1,0,0,0,.195.089c-.065-.016-.138-.024-.2-.04Z" fill="#0f0e0b"/>
                    <path id="Tracé_1649" data-name="Tracé 1649" d="M49.858,125.887a34.854,34.854,0,0,0-.641,4.1l-1.42-.316a9.4,9.4,0,0,1,2.061-3.782" fill="#0f0e0b"/>
                    <path id="Tracé_1650" data-name="Tracé 1650" d="M38.2,95.43l-1.29,1.834a6.076,6.076,0,0,0-2.232.43h-.008c-2.435-2.369-4.358-5.218-4.358-8.3,0-5.469-1.769-7.2-2.451-7.66-3.027.389-3.643,5.558-3.643,5.615l-.487,4.577c-.536-1.7-.974-3.181-1.283-4.341L20.878,88c.057.228.154.585.292,1.064l-.519-.6c-1.737-2.037-2.134-8.529-2.134-14.015,0-2.345.073-4.5.146-6.046-.382-6.5-1.956-7.863-2.435-8.123a1.281,1.281,0,0,0-1.177.024C9.371,64.487,7.707,73.211,7.707,82a110.386,110.386,0,0,0,2.946,23.437C9.33,101.573,8.7,98.847,8.681,98.773l-1.1,4.667c.009.048.033.146.057.292l-1.469.316a108.427,108.427,0,0,1-2.5-21.724c0-9.99,2-20.247,9.065-25.376l.056-.041.057-.032a5.459,5.459,0,0,1,5.218-.219c2.776,1.436,4.293,5.226,4.65,11.588v.211c-.089,1.81-.13,3.709-.13,5.567,0,2.256.065,4.431.195,6.306a6.733,6.733,0,0,1,5.421-2.735h.268l.26.073c.576.162,5.632,1.826,5.632,11.726,0,1.7,1.428,3.863,3.83,6.038" fill="#0f0e0b"/>
                    <path id="Tracé_1651" data-name="Tracé 1651" d="M37.92,120.474l-1.785-.568c-2.581-.958-5.17-4.942-7.466-9.8.568.446.9.763.917.779l1.371,1.3v-1.42c2.378,5,4.861,8.935,6.963,9.714" fill="#0f0e0b"/>
                    <path id="Tracé_1652" data-name="Tracé 1652" d="M37.677,97.321l-.308,1.591a3.578,3.578,0,0,0-1.3.056c-.479-.4-.941-.827-1.4-1.274a6.08,6.08,0,0,1,2.232-.43,4.357,4.357,0,0,1,.771.057" fill="#0f0e0b"/>
                    <path id="Tracé_1653" data-name="Tracé 1653" d="M34.674,97.694c.454.447.917.869,1.4,1.274a4.521,4.521,0,0,0-2.021.983c-2.029,1.68-3.092,5.259-3.092,10.338v.47c-.5-1.055-1.006-2.166-1.493-3.3.349-4.172,1.55-7.126,3.587-8.788a6.493,6.493,0,0,1,1.615-.975Z" fill="#0f0e0b"/>
                    <path id="Tracé_1654" data-name="Tracé 1654" d="M34.666,97.694a6.493,6.493,0,0,0-1.615.975c-2.037,1.662-3.238,4.616-3.587,8.788-2.272-5.267-4.333-11.117-5.737-15.533l.487-4.577c0-.057.616-5.226,3.643-5.616.682.463,2.451,2.193,2.451,7.662,0,3.084,1.923,5.932,4.358,8.3" fill="#dad8d8"/>
                    <path id="Tracé_1655" data-name="Tracé 1655" d="M32,131.616l-1.98-.235c-7.961-1.21-13.3-7-16.766-12.985.389-.235.641-.365.649-.373l.4-.195.048-.446c.082-.8.187-1.55.309-2.256,3.806,7.628,9.5,15.3,17.342,16.49" fill="#0f0e0b"/>
                    <path id="Tracé_1656" data-name="Tracé 1656" d="M30.957,110.76v1.42l-1.371-1.3c-.017-.017-.349-.333-.917-.779-.447-.942-.877-1.916-1.3-2.914a23.321,23.321,0,0,1,2.013,1.4c.016-.389.04-.771.081-1.136.487,1.136.99,2.248,1.493,3.3" fill="#0f0e0b"/>
                    <path id="Tracé_1657" data-name="Tracé 1657" d="M29.464,107.457c-.041.365-.065.747-.081,1.136a23.321,23.321,0,0,0-2.013-1.4,162.317,162.317,0,0,1-6.2-18.129l2.548,2.97.009-.106c1.4,4.415,3.465,10.266,5.737,15.533" fill="#0f0e0b"/>
                    <path id="Tracé_1658" data-name="Tracé 1658" d="M27.371,107.189c.421,1,.851,1.972,1.3,2.913-1.824-1.468-6-4.349-9.324-3.132-2.32.86-3.886,3.6-4.681,8.156-.4-.8-.771-1.591-1.128-2.378,1.022-3.936,2.774-6.387,5.25-7.3,2.954-1.087,6.223.276,8.586,1.745" fill="#0f0e0b"/>
                    <path id="Tracé_1659" data-name="Tracé 1659" d="M21.17,89.06a161.9,161.9,0,0,0,6.2,18.129c-2.362-1.468-5.632-2.832-8.586-1.744-2.475.917-4.228,3.367-5.25,7.3-1.185-2.613-2.143-5.145-2.881-7.312A110.3,110.3,0,0,1,7.707,82c0-8.789,1.665-17.513,7.344-21.7a1.28,1.28,0,0,1,1.177-.025c.479.26,2.053,1.623,2.434,8.124-.073,1.542-.146,3.7-.146,6.046,0,5.485.4,11.978,2.135,14.014Z" fill="#dad8d8"/>
                    <path id="Tracé_1660" data-name="Tracé 1660" d="M23.727,91.925l-.008.1-2.548-2.97c-.138-.478-.236-.836-.292-1.063l1.566-.414c.308,1.161.746,2.646,1.282,4.342" fill="#0f0e0b"/>
                    <path id="Tracé_1661" data-name="Tracé 1661" d="M13.534,112.748c.357.787.73,1.582,1.128,2.378-.122.706-.227,1.461-.308,2.256l-.049.446-.4.195c-.008.008-.259.138-.649.373-.276-.47-.536-.949-.787-1.428.122-.073.227-.13.325-.187a30.192,30.192,0,0,1,.738-4.033" fill="#0f0e0b"/>
                    <path id="Tracé_1662" data-name="Tracé 1662" d="M13.534,112.748a30.192,30.192,0,0,0-.738,4.033c-.1.057-.2.114-.325.187a50.9,50.9,0,0,1-3.206-7.482l2.508.267L11.01,106.9c-.008-.041-.146-.56-.357-1.461.739,2.167,1.7,4.7,2.881,7.312" fill="#0f0e0b"/>
                    <path id="Tracé_1663" data-name="Tracé 1663" d="M12.471,116.968c.252.479.511.958.787,1.428-1.379.852-4.561,3.125-5.624,6.582-.024.081-.048.154-.065.235-.349-.625-.689-1.258-1.038-1.9a15.135,15.135,0,0,1,5.94-6.346" fill="#0f0e0b"/>
                    <path id="Tracé_1664" data-name="Tracé 1664" d="M9.266,109.486a50.8,50.8,0,0,0,3.2,7.482,15.142,15.142,0,0,0-5.941,6.346c-.406-.779-.81-1.574-1.217-2.377a23.216,23.216,0,0,1-1.006-6.371A6.8,6.8,0,0,1,5.345,110.4c.252-.308,1.007-1.233,3.482-.966Z" fill="#dad8d8"/>
                    <path id="Tracé_1665" data-name="Tracé 1665" d="M11.01,106.9l.763,2.857-2.508-.268a51.64,51.64,0,0,1-1.623-5.754c-.024-.146-.049-.243-.057-.292l1.1-4.666c.016.073.649,2.8,1.972,6.662.211.9.349,1.42.357,1.461" fill="#0f0e0b"/>
                    <path id="Tracé_1666" data-name="Tracé 1666" d="M9.266,109.486l-.439-.049c-2.475-.267-3.23.658-3.482.966a6.8,6.8,0,0,0-1.038,4.163,23.216,23.216,0,0,0,1.006,6.371c.407.8.811,1.6,1.217,2.377a10.706,10.706,0,0,0-.446,1.169,9.674,9.674,0,0,0-.437,2.873c0,1.9,1.006,4.017,2.1,6l-.064.04c-2.1-3.319-4.139-6.906-6.087-10.793l-.065-.146-.047-.146A27.651,27.651,0,0,1,.25,114.615a10.616,10.616,0,0,1,1.956-6.776,6.859,6.859,0,0,1,4.284-2.346c-.1-.43-.2-.917-.316-1.444l1.468-.317a51.2,51.2,0,0,0,1.624,5.754" fill="#0f0e0b"/>
                    <path id="Tracé_1667" data-name="Tracé 1667" d="M8.722,132.4l-.974.958c-1.1-1.981-2.1-4.1-2.1-6a9.61,9.61,0,0,1,.439-2.872,10.239,10.239,0,0,1,.446-1.169c.349.641.69,1.274,1.039,1.9A9.312,9.312,0,0,0,8.722,132.4" fill="#0f0e0b"/>
                  </g>
                </g>
              </g>
            </g>
            <g id="Groupe_405" data-name="Groupe 405" opacity="0.2">
              <g id="Groupe_404" data-name="Groupe 404">
                <g id="Groupe_403" data-name="Groupe 403" clip-path="url(#clip-path-5)">
                  <path id="Tracé_1668" data-name="Tracé 1668" d="M123.9,186.647l-6.525-20.726-4.222.767.768,12.666-3.838.768Z" fill="#0f0e0b"/>
                </g>
              </g>
            </g>
            <g id="Groupe_408" data-name="Groupe 408" opacity="0.2">
              <g id="Groupe_407" data-name="Groupe 407">
                <g id="Groupe_406" data-name="Groupe 406" clip-path="url(#clip-path-6)">
                  <path id="Tracé_1669" data-name="Tracé 1669" d="M85.514,188.95l-3.071-6.525V167.456l-4.279-1.9-.711,13.417-7.676-.385" fill="#0f0e0b"/>
                </g>
              </g>
            </g>
            <g id="Groupe_411" data-name="Groupe 411" opacity="0.2">
              <g id="Groupe_410" data-name="Groupe 410">
                <g id="Groupe_409" data-name="Groupe 409" clip-path="url(#clip-path-7)">
                  <path id="Tracé_1670" data-name="Tracé 1670" d="M98.181,93.378s-54.12,30.706-36.079,57.19c0,0-23.03.768-9.6-33.393s45.675-23.8,45.675-23.8" fill="#0f0e0b"/>
                </g>
              </g>
            </g>
            <g id="Groupe_414" data-name="Groupe 414" opacity="0.2">
              <g id="Groupe_413" data-name="Groupe 413">
                <g id="Groupe_412" data-name="Groupe 412" clip-path="url(#clip-path-8)">
                  <path id="Tracé_1671" data-name="Tracé 1671" d="M110.847,116.791s-2.687,27.635-38.766,37.231-23.8-29.938-23.03-31.09l.384,17.272s26.868,31.474,61.412-23.413" fill="#0f0e0b"/>
                </g>
              </g>
            </g>
            <g id="Groupe_417" data-name="Groupe 417" opacity="0.2">
              <g id="Groupe_416" data-name="Groupe 416">
                <g id="Groupe_415" data-name="Groupe 415" clip-path="url(#clip-path-9)">
                  <path id="Tracé_1672" data-name="Tracé 1672" d="M130.422,66.51s-5.188,12.8-.463,16.065a3.851,3.851,0,0,0,.847.44c6.141,2.3-8.651-3.321-9.315-10.681,0,0,7.78-5.44,8.931-5.824" fill="#0f0e0b"/>
                </g>
              </g>
            </g>
            <g id="Groupe_420" data-name="Groupe 420" opacity="0.2">
              <g id="Groupe_419" data-name="Groupe 419">
                <g id="Groupe_418" data-name="Groupe 418" clip-path="url(#clip-path-10)">
                  <path id="Tracé_1673" data-name="Tracé 1673" d="M136.441,37.336s-29.816-13.43-34.422,17.276-2.3,31.089-2.3,31.089L92.51,83.887S101.391.1,136.441,37.336" fill="#0f0e0b"/>
                </g>
              </g>
            </g>
            <g id="Groupe_423" data-name="Groupe 423" opacity="0.2">
              <g id="Groupe_422" data-name="Groupe 422">
                <g id="Groupe_421" data-name="Groupe 421" clip-path="url(#clip-path-11)">
                  <path id="Tracé_1674" data-name="Tracé 1674" d="M118.524,8.169s-11.9-4.222-10.747,8.444,2.3,14.2,2.3,14.2,18.563-3.846,26.362,6.521c0,0-11.01-13.43-9.09-28.4,0,0-7.677,8.444-8.828-.768" fill="#0f0e0b"/>
                </g>
              </g>
            </g>
            <g id="Groupe_426" data-name="Groupe 426" opacity="0.2">
              <g id="Groupe_425" data-name="Groupe 425">
                <g id="Groupe_424" data-name="Groupe 424" clip-path="url(#clip-path-12)">
                  <path id="Tracé_1675" data-name="Tracé 1675" d="M99.716,85.7l-7.677,7.677H83.211L94.126,82.787" fill="#0f0e0b"/>
                </g>
              </g>
            </g>
            <g id="Groupe_429" data-name="Groupe 429" opacity="0.2">
              <g id="Groupe_428" data-name="Groupe 428">
                <g id="Groupe_427" data-name="Groupe 427" clip-path="url(#clip-path-13)">
                  <path id="Tracé_1676" data-name="Tracé 1676" d="M32.547,82.631s-9.98,22.645.768,32.625c0,0-16.889-3.838-15.354,5.374,0,0,17.273,43.755,54.12,51.816,0,0-46.059,1.151-69.472-52.968,0,0-4.058-12.024,6.222-10.042,0,0-13.515-32.562,4.908-50.986,0,0,8.061,1.536,6.909,9.6,0,0-1.151,13.817.768,16.12,0,0,6.526-7.292,11.131-1.535" fill="#0f0e0b"/>
                </g>
              </g>
            </g>
            <path id="Tracé_1677" data-name="Tracé 1677" d="M131.31,56.255A11.334,11.334,0,1,1,119.976,44.92,11.334,11.334,0,0,1,131.31,56.255" fill="#568821"/>
            <path id="Tracé_1678" data-name="Tracé 1678" d="M127.976,57a8.37,8.37,0,1,1-8.37-8.37,8.37,8.37,0,0,1,8.37,8.37" fill="#0f0e0b"/>
            <path id="Tracé_1679" data-name="Tracé 1679" d="M129.1,54.162a4.708,4.708,0,1,1-4.708-4.708,4.708,4.708,0,0,1,4.708,4.708" fill="#fff"/>
            <path id="Tracé_1680" data-name="Tracé 1680" d="M148.212,58.421c0,3.985-2.863,7.215-6.4,7.215s-6.4-3.23-6.4-7.215,2.864-7.216,6.4-7.216,6.4,3.231,6.4,7.216" fill="#568821"/>
            <path id="Tracé_1681" data-name="Tracé 1681" d="M146.332,58.9c0,2.943-2.115,5.328-4.723,5.328s-4.724-2.385-4.724-5.328,2.115-5.328,4.724-5.328,4.723,2.385,4.723,5.328" fill="#0f0e0b"/>
            <path id="Tracé_1682" data-name="Tracé 1682" d="M146.967,57.088a2.676,2.676,0,1,1-2.657-3,2.843,2.843,0,0,1,2.657,3" fill="#fff"/>
          </g>
        </g>
      </g>
    </g>
  </g>
</svg>
