<svg xmlns="http://www.w3.org/2000/svg" xmlns:xlink="http://www.w3.org/1999/xlink" width="186.466" height="205.634" viewBox="0 0 186.466 205.634">
  <defs>
    <clipPath id="clip-path">
      <rect id="Rectangle_310" data-name="Rectangle 310" width="186.466" height="185.88" fill="none"/>
    </clipPath>
    <clipPath id="clip-path-3">
      <rect id="Rectangle_298" data-name="Rectangle 298" width="185.96" height="185.38" transform="translate(0.252 0.252)" fill="none"/>
    </clipPath>
    <clipPath id="clip-path-5">
      <rect id="Rectangle_299" data-name="Rectangle 299" width="18.58" height="36.729" transform="translate(91.605 146.215)" fill="none"/>
    </clipPath>
    <clipPath id="clip-path-6">
      <rect id="Rectangle_300" data-name="Rectangle 300" width="23.927" height="25.923" transform="translate(137.681 150.108)" fill="none"/>
    </clipPath>
    <clipPath id="clip-path-7">
      <rect id="Rectangle_301" data-name="Rectangle 301" width="14.26" height="20.026" transform="translate(57.036 156.004)" fill="none"/>
    </clipPath>
    <clipPath id="clip-path-8">
      <rect id="Rectangle_302" data-name="Rectangle 302" width="16.853" height="27.833" transform="translate(27.652 152.087)" fill="none"/>
    </clipPath>
    <clipPath id="clip-path-9">
      <rect id="Rectangle_303" data-name="Rectangle 303" width="14.793" height="29.725" transform="translate(118.728 106.984)" fill="none"/>
    </clipPath>
    <clipPath id="clip-path-10">
      <rect id="Rectangle_304" data-name="Rectangle 304" width="54.473" height="50.654" transform="translate(90.282 70.162)" fill="none"/>
    </clipPath>
    <clipPath id="clip-path-11">
      <rect id="Rectangle_305" data-name="Rectangle 305" width="13.238" height="32.841" transform="translate(115.962 104.732)" fill="none"/>
    </clipPath>
    <clipPath id="clip-path-12">
      <rect id="Rectangle_306" data-name="Rectangle 306" width="9.075" height="15.556" transform="translate(86.852 10.531)" fill="none"/>
    </clipPath>
    <clipPath id="clip-path-13">
      <rect id="Rectangle_307" data-name="Rectangle 307" width="6.481" height="10.803" transform="translate(164.201 10.963)" fill="none"/>
    </clipPath>
    <clipPath id="clip-path-14">
      <rect id="Rectangle_308" data-name="Rectangle 308" width="126.61" height="155.902" transform="translate(2.157 7.19)" fill="none"/>
    </clipPath>
  </defs>
  <g id="Groupe_398" data-name="Groupe 398" transform="translate(-267.034 -1103.06)">
    <g id="Ellipse_52" data-name="Ellipse 52" transform="matrix(0.999, -0.035, 0.035, 0.999, 281.452, 1259.724)" fill="#e7e7e7" stroke="#707070" stroke-width="1">
      <ellipse cx="83.585" cy="24.5" rx="83.585" ry="24.5" stroke="none"/>
      <ellipse cx="83.585" cy="24.5" rx="83.085" ry="24" fill="none"/>
    </g>
    <g id="Groupe_397" data-name="Groupe 397" transform="translate(267.034 1103.06)">
      <g id="Groupe_396" data-name="Groupe 396" clip-path="url(#clip-path)">
        <g id="Groupe_395" data-name="Groupe 395">
          <g id="Groupe_394" data-name="Groupe 394" clip-path="url(#clip-path)">
            <g id="Groupe_363" data-name="Groupe 363">
              <g id="Groupe_362" data-name="Groupe 362" clip-path="url(#clip-path-3)">
                <g id="Groupe_361" data-name="Groupe 361">
                  <g id="Groupe_360" data-name="Groupe 360" clip-path="url(#clip-path-3)">
                    <path id="Tracé_1494" data-name="Tracé 1494" d="M186.212,97.8c0,.62-.02,1.24-.07,1.85l-2.96-.1.02-.02-1.02-.92c-.03.02-.39.23-1.02.59.02-.46.04-.91.04-1.37,0-5.55-2.29-11.6-6.87-18.06.3.19.47.3.49.32l1.16-1.64c-.06-.04-1.03-.71-2.76-1.68l.68-.82c1.73-2.08,5.4-7.56,5.4-11.89a5.7,5.7,0,0,0-.56-2.58l-.31-.63.06-.71c.09-1.06.14-2.17.14-3.27,0-5.14-.99-10.22-2.84-10.93l-1.66-.64.05-1.77c.02-.45.02-.89.02-1.34,0-5.51-.97-10.98-2.15-11.68-.06-.02-1.5-.6-2.28-.91l1.65-.02a19.961,19.961,0,0,0-.46-3.27c1.21-2.18,2.72-4.94,3.41-6.19-1.74-1.48-4.93-4.21-7.5-6.4-.72,1.62-1.08,2.43-1.5,3.38.85,1.19,2.5,3.5,3.17,4.44a3.329,3.329,0,0,0-2.16-.83l-5.93,3.51a15.261,15.261,0,0,0-.42-4.09l-1.93.53a12.779,12.779,0,0,1,.34,2.33L158.3,22c-.06-.48-1.82-11.77-19.22-10.29l-.72.06-.63-.32c-.16-.08-14.9-7.42-25.86.51l.02-.02-1.17-1.62a12.475,12.475,0,0,0-2.35,2.35c-2.17-1.51-6.32-4.39-8.12-5.65-2.11,2.64-10.44,13.06-12.03,15.04-.83-.84-1.51-1.51-1.51-1.51l-1.41,1.41,1.35,1.35-.57.01c-.59.02-14.45.57-16.98,11.4l-.26,1.08-.97.54c-1.98,1.09-7.32,4.76-8.23,8.65a5.317,5.317,0,0,0-.13,1.1,5.026,5.026,0,0,0,1.04,2.95l1.86,2.67-3.06,1.12c-.14.05-13.82,5.14-13.82,14.41l-.01,3.72-3.45-1.41c-.06-.03-6.45-2.59-12.14.31-4.05,2.06-6.93,6.44-8.54,13.02l-.3,1.21-1.16.49c-2.47,1.05-9.16,4.63-10.45,8.57a3.907,3.907,0,0,0-.2,1.19,4.144,4.144,0,0,0,.65,2.13l1.02,1.7-1.43,1.38c-1.23,1.2-4.27,4.85-4.27,8.02a4.361,4.361,0,0,0,.03.51c.16,1.49,1.13,2.76,2.95,3.87l1.73,1.06-.68,1.92a18.255,18.255,0,0,0-.82,5.44,13.724,13.724,0,0,0,2.98,8.88l.59.73s-.02.98-.02,1.02c0,1.07.33,10.85,12.18,13.3l.78.16.55.58a38.842,38.842,0,0,0,7.55,6.3.035.035,0,0,0,.02.01,6.568,6.568,0,0,0,3.04,1.92,6.163,6.163,0,0,0,.8.19c-.94,3.09-4.97,16.34-5.9,19.36,2.86,1.21,11.74,4.96,14.92,6.3a17.3,17.3,0,0,0,1.07-5.44,5.866,5.866,0,0,0-.77-3.18c-1.05-1.65-3.41-2.44-7.02-2.35l-3.22.08,3.32-14.62a7.958,7.958,0,0,0,2.14-.52l1.43,1.18a28.8,28.8,0,0,0,6.51,4.25c.61-.42,1.52-1.06,1.52-1.06l1.49,2.09a1.075,1.075,0,0,0,.59.4c.14.02.68,0,1.68-.89l3.49-3.11a.418.418,0,0,0,.01.07c-.02-.01-.03-.01-.05-.02l-.8,2.49c.09.03.54.2,1.25.44.61,4.34,1.7,12.19,2.04,14.66,3.22-.43,11.26-1.5,14.44-1.92a5.817,5.817,0,0,0-1.79-3.12c-1.48-1.24-3.82-1.53-6.97-.88l-2.46.51-1.62-8.12c3.69,1.05,8.64,2.14,11.88,1.59l.36,1.52c-.14.04-.28.07-.42.1a9.427,9.427,0,0,1,2.48,1.48c3.6,3.05,3.81,7.89,3.81,8.96v.2l-.08,2.11-23.89,3.18s-1.42-10.22-2.01-14.42a5.875,5.875,0,0,1-2.08.12,5.732,5.732,0,0,1-2.84-1.3c-1.35-.11-3.4-.85-6.55-3.06-.31,1.35-.37,1.63-.64,2.81,3.8.45,6.6,1.91,8.23,4.47a10.913,10.913,0,0,1,1.56,5.92,24.311,24.311,0,0,1-2.48,9.79l-1.05,2.1-23.57-9.95s5.01-16.46,6.03-19.82a41.042,41.042,0,0,1-8.59-6.87c-11.85-2.83-15.2-12.11-15.36-17.4a18.771,18.771,0,0,1-3.57-11.18,23.643,23.643,0,0,1,.61-5.31,9.362,9.362,0,0,1-3.81-7.54c0-4.36,2.88-8.34,4.6-10.33a8.047,8.047,0,0,1-.12-5.63c1.88-5.77,9.24-9.74,12.14-11.11,2.06-7.42,5.69-12.52,10.85-15.12a19.962,19.962,0,0,1,13.21-1.35c1.82-7.93,9.93-12.77,14.16-14.79a9.59,9.59,0,0,1-.57-3.17,9.408,9.408,0,0,1,.26-2.22c1.34-5.74,7.42-9.91,9.79-11.36,3.46-11.59,16.17-13.7,20.17-14.07,1.23-1.55,14.53-18.16,14.53-18.16s8.24,5.73,10.35,7.2c12.09-8.16,26.62-2.21,29.76-.75,12.48-.85,18.51,4.09,21.37,8.48.76-1.71,4.26-9.6,4.26-9.6l15.71,13.37s-3.49,6.34-4.73,8.59c2.71,3.3,3.22,10,3.22,14.33,0,.13-.01.22-.01.35,3.75,2.92,4.44,9.82,4.44,14.42,0,1.45-.07,2.65-.13,3.44a10.765,10.765,0,0,1,.79,3.97c0,5.44-3.46,10.94-5.39,13.58,4.84,7.06,7.3,13.82,7.3,20.17" fill="#0f0e0b"/>
                    <path id="Tracé_1495" data-name="Tracé 1495" d="M183.182,99.552l2.96.1a24.383,24.383,0,0,1-1.04,5.42c-4.1,13-18.19,19.65-22.85,21.54-.84,4.86-5.43,10.82-7.23,12.99a17.784,17.784,0,0,1-5.33,11.12c.17,1.17.37,2.59.67,4.67,7.13-2.28,12.64-1.88,16.41,1.19,6.63,5.39,4.72,16.76,4.64,17.24l-.19,1.11-.96.59c-9.77,6.05-29.39,1.78-30.22,1.6l-1.8-.4s-1.21-14.56-1.59-19.19l-.7-2.68a52.054,52.054,0,0,0,5.31-2.19c.45,5.41,1.46,17.53,1.66,19.93,5.85,1.06,17.41,2.22,23.72-.87.05-.61.1-1.31.1-2.09,0-3.11-.62-7.15-3.13-9.18-3.45-2.8-9.72-1.19-14.37.65l-2.95,1.17-1.64-11.56a6.3,6.3,0,0,0,2.67-2.97l1.08-2.78a5.824,5.824,0,0,1-.91.73,11.794,11.794,0,0,0,2.63-7.11v-.93l.6-.7c2.76-3.23,6.72-9.07,6.72-11.69a1.478,1.478,0,0,0-.01-.21l-.01-.14c1.28-.21,2.15-.37,2.26-.39l-.36-1.97c-.02,0-.38.07-.99.18l.78-.27c.18-.06,17.17-6.02,21.23-18.91a18.428,18.428,0,0,0,.64-2.76c1.28-.69,2.05-1.15,2.2-1.24" fill="#0f0e0b"/>
                    <path id="Tracé_1496" data-name="Tracé 1496" d="M183.2,99.532l-.02.02c-.15.09-.92.55-2.2,1.24q.12-.795.18-1.59c.63-.36.99-.57,1.02-.59Z" fill="#0f0e0b"/>
                    <path id="Tracé_1497" data-name="Tracé 1497" d="M181.2,97.832c0,.46-.02.91-.04,1.37-4.3,2.34-21.46,10.87-40.87,9.01a51.541,51.541,0,0,1-24.92-9.13l-.08.11a48.919,48.919,0,0,1,4.04-6.52l-1.88.6c-.83,1.05-8.03,10.47-6.16,15.16l.61,1.19c-.58-1.45.75-5.11,2.54-8.76a51.843,51.843,0,0,0,10.73,5.74c-.32.42-5.2,6.86-6.55,14.07-3.64-.9-20.51-5.58-22.94-15.53-1.47-6.01,2.57-13.01,12.02-20.8a64.656,64.656,0,0,1,9.32-6.45c27.82-15.75,53.5-.58,57.31,1.88,4.58,6.46,6.87,12.51,6.87,18.06m-12.27-4.34.91-1.79a.677.677,0,0,1-.25-.21c.03,0,.14-3.1,6.88-4.6a25.488,25.488,0,0,0-7.21,2.41c-1.25.75-1.57,1.45-1.64,2.04a2.242,2.242,0,0,0,1.31,2.15m-29.96-2.17c.25-3.07-5.92-6.41-7.82-7.36l-2.71-.09c3.25,1.63,8.63,6.13,8.54,7.29-.02.23-.4.59-1.42.91l.6,1.91c1.77-.56,2.72-1.45,2.81-2.66" fill="#e5b992"/>
                    <path id="Tracé_1498" data-name="Tracé 1498" d="M159.162,108.212l1.29-.62a4.74,4.74,0,0,0-1.29.62m-.02.01-.38.18a7.659,7.659,0,0,0-1.75.77,64.478,64.478,0,0,1-16.2.93,6.068,6.068,0,0,1,1.08-.71l-1.62-.72.02-.46c19.41,1.86,36.57-6.67,40.87-9.01q-.06.795-.18,1.59a84.027,84.027,0,0,1-22.8,8.15,8.575,8.575,0,0,1,.96-.72" fill="#0f0e0b"/>
                    <path id="Tracé_1499" data-name="Tracé 1499" d="M180.982,100.792a18.428,18.428,0,0,1-.64,2.76c-4.06,12.89-21.05,18.85-21.23,18.91l-.78.27c-2.07.35-6.93,1.16-10.27,1.43,1.47-3,6.04-11.73,10.12-15.22a84.027,84.027,0,0,0,22.8-8.15" fill="#e5b992"/>
                    <path id="Tracé_1500" data-name="Tracé 1500" d="M30.932,147.282l.85,2.07a7.354,7.354,0,0,0,1.29,1.99,38.842,38.842,0,0,1-7.55-6.3l-.55-.58-.78-.16c-11.85-2.45-12.18-12.23-12.18-13.3,0-.04.02-1.02.02-1.02l-.59-.73a13.724,13.724,0,0,1-2.98-8.88,18.255,18.255,0,0,1,.82-5.44l.68-1.92-1.73-1.06c-1.82-1.11-2.79-2.38-2.95-3.87a4.361,4.361,0,0,1-.03-.51c0-3.17,3.04-6.82,4.27-8.02l1.43-1.38-1.02-1.7a4.144,4.144,0,0,1-.65-2.13,3.907,3.907,0,0,1,.2-1.19c1.29-3.94,7.98-7.52,10.45-8.57l1.16-.49.3-1.21c1.61-6.58,4.49-10.96,8.54-13.02,5.69-2.9,12.08-.34,12.14-.31l3.45,1.41.01-3.72c0-9.27,13.68-14.36,13.82-14.41l3.06-1.12-1.86-2.67a5.026,5.026,0,0,1-1.04-2.95,5.317,5.317,0,0,1,.13-1.1c.91-3.89,6.25-7.56,8.23-8.65l.97-.54.26-1.08c2.53-10.83,16.39-11.38,16.98-11.4l.57-.01,4.39,4.39,15.33-10.36a7.7,7.7,0,0,0,.08,2.13l.37,1.43c-.67-3.68,4.06-8.07,4.93-8.84a1.472,1.472,0,0,1,.12-.1c10.96-7.93,25.7-.59,25.86-.51l.63.32.72-.06c17.4-1.48,19.16,9.81,19.22,10.29l.14.99a8.276,8.276,0,0,1-1.47,5.65,12.771,12.771,0,0,1-9.26,3.84l1.4.52c4.35.28,7.52-.77,9.42-3.11a9.292,9.292,0,0,0,1.91-5.46l.13-.05a18.436,18.436,0,0,1,4.72,1.01c.01.01.01.02.02.02l.01-.01c1.93.76,3.68,2.03,3.82,4.21l.63-.01c.78.31,2.22.89,2.28.91,1.18.7,2.15,6.17,2.15,11.68,0,.45,0,.89-.02,1.34l-.05,1.77,1.66.64c1.85.71,2.84,5.79,2.84,10.93,0,1.1-.05,2.21-.14,3.27l-.06.71.31.63a5.7,5.7,0,0,1,.56,2.58c0,4.33-3.67,9.81-5.4,11.89l-.68.82a60.851,60.851,0,0,0-6.08-2.95c10.26-11.78,4.52-26.15,4.46-26.3-2.79-7.12-6.6-11.21-11.3-12.16-5.45-1.1-10.45,2.36-12.71,4.25-2.03-7.6-7.9-12.19-16.1-12.3-9.94-.14-22.15,6.79-24.54,18.23-3.29,15.72,5.63,27.34,8.74,30.81a67.585,67.585,0,0,0-9.26,6.45c-10.09,8.32-14.36,16-12.69,22.82,2.78,11.37,21.08,16.22,24.6,17.04a15.675,15.675,0,0,0,.32,4.97c.97,4.04,3.72,7.15,8.18,9.27,5.17,2.46,9.64,2.7,13.27.71,4.8-2.62,6.77-8.35,7.51-11.41,2.93-.2,7.2-.86,9.8-1.29l.01.14a1.478,1.478,0,0,1,.01.21c0,2.62-3.96,8.46-6.72,11.69l-.6.7v.93a11.794,11.794,0,0,1-2.63,7.11c-.01.01-.01.01-.02.01-1.55,1.15-4.82,3.36-7.8,5.08-.05.03-.1.06-.16.09l-1.83.98c-4.45,2.4-9.87.33-9.93.3l-1.84-.71-1.13,1.62c-2.71,3.9-9.46,6.17-11.83,6.72l-.4.09-1.32-8.9a7.432,7.432,0,0,0,4.55,2.34c3.7.38,7.7-2.36,11.87-8.13l1.18-2.05c-3.67,5.08-9.94,8.48-12.83,8.19-3.25-.32-5-4.09-5.01-4.13l-.27-.59h-.65a8.543,8.543,0,0,1-1.34-.1c-6.86-.94-12.63-8.7-12.67-8.78l.66,1.73a19.5,19.5,0,0,0,6.74,7.22l-.35,10.99-1.1.92c-5.69,4.8-18.94.43-23.57-1.65l-1.47-.66-1.21,1.05c-1.76,1.55-7.18,1.59-10.46,1.13l-1.15-.16c-2.44-.83-4.61-1.77-5.96-2.27a.418.418,0,0,1-.01-.07l-3.49,3.11c-1,.89-1.54.91-1.68.89a1.075,1.075,0,0,1-.59-.4l-1.49-2.09s-.91.64-1.52,1.06a28.8,28.8,0,0,1-6.51-4.25l-1.43-1.18a21.15,21.15,0,0,0,4.71-2.72l2.01-1.68c-3.27,2.33-9.31,3.3-11.46,2.67s-5.55-3.8-5.8-4.08" fill="#f3f2f3"/>
                    <path id="Tracé_1501" data-name="Tracé 1501" d="M175.982,78.452l-1.16,1.64c-.02-.02-.19-.13-.49-.32-.16-.25-.34-.49-.52-.74l-1.15-1.58.56-.68c1.73.97,2.7,1.64,2.76,1.68" fill="#0f0e0b"/>
                    <path id="Tracé_1502" data-name="Tracé 1502" d="M173.812,79.032c.18.25.36.49.52.74-3.81-2.46-29.49-17.63-57.31-1.88l-.32-.47,1.36-1.46c-.01-.01-.23-.22-.58-.6,18.96-10.08,36.8-6.54,47.68-2.34-.12.14-.24.27-.37.4l1.44,1.39c.32-.33.62-.66.91-.99a60.851,60.851,0,0,1,6.08,2.95l-.56.68Z" fill="#0f0e0b"/>
                    <path id="Tracé_1503" data-name="Tracé 1503" d="M171.6,47.522c.06.15,5.8,14.52-4.46,26.3-.63-.27-1.29-.54-1.98-.8,10.07-10.9,4.82-24.18,4.58-24.76-2.53-6.45-5.84-10.13-9.82-10.94-6.16-1.24-12.11,4.77-12.17,4.83l-1.36,1.39-.34-1.91c-1.39-7.72-6.71-12.21-14.58-12.32-9.15-.13-20.38,6.19-22.57,16.64-3.24,15.47,6.1,26.74,8.58,29.41-.6.31-1.19.64-1.79.99-3.11-3.47-12.03-15.09-8.74-30.81,2.39-11.44,14.6-18.37,24.54-18.23,8.2.11,14.07,4.7,16.1,12.3,2.26-1.89,7.26-5.35,12.71-4.25,4.7.95,8.51,5.04,11.3,12.16" fill="#0f0e0b"/>
                    <path id="Tracé_1504" data-name="Tracé 1504" d="M174.372,20.122c-.69,1.25-2.2,4.01-3.41,6.19a8.51,8.51,0,0,0-2.42-4.77c-.67-.94-2.32-3.25-3.17-4.44.42-.95.78-1.76,1.5-3.38,2.57,2.19,5.76,4.92,7.5,6.4" fill="#b8b5b5"/>
                    <path id="Tracé_1505" data-name="Tracé 1505" d="M171.422,29.582l-1.65.02c-.3-.12-.51-.2-.51-.2s.75-1.37,1.7-3.09a19.961,19.961,0,0,1,.46,3.27" fill="#0f0e0b"/>
                    <path id="Tracé_1506" data-name="Tracé 1506" d="M168.542,21.542a8.51,8.51,0,0,1,2.42,4.77c-.95,1.72-1.7,3.09-1.7,3.09s.21.08.51.2l-.63.01c-.14-2.18-1.89-3.45-3.82-4.21l3.51-3.45s-.11-.15-.29-.41" fill="#0f0e0b"/>
                    <path id="Tracé_1507" data-name="Tracé 1507" d="M169.842,91.7l-.91,1.79a2.242,2.242,0,0,1-1.31-2.15c.07-.59.39-1.29,1.64-2.04a25.488,25.488,0,0,1,7.21-2.41c-6.74,1.5-6.85,4.6-6.88,4.6a.677.677,0,0,0,.25.21" fill="#0f0e0b"/>
                    <path id="Tracé_1508" data-name="Tracé 1508" d="M169.742,48.262c.24.58,5.49,13.86-4.58,24.76-10.88-4.2-28.72-7.74-47.68,2.34-2.48-2.67-11.82-13.94-8.58-29.41,2.19-10.45,13.42-16.77,22.57-16.64,7.87.11,13.19,4.6,14.58,12.32l.34,1.91,1.36-1.39c.06-.06,6.01-6.07,12.17-4.83,3.98.81,7.29,4.49,9.82,10.94" fill="#fff"/>
                    <path id="Tracé_1509" data-name="Tracé 1509" d="M168.832,21.952l-3.51,3.45c-.01.01-.02,0-.03-.01-.99-.72-2.88-1.62-3.72-1.33l-1,.32h-.13a.861.861,0,0,0,.01-.16l5.93-3.51a3.329,3.329,0,0,1,2.16.83c.18.26.29.41.29.41" fill="#0f0e0b"/>
                    <path id="Tracé_1510" data-name="Tracé 1510" d="M167.142,73.822c-.29.33-.59.66-.91.99l-1.44-1.39c.13-.13.25-.26.37-.4.69.26,1.35.53,1.98.8" fill="#0f0e0b"/>
                    <path id="Tracé_1511" data-name="Tracé 1511" d="M166.742,169.632c0,.78-.05,1.48-.1,2.09-6.31,3.09-17.87,1.93-23.72.87-.2-2.4-1.21-14.52-1.66-19.93a26.52,26.52,0,0,0,3.39-1.95l1.64,11.56,2.95-1.17c4.65-1.84,10.92-3.45,14.37-.65,2.51,2.03,3.13,6.07,3.13,9.18" fill="#c38a5d"/>
                    <path id="Tracé_1512" data-name="Tracé 1512" d="M165.322,25.4l-.01.01c-.01,0-.01-.01-.02-.02.01.01.02.02.03.01" fill="#0f0e0b"/>
                    <path id="Tracé_1513" data-name="Tracé 1513" d="M161.572,24.062c.84-.29,2.73.61,3.72,1.33a18.436,18.436,0,0,0-4.72-1.01Z" fill="#0f0e0b"/>
                    <path id="Tracé_1514" data-name="Tracé 1514" d="M160.572,24.382l-.13.05v-.05Z" fill="#0f0e0b"/>
                    <path id="Tracé_1515" data-name="Tracé 1515" d="M160.032,20.132a15.261,15.261,0,0,1,.42,4.09l-.23.13c-.19,0-.09,0,.22.03v.05l-1.73.56-.27-2a12.779,12.779,0,0,0-.34-2.33Z" fill="#0f0e0b"/>
                    <path id="Tracé_1516" data-name="Tracé 1516" d="M160.452,24.222a.861.861,0,0,1-.01.16c-.31-.03-.41-.03-.22-.03Z" fill="#0f0e0b"/>
                    <path id="Tracé_1517" data-name="Tracé 1517" d="M160.452,107.592l-1.29.62a4.74,4.74,0,0,1,1.29-.62" fill="#0f0e0b"/>
                    <path id="Tracé_1518" data-name="Tracé 1518" d="M158.712,24.992l1.73-.56a9.292,9.292,0,0,1-1.91,5.46c-1.9,2.34-5.07,3.39-9.42,3.11l-1.4-.52a12.771,12.771,0,0,0,9.26-3.84,8.276,8.276,0,0,0,1.47-5.65Z" fill="#0f0e0b"/>
                    <path id="Tracé_1519" data-name="Tracé 1519" d="M159.322,122.552l.36,1.97c-.11.02-.98.18-2.26.39l-.16-1.81,1.07-.37c.61-.11.97-.18.99-.18" fill="#0f0e0b"/>
                    <path id="Tracé_1520" data-name="Tracé 1520" d="M158.762,108.4l.38-.18a8.575,8.575,0,0,0-.96.72c-.39.08-.78.15-1.17.23a7.659,7.659,0,0,1,1.75-.77" fill="#0f0e0b"/>
                    <path id="Tracé_1521" data-name="Tracé 1521" d="M158.332,122.732l-1.07.37.16,1.81c-2.6.43-6.87,1.09-9.8,1.29.23-.96.34-1.66.38-1.92l.06-.12c3.34-.27,8.2-1.08,10.27-1.43" fill="#0f0e0b"/>
                    <path id="Tracé_1522" data-name="Tracé 1522" d="M157.012,109.172c.39-.08.78-.15,1.17-.23-4.08,3.49-8.65,12.22-10.12,15.22-.71.06-1.36.09-1.89.09l-.19-.03c.04-.23.06-.37.06-.38l.02-.16.07-.15c.24-.47,5.19-11.06,10.88-14.36" fill="#0f0e0b"/>
                    <path id="Tracé_1523" data-name="Tracé 1523" d="M157.012,109.172c-5.69,3.3-10.64,13.89-10.88,14.36l-.07.15-.02.16c0,.01-.02.15-.06.38-.3,1.73-1.83,8.91-6.83,11.64-3.04,1.66-6.89,1.4-11.46-.77-3.88-1.84-6.26-4.51-7.08-7.92-1.86-7.73,5.08-17.91,6.49-19.86a52.918,52.918,0,0,0,11.38,2.58c-4.21,3.65-6.05,11.25-6.16,11.66l-.24,2.29c.03-.1,4.36-10.34,8.73-13.74a64.478,64.478,0,0,0,16.2-.93" fill="#b60011"/>
                    <path id="Tracé_1524" data-name="Tracé 1524" d="M148.4,144.962l-1.08,2.78a6.3,6.3,0,0,1-2.67,2.97l-.09-.6-.2-1.44,1.14-.89a13.367,13.367,0,0,0,1.97-2.08c.01,0,.01,0,.02-.01a5.824,5.824,0,0,0,.91-.73" fill="#0f0e0b"/>
                    <path id="Tracé_1525" data-name="Tracé 1525" d="M148.062,124.162l-.06.12c-.04.26-.15.96-.38,1.92-.54.03-1.02.05-1.45.05v-2c.53,0,1.18-.03,1.89-.09" fill="#0f0e0b"/>
                    <path id="Tracé_1526" data-name="Tracé 1526" d="M147.622,126.2c-.74,3.06-2.71,8.79-7.51,11.41-3.63,1.99-8.1,1.75-13.27-.71-4.46-2.12-7.21-5.23-8.18-9.27a15.675,15.675,0,0,1-.32-4.97c.29.07.48.11.55.13l.42-1.95c-.02-.01-.26-.06-.69-.17,1.35-7.21,6.23-13.65,6.55-14.07.64.25,1.29.49,1.93.71-1.41,1.95-8.35,12.13-6.49,19.86.82,3.41,3.2,6.08,7.08,7.92,4.57,2.17,8.42,2.43,11.46.77,5-2.73,6.53-9.91,6.83-11.64l.19.03v2c.43,0,.91-.02,1.45-.05" fill="#0f0e0b"/>
                    <path id="Tracé_1527" data-name="Tracé 1527" d="M147.472,145.7a13.367,13.367,0,0,1-1.97,2.08l-1.14.89.2,1.44.09.6a26.52,26.52,0,0,1-3.39,1.95c-.13-1.6-.22-2.62-.22-2.62l-1.37.74c2.98-1.72,6.25-3.93,7.8-5.08" fill="#0f0e0b"/>
                    <path id="Tracé_1528" data-name="Tracé 1528" d="M140.272,108.672l1.62.72a6.068,6.068,0,0,0-1.08.71c-.77-.05-1.55-.12-2.33-.21a8.218,8.218,0,0,1,1.79-1.22" fill="#0f0e0b"/>
                    <path id="Tracé_1529" data-name="Tracé 1529" d="M141.042,150.042s.09,1.02.22,2.62a52.054,52.054,0,0,1-5.31,2.19l-.66-1.89a27,27,0,0,0,4.22-2.09c.06-.03.11-.06.16-.09Z" fill="#0f0e0b"/>
                    <path id="Tracé_1530" data-name="Tracé 1530" d="M140.292,108.212l-.02.46a8.218,8.218,0,0,0-1.79,1.22,52.918,52.918,0,0,1-11.38-2.58q.225-.315.24-.33l-2.16-.39-.01.01a51.843,51.843,0,0,1-10.73-5.74c.27-.56.56-1.12.85-1.67l.08-.11a51.541,51.541,0,0,0,24.92,9.13" fill="#0f0e0b"/>
                    <path id="Tracé_1531" data-name="Tracé 1531" d="M137.682,151.852l1.83-.98a27,27,0,0,1-4.22,2.09l.66,1.89.7,2.68a18.929,18.929,0,0,1-9-.18c-3.37,3.67-8.5,5.75-11.41,6.68.38,3.31,2.11,18.15,2.11,18.15l-1.62.77c-9.68,4.61-24.19,1.61-24.8,1.48l-1.63-.35-.31-1.63a24.8,24.8,0,0,1-.45-4.57,15.158,15.158,0,0,1,2.94-9.42,14.009,14.009,0,0,1,2.88-2.79c-7.23.24-14.88-2.5-17.76-3.67a11.624,11.624,0,0,1-3.13,1.17l-.36-1.52a4.949,4.949,0,0,0,.58-.12l-.48-1.93c-2.92.73-6.74-.18-10.06-1.31l1.15.16c3.28.46,8.7.42,10.46-1.13l1.21-1.05,1.47.66c4.63,2.08,17.88,6.45,23.57,1.65l1.1-.92-.05,1.51,2.82.69-.07-2.68.73,7.36.24,2.5-2.5.24c-.04.01-5.07.54-7.83,4.23a10.352,10.352,0,0,0-1.91,6.4c0,.6.13,1.29.2,1.94,3.6.55,11.93,1.41,18.21-.8-.36-3.1-1.92-16.55-1.92-16.55l-.05-.42.25,1.7,1.42-3.25-.1-.66.4-.09c2.37-.55,9.12-2.82,11.83-6.72l1.13-1.62,1.84.71c.06.03,5.48,2.1,9.93-.3" fill="#0f0e0b"/>
                    <path id="Tracé_1532" data-name="Tracé 1532" d="M131.152,83.962c1.9.95,8.07,4.29,7.82,7.36-.09,1.21-1.04,2.1-2.81,2.66l-.6-1.91c1.02-.32,1.4-.68,1.42-.91.09-1.16-5.29-5.66-8.54-7.29Z" fill="#0f0e0b"/>
                    <path id="Tracé_1533" data-name="Tracé 1533" d="M138.482,109.892c.78.09,1.56.16,2.33.21-4.37,3.4-8.7,13.64-8.73,13.74l.24-2.29c.11-.41,1.95-8.01,6.16-11.66" fill="#0f0e0b"/>
                    <path id="Tracé_1534" data-name="Tracé 1534" d="M128.832,143.132l-1.18,2.05c-4.17,5.77-8.17,8.51-11.87,8.13a7.432,7.432,0,0,1-4.55-2.34l-.28-1.88-2.23-2.44.01-.15a8.543,8.543,0,0,0,1.34.1h.65l.27.59c.01.04,1.76,3.81,5.01,4.13,2.89.29,9.16-3.11,12.83-8.19" fill="#0f0e0b"/>
                    <path id="Tracé_1535" data-name="Tracé 1535" d="M125.182,106.592l2.16.39q-.015.015-.24.33c-.64-.22-1.29-.46-1.93-.71Z" fill="#0f0e0b"/>
                    <path id="Tracé_1536" data-name="Tracé 1536" d="M117.452,93.272l1.88-.6a48.919,48.919,0,0,0-4.04,6.52l-1.06,1.53c.07.05.14.1.21.14-1.79,3.65-3.12,7.31-2.54,8.76l-.61-1.19c-1.87-4.69,5.33-14.11,6.16-15.16" fill="#0f0e0b"/>
                    <path id="Tracé_1537" data-name="Tracé 1537" d="M119.312,120.842l-.42,1.95c-.07-.02-.26-.06-.55-.13a19.049,19.049,0,0,1,.28-1.99c.43.11.67.16.69.17" fill="#0f0e0b"/>
                    <path id="Tracé_1538" data-name="Tracé 1538" d="M118.622,120.672a19.049,19.049,0,0,0-.28,1.99c-3.52-.82-21.82-5.67-24.6-17.04-1.67-6.82,2.6-14.5,12.69-22.82a67.585,67.585,0,0,1,9.26-6.45c.6.68.99,1.05,1.01,1.07l.32.47a64.656,64.656,0,0,0-9.32,6.45c-9.45,7.79-13.49,14.79-12.02,20.8,2.43,9.95,19.3,14.63,22.94,15.53" fill="#0f0e0b"/>
                    <path id="Tracé_1539" data-name="Tracé 1539" d="M118.062,75.962l-1.36,1.46c-.02-.02-.41-.39-1.01-1.07.6-.35,1.19-.68,1.79-.99.35.38.57.59.58.6" fill="#0f0e0b"/>
                    <path id="Tracé_1540" data-name="Tracé 1540" d="M114.232,100.722l1.06-1.53c-.29.55-.58,1.11-.85,1.67-.07-.04-.14-.09-.21-.14" fill="#0f0e0b"/>
                    <path id="Tracé_1541" data-name="Tracé 1541" d="M112.552,159.872l.1.66-1.42,3.25-.25-1.7-.21-1.8Z" fill="#0f0e0b"/>
                    <path id="Tracé_1542" data-name="Tracé 1542" d="M111.232,150.972l1.32,8.9-1.78.41.21,1.8-1.99-13.59.44.03a11.259,11.259,0,0,0,1.8,2.45" fill="#0f0e0b"/>
                    <path id="Tracé_1543" data-name="Tracé 1543" d="M111.032,162.5s1.56,13.45,1.92,16.55c-6.28,2.21-14.61,1.35-18.21.8-.07-.65-.2-1.34-.2-1.94a10.352,10.352,0,0,1,1.91-6.4c2.76-3.69,7.79-4.22,7.83-4.23l2.5-.24-.24-2.5-.73-7.36-.27-9.5a12.449,12.449,0,0,0,3.45.81l1.99,13.59Z" fill="#e5b992"/>
                    <path id="Tracé_1544" data-name="Tracé 1544" d="M110.722,10.322l1.17,1.62-.02.02a1.472,1.472,0,0,0-.12.1c-.19.13-.37.27-.55.41l-1.46,1.15s-.54-.37-1.37-.95a12.475,12.475,0,0,1,2.35-2.35" fill="#0f0e0b"/>
                    <path id="Tracé_1545" data-name="Tracé 1545" d="M111.2,12.472c.18-.14.36-.28.55-.41-.87.77-5.6,5.16-4.93,8.84l-.37-1.43a7.7,7.7,0,0,1-.08-2.13l1.25-.84-.15-1.58s-.21.13-.59.37a10.309,10.309,0,0,1,1.49-2.62c.83.58,1.37.95,1.37.95Z" fill="#0f0e0b"/>
                    <path id="Tracé_1546" data-name="Tracé 1546" d="M110.952,149.092l.28,1.88a11.259,11.259,0,0,1-1.8-2.45l-.44-.03-.27-1.84Z" fill="#0f0e0b"/>
                    <path id="Tracé_1547" data-name="Tracé 1547" d="M108.722,146.652l.27,1.84a12.449,12.449,0,0,1-3.45-.81l-.05-1.77-2-.06-.03.82a19.5,19.5,0,0,1-6.74-7.22l-.66-1.73c.04.08,5.81,7.84,12.67,8.78Z" fill="#0f0e0b"/>
                    <path id="Tracé_1548" data-name="Tracé 1548" d="M107.472,14.922l.15,1.58-1.25.84a7.9,7.9,0,0,1,.51-2.05c.38-.24.59-.37.59-.37" fill="#0f0e0b"/>
                    <path id="Tracé_1549" data-name="Tracé 1549" d="M108.372,12.672a10.309,10.309,0,0,0-1.49,2.62c-2.78,1.74-14.49,9.09-15.59,9.83-.53-.53-1.94-1.94-3.07-3.06,1.59-1.98,9.92-12.4,12.03-15.04,1.8,1.26,5.95,4.14,8.12,5.65" fill="#b8b5b5"/>
                    <path id="Tracé_1550" data-name="Tracé 1550" d="M106.882,15.292a7.9,7.9,0,0,0-.51,2.05L91.042,27.7l-4.39-4.39.58-.02.73-.9s.09-.12.26-.33c1.13,1.12,2.54,2.53,3.07,3.06,1.1-.74,12.81-8.09,15.59-9.83" fill="#0f0e0b"/>
                    <path id="Tracé_1551" data-name="Tracé 1551" d="M105.812,157.182l.07,2.68-2.82-.69.05-1.51,2.53-2.13Z" fill="#0f0e0b"/>
                    <path id="Tracé_1552" data-name="Tracé 1552" d="M105.812,157.182l-.17-1.65-2.53,2.13.35-10.99a13.81,13.81,0,0,0,2.08,1.01Z" fill="#0f0e0b"/>
                    <path id="Tracé_1553" data-name="Tracé 1553" d="M105.492,145.912l.05,1.77a13.81,13.81,0,0,1-2.08-1.01l.03-.82Z" fill="#0f0e0b"/>
                    <path id="Tracé_1554" data-name="Tracé 1554" d="M88.222,22.062c-.17.21-.26.33-.26.33l-.73.9-.58.02-1.35-1.35,1.41-1.41s.68.67,1.51,1.51" fill="#0f0e0b"/>
                    <path id="Tracé_1555" data-name="Tracé 1555" d="M74.212,159.6l.48,1.93a4.949,4.949,0,0,1-.58.12c-3.24.55-8.19-.54-11.88-1.59l-.42-2.1,2.34.33c3.32,1.13,7.14,2.04,10.06,1.31" fill="#0f0e0b"/>
                    <path id="Tracé_1556" data-name="Tracé 1556" d="M73.282,168.552a5.817,5.817,0,0,1,1.79,3.12c-3.18.42-11.22,1.49-14.44,1.92-.34-2.47-1.43-10.32-2.04-14.66.88.3,2.16.71,3.64,1.13l1.62,8.12,2.46-.51c3.15-.65,5.49-.36,6.97.88" fill="#c38a5d"/>
                    <path id="Tracé_1557" data-name="Tracé 1557" d="M64.152,158.292l-2.34-.33.42,2.1c-1.48-.42-2.76-.83-3.64-1.13-.21-1.53-.36-2.63-.4-2.91,1.35.5,3.52,1.44,5.96,2.27" fill="#0f0e0b"/>
                    <path id="Tracé_1558" data-name="Tracé 1558" d="M58.192,156.022c.04.28.19,1.38.4,2.91-.71-.24-1.16-.41-1.25-.44l.8-2.49c.02.01.03.01.05.02" fill="#0f0e0b"/>
                    <path id="Tracé_1559" data-name="Tracé 1559" d="M48.192,148.692l-2.01,1.68a21.15,21.15,0,0,1-4.71,2.72l-1.7-1.4-.44,1.92a7.563,7.563,0,0,1-2.4-.15c.13-.42.2-.65.2-.65l-2.41-.72a8.418,8.418,0,0,1-1.63-.74.035.035,0,0,1-.02-.01,7.354,7.354,0,0,1-1.29-1.99l-.85-2.07c.25.28,3.65,3.46,5.8,4.08s8.19-.34,11.46-2.67" fill="#0f0e0b"/>
                    <path id="Tracé_1560" data-name="Tracé 1560" d="M46.252,170.5a5.866,5.866,0,0,1,.77,3.18,17.3,17.3,0,0,1-1.07,5.44c-3.18-1.34-12.06-5.09-14.92-6.3.93-3.02,4.96-16.27,5.9-19.36a7.563,7.563,0,0,0,2.4.15l-3.32,14.62,3.22-.08c3.61-.09,5.97.7,7.02,2.35" fill="#e5b992"/>
                    <path id="Tracé_1561" data-name="Tracé 1561" d="M39.772,151.692l1.7,1.4a7.958,7.958,0,0,1-2.14.52Z" fill="#0f0e0b"/>
                    <path id="Tracé_1562" data-name="Tracé 1562" d="M34.722,152.092l2.41.72s-.07.23-.2.65a6.163,6.163,0,0,1-.8-.19,6.568,6.568,0,0,1-3.04-1.92,8.418,8.418,0,0,0,1.63.74" fill="#0f0e0b"/>
                  </g>
                </g>
              </g>
            </g>
            <path id="Tracé_1563" data-name="Tracé 1563" d="M143.454,55.861a13.967,13.967,0,1,1-13.967-13.967,13.967,13.967,0,0,1,13.967,13.967" fill="#2c7ec3"/>
            <path id="Tracé_1564" data-name="Tracé 1564" d="M139.345,56.778a10.314,10.314,0,1,1-10.314-10.314,10.314,10.314,0,0,1,10.314,10.314" fill="#0f0e0b"/>
            <path id="Tracé_1565" data-name="Tracé 1565" d="M140.734,53.282a5.8,5.8,0,1,1-5.8-5.8,5.8,5.8,0,0,1,5.8,5.8" fill="#fff"/>
            <path id="Tracé_1566" data-name="Tracé 1566" d="M165.28,59.373c0,5.222-3.752,9.454-8.38,9.454s-8.381-4.232-8.381-9.454,3.752-9.454,8.381-9.454,8.38,4.232,8.38,9.454" fill="#2c7ec3"/>
            <path id="Tracé_1567" data-name="Tracé 1567" d="M162.815,59.994c0,3.855-2.772,6.981-6.189,6.981s-6.188-3.126-6.188-6.981,2.77-6.982,6.188-6.982,6.189,3.125,6.189,6.982" fill="#0f0e0b"/>
            <path id="Tracé_1568" data-name="Tracé 1568" d="M163.648,57.628a3.506,3.506,0,1,1-3.482-3.928,3.725,3.725,0,0,1,3.482,3.928" fill="#fff"/>
            <g id="Groupe_366" data-name="Groupe 366" opacity="0.2">
              <g id="Groupe_365" data-name="Groupe 365">
                <g id="Groupe_364" data-name="Groupe 364" clip-path="url(#clip-path-5)">
                  <path id="Tracé_1569" data-name="Tracé 1569" d="M110.186,150.535l-2.592,2.593,1.728,19.013s-9.938,4.753-9.506,10.8l-8.211-2.593s1.729-12.964,11.668-14.259l2.6-6.229-1.309-13.648,4.149.438Z" fill="#0f0e0b"/>
                </g>
              </g>
            </g>
            <g id="Groupe_369" data-name="Groupe 369" opacity="0.2">
              <g id="Groupe_368" data-name="Groupe 368">
                <g id="Groupe_367" data-name="Groupe 367" clip-path="url(#clip-path-6)">
                  <path id="Tracé_1570" data-name="Tracé 1570" d="M161.608,173.87s-6.913-6.482-15.556-6.482L145.62,151.4l-1.063-1.292-6.876,1.743L140,175.6l14.691.431Z" fill="#0f0e0b"/>
                </g>
              </g>
            </g>
            <g id="Groupe_372" data-name="Groupe 372" opacity="0.2">
              <g id="Groupe_371" data-name="Groupe 371">
                <g id="Groupe_370" data-name="Groupe 370" clip-path="url(#clip-path-7)">
                  <path id="Tracé_1571" data-name="Tracé 1571" d="M63.95,160.042l7.346,12.1L60.061,176.03l-3.025-15.988,1.1-4.038Z" fill="#0f0e0b"/>
                </g>
              </g>
            </g>
            <g id="Groupe_375" data-name="Groupe 375" opacity="0.2">
              <g id="Groupe_374" data-name="Groupe 374">
                <g id="Groupe_373" data-name="Groupe 373" clip-path="url(#clip-path-8)">
                  <path id="Tracé_1572" data-name="Tracé 1572" d="M41.912,154.425l-5.185,16.853,7.778,8.642-16.853-6.05,7.072-21.783,4.164.609Z" fill="#0f0e0b"/>
                </g>
              </g>
            </g>
            <g id="Groupe_378" data-name="Groupe 378" opacity="0.2">
              <g id="Groupe_377" data-name="Groupe 377">
                <g id="Groupe_376" data-name="Groupe 376" clip-path="url(#clip-path-9)">
                  <path id="Tracé_1573" data-name="Tracé 1573" d="M127.9,136.708s-3.888-16.854,5.618-28.088l-6.182-1.637s-19.746,18.058.564,29.725" fill="#0f0e0b"/>
                </g>
              </g>
            </g>
            <g id="Groupe_381" data-name="Groupe 381" opacity="0.2">
              <g id="Groupe_380" data-name="Groupe 380">
                <g id="Groupe_379" data-name="Groupe 379" clip-path="url(#clip-path-10)">
                  <path id="Tracé_1574" data-name="Tracé 1574" d="M144.755,70.162s-42.346,16.852-38.025,35.865,9.938,14.261,9.938,14.261-15.125,4.753-26.359-15.557c0,0-3.026-29.816,54.446-34.569" fill="#0f0e0b"/>
                </g>
              </g>
            </g>
            <g id="Groupe_384" data-name="Groupe 384" opacity="0.2">
              <g id="Groupe_383" data-name="Groupe 383">
                <g id="Groupe_382" data-name="Groupe 382" clip-path="url(#clip-path-11)">
                  <path id="Tracé_1575" data-name="Tracé 1575" d="M119.308,120.844l6.866-13.52-3.456-2.592-6.05,15.556s-5.185,13.827,12.532,17.285c0,0-12.438-9.259-9.892-16.729" fill="#0f0e0b"/>
                </g>
              </g>
            </g>
            <g id="Groupe_387" data-name="Groupe 387" opacity="0.2">
              <g id="Groupe_386" data-name="Groupe 386">
                <g id="Groupe_385" data-name="Groupe 385" clip-path="url(#clip-path-12)">
                  <path id="Tracé_1576" data-name="Tracé 1576" d="M95.926,10.531V23.494L90.74,26.087l-3.889-8.642" fill="#0f0e0b"/>
                </g>
              </g>
            </g>
            <g id="Groupe_390" data-name="Groupe 390" opacity="0.2">
              <g id="Groupe_389" data-name="Groupe 389">
                <g id="Groupe_388" data-name="Groupe 388" clip-path="url(#clip-path-13)">
                  <path id="Tracé_1577" data-name="Tracé 1577" d="M166.794,21.766l3.889-9.506-3.457-1.3L164.2,18.742" fill="#0f0e0b"/>
                </g>
              </g>
            </g>
            <g id="Groupe_393" data-name="Groupe 393" opacity="0.2">
              <g id="Groupe_392" data-name="Groupe 392">
                <g id="Groupe_391" data-name="Groupe 391" clip-path="url(#clip-path-14)">
                  <path id="Tracé_1578" data-name="Tracé 1578" d="M128.767,7.938S103.7,19.6,110.618,26.519c0,0-15.556-3.889-19.013,3.025,0,0-11.668-.432-5.618,10.371,0,0-25.062,5.617-15.988,22.47,0,0-20.31,9.506-9.938,23.334,0,0-17.285-16.42-28.952.864,0,0-13.828,15.989.864,25.5,0,0-7.346,27.224,13.4,29.384,0,0,19.878,18.148,35,6.481,0,0,12.532,13.828,23.335,9.939,0,0-7.779,10.8-24.2,1.3,0,0-11.236,1.727-19.013-1.3,0,0-9.938,9.507-19.445-2.16l-12.964-6.05-5.617-3.457-10.8-6.05-1.728-9.506-3.458-6.482v-10.8l-4.321-3.889,2.593-7.778L9.071,98.25l-1.3-4.321L12.1,86.583l6.914-3.025,3.889-12.1,6.481-2.593,9.075-1.728H43.64l1.729-5.617,6.914-7.347,6.481-3.024L57.9,44.236l1.728-5.618,4.322-2.16L66.11,34.3l4.322-7.778,8.21-3.025,10.8-3.024,6.482,3.024L106.3,16.581s6.05-12.532,22.47-8.643" fill="#0f0e0b"/>
                </g>
              </g>
            </g>
          </g>
        </g>
      </g>
    </g>
  </g>
</svg>
